<?xml version="1.0" encoding="utf-8" ?>
<svg xmlns="http://www.w3.org/2000/svg" xmlns:xlink="http://www.w3.org/1999/xlink" width="4267" height="4576">
	<clipPath id="cl_a">
		<rect x="0.0033226013" y="0.001449585" width="4267" height="4576"/>
	</clipPath>
	<g clip-path="url(#cl_a)">
		<path fill="#0202FE" transform="matrix(4.34816 0 0 4.34783 -42.668 -85.332)" d="M957.937 557.39C972.278 571.411 983.433 597.79 983.547 617.847C983.592 625.671 980.719 633.674 975.108 639.234C969.9 644.393 964.059 645.251 957.144 645.998L957.001 645.364L957.518 644.782Q960.187 644.087 962.704 642.957Q965.221 641.828 967.515 640.297C983.51 629.582 971.093 590.559 965.553 576.699C963.436 571.402 960.156 566.601 958.123 561.278C957.579 559.852 957.653 558.868 957.937 557.39Z"/>
		<path fill="#0202FE" transform="matrix(4.34816 0 0 4.34783 -42.668 -85.332)" d="M680.633 377.734C683.929 382.749 687.815 400.241 688.481 406.599C688.946 411.047 688.573 415.45 688.806 419.88C689.888 424.852 689.208 430.176 688.875 435.212C687.715 452.775 685.598 469.887 675.81 485.124C674.27 487.521 672.443 489.325 670.322 491.181C667.121 502.764 655.587 511.825 645.512 517.495C638.624 521.371 627.691 526.446 619.604 524.321C617.007 523.639 614.484 522.161 613.174 519.751C612.791 519.048 612.472 518.318 612.137 517.592C612.059 517.424 611.978 517.257 611.898 517.089C615.387 514.757 621.188 515.318 625.305 515.261C632.771 509.822 641.169 508.252 648.566 501.968C657.07 494.743 662.82 487.416 668.398 477.817C679.715 458.342 681.681 445.746 683.532 423.546C682.539 416.258 683.881 408.26 683.366 400.824C682.782 392.386 678.147 386.603 680.633 377.734Z"/>
		<path fill="#0305A8" transform="matrix(4.34816 0 0 4.34783 -42.668 -85.332)" d="M680.633 377.734C683.929 382.749 687.815 400.241 688.481 406.599C688.946 411.047 688.573 415.45 688.806 419.88C688.689 419.679 688.565 419.482 688.456 419.277C685.316 413.391 689.254 405.774 686.109 399.425C685.882 398.966 685.675 398.498 685.458 398.034C682.43 403.89 686.482 418.772 683.532 423.546C682.539 416.258 683.881 408.26 683.366 400.824C682.782 392.386 678.147 386.603 680.633 377.734Z"/>
		<path transform="matrix(4.34816 0 0 4.34783 -42.668 -85.332)" d="M779.545 485.684C791.502 484.831 809.366 499.253 825.254 499.804C836.459 500.193 847.958 497.265 858.54 493.796C865.635 491.47 873.856 487.233 881.406 487.618C882.628 488.489 884.049 489.532 884.754 490.906C885.368 492.105 885.382 493.067 884.969 494.331C883.18 499.812 871.834 503.425 866.977 505.716C867.008 505.889 867.042 506.061 867.071 506.234C868.317 513.669 873.307 520.661 873.192 528.264C873.158 530.503 872.305 532.24 870.697 533.778C868.973 535.427 866.937 536.515 864.505 536.288C857.885 535.669 852.905 519.794 849.35 514.483C848.765 513.73 848.148 512.853 847.31 512.356C844.698 510.806 839.789 512.322 836.971 512.809C837.097 520.618 838.041 536.789 832.238 542.395C830.712 543.869 828.734 544.589 826.62 544.498C824.731 544.417 823.142 543.713 821.941 542.231C817.281 536.481 820.293 520.152 820.824 512.838C816.715 512.02 812.709 510.995 808.672 509.877C808.443 515.766 807.605 521.024 804.265 526.018C801.397 530.305 795.325 536.18 790.161 536.999C788.249 537.302 785.761 537.347 784.187 536.053C782.43 534.609 781.381 531.731 781.248 529.514C780.901 523.757 786.639 520.514 789.81 516.526C792.981 512.538 792.02 508.255 791.532 503.547C787.827 500.798 783.251 499.247 779.799 496.218C778.156 494.777 777.044 493.274 777.004 491.03C776.968 488.944 778.179 487.123 779.545 485.684Z"/>
		<path transform="matrix(4.34816 0 0 4.34783 -42.668 -85.332)" d="M875.112 369.23C875.957 369.846 876.74 370.529 877.812 370.642C878.067 370.669 878.326 370.634 878.579 370.671C881.269 371.062 883.925 371.725 886.682 371.46C888.074 371.326 889.431 371.449 890.822 371.548C898.41 370.737 919.691 371.622 925.653 376.763C926.366 377.378 926.32 378.018 926.425 378.942C926.493 379.539 926.436 380.224 926.421 380.819C928.625 382.55 931.694 380.631 934.069 382.322C937.052 384.444 936.571 391.586 937.569 394.812C938.143 396.669 939.12 398.319 940.131 399.965C934.027 401.07 927.39 403.2 921.278 403.507C916.304 403.757 911.456 402.656 906.517 402.319C903.315 402.1 900.092 402.214 896.883 402.071C894.177 401.858 871.337 400.989 870.922 400.707C870.118 400.16 870.219 399.096 869.049 398.41C866.862 398.99 864.617 401.251 862.831 402.644C859.717 402.158 856.578 401.183 853.52 400.398C850.438 401.113 847.618 402.895 844.487 403.202C843.495 402.732 842.712 402.253 841.589 402.27C841.584 403.24 841.562 403.748 841.062 404.59C837.007 406.07 831.351 406.558 827.032 406.805C826.588 406.164 826.176 405.538 825.797 404.855C825.691 404.663 825.589 404.469 825.485 404.276C820.677 406.088 818.985 410.789 813.08 411.418C810.594 411.683 806.861 411.681 804.867 409.905C803.229 408.447 802.685 406.097 802.548 403.993C802.213 398.87 804.221 390.375 807.998 386.796C809.541 385.335 811.078 385.571 813.065 385.545C814.746 383.129 813.348 380.208 815.332 377.754C818.36 374.009 826.107 376.263 830.291 375.5C833.969 374.829 837.153 372.199 840.966 371.545C846.781 370.548 852.966 370.972 858.858 370.655C864.28 370.364 869.681 369.567 875.112 369.23Z"/>
		<path fill="#0202FE" transform="matrix(4.34816 0 0 4.34783 -42.668 -85.332)" d="M207.117 868.708C219.146 867.591 231.109 868.965 243.111 868.313C272.814 866.698 308.686 848.495 331.551 830.01C336.805 825.763 342.535 820.997 346.395 815.409C351.956 807.359 355.093 791.214 359.105 787.052C359.341 786.806 359.589 786.571 359.832 786.331C361.049 792.626 361.81 799.458 360.798 805.834C360.08 810.352 356.022 816.705 357.175 820.719C355.918 822.91 353.641 824.281 352.085 826.263C351.872 828.372 351.795 830.697 351.277 832.751C350.04 837.654 343.649 850.085 340.687 854.355C340.561 854.536 340.445 854.724 340.315 854.904C338.867 856.905 336.274 857.286 334.519 858.886C331.688 861.468 329.738 865.304 326.962 868.083C321.405 873.644 314.966 875.062 308.099 878.212C305.416 879.443 302.687 881.272 299.894 882.126L298.945 880.456C296.432 880.852 297.731 881.771 294.851 880.263C289.52 881.77 285.564 886.381 280.238 888.043C276.489 889.212 272.248 887.297 268.906 889.55C263.514 893.184 258.01 887.94 252.532 891.348C251.629 891.91 251.122 892.089 250.028 892.066C249.377 891.55 248.764 891.029 248.164 890.455C247.354 890.934 246.951 891.279 246.31 891.937C239.516 891.41 232.836 890.89 226.115 889.74C224.038 906.061 225.194 922.064 224.144 938.358C223.336 950.911 220.892 963.41 218.585 975.753C217.535 981.365 216.789 987.386 214.93 992.791C214.044 995.367 212.564 998.673 210.262 1000.3C208.606 1001.46 206.564 1001.53 204.651 1001.06Q203.694 1000.83 202.783 1000.46Q201.871 1000.09 201.027 999.584Q200.183 999.079 199.424 998.451Q198.666 997.824 198.012 997.089C197.745 996.448 197.672 996.368 197.571 995.57C196.808 989.529 205.186 953.878 206.208 942.968Q208.068 921.091 207.41 899.144C207.154 889.054 206.267 878.786 207.117 868.708Z"/>
		<path fill="#0202FE" transform="matrix(4.34816 0 0 4.34783 -42.668 -85.332)" d="M343.751 695.743C353.439 699.72 361.331 709.908 369.436 716.48C381.518 726.278 396.244 734.963 410.69 740.758C429.348 748.243 448.08 749.36 466.719 741.335C506.831 724.065 538.423 676.721 556.328 638.737Q560.556 629.896 563.896 620.682C565.3 616.822 566.444 612.577 568.15 608.868C568.829 607.394 569.166 606.904 570.688 606.361C570.4 622.5 565.51 638.185 561.196 653.615C550.687 691.207 538.516 732.271 509.577 760.184C494.316 774.904 475.994 781.049 454.983 780.603C421.782 779.9 387.538 756.964 365.139 733.449C360.73 728.82 351.027 717.041 347.602 711.753C344.996 706.584 344.047 701.471 343.751 695.743Z"/>
		<path fill="#0202FE" transform="matrix(4.34816 0 0 4.34783 -42.668 -85.332)" d="M903.76 245.58C904.745 244.523 905.704 243.425 906.667 242.346C909.93 238.69 916.613 236.419 920.859 233.778C926.181 230.468 931.358 226.851 936.425 223.166C938.831 221.416 941.479 219.687 943.631 217.636C946.731 214.683 949.244 211.124 952.778 208.655C953.823 211.76 954.302 213.81 952.829 216.86C947.659 227.563 929.755 236.849 919.19 242.207C915.609 244.023 911.484 245.645 908.143 247.838C910.46 251.659 912.203 255.859 914.311 259.807C921.445 273.167 928.399 286.758 933.436 301.088C955.668 364.339 953.569 443.603 937.809 508.104C936.375 513.975 933.935 520.182 933.258 526.145C937.135 532.165 941.992 537.476 946.401 543.101C950.177 547.917 953.598 553.053 957.937 557.39C957.653 558.868 957.579 559.852 958.123 561.278C960.156 566.601 963.436 571.402 965.553 576.699C971.093 590.559 983.51 629.582 967.515 640.297Q965.221 641.828 962.704 642.957Q960.187 644.087 957.518 644.782L957.001 645.364L957.144 645.998C955.767 646.28 954.424 646.565 953.019 646.666C951.907 646.211 951.094 646.013 949.901 645.884C937.103 644.491 925.47 620.761 912.879 630.566C909.663 633.071 907.121 636.681 904.504 639.788C897.298 648.346 888.753 654.185 877.025 652.92C872.272 652.407 867.127 650.996 862.816 648.942C859.921 644.908 853.692 641.531 850.105 637.523C843.77 630.445 841.536 620.582 842.099 611.294Q842.15 610.33 842.249 609.37Q842.349 608.41 842.496 607.457Q842.643 606.503 842.838 605.558Q843.032 604.612 843.274 603.678Q843.516 602.744 843.803 601.823Q844.091 600.902 844.425 599.996Q844.759 599.09 845.137 598.203Q845.516 597.315 845.938 596.447Q846.36 595.58 846.825 594.734Q847.291 593.889 847.798 593.068Q848.304 592.246 848.852 591.452Q849.399 590.657 849.985 589.89Q850.571 589.124 851.195 588.388Q851.819 587.651 852.479 586.947Q853.139 586.243 853.833 585.573Q854.527 584.903 855.254 584.268C858.142 581.766 864.856 576.764 868.813 577.398C871.571 577.84 873.257 581.398 874.573 583.56C887.664 580.357 897.576 584.089 909.986 587.131C909.184 568.129 903.925 549.746 902.926 530.797C902.256 518.079 903.156 505.415 903.173 492.699C903.195 477.224 901.942 461.609 901.001 446.166C900.102 431.43 899.804 416.573 896.883 402.071C900.092 402.214 903.315 402.1 906.517 402.319C911.456 402.656 916.304 403.757 921.278 403.507C927.39 403.2 934.027 401.07 940.131 399.965C939.12 398.319 938.143 396.669 937.569 394.812C936.571 391.586 937.052 384.444 934.069 382.322C931.694 380.631 928.625 382.55 926.421 380.819C926.436 380.224 926.493 379.539 926.425 378.942C926.32 378.018 926.366 377.378 925.653 376.763C919.691 371.622 898.41 370.737 890.822 371.548C887.019 344.753 880.395 317.182 869.67 292.246C865.53 282.622 860.243 273.285 855.456 263.958C871.658 258.741 888.378 252.85 903.76 245.58Z"/>
		<path transform="matrix(4.34816 0 0 4.34783 -42.668 -85.332)" d="M874.573 583.56C870.526 590.368 863.126 594.326 858.731 600.867C855.27 606.016 854.321 612.282 855.699 618.308C857.444 625.939 863.561 633.088 870.252 636.968C890.052 648.449 898.346 616.818 914.874 612.971C931.363 609.133 937.373 623.012 949.258 629.96C951.194 631.092 953.797 632.225 956.045 631.326C957.704 630.662 958.86 628.893 959.669 627.381C969.104 609.744 944.82 560.899 933.058 546.094C928.137 539.901 914.873 534.746 913.073 527.267C912.525 524.987 913.004 521.958 914.233 519.962C914.934 518.821 915.999 518.08 917.355 517.937C922.326 517.416 929.383 523.439 933.258 526.145C937.135 532.165 941.992 537.476 946.401 543.101C950.177 547.917 953.598 553.053 957.937 557.39C957.653 558.868 957.579 559.852 958.123 561.278C960.156 566.601 963.436 571.402 965.553 576.699C971.093 590.559 983.51 629.582 967.515 640.297Q965.221 641.828 962.704 642.957Q960.187 644.087 957.518 644.782L957.001 645.364L957.144 645.998C955.767 646.28 954.424 646.565 953.019 646.666C951.907 646.211 951.094 646.013 949.901 645.884C937.103 644.491 925.47 620.761 912.879 630.566C909.663 633.071 907.121 636.681 904.504 639.788C897.298 648.346 888.753 654.185 877.025 652.92C872.272 652.407 867.127 650.996 862.816 648.942C859.921 644.908 853.692 641.531 850.105 637.523C843.77 630.445 841.536 620.582 842.099 611.294Q842.15 610.33 842.249 609.37Q842.349 608.41 842.496 607.457Q842.643 606.503 842.838 605.558Q843.032 604.612 843.274 603.678Q843.516 602.744 843.803 601.823Q844.091 600.902 844.425 599.996Q844.759 599.09 845.137 598.203Q845.516 597.315 845.938 596.447Q846.36 595.58 846.825 594.734Q847.291 593.889 847.798 593.068Q848.304 592.246 848.852 591.452Q849.399 590.657 849.985 589.89Q850.571 589.124 851.195 588.388Q851.819 587.651 852.479 586.947Q853.139 586.243 853.833 585.573Q854.527 584.903 855.254 584.268C858.142 581.766 864.856 576.764 868.813 577.398C871.571 577.84 873.257 581.398 874.573 583.56Z"/>
		<path transform="matrix(4.34816 0 0 4.34783 -42.668 -85.332)" d="M427.806 309.08C431.475 308.718 435.339 308.721 439.018 308.908C455.744 309.76 469.951 315.895 481.144 328.474C494.594 343.592 503.319 364.703 506.119 384.623C507.983 397.888 507.971 411.953 505.47 425.109C503.477 435.593 500.033 445.655 494.421 454.768C480.339 477.64 453.691 493.563 449.818 521.88C445.313 554.825 474.385 571.132 472.471 599.855Q472.407 600.858 472.293 601.856Q472.179 602.855 472.016 603.847Q471.853 604.838 471.64 605.821Q471.428 606.803 471.167 607.773Q470.906 608.744 470.597 609.7Q470.289 610.657 469.933 611.597Q469.577 612.536 469.175 613.458Q468.773 614.379 468.325 615.278Q467.878 616.178 467.386 617.055Q466.895 617.931 466.36 618.782Q465.826 619.634 465.25 620.457Q464.674 621.28 464.058 622.074Q463.441 622.868 462.786 623.63Q462.131 624.392 461.439 625.121Q460.747 625.85 460.02 626.543Q459.293 627.237 458.532 627.893C450.836 634.522 438.088 639.892 427.791 639.08C413.626 638.149 401.429 633.799 390.117 625.17C352 596.092 330.596 535.909 324.626 489.883C318.392 441.825 328.946 391.044 358.875 352.385C375.468 330.952 400.339 312.609 427.806 309.08ZM455.687 583.181C456.703 577.548 431.205 546.46 437.849 515.694C444.452 485.112 482.185 461.106 484.275 444.336C484.148 444.066 484.012 443.799 483.893 443.524C483.464 442.53 483.518 441.901 483.571 440.85C483.744 437.441 481.909 433.436 481 430.13C476.935 415.356 472.807 401.365 462.004 389.859C454.94 382.334 445.771 376.376 435.177 376.153C432.601 376.098 425.561 377.887 424.32 377.637C423.59 377.49 422.681 376.373 421.95 376.272C417.413 375.641 397.93 390.645 394.205 394.26C375.207 412.695 367.074 438.504 366.751 464.485C366.562 479.686 369.018 495.02 371.403 509.986C372.411 516.318 373.197 522.893 374.739 529.114C376.217 535.077 378.407 540.95 380.363 546.775C386.097 563.847 391.815 581.463 404.854 594.535C411.298 600.996 420.234 605.109 429.418 604.996C436.171 604.913 443.72 603.081 448.625 598.186C452.562 594.257 453.668 588.187 455.687 583.181Z"/>
		<path fill="#0202FE" transform="matrix(4.34816 0 0 4.34783 -42.668 -85.332)" d="M455.687 583.181C457.267 584.728 458.048 586.997 458.814 589.031C461.03 594.917 460.002 601.602 457.389 607.193C453.751 614.98 447.203 621.328 439.073 624.232C429.385 627.692 418.878 625.733 409.827 621.352C377.007 605.469 358.385 560.631 347.048 528.074C331.004 482.004 332.23 430.63 353.727 386.454C366.024 361.184 387.217 336.028 414.352 326.711C428.345 321.907 442.845 320.428 456.457 327.191C473.871 335.843 484.561 356.486 490.377 374.144C497.786 396.639 494.84 423.307 484.275 444.336C484.148 444.066 484.012 443.799 483.893 443.524C483.464 442.53 483.518 441.901 483.571 440.85C483.744 437.441 481.909 433.436 481 430.13C476.935 415.356 472.807 401.365 462.004 389.859C454.94 382.334 445.771 376.376 435.177 376.153C432.601 376.098 425.561 377.887 424.32 377.637C423.59 377.49 422.681 376.373 421.95 376.272C417.413 375.641 397.93 390.645 394.205 394.26C375.207 412.695 367.074 438.504 366.751 464.485C366.562 479.686 369.018 495.02 371.403 509.986C372.411 516.318 373.197 522.893 374.739 529.114C376.217 535.077 378.407 540.95 380.363 546.775C386.097 563.847 391.815 581.463 404.854 594.535C411.298 600.996 420.234 605.109 429.418 604.996C436.171 604.913 443.72 603.081 448.625 598.186C452.562 594.257 453.668 588.187 455.687 583.181Z"/>
		<path fill="#0202FE" transform="matrix(4.34816 0 0 4.34783 -42.668 -85.332)" d="M862.816 648.942C867.127 650.996 872.272 652.407 877.025 652.92C888.753 654.185 897.298 648.346 904.504 639.788C907.121 636.681 909.663 633.071 912.879 630.566C925.47 620.761 937.103 644.491 949.901 645.884C951.094 646.013 951.907 646.211 953.019 646.666C945.175 649.289 935.786 653.616 931.986 661.479C930.938 663.646 925.412 675.013 925.719 676.563C925.952 677.74 926.281 679.04 926.116 680.245C925.47 684.942 923.406 689.835 922.391 694.526C920.091 705.143 918.402 716.151 917.031 726.923C914.05 750.35 910.111 773.741 908.203 797.295C907.123 810.627 906.482 824.049 905.596 837.399C905.116 844.639 905.237 851.707 903.638 858.856C901.775 867.179 898.531 874.409 895.689 882.33C892.422 891.434 890.519 899.041 886.3 908.095C883.741 913.585 880.271 918.678 877.833 924.184C877.301 925.386 876.841 925.678 875.766 926.401C875.543 926.552 875.327 926.713 875.105 926.866C874.95 926.972 874.793 927.075 874.637 927.18C873.568 930.052 872.573 932.921 870.801 935.449C867.774 939.768 863.684 943.078 859.875 946.67C850.954 955.085 842.048 964.56 830.63 969.674C827.19 971.215 814.607 976.443 811.441 976.845C808.801 977.179 806.04 976.135 803.396 976.332C801.386 976.481 801.13 977.967 798.98 977.985L797.368 976.763C796.164 977.434 795.028 978.201 793.88 978.96L793.28 978.634L792.744 976.354L791.975 976.212C790.82 977.437 790.802 978.861 790.439 980.485C780.846 979.816 771.63 981.257 762.1 981.116C755.065 981.012 748.825 978.871 741.968 978.217C739.475 977.98 736.967 978.688 734.49 978.462C728.782 977.943 722.329 975.649 716.849 973.962C697.58 968.031 679.753 962.979 659.526 968.315C651.253 970.497 643.213 973.853 636.725 979.546C623.668 991.005 618.423 1007.28 617.461 1024.19C616.916 1033.76 618.902 1045.09 616.605 1054.28C611.92 1057.43 604.621 1054.53 599.486 1055.4C596.991 1055.82 595.631 1057.42 592.84 1057.37C582.102 1057.2 571.254 1055.98 560.574 1056.01C556.007 1056.03 553.162 1058.23 548.415 1056.43C548.261 1056.24 548.11 1056.05 547.953 1055.87C547.295 1055.1 547.59 1055.37 546.771 1054.83L545.83 1056.33C542.809 1057 536.686 1057.31 533.763 1056.24C532.366 1055.72 530.362 1054.29 528.897 1054.35C523.4 1054.55 520.928 1058.12 515.302 1054.46C514.827 1054.15 514.364 1053.82 513.894 1053.5L511.658 1052.01C508.931 1053.56 507.812 1054.17 504.552 1053.34C502.118 1052.71 500.165 1051.5 497.873 1050.62L496.913 1051.65C495.715 1050.83 495.388 1050.3 495.06 1048.86C494.078 1044.55 494.915 1038.96 494.962 1034.52C495.005 1030.43 494.654 1026.48 494.988 1022.38C497.237 994.785 507.827 963.047 523.866 940.385C533.75 926.419 553.754 907.981 569.318 900.456C577.465 896.518 586.438 894.018 595.343 892.535C617.991 888.762 642.119 891.239 664.186 897.245C674.14 899.954 684.023 903.596 694.271 904.996C716.037 907.969 741.218 903.315 761.677 895.629C774.316 890.881 787.188 884.365 797.642 875.779C802.35 871.912 808.903 862.935 813.643 860.914L814.521 860.533Q815.638 860.049 816.78 859.629C816.814 859.436 816.843 859.242 816.883 859.05C818.034 853.482 830.736 840.716 834.504 834.319C837.506 829.223 839.424 823.209 841.694 817.742C845.09 809.561 848.787 801.601 851.527 793.16C857.024 776.225 863.432 742.826 863.522 725.001C862.608 724.684 835.453 724.518 830.467 724.077C829.368 722.376 828.347 720.515 828.145 718.459C828.003 717.002 828.423 715.555 829.417 714.465C834.469 708.923 856.185 712.471 863.843 711.707L864.687 711.619C864.39 706.523 863.93 701.308 864.137 696.209C864.306 692.029 865.103 687.748 864.901 683.574C864.328 671.78 861.474 660.911 862.816 648.942Z"/>
		<path transform="matrix(4.34816 0 0 4.34783 -42.668 -85.332)" d="M864.687 711.619C874.125 711.372 902.499 709.445 909.185 715.44C910.079 716.242 910.712 717.331 910.8 718.55C910.933 720.373 909.634 722.798 908.308 723.996C906.735 725.415 904.313 725.854 902.289 726.1C896.995 726.742 870.578 726.194 864.777 725.297C864.115 725.195 864.072 725.166 863.522 725.001C862.608 724.684 835.453 724.518 830.467 724.077C829.368 722.376 828.347 720.515 828.145 718.459C828.003 717.002 828.423 715.555 829.417 714.465C834.469 708.923 856.185 712.471 863.843 711.707L864.687 711.619Z"/>
		<path transform="matrix(4.34816 0 0 4.34783 -42.668 -85.332)" d="M422.115 34.9913C424.499 35.5888 426.346 36.3348 428.699 35.2855C429.81 34.7897 430.769 34.4423 431.95 34.1441C433.165 34.3488 433.589 34.7985 434.421 35.641C435.19 36.4193 435.839 37.0488 436.78 37.6298C437.106 36.6565 436.934 36.3702 436.753 35.3875C437.081 35.1209 437.285 34.9241 437.644 34.7261C442.585 31.9947 442.168 35.0129 445.112 35.916C446.009 35.0554 446.89 34.2743 447.878 33.5145C453.629 35.5914 454.022 32.6758 459.005 32.4738C459.195 32.6731 459.94 33.476 460.155 33.6001C461.245 34.2297 463.255 32.9623 464.339 32.5104C468.744 30.6733 473.36 31.3379 478.028 30.9168C481.421 30.6107 484.773 29.97 488.173 29.7123C491.98 29.4238 495.827 29.5802 499.616 29.1821C504.174 28.7033 508.702 27.8434 513.281 27.5813C519.388 27.2318 525.551 27.5111 531.669 27.3235C538.112 27.1259 544.539 26.5764 550.983 26.3777C559.356 26.1195 567.501 27.1728 575.922 26.6278C579.451 26.3994 582.091 28.6521 585.244 28.4516C585.552 27.2565 585.255 27.7642 586.121 26.9188C603.07 27.1789 619.494 27.7902 636.28 30.3778C638.829 30.7709 642.436 30.8644 644.757 31.9306C646.496 32.7293 647.731 34.4937 649.407 35.4681L651.134 33.8933C652.75 33.3028 678.68 36.7121 681.784 37.3356C684.705 37.9223 687.532 39.0174 690.324 40.0384C691.055 41.5193 691.763 42.7019 692.83 43.9659C698.687 40.1717 701.805 42.9205 707.854 44.0122L708.627 44.1442L709.305 45.908L709.947 45.8775L710.537 44.6531C715.349 45.3807 720.007 47.0132 724.768 48.0256C727.835 48.6778 732.178 48.7064 734.992 49.9215C736.43 50.5426 738.081 52.9355 739.097 54.1378C740.201 53.5728 739.8 53.8424 740.767 53.0987C740.99 52.9271 741.208 52.7495 741.429 52.5749C746.22 53.0556 750.689 56.7894 755.223 58.3269C760.956 60.2707 767.615 60.0464 773.26 62.0637C775.115 62.7266 774.13 63.8039 775.138 64.5686C776.505 65.606 780.62 66.1367 782.373 66.7576C788.459 68.912 813.279 78.2928 816.427 81.5604C817.759 82.9437 818.54 84.1014 820.493 84.3723C824.19 84.885 842.645 95.1268 846.325 97.3621C848.381 98.6111 852.588 101.084 853.131 103.367L853.138 102.494L853.498 103.184Q851.982 103.164 850.465 103.159C853.737 106.216 858.963 107.667 862.637 110.45Q868.995 115.252 874.965 120.527C879.215 124.335 885.406 132.439 890.26 134.491C890.485 134.586 890.714 134.67 890.936 134.769C896.68 137.336 901.591 143.266 906.112 147.579C925.157 165.746 942.848 183.833 952.778 208.655C949.244 211.124 946.731 214.683 943.631 217.636C941.479 219.687 938.831 221.416 936.425 223.166C931.358 226.851 926.181 230.468 920.859 233.778C916.613 236.419 909.93 238.69 906.667 242.346C905.704 243.425 904.745 244.523 903.76 245.58C888.378 252.85 871.658 258.741 855.456 263.958C851.724 264.66 848.808 267.121 845.177 267.947C837.374 269.722 829.184 269.83 821.332 271.464C820.599 271.617 820.18 271.505 819.727 272.17C819.292 272.808 819.083 273.408 818.835 274.13C816.601 274.489 815.404 272.559 813.234 272.661C807.469 272.932 807.747 277.418 800.179 274.431C798.285 275.468 796.374 276.481 794.516 277.581C793.221 277.039 789.941 275.13 788.671 275.769C787.646 276.285 786.883 277.279 785.759 277.765C782.314 279.255 770.542 280.403 765.845 281.517C765.153 280.665 765.232 280.373 765.059 279.322L764.279 279.368C763.847 280.8 763.935 281.562 762.62 282.346L761.134 282.073C760.569 281.229 760.089 280.402 759.637 279.492C758.26 279.358 757.916 279.236 756.785 280.193C756.148 280.732 755.584 281.585 755.068 282.246L754.138 282.279C752.662 280.772 752.063 280.68 749.929 280.603C743.951 280.388 738.203 282.948 732.407 283.985C727.487 284.866 722.035 283.5 716.638 284.401C715.696 284.559 714.806 284.621 713.855 284.654L711.844 286.209C694.744 287.696 680.324 291.533 668.907 305.29C667.035 307.545 666.101 308.834 666.354 311.83C665.557 312.863 664.738 313.83 663.862 314.797C663.291 320.663 664.273 340.399 667.751 344.417C668.301 345.052 668.993 345.564 669.547 346.184C671.19 348.02 674.4 355.33 674.129 357.823C674.067 358.394 673.652 358.931 673.341 359.391C677.171 365.024 681.576 370.332 680.633 377.734C678.147 386.603 682.782 392.386 683.366 400.824C683.881 408.26 682.539 416.258 683.532 423.546C681.681 445.746 679.715 458.342 668.398 477.817C662.82 487.416 657.07 494.743 648.566 501.968C641.169 508.252 632.771 509.822 625.305 515.261C621.188 515.318 615.387 514.757 611.898 517.089L609.772 517.499L608.495 516.073C605.812 516.8 602.796 519.857 600.054 518.078C599.373 517.636 598.708 516.772 598.152 516.169C597.059 516.11 596.089 516.226 595.008 516.385C588.321 514.136 585.059 508.494 582.1 502.529C579.035 496.349 576.662 497.616 579.033 490.685C579.373 489.693 579.298 489.784 579.09 488.849C577.772 488.041 576.598 487.733 576.361 486.013C576.13 484.342 577.344 482.261 578.011 480.798C577.706 479.891 577.408 479.065 576.994 478.199C575.665 475.428 574.853 461.546 575.604 458.763C575.645 458.612 575.715 458.47 575.771 458.324C575.956 458.44 576.138 458.56 576.325 458.671C577.082 459.122 576.756 459.002 577.557 459.109C577.105 453.767 573.244 452.325 576.017 446.753L575.609 446.238L574.648 446.239L574.626 445.313C574.894 445.177 575.166 445.046 575.432 444.906C576.535 444.323 576.128 444.607 576.975 443.773C576.359 442.724 575.687 441.883 574.906 440.96C574.046 432.152 572.545 423.715 570.995 415.016C570.659 413.131 569.858 411.637 568.941 409.972C569.627 405.702 569.434 403.922 567.91 399.787C568.978 399.164 570.251 399.881 570.788 399.044C570.171 398.411 568.952 397.471 568.543 396.741C567.017 394.02 569.435 390.264 566.47 388.35C566.734 386.966 567.447 386.415 568.327 385.356L567.917 384.917L566.415 385.236C566.255 385.017 566.39 384.694 566.398 384.423L566.818 384.113L565.833 384.082C564.803 381.236 563.194 378.196 563.917 375.159C564.79 371.488 560.539 360.706 558.916 356.853C558.616 356.14 558.724 356.474 558.573 355.672L559.957 354.387C559.542 351.574 553.325 345.953 554.838 343.475C555.061 343.11 555.74 342.457 556.055 342.14C555.592 340.049 553.859 339.398 552.911 337.535C549.622 331.077 545.632 323.83 544.486 316.667L543.859 316.301C542.198 315.316 539.068 313.637 538.317 311.844C537.949 310.967 538.275 309.617 538.349 308.697C538.417 307.842 538.285 307.385 537.883 306.636C536.717 305.717 535.214 305.099 535.201 303.463C535.197 303.079 535.34 302.384 535.412 301.99C534.447 301.369 533.538 300.957 532.483 300.523C528.486 293.965 524.061 286.672 518.73 281.117C515.527 277.781 510.216 275.449 508.883 270.95C506.419 269.91 501.685 268.578 500.593 266.01C500.176 265.03 500.024 263.919 499.829 262.875L498.882 261.844C497.891 262.207 497.952 262.296 497.333 263.07C496.814 262.636 496.366 262.22 495.925 261.707C494.405 259.938 492.056 258.435 489.692 258.112C489.505 258.087 489.315 258.098 489.126 258.091C488.447 258.924 488.704 258.464 488.352 259.471C485.561 258.395 482.767 254.971 480.271 254.23C479.83 254.1 478.35 254.354 477.859 254.377C473.166 254.597 471.976 253.801 468.537 250.908C468.376 251.003 468.217 251.102 468.053 251.192C467.342 251.584 466.498 252.03 465.675 251.77C464.635 251.44 464.179 250.9 463.383 250.2C461.876 248.874 460.959 248.521 459.017 248.154C455.488 247.488 444.949 244.502 442.285 245.148L442.252 246.984L441.668 247.252C440.229 245.502 438.204 244.456 435.862 244.316C431.504 244.055 424.71 245.428 420.518 246.755C417.547 247.696 413.729 249.736 410.681 249.774C410.033 248.327 411.297 247.758 409.912 246.972C409.16 247.288 408.632 247.262 408.298 248.061C407.891 249.033 407.874 249.904 407.794 250.943C407.118 251.048 406.915 251.218 406.299 250.885C404.483 249.902 403.085 249.572 401.076 250.23C397.305 251.465 394.46 255.294 390.625 256.039C390.28 255.116 390.121 254.267 389.976 253.294L389.13 253.125C387.776 254.029 387.151 254.906 386.827 256.529C386.792 256.699 386.78 256.874 386.756 257.046L388.056 256.949L386.73 257.333L387.232 258.534L386.622 258.865L384.291 257.363C383.698 257.976 383.377 258.427 382.896 259.102C381.646 260.857 380.152 261.292 378.091 261.605C376.049 261.916 373.792 261.411 371.817 261.904C369.941 262.372 368.48 264.899 366.928 265.238C365.271 265.6 364.168 263.358 362.465 265.467C361.135 267.115 361.087 269.464 359.237 270.644C358.243 270.67 356.35 270.432 355.456 270.657C350.111 272.002 348.382 280.057 341.857 277.745C341.385 279.532 342.667 280.999 341.715 282.51C341.462 282.503 341.209 282.49 340.956 282.488C340.188 282.482 339.702 282.54 338.981 282.748C337.44 286.291 335.292 286.321 334.449 288.077L336.169 288.285C335.725 289.38 334.834 289.858 333.731 290.244C331.397 291.062 328.678 290.934 326.422 292.003C321.034 294.555 314.332 303.591 311.049 308.611C310.12 310.031 308.865 312.754 307.674 313.847C306.846 314.608 304.851 315.266 303.799 315.752C303.227 317.134 303.777 318.078 303.5 319.376C302.806 322.633 297.288 329.807 295.387 332.947C288.859 343.731 280.646 359.728 279.022 372.216C278.91 373.078 278.821 373.433 278.123 373.986C277.927 374.142 277.72 374.283 277.522 374.437C272.934 378.024 274.41 389.953 272.448 395.287C272.398 395.421 272.405 395.626 272.272 395.679C271.821 395.858 271.302 395.635 270.818 395.613C270.48 400.256 272.276 398.353 268.294 402.651C268.018 404.687 269.268 405.221 268.995 407.466C268.413 412.255 266.642 416.892 266.04 421.744L265.578 421.968C265.192 422.158 264.816 422.367 264.445 422.583L264.471 423.395C264.608 428.4 261.969 434.995 264.293 439.346C263.967 440.79 263.526 441.888 262.893 443.229C262.065 444.986 261.944 446.06 261.959 447.969C261.995 452.482 263.377 465.976 262.645 469.256C262.446 470.146 261.931 470.864 261.513 471.651C261.041 472.536 260.451 473.433 260.567 474.435L262.255 474.584C262.507 477.621 261.692 480.655 261.121 483.628C264.921 491.572 261.313 498.56 262.743 504.62C263.251 506.776 265.556 507.41 265.838 510.082C266.229 513.792 266.375 518.614 267.572 522.048C268.087 523.525 267.447 525.315 267.074 526.78C268.465 528.533 270.364 530.597 270.939 532.792C272.034 536.974 269.831 538.779 273.525 542.502C273.712 543.701 273.628 544.399 273.417 545.592C272.191 552.518 281.901 559.559 280.719 566.621C280.236 569.509 283.794 572.943 284.839 575.712C286.136 579.15 285.85 583.086 287.149 586.48C288.115 589.004 290.289 591.058 291.19 593.558C291.745 595.099 290.667 595.807 291.301 597.385C291.463 597.385 291.624 597.382 291.785 597.385C292.584 597.402 292.298 597.392 293.223 597.582C293.157 597.742 293.085 597.9 293.023 598.062C292.703 598.893 292.813 598.61 292.666 599.683C294.175 602.102 296.449 603.463 298.051 605.693C300.179 608.657 301.512 612.939 303.209 616.233C305.568 620.811 308.587 625.042 310.793 629.711C311.488 631.183 311.861 632.642 312.153 634.237L311.831 634.135C311.952 634.225 312.077 634.312 312.195 634.407C315.568 637.13 319.469 645.689 322.261 649.784Q327.473 657.42 333.159 664.71C353.373 690.523 405.929 735.971 440.24 733.298C464.301 731.423 488.021 713.656 503.229 695.677C524.465 670.572 547.967 630.458 557.279 598.785C558.625 594.203 560.443 583.797 566.365 583.471C567.826 583.39 569.059 583.675 570.218 584.625C572.109 586.176 572.364 589.429 572.292 591.665C572.133 596.602 570.628 601.385 570.688 606.361C569.166 606.904 568.829 607.394 568.15 608.868C566.444 612.577 565.3 616.822 563.896 620.682Q560.556 629.896 556.328 638.737C538.423 676.721 506.831 724.065 466.719 741.335C448.08 749.36 429.348 748.243 410.69 740.758C396.244 734.963 381.518 726.278 369.436 716.48C361.331 709.908 353.439 699.72 343.751 695.743C344.047 701.471 344.996 706.584 347.602 711.753L347.606 712.25C347.608 713.576 347.547 714.59 347.116 715.868C347.75 717.722 349.875 717.92 350.098 719.619L348.277 719.658C348.396 720.762 348.713 721.258 349.24 722.214L349.133 723.069C348.987 724.303 349.03 723.81 348.992 725.071L350.427 725.551C351.383 729.552 351.653 733.767 352.708 737.714C353.408 740.335 355.495 742.483 356.113 745.094C358.789 756.398 358.023 769.103 358.373 780.648C358.436 782.729 359.091 784.409 359.832 786.331C359.589 786.571 359.341 786.806 359.105 787.052C355.093 791.214 351.956 807.359 346.395 815.409C342.535 820.997 336.805 825.763 331.551 830.01C308.686 848.495 272.814 866.698 243.111 868.313C231.109 868.965 219.146 867.591 207.117 868.708C203.331 865.45 198.089 866.165 194.488 863.101C188.251 857.793 183.124 850.884 178.005 844.526C166.017 829.637 155.26 814.692 144.778 798.723C142.834 795.762 139.459 791.816 138.333 788.623C137.961 787.568 137.943 786.066 137.844 784.934C136.729 784.055 135.362 783.568 134.279 782.695C131.61 780.543 119.46 760.92 119.019 757.449C118.876 756.328 118.927 755.631 118.22 754.708L117.267 756.153C115.366 754.399 111.157 744.083 109.581 741.087C107.066 736.308 104.155 731.754 101.583 727.009C97.9453 720.297 94.6502 713.37 91.1371 706.586C87.5261 699.614 83.577 692.704 81.3029 685.153C80.0062 680.847 76.1033 677.738 74.2099 673.631C72.3051 669.499 72.7685 664.456 70.906 660.201C70.103 660.002 69.5554 659.784 68.8567 659.34C65.9414 653.375 64.3506 646.533 61.8766 640.332C57.7416 629.967 53.6873 619.671 50.2343 609.049C48.7827 604.583 47.759 599.983 46.3656 595.499C44.1001 588.208 41.3258 581.015 39.5412 573.583C38.2244 568.1 37.6631 562.421 36.6614 556.872C34.4549 544.652 31.9194 532.499 29.7495 520.259C28.7964 514.883 25.6473 504.912 25.9917 499.89C26.1296 497.878 27.4517 497.913 28.337 496.558C28.9699 495.589 25.741 492.021 25.5881 490.34L26.7724 489.585C26.9876 487.908 25.919 488.927 24.957 487.6C25.1182 480.343 24.1073 473.061 24.0064 465.779C21.5674 462.242 23.3498 456.805 24.0706 452.809C24.6694 449.488 23.1272 446.929 23.2871 443.687C23.3877 441.646 24.5819 440.847 25.9782 439.567L26.5547 439.047C26.6192 436.721 24.4494 434.526 23.7508 432.272C22.5616 428.435 23.679 421.523 24.137 417.563C24.8837 411.107 27.6755 405.006 28.745 398.559C29.6556 393.07 28.5691 387.519 29.8992 382.093C32.8808 369.929 38.0339 359.261 38.4175 346.527C43.8296 338.813 43.5767 340.616 45.3219 330.746C46.6913 323 50.8712 316.172 53.6386 308.947C55.7861 303.341 61.0356 283.029 65.5047 279.824L66.5652 280.733C68.1602 277.417 67.6505 273.408 69.1711 270.044C72.9044 261.784 78.0956 254.16 82.0159 245.967L83.3771 246.109C84.6076 245.208 83.3254 244.229 83.6666 242.668C84.606 242.163 85.3671 241.72 86.1426 240.983C86.6602 234.003 94.6325 232.549 96.7782 222.455C96.8836 222.35 96.9835 222.239 97.0945 222.14C99.9228 219.619 103.567 216.517 105.225 213.082C105.848 211.79 105.877 210.259 106.732 209.1C108.934 206.117 111.91 203.418 114.313 200.554C119.936 193.854 124.882 187.042 129.797 179.841C138.623 176.227 139.406 168.044 145.334 165.216C146.021 164.888 148.497 166.264 149.328 166.569L149.934 166.099L149.923 165.223L147.641 163.99C148.529 162.589 149.432 163.59 150.523 162.885C151.603 162.186 150.776 160.265 151.702 159.193C153.808 156.751 157.383 155.699 159.551 153.349C161.799 150.913 162.897 147.222 165.423 145.065C167.288 143.472 170.292 143.353 172.032 141.963C173.824 140.531 172.226 137.487 174.105 135.616C175.231 135.562 175.705 135.577 176.72 135.034L176.566 132.516L177.182 131.89C177.956 131.935 178.84 132.054 179.607 131.974C181.673 131.758 181.813 127.076 183.218 125.393C184.373 124.008 185.504 123.358 187.318 123.243C188.393 123.714 189.326 124.211 190.53 124.175C192.952 121.975 192.929 118.157 195.259 115.807C198.751 112.285 203.369 112.751 206.121 107.809C206.232 107.611 206.335 107.409 206.442 107.208C208.228 106.487 209.369 107.671 211.225 107.539C211.333 106.692 211.443 105.847 211.599 105.008C212.075 102.453 214.122 101.537 216.36 100.666C227.697 96.2566 227.785 92.5744 236.487 87.0059C238.584 85.664 246.128 81.5914 248.473 82.0846C249.551 82.3113 250.642 83.5988 251.959 83.903C252.259 82.2235 252.506 80.5938 253.136 79.0019L254.972 78.6427C255.821 79.0427 256.507 79.3332 257.422 79.5714C258.652 78.2316 259.049 76.604 259.612 74.9167C267.13 69.1281 275.099 70.1053 282.61 63.4537C284.303 63.963 286.505 64.9679 288.246 64.7547C288.384 64.1648 288.52 63.5706 288.689 62.9888C288.94 62.1268 289.456 60.7755 290.329 60.4053C292.025 59.6858 293.681 60.715 295.379 60.3267C297.589 59.8213 301.022 57.156 303.153 55.9778C304.654 57.518 306.023 58.8986 307.883 60.0263C308.905 59.5772 309.132 56.1657 309.677 54.801C313.103 52.1695 313.231 55.229 314.601 54.7999C315.233 54.6021 315.374 53.7444 316.458 53.4329L318.083 54.6317C319.039 53.8519 319.318 52.4966 319.618 51.3185L319.839 50.4329C321.066 49.2669 322.02 49.0048 323.647 48.6144C325.431 49.1689 325.829 50.0569 326.999 51.4774C328.463 52.0602 328.791 51.9418 330.369 51.6731C331.043 51.0222 331.292 50.5585 331.544 49.6733C331.63 49.3695 331.71 49.0638 331.793 48.7591C332.699 48.844 332.404 48.7158 333.136 49.1375C334.003 49.6376 344.724 44.0116 347.368 43.4259C352.293 42.3347 355.064 48.1765 359.601 47.2158C360.474 45.1695 358.563 43.7932 359.557 41.6483C362.543 40.7562 364.94 41.4133 367.87 42.1253C370.516 41.3273 372.93 40.2328 375.694 39.8329L377.368 41.2895L377.684 40.9288L377.361 38.8244C378.386 38.165 379.329 38.1038 380.51 37.8998C381.654 39.2045 381.793 41.6536 382.166 43.3685C383.343 41.8362 384.544 40.0787 386.011 38.8217C390.687 34.817 398.03 37.5796 403.609 37.8813C404.062 37.3784 404.609 36.6768 405.156 36.2531C406.358 35.3208 406.575 35.3347 408.002 35.4969C409.034 36.454 409.97 37.5815 411.397 37.8711C412.369 36.7912 413.112 35.9752 414.452 35.3303C416.014 35.7405 416.39 36.631 417.399 37.858C419.204 37.7954 420.696 36.1085 422.115 34.9913ZM519.773 60.8475C519.637 60.9897 519.5 61.1305 519.366 61.2741C518.004 62.7336 516.896 63.9544 517.014 66.0872C517.207 69.5717 520.16 73.7194 521.563 76.885C526.449 87.91 518.364 101.653 511.634 110.099C502.28 121.84 489.602 131.041 476.812 138.749C450.817 154.415 421.103 164.871 392.263 174.02C351.607 186.917 308.146 195.852 276.288 226.38C273.366 229.18 266.925 234.733 266.948 239.122C266.955 240.468 267.616 241.478 268.6 242.332C270.479 243.965 273.898 243.479 276.141 243.137C279.739 239.271 282.983 235.204 286.856 231.581C297.46 221.665 311.389 214.166 324.477 208.058C385.811 179.433 458.413 175.257 511.145 127.594C524.545 115.482 535.199 100.03 534.397 81.0996C534.154 75.3591 531.998 68.4028 527.726 64.4323C525.261 62.142 523.056 61.3381 519.773 60.8475ZM706.135 97.336L705.666 97.8483C704.354 99.3021 702.821 100.824 702.962 102.954C703.086 104.832 704.336 105.876 705.755 106.884C708.827 109.065 712.559 110.587 715.823 112.499C722.131 116.195 729.29 123.134 730.803 130.528C731.747 135.142 730.17 139.44 727.538 143.198C714.15 162.309 663.845 172.446 641.741 175.897C619.728 179.334 597.494 181.8 575.35 184.213C564.805 185.362 554.127 185.661 543.548 186.538C525.493 188.036 508.374 191.181 491.199 197C486.658 198.538 479.816 200.352 476.835 204.271C476.021 205.34 475.725 206.496 475.994 207.817C476.286 209.257 477.41 210.625 478.669 211.35C479.914 212.066 481.225 212.302 482.606 211.904C492.653 207.013 502.599 203.194 513.622 201.052C528.129 198.233 543.02 197.238 557.718 195.871C606.215 191.362 681.9 188.079 722.699 161.335C730.077 156.498 737.49 150.163 740.304 141.476C742.678 134.149 741.195 126.684 737.678 120.02C732.123 109.496 721.007 101.379 709.709 98.0682C708.523 97.7207 707.36 97.5008 706.135 97.336ZM797.249 121.201C795.73 122.705 794.009 124.354 793.938 126.652C793.886 128.36 794.893 129.745 796.128 130.799C799.661 133.813 804.899 134.992 809.001 137.162C820.576 143.285 833.553 155.004 834.853 168.849C835.612 176.939 832.537 183.939 827.37 189.986C812.078 207.884 783.762 215.41 761.077 217.035C755.091 217.463 723.658 217.067 720.952 219.56C719.821 220.601 719.361 222.207 719.549 223.705C719.684 224.782 720.299 226.086 721.155 226.777C722.945 228.223 727.082 228.021 729.328 228.15C736.611 228.902 744.367 228.02 751.658 227.568C777.872 225.944 806.732 222.392 827.759 205.168C837.08 197.532 844.782 186.846 845.93 174.543C846.916 163.977 841.826 153.437 835.142 145.558C825.873 134.633 811.362 124.338 797.249 121.201ZM349.439 95.0291Q344.719 96.3289 340.043 97.7776Q335.367 99.2264 330.739 100.823Q326.111 102.419 321.535 104.161Q316.96 105.903 312.443 107.79Q307.925 109.676 303.47 111.705Q299.014 113.733 294.625 115.902Q290.236 118.071 285.918 120.378Q281.6 122.685 277.357 125.128Q273.114 127.571 268.951 130.147Q264.788 132.723 260.708 135.429Q256.629 138.136 252.637 140.971Q248.646 143.805 244.746 146.765Q240.846 149.725 237.042 152.807Q233.238 155.889 229.533 159.09Q225.829 162.291 222.227 165.608Q218.626 168.925 215.132 172.354C208.239 179.164 199.872 186.64 195.151 195.176C193.957 197.334 193.001 199.271 193.32 201.772C194.547 204.087 196.175 204.788 198.548 205.686C201.307 205.382 202.547 205.094 204.296 202.883C206.68 199.868 208.283 196.284 210.757 193.339C217.001 185.905 224.364 178.987 231.452 172.372C255.786 149.662 275.838 136.323 305.839 121.984C313.753 118.201 322.004 114.841 330.233 111.805C335.133 109.997 350.135 106.1 353.5 103.649C354.521 102.906 354.857 101.824 354.843 100.599C354.828 99.187 353.325 96.4273 352.133 95.7137C351.39 95.2688 350.274 95.1602 349.439 95.0291ZM215.753 281.198C203.394 289.768 180.546 347.696 177.783 363.44C177.469 365.232 177.081 367.746 177.988 369.435C178.854 371.047 180.955 371.774 182.674 371.927C183.259 371.978 183.276 371.959 183.774 371.911C185.111 370.897 186.502 369.895 187.306 368.384C189.796 363.7 191.009 357.843 192.569 352.771C194.68 345.903 196.997 339.224 199.872 332.632C202.308 327.046 204.649 321.307 207.407 315.876C210.868 309.061 221.35 294.629 222.099 288.067C222.278 286.501 222.163 284.957 221.178 283.661C219.978 282.083 217.653 281.369 215.753 281.198ZM160.237 246.747C152.612 256.449 128.049 291.433 129.349 303.174C129.512 304.652 130.116 305.882 131.384 306.725C132.849 307.698 134.738 307.775 136.429 307.612C142.441 302.888 146.583 286.633 150.607 279.423C154.286 272.831 166.451 259.306 166.995 252.921C167.119 251.464 166.863 250.064 165.865 248.928C164.439 247.306 162.232 247.094 160.237 246.747Z"/>
	</g>
</svg>
