<?xml version="1.0" encoding="utf-8" ?>
<svg xmlns="http://www.w3.org/2000/svg" xmlns:xlink="http://www.w3.org/1999/xlink" width="3328" height="3709">
	<clipPath id="cl_9">
		<rect x="6.1035156e-05" y="-0.00059509277" width="3328.0002" height="3709"/>
	</clipPath>
	<g clip-path="url(#cl_9)">
		<path fill="#FEFEFE" transform="matrix(3.7681 0 0 3.76781 -318.714 -149.234)" d="M0 0L1024 0L1024 1024L877.565 1024L777.232 1024L762.52 1024L494.396 1024L474.536 1024L247.131 1024L233.632 1024L146.42 1024L0 1024L0 0ZM0 0L0 1024L146.42 1024C146.478 1013.96 145.662 1003.92 145.627 993.888C145.606 988.059 146.378 982.159 146.561 976.314C146.974 963.105 147.134 950.049 149.024 936.941C150.053 929.802 151.866 922.829 153.233 915.755C154.474 909.342 155.28 902.821 156.833 896.473C160.614 881.011 167.34 863.65 174.515 849.377C177.487 843.467 181.035 837.786 184.301 832.031C189.636 822.631 194.629 813.002 201.314 804.453C206.572 797.728 212.828 791.725 218.846 785.68C221.837 782.677 227.292 775.996 231.523 776.025C232.633 776.032 233.249 776.051 234.269 775.516C234.574 774.725 234.87 773.887 235.233 773.124C236.391 770.69 238.941 770.298 241.295 769.534C242.022 768.594 242.955 767.142 244.029 766.599C247.024 765.084 252.403 764.88 255.719 764.373C253.251 758.834 250.081 753.605 247.725 748.041C244.87 741.301 241.771 733.863 239.745 726.85C238.708 723.258 238.165 719.534 237.146 715.935C233.925 704.557 230.791 693.306 229.632 681.472C229.275 680.422 229.063 680.33 228.22 679.613C226.499 678.149 225.821 677.386 225.2 675.169C226.418 673.616 227.713 672.123 228.988 670.617C227.882 669.802 227.125 669.15 226.773 667.773C226.167 665.401 224.301 660.543 224.825 658.215C224.966 657.592 226.473 656.161 226.835 655.297L224.327 652.416C224.408 651.362 224.455 650.301 224.553 649.249C224.946 645.018 221.732 613.088 220.414 610.961C219.987 610.271 219.767 609.803 219.526 609.035L219.849 608.258C219.993 607.907 220.125 607.55 220.283 607.206C222.524 602.325 219.554 591.386 219.434 585.512C219.564 582.045 219.308 578.37 219.128 574.896L217.152 573.138L217.208 572.435L219.456 572.847C219.63 572.65 219.878 572.498 219.978 572.255C220.625 570.687 218.55 567.672 218.223 566.023C217.003 559.87 218.01 551.757 218.408 545.495C218.195 545.419 217.989 545.322 217.77 545.266C217.485 545.193 217.19 545.162 216.9 545.109C216.938 542.277 216.756 539.452 216.828 536.617L218.434 535.634L218.458 534.87C217.246 534.095 216.242 533.534 215.499 532.248C215.628 530.469 217.056 528.836 218.045 527.386C214.541 518.129 218.971 515.815 214.515 507.213C214.992 506.189 215.53 505.233 216.093 504.256C215.901 503.505 215.599 502.98 215.179 502.339L214.642 501.529C215.338 500.302 216.261 498.974 216.491 497.569C216.664 496.505 216.86 495.528 217.129 494.48C209.205 487.775 205.595 483.746 203.501 473.526C202.831 470.255 202.186 467.497 200.394 464.624C200.615 464.463 200.864 464.335 201.058 464.141C201.995 463.202 201.584 455.704 201.709 453.846C200.479 452.403 199.643 451.434 199.513 449.494C198.926 440.711 198.016 423.432 203.929 416.271C206.826 412.763 210.477 409.818 211.7 405.28C211.402 404.118 211.136 403.034 211.151 401.826C211.155 401.534 211.166 401.242 211.173 400.95C212.042 394.862 215.724 387.209 215.133 381.231C214.101 370.788 218.88 368.97 218.968 363.382C218.382 362.388 218.11 362.001 218.008 360.825C218.493 360.459 219.109 360.044 219.523 359.582C220.499 358.492 220.326 356.881 220.271 355.51C219.975 348.164 226.163 329.944 230.015 323.524C228.088 323.334 225.112 324.176 223.596 323.231L223.526 321.268L222.519 321.318C222.117 321.687 221.714 322.06 221.294 322.408C217.879 325.233 211.254 319.742 207.151 319.283C206.423 319.768 205.927 320.052 205.09 320.355C203.947 319.367 202.878 318.368 201.523 317.675C200.678 318.167 199.916 318.546 198.989 318.858C196.537 317.99 194.739 316.105 192.521 314.818C191.024 313.949 190.42 314.134 188.751 314.484C187.129 313.942 185.708 312.907 184.418 311.801C180.125 308.121 174.225 303.173 171.356 298.341C169.825 295.764 168.852 292.879 167.336 290.285C166.691 289.182 164.37 286.159 164.468 284.944C164.578 283.569 166.026 282.893 165.917 281.149L163.261 280.051C161.998 277.42 164.159 273.521 163.538 270.512C163.537 270.507 163.322 269.549 163.318 269.497C163.202 267.858 165.119 265.901 166.103 264.626Q165.774 264.054 165.462 263.473C163.138 259.133 166.334 259.104 167.452 255.434C166.922 254.82 166.512 254.28 166.071 253.59L168.342 251.847C169.425 249.368 169.429 246.345 169.702 243.671C174.799 238.796 177.842 234.907 180.408 228.279C181.125 226.427 181.768 223.964 182.849 222.332C184.594 219.695 187.627 218.185 187.861 214.784C187.918 213.946 187.876 213.259 188.242 212.468C188.945 210.95 190.363 210.421 191.792 209.808C193.11 209.242 194.202 208.714 195.383 207.907C195.323 207.789 194.649 206.535 194.675 206.368C194.9 204.912 206.629 195.519 208.489 192.048C209.14 190.834 209.435 189.21 209.747 187.875C211.362 186.319 213.083 184.184 215.028 183.082C216.605 182.188 219.156 182.285 220.478 181.186C222.696 179.344 224.168 175.715 226.14 173.485C228.256 171.093 230.567 170.959 233.159 167.543C234.723 167.151 236.109 166.728 237.574 166.05L237.692 165.529C236.773 165.483 235.932 165.397 235.031 165.207L235.257 164.314C237.37 162.316 241.595 159.58 244.599 159.625C244.782 159.628 244.962 159.672 245.143 159.696C246.772 158.49 246.476 155.657 247.993 154.08C251.145 154.298 252.339 153.261 254.759 151.598C256.335 150.514 258.242 149.837 259.674 148.547C262.214 146.258 263.014 141.827 265.548 139.933L266.273 140.122L267.173 141.871C268.161 141.706 269.414 136.909 273.863 135.719C275.128 135.38 276.08 135.104 277.205 134.441C277.314 133.375 277.356 133.718 277.202 132.796C277.169 132.604 277.127 132.413 277.089 132.222C277.694 132.19 278.306 132.168 278.908 132.101C282.037 131.753 282.158 129.648 284.105 127.585C285.73 125.864 288.464 126.955 290.444 125.958C293.988 124.174 296.162 119.288 299.864 117.824C301.275 117.267 302.864 117.74 304.301 117.464C305.392 117.254 305.96 116.575 306.628 115.761L306.115 114.177L306.901 113.44C307.772 113.444 308.815 113.518 309.664 113.335C310.94 113.061 311.393 111.986 312.122 111.044C313.63 109.093 317.736 109.21 320.062 108.962L321.632 104.943C324.138 105.299 326.218 105.958 328.418 104.339C328.983 103.099 329.392 102.015 330.471 101.124C333.78 99.9744 336.938 100.333 340.328 100.762L340.123 100.428L341.381 100.916C342.664 98.8043 342.042 96.307 343.912 94.5532C345.182 94.3352 345.803 94.6262 346.935 95.144C347.963 95.6145 348.205 95.7912 349.367 95.7934L349.671 93.8923L350.461 93.5739C351.261 94.1332 351.716 94.4081 352.665 94.7171C355.98 93.0635 358.111 89.6537 361.272 88.1227C362.627 87.4662 363.361 87.8689 364.7 88.4173C365.775 88.8577 365.155 88.8228 366.403 88.4349L366.548 86.5558C367.9 86.0826 368.711 86.5811 370.055 86.9546C373.758 85.5178 381.064 81.0504 384.567 80.8603C386.002 80.7825 386.7 82.4913 388.408 82.3371C389.094 81.3627 389.712 80.3789 390.324 79.3579C391.48 78.9003 391.656 78.6892 392.936 78.8633C393.082 79.7325 393.216 80.2933 393.57 81.1172L394.752 80.9975C396.331 79.6955 395.058 78.8907 396.048 77.3086C398.823 76.4978 401.598 77.9769 404.437 77.3964C405.089 76.6221 405.667 76.0289 406.492 75.4398C408.157 75.8685 408.66 76.6742 409.855 77.8776L410.41 77.7205L413.031 72.6955C417.136 71.8751 421.635 71.9849 425.642 70.8273C428.067 70.1265 429.662 68.1349 432.313 67.8841C434.443 67.6826 437.097 69.0497 439.363 69.1538C439.757 68.3341 439.619 68.0305 439.557 67.1456C439.945 66.7571 439.99 66.6641 440.542 66.3749C443.514 64.8176 446.124 67.3849 448.772 68.2778L449.037 66.1525L449.863 66.043C450.18 67.0329 450.225 67.3095 451.015 68.0347L451.785 67.6699C451.476 66.9283 451.321 66.4585 451.206 65.6469C455.27 64.5875 467.316 63.5236 471.648 63.6933C473.279 63.7572 473.739 65.1616 475.431 65.097L476.074 62.9555C478.008 61.5093 482.9 62.4617 485.386 62.1553C487.21 61.9305 489.046 61.4609 490.835 61.0399C492.355 61.8366 494.11 62.9611 495.815 63.2831C499.527 63.9843 511.567 60.375 517.911 61.096C520.18 61.354 522.302 63.2627 524.488 63.9532C525.621 64.3107 525.714 64.2414 526.686 63.691L527.011 61.6927C527.814 61.7621 527.444 61.6568 528.3 62.1341C528.525 62.2592 528.745 62.3925 528.967 62.5217Q530.546 61.6573 532.082 60.7188C533.214 60.6804 533.791 60.7822 534.753 61.3386C535.682 61.8758 536.488 62.2268 537.503 62.5753C538.24 62.3157 538.573 62.1264 539.163 61.5766C539.335 61.4163 539.497 61.2446 539.663 61.0786L540.379 62.5355C542.863 63.008 546.457 60.8713 549.25 60.8582C552.518 60.8427 555.46 62.0979 558.643 62.5179C560.952 62.8225 563.567 62.2137 565.914 62.1355L566.775 63.6863C569.145 63.6376 570.957 64.3119 573.135 65.1144Q574.997 63.8171 576.881 62.5503C578.975 63.0942 580.096 64.5958 581.335 66.2433L581.699 66.735C582.676 66.2795 583.565 65.6746 584.478 65.1034C585.275 65.396 586.082 65.6605 586.88 65.9519C589.729 66.9938 592.113 67.0355 595.104 67.0628C593.516 66.4035 592.142 65.7416 590.715 64.7785C593.101 64.8897 596.463 66.6859 598.755 67.5886C599.095 68.3695 599.441 69.0496 599.915 69.758C601.459 69.3692 600.771 68.4945 601.925 67.6175L602.121 68.678C603.166 69.0968 604.425 68.1029 605.499 67.7689C606.774 67.3728 607.212 67.5027 608.347 68.1359L608.023 69.9509L608.732 70.413C609.228 69.7049 609.054 70.0798 609.284 69.0556C609.344 68.7877 609.395 68.5178 609.451 68.2488L610.4 68.1291L610.708 69.1872L611.494 69.5381C612.347 69.1619 613.36 68.6319 614.274 68.4625C617.671 67.8332 624.405 72.4075 627.471 74.0543L631.865 71.6527C634.422 73.0591 637.725 75.2255 640.7 74.9839L641.259 73.6714C644.193 73.2745 652.772 75.2008 655.314 76.8129L655.566 77.736L656.412 77.8848C657.782 77.208 658.972 76.4442 660.55 76.5703C661.778 77.0811 662.198 77.4526 662.96 78.5616C663.112 78.7834 663.601 79.5202 663.78 79.7413C664.54 80.678 664.983 80.8844 666.153 80.9766C666.047 80.2886 666.013 79.794 666.044 79.0853C668.516 79.4925 670.251 81.4378 672.578 82.1919C676.368 83.4203 680.915 83.5788 684.857 84.3832C687.691 84.9614 696.721 88.1833 698.842 87.5931C700.137 87.2325 698.723 87.3848 700.425 87.3228L702.453 89.55C706.607 90.4253 710.213 92.3388 714.276 93.3133C715.103 92.8474 714.855 93.0385 715.502 92.5078C715.638 92.3962 715.77 92.2799 715.904 92.166C717.085 93.4753 718.559 95.4405 720.047 96.3598C720.934 96.9076 721.503 96.8314 722.495 96.628C723.278 96.4675 724.052 96.2689 724.84 96.117C725.221 96.6554 725.755 97.6929 726.237 98.0885C728.091 99.6132 735.766 102.514 738.832 104.405C742.928 106.931 746.523 110.16 750.438 112.94C752.455 114.371 754.838 115.448 756.756 116.964C758.863 118.629 760.485 120.932 762.433 122.783C762.579 122.921 762.729 123.054 762.877 123.189C772.757 114.929 783.703 113.589 796.269 114.456C796.683 114.484 797.09 114.571 797.503 114.609C798.961 114.742 799.884 114.125 801.127 113.427C808.048 116.235 810.137 113.605 813.403 114.533C814.311 114.791 815.234 115.761 815.97 116.328C816.699 116.889 816.395 116.711 817.382 116.879L817.524 115.099C819.339 114.682 820.47 115.563 821.996 116.441C826.531 119.052 836.798 118.142 839.745 121.27L839.911 123.315L840.741 123.827C840.849 123.663 840.955 123.497 841.066 123.334C841.415 122.819 841.767 122.391 842.187 121.937C846.039 122.032 849.73 127.092 853.306 128.502C855.18 129.241 858.46 129.367 859.895 130.724C860.881 131.655 861.593 132.862 862.651 133.747C864.276 135.106 866.634 136.046 868.492 137.067C872.202 139.106 875.283 141.212 878.422 144.06C881.579 146.924 884.852 149.852 887.754 152.973C890.099 155.495 892.342 160.007 895.135 161.801L896.844 161.379C898.203 162.915 896.849 164.6 897.979 166.318C898.203 165.184 898.189 165.756 898.013 164.6C899.395 165.313 900.269 166.195 901.332 167.293C901.908 169.316 902.058 171.223 902.169 173.317C905.921 175.915 910.823 179.613 912.005 184.244C911.644 185.815 911.292 186.133 912.264 187.491C916.457 193.355 918.198 192.921 919.742 200.829L919.078 201.717C920.527 202.316 921.066 201.143 922.122 202.463C921.523 203.132 920.916 203.703 920.228 204.28C921.577 205.231 921.988 203.954 923.102 205.468C923.164 207.486 923.069 209.418 922.876 211.427C923.645 212.051 924.235 212.213 925.162 212.478C926.139 212.758 926.899 212.916 927.416 213.891C927.983 214.96 927.976 215.686 927.557 216.764L925.059 217.232C926.602 219.071 931.515 223.924 931.249 226.315C931.186 226.878 930.818 227.721 930.647 228.233C931.689 229.684 933.834 231.429 933.951 233.189Q932.6 233.788 931.227 234.335C930.771 238.533 934.559 240.679 935.413 244.302C935.818 246.021 935.28 247.884 935.387 249.66L937.111 250.836C937.192 251.854 936.838 252.302 936.372 253.17C935.409 254.965 934.887 256.955 935.685 258.951C936.604 261.249 939.254 262.157 939.588 264.67C939.102 265.848 938.548 266.839 937.883 267.918C937.867 269.461 938.333 270.255 939.078 271.537L938.487 272.207L935.88 272.287L935.728 272.805C937.334 273.765 939.348 274.669 940.39 276.263C940.077 277.417 939.595 278.233 938.989 279.25C939.386 280.494 940.111 281.31 940.924 282.298C941.423 285.485 937.356 288.131 940.967 290.685C941.494 291.058 942.04 291.408 942.583 291.759C943.099 293.475 941.164 296.51 940.412 298.214C939.31 298.72 938.488 298.805 937.309 298.951L937.217 299.304L937.725 299.575C938.973 300.252 939.85 300.66 940.56 301.957C940.444 305.086 939.907 308.831 940.987 311.773C941.938 312.606 942.636 312.609 943.864 312.73L944.469 313.308C944.326 314.637 944.385 314.887 943.533 315.889C942.432 316.074 941.429 316.158 940.313 316.155C939.605 317.038 939.671 316.607 939.791 317.605C939.98 319.184 940.808 320.825 941.413 322.286L940.83 322.548L937.85 321.382L937.459 321.806C938.33 322.668 939.227 323.494 939.948 324.49L939.235 328.265C940.905 328.779 942.237 328.874 943.389 330.218L943.282 330.869C942.105 331.005 940.943 331.138 939.775 331.346C940.13 332.317 940.384 332.673 940.966 333.488C941.593 334.365 942.247 335.231 942.129 336.383C941.897 338.645 938.505 340.479 936.739 341.688C936.882 341.771 937.027 341.852 937.169 341.937C939.397 343.267 941.562 345.348 942.347 347.911C942.583 348.68 942.557 348.761 942.607 349.458C941.375 350.404 939.081 350.74 938.411 351.98C939.523 352.935 940.738 353.596 941.183 355.013C940.589 355.932 940.023 356.557 939.2 357.277C939.19 357.499 939.182 357.721 939.169 357.944C938.891 362.845 937.789 367.651 936.146 372.267C937.047 373.276 937.735 373.998 938.093 375.348C937.565 375.816 937.05 376.244 936.492 376.672C936.154 378.98 938.071 381.461 936.723 383.255C935.349 383.854 934.005 384.394 932.576 384.845L932.33 385.548C934.295 389.041 935.733 391.132 935.955 395.247C935.381 396.628 934.652 397.768 933.814 399.005C933.907 401.524 933.864 404.133 934.188 406.632C930.564 410.204 930.488 423.753 929.074 428.933C928.592 430.699 927.176 432.556 926.196 434.089C927.058 436.872 929.074 435.78 926.879 439.841C925.788 441.862 924.421 443.726 923.942 445.998C924.883 448.43 927.837 446.906 926.559 450.35C925.46 451.072 924.594 451.421 923.355 451.796C923.309 454.056 923.936 456.437 923.696 458.641C923.353 461.787 919.838 469.524 917.656 471.874C917.555 471.983 917.44 472.079 917.332 472.181C918.685 473.211 919.647 473.565 920.219 475.212L919.859 476.217C919.252 475.549 918.655 474.879 918.079 474.183C917.877 476.23 919.041 477.692 920.136 479.355C918.501 479.987 916.417 480.509 915.342 481.94C915.422 483.933 916.993 485.331 918.306 486.746C916.8 488.776 913.681 492.122 914.15 494.787C914.319 495.751 914.642 496.725 914.916 497.664L914.498 498.124C912.949 497.771 911.152 497.027 909.677 497.604C909.568 498.358 909.318 498.616 909.826 499.247C910.399 499.959 911.062 500.433 911.786 500.977C912.324 504.494 908.509 506.154 909.378 508.983C908.516 509.689 907.769 510.053 906.734 510.46L906.697 511.044L909.664 512.018L909.976 512.74L909.337 513.675C907.09 513.991 905.652 512.055 903.506 512.44L902.995 513.51C903.387 514.591 903.522 514.464 904.517 514.918C905.528 515.379 906.603 515.699 907.659 516.038C907.995 518.406 905.645 521.517 904.603 523.615C902.379 528.094 903.322 535.551 900.93 539.176C899.986 540.605 898.664 541.264 898.526 543.039L900.323 544.028L900.475 544.791C899.268 545.786 897.604 545.584 896.123 545.815L898.468 547.217L898.445 548.004L895.768 548.878C895.293 552.549 895.142 556.308 892.805 559.338C891.667 559.975 890.91 559.785 889.662 559.659C888.831 560.419 888.787 560.585 888.476 561.678C889.606 563.586 892.127 563.471 893.322 565.327L893.006 565.846C891.091 566.235 889.423 568.254 887.94 569.541C888.29 570.407 888.569 570.801 889.147 571.507C887.752 573.174 885.489 572.164 884.199 573.845L884.656 574.38C885.601 575.509 886.765 576.592 886.692 578.168C886.66 578.851 886.42 579.633 886.257 580.283C885.231 580.676 885.076 580.505 884.038 580.299L883.758 580.936C882.433 583.885 881.359 585.438 878.714 587.293C879.137 588.189 879.581 588.654 880.276 589.326C881.154 590.172 881.426 590.688 881.688 591.909C881.425 595.484 876.242 600.982 874.178 604.268L873.388 604.486C872.718 604.676 872.117 604.872 871.478 605.14C870.453 609.718 874.363 612.041 873.815 614.778C873.183 617.94 869.346 615.639 870.094 621.028L869.55 621.648C867.821 621.356 866.748 620.917 865.093 621.563C865.427 622.631 866.837 622.737 866.415 623.571C864.626 627.104 863.137 627.925 864.275 632.128C862.934 633.684 861.35 633.731 859.393 634.007L859.194 634.522C860.198 635.696 861.213 636.397 861.33 637.963L860.434 638.622L859.209 638.401L858.997 638.871L860.007 639.445C859.573 642.292 857.378 645.064 856.282 647.782C854.918 651.167 846.901 658.541 847.376 661.273C848.28 661.76 848.822 661.734 849.133 662.753C848.087 663.718 847.017 664.432 845.816 665.177C845.868 666.043 845.959 666.508 846.22 667.307C845.709 668.272 844.791 668.764 843.769 669.067C842.866 669.335 841.899 669.466 840.97 669.615L840.786 669.777C841.89 670.81 842.307 670.969 842.603 672.489C841.869 674.245 839.941 676.399 839.912 678.133C839.887 679.58 839.868 680.45 838.814 681.473C836.778 681.791 834.761 681.888 833.061 683.141L833.147 683.684C834.595 684.511 836.23 685.21 837.193 686.616C837.264 687.865 837.22 687.615 836.536 688.522C834.766 688.736 833.33 687.541 831.837 688.416C831.192 690.275 831.574 692.22 830.356 693.722L828.438 693.516L828.086 693.916C828.502 694.625 829.1 695.182 828.943 696.04C828.535 698.264 825.572 700.158 823.89 701.513L822.193 706.827C819.999 708.711 817.994 709.881 817.72 712.986Q817.677 713.524 817.655 714.064C816.723 714.655 816.559 714.374 815.52 714.173C815.758 715.883 816.205 716.759 815.309 718.275C814.455 718.37 814.053 718.295 813.265 717.956C813.201 719.141 813.695 718.975 813.848 719.893C813.946 720.482 806.087 731.249 805.286 731.98C804.596 732.61 803.765 733.083 802.928 733.489C802.063 736.594 801.135 740.143 798.487 742.199C797.108 742.608 796.039 742.704 794.619 742.736L794.085 743.352L794.183 744.004C794.353 745.186 794.813 746.731 793.99 747.737C793.071 748.863 787.925 754.854 786.902 755.242C786.222 755.501 784.583 755.459 783.817 755.506L783.789 756.391C783.754 757.363 783.609 758.275 783.425 759.23C796.262 765.778 808.2 771.351 817.36 782.861C820.761 787.135 823.481 792.068 827.066 796.157C831.912 801.684 837.487 805.535 839.832 812.884L840.018 813.485C842.189 814.941 843.299 815.876 844.546 818.206C847.241 823.244 855.54 832.2 853.943 838.066C853.807 838.565 853.634 839.052 853.468 839.541C855.614 841.42 858.87 843.553 859.119 846.546L857.679 848.765C858.382 851.253 860.807 853.317 862.179 855.509C865.361 860.594 866.067 873.525 869.044 880.242C870.076 882.571 870.795 884.018 870.221 886.572C869.2 891.12 874.591 899.838 874.725 905.373C874.809 908.843 872.146 911.781 872.134 915.208L872.6 915.707L874.736 914.962C875.823 915.939 875.761 919.63 876.307 921.237C876.998 923.27 878.078 925.24 879.043 927.157C878.508 929.445 878.045 931.782 877.336 934.022C880.022 940.794 880.545 954.398 879.386 961.771C878.932 964.654 877.707 967.646 877.626 970.549C877.584 972.061 878.181 973.026 878.915 974.311C880.499 977.083 880.487 988.743 881.449 992.91C880.238 994.718 879.076 996.606 877.688 998.284L880.537 1003.45C880.147 1008.92 878.725 1013.8 879.728 1019.32L877.565 1024L1024 1024L1024 0L0 0Z"/>
		<path transform="matrix(3.7681 0 0 3.76781 -318.714 -149.234)" d="M228.988 670.617C233.969 671.277 238.087 668.653 242.822 667.798C244.597 667.478 244.034 669.409 245.51 668.594L245.816 667.673C247.221 667.313 248.474 667.984 249.78 668.464C250.658 668.192 251.246 667.921 252.058 667.484C255.691 665.529 272.567 667.818 276.938 669.355C277.419 669.524 277.886 669.731 278.354 669.932C278.638 672.403 279.42 675.73 277.689 677.842C276.647 679.114 275.028 680.165 273.746 681.191C264.345 682.404 253.857 683.525 244.378 683.056C239.486 682.814 234.924 681.237 229.952 681.46L229.632 681.472C229.275 680.422 229.063 680.33 228.22 679.613C226.499 678.149 225.821 677.386 225.2 675.169C226.418 673.616 227.713 672.123 228.988 670.617Z"/>
		<path fill="#0101FE" transform="matrix(3.7681 0 0 3.76781 -318.714 -149.234)" d="M416.328 855.989C422.581 855.752 421.15 858.084 425.436 859.027C429.751 859.975 434.531 860.166 438.94 860.685C439.878 861.755 440.625 862.634 441.916 863.301C443.868 862.971 445.727 862.593 447.622 863.352Q447.671 864.556 447.66 865.76L448.239 865.696L449.632 863.865C456.053 862.877 461.637 867.576 467.488 869.076C467.644 868.138 467.723 867.897 468.261 867.056C472.931 867.521 478.011 870.775 482.719 871.978C483.295 871.341 483.853 870.79 484.524 870.254C486.004 870.774 485.151 871.394 486.017 872.604C488.727 871.561 489.142 873.507 491.624 873.702L492.455 872.27C494.53 872.456 495.441 874.556 497.296 875.007C500.007 875.665 504.588 875.058 507.497 875.079C508.312 875.708 508.126 875.419 508.558 876.233C508.65 876.408 508.728 876.589 508.814 876.767L510.293 875.674C511.804 875.869 512.651 876.122 513.983 876.859C514.349 877.534 514.709 878.134 515.144 878.771C516.957 878.252 516.822 876.454 518.553 876.228C519.628 876.089 520.503 876.381 521.391 876.931C522.621 877.695 521.851 877.318 523.194 877.858L524.562 876.584L525.272 876.71C525.645 877.478 525.885 878.238 526.622 878.733C527.219 879.134 531.519 877.86 532.546 877.655C533.765 878.345 533.71 878.941 534.19 880.193L534.668 880.332C534.982 879.502 535.111 879.325 535.757 878.631C539.384 878.697 542.638 880.247 546.218 880.552C547.039 880.623 547.692 880.678 548.459 881.01C549.492 881.458 550.246 880.987 551.315 880.692L551.92 881.098C551.799 881.6 551.781 881.754 551.539 882.285C549.323 887.144 532.503 911.056 528.695 914.658C528.023 915.293 527.043 915.667 526.199 916.016C526.032 916.085 525.862 916.15 525.693 916.217C525.502 916.726 525.301 917.232 525.119 917.745C523.998 920.913 521.95 926.809 519.229 928.722L517.691 929.691C515.951 935.379 509.116 942.684 505.771 947.939C501.715 954.311 497.516 960.944 493.986 967.602C492.66 970.101 492.091 972.803 490.502 975.175C489.149 977.194 487.119 981.533 484.988 982.535C484.451 982.224 484.336 982.204 483.866 981.663C483.272 980.98 478.71 972.537 478.546 971.712C478.376 970.85 478.872 968.918 479.014 967.975L478.568 967.501L476.889 968.555C476.905 967.375 476.805 966.262 476.363 965.155C474.702 960.994 471.996 957.075 469.928 953.087C466.397 946.276 463.314 939.406 459.46 932.749L459.847 931.568C451.886 919.486 444.985 906.665 437.728 894.135C435.759 890.736 434.405 886.725 432.143 883.536C431.228 882.247 430.09 881.191 428.885 880.181C428.63 879.968 428.347 879.785 428.117 879.545C427.284 878.671 427.243 877.851 427.236 876.726C427.231 875.884 427.236 875.265 427.085 874.414C426.833 872.987 426.208 873.891 425.156 873.467C424.504 873.204 423.801 869.196 421.026 867.197L420.524 866.843C419.56 860.192 416.951 861.657 415.727 857.991C415.491 857.284 416.037 856.625 416.328 855.989Z"/>
		<path transform="matrix(3.7681 0 0 3.76781 -318.714 -149.234)" d="M646.834 254.583C647.531 254.508 648.138 254.495 648.832 254.614C653.186 255.361 657.8 254.571 662.217 254.602C670.629 254.661 681.393 255.98 689.414 258.517C701.098 262.213 731.1 275.206 736.622 285.78C736.614 286.074 736.568 287.204 736.629 287.46C736.816 288.247 737.03 288.389 737.586 288.861C739.789 290.731 741.719 292.018 743.055 294.652L742.311 295.866C743.483 298.635 746.572 301.463 748.427 303.92C750.799 307.063 752.775 310.591 754.346 314.198C756.965 320.213 759.241 326.685 760.369 333.164C760.84 335.872 760.787 338.811 761.492 341.455C761.722 342.317 762.268 343.013 762.794 343.715C762.917 343.88 763.07 344.025 763.168 344.206C764.225 346.152 763.33 349.365 763.622 351.571C764.062 354.891 764.949 358.198 765.466 361.519C766.537 368.394 767.111 376.018 767.084 382.983C767.072 386.248 766.03 389.466 765.98 392.719C765.82 403.069 767.85 402.423 763.778 413.335Q764.003 413.88 764.205 414.435C765.554 418.235 761.681 420.536 761.956 423.999C762.124 426.122 763.178 427.93 762.128 429.987C760.468 433.234 759.934 435.09 759.67 438.711C758.47 455.144 750.809 469.906 746.326 485.512C745.645 486.078 744.998 486.64 744.38 487.274C744.415 487.409 744.454 487.543 744.486 487.678C744.533 487.882 744.567 488.09 744.617 488.293C744.675 488.531 744.78 488.759 744.81 489.002C744.906 489.763 739.645 506.488 739.107 507.718C738.53 509.038 737.578 510.27 736.738 511.437C734.078 515.13 733.577 520.375 731.89 524.617C729.982 529.415 728.453 534.369 726.491 539.134Q717.118 562.304 704.926 584.123C703.971 585.852 703.092 588.887 701.718 590.223C700.873 591.045 699.923 590.084 698.846 590.95C699.336 591.693 699.54 592.104 699.815 592.982C698.872 595.29 698.297 597.317 697.956 599.785L697.856 600.539C688.877 606.396 687.53 618.023 683.259 620.913C682.797 621.225 681.843 621.424 681.293 621.622C681.242 622.585 681.172 622.128 681.637 623.218C681.76 623.505 681.893 623.787 682.021 624.072L681.596 624.637L680.358 624.327C678.432 625.62 678.063 629.5 676.513 631.392C674.742 633.553 672.23 635.357 670.247 637.358C670.28 638.432 670.201 638.123 670.437 638.993C670.868 640.581 657.183 654.317 655.364 656.945C654.547 658.126 654.017 659.689 653.498 661.022C647.245 664.894 642.392 671.868 636.869 676.792C622.326 689.76 611.38 697.7 593.08 704.915C586.637 707.455 579.654 709.741 572.743 710.483C566.966 711.103 560.832 710.148 554.973 710.372C554.348 709.562 554.216 709.385 553.247 708.943C552.499 709.065 551.747 709.169 551 709.295C549.805 709.497 548.793 709.669 547.585 709.393C545.105 708.825 542.809 707.255 540.442 706.325C536.861 704.918 533.053 704.71 529.537 702.886C519.398 697.627 511.333 686.457 507.933 675.728Q507.591 674.652 507.303 673.56Q507.015 672.468 506.78 671.364Q506.545 670.259 506.365 669.145Q506.185 668.03 506.06 666.908Q505.935 665.786 505.865 664.659Q505.795 663.532 505.781 662.403Q505.766 661.273 505.807 660.145Q505.848 659.017 505.944 657.892Q506.04 656.766 506.191 655.647Q506.342 654.529 506.548 653.418Q506.754 652.308 507.014 651.209Q507.274 650.11 507.588 649.026Q507.902 647.941 508.268 646.873Q508.635 645.805 509.053 644.756Q509.472 643.708 509.941 642.681Q510.411 641.654 510.93 640.651C513.576 635.617 517.557 627.25 523.493 625.643C525.903 624.99 527.915 625.426 529.989 626.719C530.434 627.431 530.832 627.824 530.88 628.694C531.099 632.696 527.039 636.932 524.716 639.861C524.888 642.889 523.181 644.511 521.995 647.1Q521.444 648.29 520.991 649.521Q520.538 650.752 520.187 652.015Q519.835 653.279 519.587 654.567Q519.339 655.855 519.196 657.158Q519.053 658.462 519.017 659.773Q518.98 661.084 519.05 662.394Q519.119 663.703 519.295 665.003Q519.471 666.303 519.751 667.584C521.813 676.7 529.86 686.167 537.789 690.909C540.866 692.749 544.35 693.974 547.756 695.041C563.128 699.854 575.743 695.351 590.649 691.868C593.741 686.736 596.898 689.227 599.658 687.662C600.907 686.954 602.104 684.552 603.468 683.562C607.618 680.548 612.203 678.066 616.432 675.144C621.877 671.381 626.382 666.986 630.974 662.268C635.737 657.309 641.478 653.197 646.069 648.171C652.67 640.945 654.987 633.625 663.84 626.828C663.628 626.009 663.345 625.111 663.273 624.269C663.06 621.767 680.704 600.502 683.533 597.292L682.717 596.011C682.864 593.304 688.588 588.531 690.088 585.798C690.702 584.68 690.415 584.637 690.098 583.477C690.688 582.925 691.015 582.766 691.809 582.488C693.909 581.754 695.257 573.376 696.264 570.953C696.911 569.396 698.252 567.817 699.326 566.503C702.74 562.328 703.841 556.461 706.213 551.6C708.894 546.108 711.992 540.814 714.483 535.231C717.288 528.948 720.051 522.417 722.468 515.978C723.329 513.684 723.805 511.231 724.684 508.97C725.528 506.797 728.009 504.685 728.539 502.513C728.869 501.161 728.178 499.522 728.632 498.03L745.565 443.653C746.565 440.464 745.259 436.481 745.915 433.132C746.357 430.876 747.756 428.571 748.697 426.465C748.465 426.23 748.069 425.851 747.905 425.577C747.154 424.323 748.058 422.346 748.406 421.013C749.63 416.335 751.223 409.499 750.908 404.705C750.842 403.691 750.379 403.044 750.192 402.118C749.84 400.371 751.266 398.34 752.092 396.83C750.311 389.751 751.632 381.719 751.489 374.453C751.358 367.796 751.011 360.773 749.99 354.195C748.196 342.631 741.065 320.144 734.781 310.313C724.412 294.092 717.879 288.534 701.249 280.125C698.879 278.927 697.607 277.015 694.918 276.45C690.457 275.512 686.294 273.47 681.847 272.523C677.933 271.689 676.318 272.875 672.502 270.583L671.864 270.193C666.692 270.301 659.423 271.279 654.505 269.944L654.537 268.719L654.012 268.33C653.6 268.939 653.325 269.25 652.757 269.755C651.964 268.971 651.998 268.844 650.851 268.558C649.066 269.481 647.78 270.11 645.752 270.101C644.542 270.095 643.378 270.087 642.174 270.203C620.662 272.275 601.329 282.999 583.365 294.226C581.149 295.611 578.622 296.3 576.485 297.866C573.208 300.269 570.625 303.783 567.517 306.437C564.153 309.31 560.61 311.527 557.578 314.82C553.519 319.228 549.661 324.108 546.337 329.092C544.784 331.42 543.537 333.962 541.926 336.246C540.073 338.871 537.658 341.249 535.599 343.737C534.023 353.281 523.462 366.634 523.906 375.456C524.111 379.531 522.641 384.888 521.751 388.955C521.213 391.416 519.453 396.444 516.33 396.708C514.564 396.857 514.813 396.254 513.147 397.327C512.361 396.97 512.091 396.978 511.587 396.225C510.286 394.276 509.615 383.635 510.325 381.639C510.526 381.073 511.521 380.478 511.686 379.918C511.953 379.009 511.634 377.362 511.689 376.382C511.883 372.932 512.335 369.194 513.035 365.816C515.415 354.325 523.337 336.225 530.143 326.366C533.235 321.888 537.043 317.673 540.616 313.569C559.989 291.322 583.979 272.433 612.046 262.653C618.199 260.509 624.832 258.104 631.222 256.858C633.386 256.436 644.745 255.862 645.151 255.696C645.774 255.443 646.273 254.954 646.834 254.583Z"/>
		<path transform="matrix(3.7681 0 0 3.76781 -318.714 -149.234)" d="M211.173 400.95L211.783 402.861C212.919 403.113 213.081 402.936 214.052 402.35C216.508 400.87 218.567 398.65 220.91 396.982Q221.527 396.54 222.167 396.129Q222.806 395.719 223.465 395.342Q224.125 394.965 224.803 394.623Q225.481 394.28 226.175 393.973Q226.87 393.665 227.579 393.394Q228.289 393.123 229.011 392.888Q229.733 392.653 230.467 392.456Q231.2 392.259 231.943 392.099Q232.686 391.94 233.436 391.819Q234.185 391.697 234.94 391.615Q235.695 391.532 236.454 391.488Q237.212 391.445 237.972 391.44Q238.731 391.435 239.49 391.469Q240.249 391.503 241.005 391.576Q241.761 391.649 242.512 391.76Q243.263 391.872 244.008 392.022C257.843 394.901 265.776 404.095 273.222 415.329C281.134 404.895 289.854 394.801 303.568 392.818C313.027 391.451 322.563 394.236 330.125 399.991C335.52 404.096 339.27 409.404 342.948 415.021C348.917 413.585 354.609 412.875 360.742 412.648C365.588 412.469 370.501 412.71 375.265 411.688C379.54 404.63 382.276 399.711 390.984 397.483C396.918 395.964 402.698 396.973 407.902 400.171C412.828 403.197 416.676 407.925 417.995 413.618C419.301 419.255 417.747 425.636 414.675 430.488C413.401 432.501 405.69 438.148 403.425 438.651C398.09 439.836 390.976 439.969 386.377 436.692C382.489 433.923 380.04 429.402 376.476 426.248C366.706 426.024 356.626 427.142 346.979 428.661C350.072 448.588 350.149 461.213 337.656 478.155C328.794 490.172 320.57 496.307 305.512 498.462C304.032 498.674 303.035 498.99 301.712 498.116C301.354 497.88 300.777 497.364 300.437 497.07C299.12 497.055 298.12 497.475 296.915 497.937C295.11 497.437 295.141 495.63 293.57 495.306C292.933 495.174 292.017 495.581 291.352 495.499C284.113 494.607 273.85 477.338 269.183 472.271C266.67 476.208 264.403 480.947 261.292 484.405C258.165 487.881 242.842 496.51 237.552 497.63C230.434 499.137 223.459 498.016 217.129 494.48C209.205 487.775 205.595 483.746 203.501 473.526C202.831 470.255 202.186 467.497 200.394 464.624C200.615 464.463 200.864 464.335 201.058 464.141C201.995 463.202 201.584 455.704 201.709 453.846C200.479 452.403 199.643 451.434 199.513 449.494C198.926 440.711 198.016 423.432 203.929 416.271C206.826 412.763 210.477 409.818 211.7 405.28C211.402 404.118 211.136 403.034 211.151 401.826C211.155 401.534 211.166 401.242 211.173 400.95Z"/>
		<path fill="#FEFEFE" transform="matrix(3.7681 0 0 3.76781 -318.714 -149.234)" d="M241.436 404.005L241.547 404.039C245.478 408.743 251.189 411.262 255.27 415.84C263.569 425.151 264.087 441.205 260.55 452.753C259.328 456.743 256.855 460.431 256.649 464.653C256.599 465.689 256.413 466.638 256.222 467.655C255.326 467.936 254.144 468.047 253.33 468.41C252.709 468.686 251.439 470.405 250.949 470.942C246.431 475.898 241.827 480.709 235.074 482.443C229.727 483.816 224.827 482.627 220.135 479.918C217.814 477.648 216.243 475.105 214.87 472.192C213.465 469.212 211.483 464.99 212.663 461.733C212.987 461.449 213.229 461.027 213.634 460.881C215.923 460.054 221.873 461.982 227.971 459.195C233.133 456.835 237.373 451.148 239.267 445.911C242.298 437.528 241.21 423.491 234.038 417.438C231.783 415.535 226.012 413.756 224.878 411.24C227.432 404.685 238.519 407.712 241.436 404.005Z"/>
		<path fill="#FEFEFE" transform="matrix(3.7681 0 0 3.76781 -318.714 -149.234)" d="M306.709 406.6C313.598 408.178 318.456 409.02 323.657 414.299C331.293 422.051 334.177 433.961 333.995 444.573C333.811 455.253 328.359 468.091 320.538 475.43C313.699 481.847 306.901 482.914 297.968 482.617L295.236 480.818C288.413 475.667 283.473 470.616 282.08 461.83C286.919 462.327 291.401 462.593 296.03 460.755C302.046 458.366 307.479 453.006 309.795 446.948C312.319 440.35 311.285 431.79 308.4 425.414C306.055 420.232 302.271 416.453 296.943 414.419C295.977 414.05 295.166 413.761 294.305 413.173C294.363 413.007 294.397 412.831 294.479 412.676C296.055 409.677 303.575 407.521 306.709 406.6Z"/>
		<path fill="#0101FE" transform="matrix(3.7681 0 0 3.76781 -318.714 -149.234)" d="M639.955 353.128C643.929 353.049 647.896 352.958 651.76 354.065C653.816 354.653 658.927 357.641 660.785 357.266C661.628 357.096 662.025 356.009 662.933 356.462C666.485 358.237 665.128 360.342 670.056 360.592L670.334 361.04L669.195 362.225C670.906 363.852 673.367 363.78 675.086 365.525C675.061 366.844 674.995 366.21 675.259 367.429C676.197 367.208 676.969 367.084 677.934 367.109C680.205 369.144 680.895 371.774 682.627 374.17C685.155 377.668 690.823 380.717 691.253 385.289C691.105 385.42 690.594 385.854 690.503 386.008C689.934 386.972 691.715 388.832 692.29 389.698C696.682 396.318 692.914 397.301 693.803 400.61C694.084 401.655 696.855 402.7 696.555 404.183C696.22 405.841 695.308 406.364 695.509 408.217C696.446 409.416 697.773 410.645 697.762 412.241L696.215 413.325C696.86 417.45 698.53 421.549 698.362 425.773C698.179 430.371 694.818 435.167 695.386 439.779L696.859 439.54L697.175 440.176C696.907 441.503 696.129 442.041 695.163 442.893C693.679 444.202 694.694 448.954 694.369 451.024C693.585 451.58 693.111 451.817 692.656 452.685L693.664 453.378C693.714 454.979 692.471 454.028 691.534 455.252C692.566 455.517 692.723 455.567 693.465 456.323C693.461 456.811 693.477 456.942 693.372 457.486C692.462 462.205 690.232 467.019 688.717 471.578C686.295 478.867 683.701 487.921 680.649 494.824C679.958 496.388 676.11 503.738 675.039 504.526C674.667 504.799 673.897 504.55 673.087 505.13C673.007 506.211 672.942 507.332 672.705 508.392C672.062 511.272 667.287 517.227 665.543 519.873C653.218 538.574 638.697 560.211 618.667 571.221C617.453 577.521 608.224 581.17 605.525 587.06C603.922 590.559 598.597 602.61 596.42 604.879C595.663 605.668 594.19 605.395 593.113 606.279C593.214 607.529 593.262 608.722 593.232 609.98C590.573 614.17 586.199 618.827 582.267 621.877C578.639 624.674 575.449 626.948 570.975 628.269C564.494 630.182 555.185 629.641 549.353 626.221C542.598 622.259 539.03 615.841 537.277 608.453C539.041 603.845 539.694 598.807 541.203 594.096C546.259 578.324 557.283 569.84 569.873 560.115C570.016 556.8 572.58 558.716 574.461 556.699L574.178 555.08C574.733 553.663 575.582 553.64 576.902 553.014C583.587 543.144 589.12 534.298 592.285 522.697C597.065 505.184 580.736 488.006 572.901 473.84C563.745 457.289 565.534 440.09 570.648 422.518L572.232 422.24C572.217 421.053 572.25 419.878 572.432 418.702C575.24 400.574 596.861 373.698 611.618 363.671C615.054 361.336 627.29 355.248 630.971 355.992L630.687 355.985C633.774 354.839 636.692 353.693 639.955 353.128Z"/>
		<path fill="#0101FE" transform="matrix(3.7681 0 0 3.76781 -318.714 -149.234)" d="M241.295 769.534C242.022 768.594 242.955 767.142 244.029 766.599C247.024 765.084 252.403 764.88 255.719 764.373C257.261 766.434 258.673 768.465 259.898 770.736C260.544 771.935 261.918 775.207 263.121 775.84C264.156 776.383 264.946 775.193 264.961 776.829L264.065 777.965L264.515 778.568L265.868 778.283C268.249 780.235 267.205 782.557 270.921 782.795L271.266 783.429L270.526 784.485C271.206 785.074 271.546 784.999 272.411 785.146L272.363 785.795L271.1 786.444C271.803 787.473 272.293 787.59 273.46 787.861C273.929 787.969 274.409 788.03 274.884 788.116C276.306 788.376 277.446 788.707 278.245 790.029C278.331 790.172 278.389 790.332 278.461 790.483C278.08 791.276 277.691 792.04 277.244 792.798C278.309 792.699 278.952 792.471 279.937 792.09C286.175 793.985 292.482 803.219 298.261 806.836C301.289 808.732 304.912 809.829 307.798 811.921C309.806 813.376 311.256 815.921 313.421 817.05C315.924 818.356 318.953 819.026 321.595 820.078C328.558 822.85 335.439 825.595 342.251 828.725C343.848 829.459 345.773 829.921 347.252 830.844C348.531 831.642 349.837 833.461 350.536 834.752C350.663 834.986 350.774 835.228 350.893 835.466C350.516 836.442 350.743 835.956 350.201 836.92C353.094 838.644 355.033 838.872 356.827 842.026C356.36 842.783 356.198 842.954 355.516 843.451L355.983 843.962L358.228 843.654L358.858 844.263L358.063 846.007L358.705 846.452C360.072 846.12 360.178 845.893 361.377 846.58C361.838 847.755 361.829 847.898 361.288 849.116C361.118 849.498 360.803 850.026 360.586 850.402C362.124 849.944 362.546 849.429 364.034 850.187C364.794 851.569 366.351 855.831 367.772 856.11C368.013 856.158 368.91 856.127 369.186 856.121C374.197 861.517 378.432 866.538 382.399 872.766L382.26 873.236L380.431 873.256L380.235 873.792C381.6 875.005 385.781 875.294 385.916 877.11C385.972 877.864 385.863 878.53 385.75 879.272C386.585 879.923 386.873 880.035 387.854 880.3C387.763 881.196 387.662 881.527 387.298 882.311C389.105 883.068 392.282 883.858 393.478 885.405L392.794 886.883L393.175 887.359C395.604 890.446 400.773 897.308 402.36 900.641L401.881 901.609C402.85 902.241 403.673 902.2 404.795 902.273L405.638 903.006C405.418 904.809 405.385 904.736 406.468 906.113C407.917 907.956 409.649 909.251 410.489 911.516L409.861 913.026L410.24 913.425L411.898 913.07C415.472 915.493 416.006 918.525 417.706 922.22C419.955 927.106 427.417 933.706 428.518 937.975C428.749 938.868 428.489 939.661 428.145 940.474C429.369 941.54 430.711 942.352 432.086 943.207C433.549 946.823 434.88 952.114 437.054 955.245C438.047 956.676 440.126 957.329 440.936 958.835C441.483 959.852 441.429 961.559 441.517 962.697L441.599 963.64L441.641 964.207C442.474 964.433 442.74 964.451 443.558 964.369C445.292 967.526 445.17 972.135 447.057 974.927C447.834 976.077 449.542 977.254 450.576 978.25C451.047 980.584 451.26 982.353 452.943 984.136C454.591 985.882 456.444 987.772 457.685 989.827C458.86 991.77 467.65 1011.12 468.282 1013.03C468.565 1013.88 468.622 1014.83 468.596 1015.72C468.591 1015.89 468.571 1016.05 468.559 1016.22C470.555 1018.79 472.664 1021.33 474.536 1024L247.131 1024L233.632 1024L146.42 1024C146.478 1013.96 145.662 1003.92 145.627 993.888C145.606 988.059 146.378 982.159 146.561 976.314C146.974 963.105 147.134 950.049 149.024 936.941C150.053 929.802 151.866 922.829 153.233 915.755C154.474 909.342 155.28 902.821 156.833 896.473C160.614 881.011 167.34 863.65 174.515 849.377C177.487 843.467 181.035 837.786 184.301 832.031C189.636 822.631 194.629 813.002 201.314 804.453C206.572 797.728 212.828 791.725 218.846 785.68C221.837 782.677 227.292 775.996 231.523 776.025C232.633 776.032 233.249 776.051 234.269 775.516C234.574 774.725 234.87 773.887 235.233 773.124C236.391 770.69 238.941 770.298 241.295 769.534Z"/>
		<path transform="matrix(3.7681 0 0 3.76781 -318.714 -149.234)" d="M233.418 1003.21C233.322 1003.08 233.219 1002.96 233.131 1002.82C232.502 1001.87 232.135 1000.95 232.082 999.807C231.889 995.724 232.807 991.722 232.995 987.671C233.23 982.59 232.619 977.436 233.776 972.422C234.295 970.173 235.359 968.434 237.362 967.199C238.607 966.431 239.373 966.445 240.784 966.594C243.134 968.027 243.915 970.584 244.536 973.138C246.146 979.77 246.354 986.216 246.728 992.975C246.955 997.078 247.666 1001.16 247.819 1005.26C248.049 1011.45 247.435 1017.82 247.131 1024L233.632 1024C233.421 1017.26 232.357 1009.84 233.418 1003.21Z"/>
		<path fill="#0101FE" transform="matrix(3.7681 0 0 3.76781 -318.714 -149.234)" d="M783.425 759.23C796.262 765.778 808.2 771.351 817.36 782.861C820.761 787.135 823.481 792.068 827.066 796.157C831.912 801.684 837.487 805.535 839.832 812.884L840.018 813.485C842.189 814.941 843.299 815.876 844.546 818.206C847.241 823.244 855.54 832.2 853.943 838.066C853.807 838.565 853.634 839.052 853.468 839.541C855.614 841.42 858.87 843.553 859.119 846.546L857.679 848.765C858.382 851.253 860.807 853.317 862.179 855.509C865.361 860.594 866.067 873.525 869.044 880.242C870.076 882.571 870.795 884.018 870.221 886.572C869.2 891.12 874.591 899.838 874.725 905.373C874.809 908.843 872.146 911.781 872.134 915.208L872.6 915.707L874.736 914.962C875.823 915.939 875.761 919.63 876.307 921.237C876.998 923.27 878.078 925.24 879.043 927.157C878.508 929.445 878.045 931.782 877.336 934.022C880.022 940.794 880.545 954.398 879.386 961.771C878.932 964.654 877.707 967.646 877.626 970.549C877.584 972.061 878.181 973.026 878.915 974.311C880.499 977.083 880.487 988.743 881.449 992.91C880.238 994.718 879.076 996.606 877.688 998.284L880.537 1003.45C880.147 1008.92 878.725 1013.8 879.728 1019.32L877.565 1024L777.232 1024L762.52 1024L494.396 1024C496.22 1021.47 497.852 1018.3 500.092 1016.16L501.22 1016.77L501.47 1016.23C500.9 1015.12 500.518 1014.52 500.618 1013.24C503.864 1008.7 512.793 991.854 516.501 989.946C517.382 989.921 518.078 989.915 518.932 989.675C518.371 988.865 517.903 988.099 517.481 987.208C520.388 984.563 522.796 981.01 523.766 977.189C524.738 976.534 526.029 975.826 526.715 974.864C528.375 972.538 529.41 969.746 531.44 967.681L533.48 967.859L533.572 967.371C532.882 966.571 532.405 966.008 532.08 964.994C534.166 962.24 537.442 960.696 539.692 958.17C540.821 956.903 540.314 955.522 540.464 953.966C540.701 951.52 543.978 949.689 545.833 948.084L547.257 948.361L547.664 947.867C547.541 946.844 547.321 945.674 547.384 944.649C547.469 943.282 547.993 942.69 548.955 941.802C550.148 941.53 551.062 941.253 552.165 940.691C553.661 938.517 552.69 936.669 553.39 934.213L554.15 933.914L555.385 934.82L555.858 934.54C555.866 933.542 555.923 932.612 556.07 931.625C557.081 931.425 556.676 931.436 557.697 931.507C557.935 931.524 558.172 931.549 558.409 931.57L558.915 930.828C558.946 929.956 558.978 929.082 559.081 928.214C559.562 924.172 565.342 921.136 568.332 918.825L568.344 916.625C569.568 914.623 572.177 913.534 573.801 911.826C574.767 910.809 574.647 910.623 574.602 909.289L575.271 908.638L577 908.965L577.579 908.51L577.192 907.368L577.579 906.657L579.21 906.838C580.242 905.597 578.693 905.25 579.338 903.705L580.363 903.974C583.474 902.416 584.813 895.535 588.224 893.385L589.23 894.054C590.971 893.36 594.996 886.105 597.254 884.147C601.281 880.655 619.49 876.109 624.822 876.298L624.582 878.529L625.301 878.93Q625.504 878.369 625.718 877.813C626.374 876.108 626.794 874.956 628.517 874.199L629.638 874.865C631.143 874.901 630.97 873.799 632.446 873.386L633.951 874.793L634.787 874.735L634.445 873.533L635.007 872.758C638.572 871.528 643.123 872.373 646.335 871.132C647.828 870.555 651.82 866.096 653.226 866.577C654.314 866.949 653.566 867.518 655.156 867.46C657.839 859.686 660.986 865.478 664.834 862.516C667.714 853.088 673.776 858.49 678.732 854.874L678.814 852.877C680.244 852.297 681.321 852.988 682.763 853.423L683.55 852.985C683.414 851.691 683.428 852.312 683.483 851.124L685.428 849.892C686.063 848.76 686.049 847.718 686.119 846.455L686.147 845.878C687.614 845.341 689.719 845.99 691.254 846.262C694.509 843.218 697.648 841.279 701.492 839.045C702.257 839.542 702.568 839.721 703.489 839.908C705.343 838.426 705.087 835.69 707.126 834.277C707.823 834.453 708.464 834.579 709.18 834.691C709.415 833.931 709.636 833.18 709.823 832.406C710.042 831.496 710.388 831.314 711.238 830.854C712.706 830.059 713.599 830.366 715.106 830.811C716.224 830.283 716.804 830.036 717.435 828.947C717.443 827.707 717.268 826.14 717.866 825.026C718.186 824.43 718.617 824.491 719.211 824.326C720.36 824.923 721.46 825.691 722.796 825.598C723.102 823.55 722.775 821.753 723.655 819.805C726.05 817.923 727.672 817.991 730.62 818.275L731.347 818.351L731.751 817.772C731.303 816.39 730.932 815.256 730.97 813.778C732.321 811.779 736.318 811.719 738.32 810.453C739.477 809.721 738.236 808.896 738.598 807.575L742.242 807.306L742.9 807.976L741.604 806.992L742.962 807.218C743.605 802.085 754.392 794.101 757.814 789.628C757.815 788.529 757.812 787.484 757.942 786.391C758.244 783.863 760.441 785.745 761.688 784.911C763.191 783.905 763.417 781.593 765.014 780.344L766.725 780.958L767.44 780.203C767.541 779.421 767.636 778.707 767.579 777.915C767.567 777.742 767.542 777.571 767.524 777.399L769.763 778.602L770.423 778.188C770.52 776.558 769.336 776.433 769.484 775.113C770.415 775.032 771.34 774.982 772.274 774.949C772.275 773.743 772.311 774.198 772.176 773.05C771.999 771.553 774.629 768.364 775.579 766.932C777.047 767.803 778.55 768.513 780.1 769.226C779.801 768.049 779.394 766.679 779.533 765.457C779.787 763.239 781.72 760.547 783.425 759.23Z"/>
		<path transform="matrix(3.7681 0 0 3.76781 -318.714 -149.234)" d="M762.52 1024C761.677 1012.6 760.32 974.785 766.481 966.076C768.035 965.342 769.56 965.323 771.239 965.891C773.01 966.491 774.334 968.233 775.059 969.881C776.984 974.259 778.315 988.023 777.691 992.941C777.421 995.068 776.614 997.237 775.978 999.281C778.637 1005.29 778.848 1017.65 777.232 1024L762.52 1024Z"/>
		<path transform="matrix(3.7681 0 0 3.76781 -318.714 -149.234)" d="M490.835 61.0399C492.355 61.8366 494.11 62.9611 495.815 63.2831C499.527 63.9843 511.567 60.375 517.911 61.096C520.18 61.354 522.302 63.2627 524.488 63.9532C525.621 64.3107 525.714 64.2414 526.686 63.691L527.011 61.6927C527.814 61.7621 527.444 61.6568 528.3 62.1341C528.525 62.2592 528.745 62.3925 528.967 62.5217Q530.546 61.6573 532.082 60.7188C533.214 60.6804 533.791 60.7822 534.753 61.3386C535.682 61.8758 536.488 62.2268 537.503 62.5753C538.24 62.3157 538.573 62.1264 539.163 61.5766C539.335 61.4163 539.497 61.2446 539.663 61.0786L540.379 62.5355C542.863 63.008 546.457 60.8713 549.25 60.8582C552.518 60.8427 555.46 62.0979 558.643 62.5179C560.952 62.8225 563.567 62.2137 565.914 62.1355L566.775 63.6863C569.145 63.6376 570.957 64.3119 573.135 65.1144Q574.997 63.8171 576.881 62.5503C578.975 63.0942 580.096 64.5958 581.335 66.2433L581.699 66.735C582.676 66.2795 583.565 65.6746 584.478 65.1034C585.275 65.396 586.082 65.6605 586.88 65.9519C589.729 66.9938 592.113 67.0355 595.104 67.0628C593.516 66.4035 592.142 65.7416 590.715 64.7785C593.101 64.8897 596.463 66.6859 598.755 67.5886C599.095 68.3695 599.441 69.0496 599.915 69.758C601.459 69.3692 600.771 68.4945 601.925 67.6175L602.121 68.678C603.166 69.0968 604.425 68.1029 605.499 67.7689C606.774 67.3728 607.212 67.5027 608.347 68.1359L608.023 69.9509L608.732 70.413C609.228 69.7049 609.054 70.0798 609.284 69.0556C609.344 68.7877 609.395 68.5178 609.451 68.2488L610.4 68.1291L610.708 69.1872L611.494 69.5381C612.347 69.1619 613.36 68.6319 614.274 68.4625C617.671 67.8332 624.405 72.4075 627.471 74.0543L631.865 71.6527C634.422 73.0591 637.725 75.2255 640.7 74.9839L641.259 73.6714C644.193 73.2745 652.772 75.2008 655.314 76.8129L655.566 77.736L656.412 77.8848C657.782 77.208 658.972 76.4442 660.55 76.5703C661.778 77.0811 662.198 77.4526 662.96 78.5616C663.112 78.7834 663.601 79.5202 663.78 79.7413C664.54 80.678 664.983 80.8844 666.153 80.9766C666.047 80.2886 666.013 79.794 666.044 79.0853C668.516 79.4925 670.251 81.4378 672.578 82.1919C676.368 83.4203 680.915 83.5788 684.857 84.3832C687.691 84.9614 696.721 88.1833 698.842 87.5931C700.137 87.2325 698.723 87.3848 700.425 87.3228L702.453 89.55C706.607 90.4253 710.213 92.3388 714.276 93.3133C715.103 92.8474 714.855 93.0385 715.502 92.5078C715.638 92.3962 715.77 92.2799 715.904 92.166C717.085 93.4753 718.559 95.4405 720.047 96.3598C720.934 96.9076 721.503 96.8314 722.495 96.628C723.278 96.4675 724.052 96.2689 724.84 96.117C725.221 96.6554 725.755 97.6929 726.237 98.0885C728.091 99.6132 735.766 102.514 738.832 104.405C742.928 106.931 746.523 110.16 750.438 112.94C752.455 114.371 754.838 115.448 756.756 116.964C758.863 118.629 760.485 120.932 762.433 122.783C762.579 122.921 762.729 123.054 762.877 123.189C770.433 128.54 771.385 138.243 777.908 144.147C781.306 147.222 784.746 145.395 788.435 146.772C790.698 147.616 800.51 153.624 802.185 155.15C803.591 156.431 804.339 158.313 805.816 159.569C809.153 162.404 813.079 163.403 815.595 167.268C814.698 167.493 814.314 167.442 813.42 167.315C813.473 168.873 814.143 169.675 815.28 170.718C815.699 171.103 816.143 171.466 816.583 171.828C815.944 172.62 815.381 172.835 814.49 173.292L814.753 173.93C816.041 174.263 817.222 174.189 817.907 175.388C818.687 176.753 819.439 180.811 820.289 181.633C821.032 182.351 822.946 182.511 823.404 183.482C824.069 184.89 823.19 187.02 823.543 188.583C824.13 191.178 826.19 193.031 826.61 195.883C826.062 197.345 825.377 198.364 825.701 199.911L826.571 200.321C827.42 200.725 828.192 201.178 828.978 201.697C829.424 203.709 827.643 204.656 827.251 206.496C826.616 209.469 831.83 210.037 829.316 217.156C829.127 217.691 828.956 218.234 828.771 218.771C829.782 220.477 830.642 221.477 830.13 223.513C829.093 227.629 831.513 229.086 831.105 232.508C830.758 235.409 827.457 237.342 827.348 240.11C828.025 240.541 828.7 240.936 829.411 241.307C829.486 242.562 829.638 241.957 829.162 242.782C827.84 245.068 827.358 247.316 826.785 249.853C824.948 257.983 822.955 263.572 816.832 269.563C826.743 287.561 834.471 302.898 837.325 323.63C837.865 327.552 838.592 331.551 838.713 335.505C838.225 336.16 837.74 336.813 837.232 337.453C838.159 337.917 837.642 337.775 838.805 337.796C840.43 341.32 837.953 343.377 841.275 346.676C841.735 349.455 839.829 351.723 839.879 354.399C839.939 357.641 841.79 361.135 842.28 364.383C842.771 367.635 841.549 372.061 841.174 375.377L839.758 376.741C840.937 379.076 843.332 376.958 843.803 381.07C843.178 382.221 842.284 382.688 841.211 383.356C839.698 388.866 842.187 398.21 842.179 404.229C842.169 412.447 841.167 421.057 840.109 429.216C839.826 431.405 838.05 433.392 837.789 435.349C837.516 437.392 840.267 440.156 839.224 442.356L838.225 442.784C838.447 451.601 835.807 458.004 834.495 466.478C833.704 466.936 832.915 467.383 832.1 467.797L832.279 468.331L834.025 468.462C834.701 470.293 833.116 475.855 832.246 477.714C831.695 478.891 831.079 480.039 830.466 481.184C831.454 487.348 826.217 489.804 828.404 495.122C826.289 505.159 822.898 514.957 820.024 524.797C818.819 528.922 817.996 533.152 816.792 537.277C813.851 547.358 810.366 557.631 806.723 567.487C804.849 572.559 802.217 577.31 800.197 582.319C796.45 591.608 793.05 600.554 788.473 609.508C786.759 612.862 785.931 616.519 783.123 619.124C776.45 625.317 774.026 642.721 766.569 647.753C761.528 662.074 756.962 663.411 749.327 675.128C745.315 681.283 741.613 687.68 737.363 693.674C732.899 699.97 727.828 705.837 723.198 712.013C719.899 716.413 716.889 721.112 713.328 725.301C694.139 747.877 665.717 772.888 638.99 785.746C635.538 787.406 631.204 789.583 627.414 788.542C627.24 788.494 626.542 788.368 626.291 788.322L626.487 790.793C623.411 793.315 604.986 799.814 600.679 800.89C597.351 801.722 593.91 801.904 590.56 802.612C587.043 803.355 583.603 804.493 580.072 805.159C574.409 806.225 568.901 806.467 563.25 807.939C561.536 807.38 558.116 805.52 556.571 806.048L555.784 807.278C552.314 807.801 548.642 807.081 545.175 806.679C525.237 804.369 506.306 796.343 490.213 784.469C486.501 781.73 482.746 778.899 479.557 775.55C476.831 772.687 474.665 769.309 472.244 766.19C459.916 750.298 451.465 734.994 444.336 716.21C442.419 711.157 440.442 706.321 439.65 700.949C438.85 695.528 437.607 690.137 436.876 684.736C436.507 682.006 436.703 679.223 436.29 676.518C435.815 673.398 434.739 670.164 434.554 667.034C434.441 665.122 436.184 657.579 435.573 656.464C434.465 654.443 433.791 655.491 434.911 652.739C436.941 647.752 431.926 648.176 437.732 641.162C436.796 637.272 435.137 633.458 437.324 629.754C438.527 627.716 439.926 613.75 440.876 609.755C442.535 602.774 446.623 596.223 447.134 589.152L451.565 584.538C451.661 582.529 451.347 579.798 452.394 578.097C452.616 578.008 452.844 577.934 453.06 577.831C454.09 577.344 454.481 576.82 455.197 575.971L455.223 575.366C455.281 574.259 455.272 573.053 455.803 572.049C456.301 571.108 457.227 570.485 457.83 569.613C461.989 563.601 464.813 557.257 470.433 552.242C472.057 550.794 474.345 549.047 476.655 549.197C477.87 549.276 479.166 549.988 479.875 550.982C480.763 552.229 480.598 553.776 480.189 555.16C478.065 562.35 471.603 567.208 468.077 573.508C467.079 575.293 468.453 576.025 467.007 579.245C461.7 591.058 456.54 603.119 453.795 615.842C452.689 620.968 452.145 626.23 451.352 631.411C450.581 636.454 449.603 641.57 449.245 646.661C448.597 655.9 449.642 673.056 451.164 682.21C451.747 685.712 457.59 707.312 457.346 708.349C457.272 708.666 456.928 709.935 457.058 710.321C457.881 712.764 459.597 715.376 460.657 717.804C465.659 729.267 470.63 740.733 477.415 751.299C480.043 755.39 488.851 764.066 492.549 767.482C496.267 770.916 499.887 773.311 502.544 777.65C502.738 777.967 502.983 778.2 503.235 778.46C506.697 777.799 509.111 779.529 511.93 781.448C514.395 783.125 516.419 785.065 518.395 787.287C519.206 786.827 519.476 786.423 520.036 785.697C523.038 785.997 525.888 789.091 528.975 789.93C533.997 791.295 539.379 790.712 544.331 792.236L544.726 792.825C545.125 793.409 545.535 793.941 545.988 794.482C549.581 793.633 546.732 791.233 552.172 792.971C556.676 794.41 564.254 790.731 573.29 794.175C573.437 794.059 573.583 793.94 573.732 793.826C575.379 792.568 576.359 792.276 578.335 791.884C586.693 790.23 594.323 786.669 602.933 785.689L603.347 786.009C603.778 786.337 604.231 786.637 604.685 786.934L605.047 786.442C605.58 785.73 606.265 784.601 607.099 784.229C608.291 783.696 609.856 783.572 611.121 783.118C615.906 781.398 620.727 779.481 625.406 777.485C628.424 776.196 631.174 774.153 634.079 772.613C641.135 768.873 654.235 763.391 658.943 757.323C661.903 753.508 668.331 753.169 668.308 751.628C668.305 751.43 668.158 750.773 668.112 750.554C669.863 748.583 672.028 747.028 673.935 745.207C676.508 742.748 678.807 739.797 681.624 737.622C683.908 735.859 686.775 734.828 688.981 732.953C690.843 731.37 691.159 727.857 692.811 725.892C697.611 720.184 703.893 715.422 708.411 709.568C712.069 704.828 714.923 699.47 718.585 694.691C724.741 686.659 731.591 679.133 737.319 670.776C739.443 667.677 739.468 663.27 741.732 660.691C743.458 658.725 746.284 657.592 747.806 655.623C748.818 654.313 746.756 651.848 749.332 651.57C750.398 651.455 751.121 651.489 751.787 650.593C753.522 648.259 752.56 646.246 753.144 643.793C753.528 642.181 757.204 641.822 758.041 640.026C757.943 639.861 757.838 639.7 757.747 639.531C757.406 638.897 757.357 638.571 757.331 637.874C759.023 634.152 760.726 630.444 762.802 626.916C765.026 623.137 767.672 619.548 769.549 615.579C771.268 611.944 772.157 608.192 773.459 604.42L777.574 602.733C778.201 600.189 777.963 597.279 779.134 594.945C780.319 594.659 779.716 594.674 780.944 594.921C780.816 593.262 779.83 592.751 780.06 591.044C780.936 590.582 781.746 590.283 782.695 590.005L782.882 589.248L782.04 587.945C782.369 586.914 782.586 586.498 783.307 585.673C786.004 582.588 787.916 566.881 791.221 566.166C791.517 566.102 792.083 566.162 792.394 566.185C793.788 564.164 793.312 559.877 793.935 557.456C794.867 553.829 797.576 550.438 798.823 546.808C803.367 533.577 805.105 518.754 811.616 506.42C811.09 505.214 811.387 505.786 810.734 504.698C811.553 503.155 812.533 504.137 812.66 502.132C811.896 500.815 811.4 500.372 811.534 498.828C812.274 497.905 813.581 496.787 813.608 495.612C813.731 490.197 815.635 486.218 816.922 481.136C817.577 478.547 817.229 475.701 817.713 473.049C818.81 472.141 819.725 471.82 819.813 470.29C819.908 468.652 819.162 466.624 818.728 465.03C819.458 461.834 822.082 459.454 822.49 456.276C821.463 454.943 820.996 454.618 820.874 452.903C821.361 452.013 821.785 451.538 822.571 450.898C822.654 446.944 822.106 438.347 823.495 435.108L825.104 435.035C826.237 433.437 824.804 431.935 825.03 430.247C825.254 428.577 827.433 427.786 827.219 425.932C826.319 426.026 825.45 426.169 824.562 426.341C822.948 422.851 827.195 411.523 827.515 407.139C827.709 404.489 826.771 401.669 826.596 398.999C826.768 398.908 826.942 398.821 827.111 398.725C827.918 398.268 827.626 398.451 828.377 397.707C828.055 393.925 825.889 389.473 827.333 385.961C828.429 383.294 828.334 382.47 827.347 379.85C827.573 378.297 827.983 376.957 828.511 375.481L826.613 370.387C827.25 367.227 828.605 363.464 828.47 360.284C828.144 359.82 827.208 358.795 827.081 358.306C825.855 353.579 826.483 343.644 825.658 337.97C825.007 333.497 823.793 329.119 823.014 324.669C822.315 320.68 822.28 316.431 821.141 312.547C820.064 308.876 818.235 305.368 816.945 301.753C815.714 298.304 815.054 294.655 814.06 291.135C807.027 286.334 808.244 280.282 805.713 277.519C805.368 277.142 804.13 276.829 803.626 276.668C803.798 275.121 804.947 275.714 804.196 274.194L802.047 273.354C802.035 271.656 803.269 271.75 802.608 270.013L801.723 269.467C801.527 269.564 801.334 269.667 801.136 269.759C800.263 270.166 800.618 270.044 799.621 270.15C798.83 268.835 798.751 268.259 798.671 266.758C798.653 266.428 798.613 266.099 798.585 265.77C796.209 263.413 793.422 261.034 791.669 258.18C791.818 256.51 793.035 256.322 792.241 254.778C790.71 254.155 789.255 253.954 788.574 252.336C788.294 251.669 788.171 250.997 788.001 250.298C787.455 248.042 786.447 246.665 784.445 245.476C783.4 244.856 780.792 244.07 780.587 242.9C780.53 242.579 780.574 242.249 780.567 241.923C779.265 241.305 778.494 241.507 777.056 241.587C774.973 241.704 773.179 236.557 771.96 234.935L766.121 233.113C764.095 230.693 762.158 228.06 759.98 225.786C756.8 225.179 752.543 224.827 749.839 223.035C749.235 221.565 749.934 220.143 748.663 219.177L747.549 219.79C745.991 218.259 744.695 216.497 743.104 215.013L737.273 214.187C735.886 212.409 734.706 210.686 732.738 209.51L731.743 209.45L730.67 210.817L730.159 210.743C729.407 209.647 729.394 209.192 728.098 208.745L727.602 210.108L727.162 210.221C726.684 209.651 725.974 208.512 725.396 208.116C723.127 206.562 716.846 205.206 714.095 204.913C713.125 204.809 712.146 204.773 711.171 204.736L710.49 204.029L710.792 203.54L712.378 203.901L712.517 203.111C711.792 202.141 711.508 201.362 710.197 201.215C707.661 200.932 704.943 202.437 702.377 201.561C700.503 200.922 695.697 196.387 694.304 196.553C692.978 196.71 691.78 198.009 690.469 197.379L690.324 195.856L689.621 195.827C680.07 195.384 670.666 192.431 661.017 193.872C658.986 192.512 657.336 191.303 654.886 190.823C653.229 191.248 652.86 192.632 651.289 192.545C651.272 191.676 651.282 190.822 651.325 189.954C650.184 189.796 650.123 189.827 649.1 190.367L648.441 192.329C645.845 192.877 643.226 192.86 640.583 192.93C639.139 192.017 637.708 191.053 636.231 190.197C633.71 191.626 630.895 193.606 627.953 193.742L627.155 193.382C625.206 192.522 623.402 191.992 621.345 192.758C621.207 192.809 621.075 192.877 620.935 192.925C618.599 193.715 615.779 193.043 613.655 194.43L612.858 196.108C609.974 195.529 607.191 194.915 604.233 194.954C603.631 195.5 603.434 195.859 603.013 196.54C602.419 197.502 602.037 197.964 600.991 198.472C600.109 198.101 599.482 197.628 598.736 197.035C595.807 197.865 598.401 199.581 594.061 199.042C587.407 198.215 582.412 205.677 579.552 205.136C578.203 204.881 576.61 204.34 575.37 205.12C573.904 206.042 572.812 207.634 571.271 208.478C568.761 209.852 564.905 208.825 562.311 209.784C560.332 210.515 559.742 213.972 557.793 215.097C557.529 215.053 557.266 215.007 557.003 214.966C556.303 214.857 554.727 214.444 554.161 214.968C553.602 215.484 553.493 215.909 553.196 216.579C552.895 217.258 552.648 217.875 552.065 218.378C549.621 220.489 545.467 221.88 542.638 223.658C536.656 227.415 530.832 232.044 525.337 236.489C517.8 242.584 511.639 250.124 505.807 257.821C505.552 257.698 505.304 257.557 505.041 257.453C504.79 257.355 504.526 257.295 504.269 257.216C502.5 259.953 501.201 262.937 499.491 265.706C496.83 270.013 493.661 274.125 490.726 278.257L489.148 277.834C488.262 278.53 488.171 278.309 488.01 279.504L489.396 281.006C487.159 284.417 485.143 281.739 484.32 287.573C483.515 293.28 479.251 298.542 477.016 303.798C474.778 309.06 472.833 320.251 468.088 323.846C465.253 325.995 460.275 326.053 456.906 325.579C447.721 324.289 438.922 317.258 433.53 309.989C432.62 308.761 432.631 307.938 432.426 306.457C432.116 304.211 426.211 295.871 424.953 292.22C423.293 287.402 423.761 281.754 421.964 277.153C420.146 276.971 418.38 278.329 416.918 279.344C410.087 284.087 401.216 287.435 393.349 290.159C390.364 291.193 387.126 291.709 384.338 293.205C381.192 294.893 374.88 299.811 371.393 299.619C369.295 299.503 367.867 298.135 365.646 298.679C364.717 299.68 364.009 300.631 363.271 301.781L361.814 300.608C359.682 301.063 357.627 302.663 355.66 303.613C353.365 304.721 339.465 311.019 338.087 310.679L337.071 308.982C336.216 309.272 336.634 310.573 333.095 311.687C323.853 314.595 313.61 315.346 304.023 316.683C296.29 317.762 288.786 319.33 281.204 321.158C278.915 321.709 276.806 322.865 274.709 323.909C272.546 322.933 269.996 321.408 267.618 321.267C267.601 321.426 267.587 321.585 267.567 321.744C267.461 322.578 267.493 322.303 267.205 323.303C265.534 323.592 264.79 323.52 263.394 322.517C262.837 322.116 262.3 321.681 261.764 321.252L260.74 321.31C259.398 323.542 258.41 323.689 255.995 324.294C253.465 324.928 249.963 326.201 247.591 324.854C247.054 324.549 246.465 323.935 246.018 323.533C245.888 323.631 245.76 323.731 245.629 323.827C244.943 324.329 245.17 324.16 244.258 324.671C243.121 324.177 242.075 323.627 240.997 323.021C240.119 323.441 239.861 323.638 239.215 324.307C235.82 324.227 233.458 322.598 230.015 323.524C228.088 323.334 225.112 324.176 223.596 323.231L223.526 321.268L222.519 321.318C222.117 321.687 221.714 322.06 221.294 322.408C217.879 325.233 211.254 319.742 207.151 319.283C206.423 319.768 205.927 320.052 205.09 320.355C203.947 319.367 202.878 318.368 201.523 317.675C200.678 318.167 199.916 318.546 198.989 318.858C196.537 317.99 194.739 316.105 192.521 314.818C191.024 313.949 190.42 314.134 188.751 314.484C187.129 313.942 185.708 312.907 184.418 311.801C180.125 308.121 174.225 303.173 171.356 298.341C169.825 295.764 168.852 292.879 167.336 290.285C166.691 289.182 164.37 286.159 164.468 284.944C164.578 283.569 166.026 282.893 165.917 281.149L163.261 280.051C161.998 277.42 164.159 273.521 163.538 270.512C163.537 270.507 163.322 269.549 163.318 269.497C163.202 267.858 165.119 265.901 166.103 264.626Q165.774 264.054 165.462 263.473C163.138 259.133 166.334 259.104 167.452 255.434C166.922 254.82 166.512 254.28 166.071 253.59L168.342 251.847C169.425 249.368 169.429 246.345 169.702 243.671C174.799 238.796 177.842 234.907 180.408 228.279C181.125 226.427 181.768 223.964 182.849 222.332C184.594 219.695 187.627 218.185 187.861 214.784C187.918 213.946 187.876 213.259 188.242 212.468C188.945 210.95 190.363 210.421 191.792 209.808C193.11 209.242 194.202 208.714 195.383 207.907C195.323 207.789 194.649 206.535 194.675 206.368C194.9 204.912 206.629 195.519 208.489 192.048C209.14 190.834 209.435 189.21 209.747 187.875C211.362 186.319 213.083 184.184 215.028 183.082C216.605 182.188 219.156 182.285 220.478 181.186C222.696 179.344 224.168 175.715 226.14 173.485C228.256 171.093 230.567 170.959 233.159 167.543C234.723 167.151 236.109 166.728 237.574 166.05L237.692 165.529C236.773 165.483 235.932 165.397 235.031 165.207L235.257 164.314C237.37 162.316 241.595 159.58 244.599 159.625C244.782 159.628 244.962 159.672 245.143 159.696C246.772 158.49 246.476 155.657 247.993 154.08C251.145 154.298 252.339 153.261 254.759 151.598C256.335 150.514 258.242 149.837 259.674 148.547C262.214 146.258 263.014 141.827 265.548 139.933L266.273 140.122L267.173 141.871C268.161 141.706 269.414 136.909 273.863 135.719C275.128 135.38 276.08 135.104 277.205 134.441C277.314 133.375 277.356 133.718 277.202 132.796C277.169 132.604 277.127 132.413 277.089 132.222C277.694 132.19 278.306 132.168 278.908 132.101C282.037 131.753 282.158 129.648 284.105 127.585C285.73 125.864 288.464 126.955 290.444 125.958C293.988 124.174 296.162 119.288 299.864 117.824C301.275 117.267 302.864 117.74 304.301 117.464C305.392 117.254 305.96 116.575 306.628 115.761L306.115 114.177L306.901 113.44C307.772 113.444 308.815 113.518 309.664 113.335C310.94 113.061 311.393 111.986 312.122 111.044C313.63 109.093 317.736 109.21 320.062 108.962L321.632 104.943C324.138 105.299 326.218 105.958 328.418 104.339C328.983 103.099 329.392 102.015 330.471 101.124C333.78 99.9744 336.938 100.333 340.328 100.762L340.123 100.428L341.381 100.916C342.664 98.8043 342.042 96.307 343.912 94.5532C345.182 94.3352 345.803 94.6262 346.935 95.144C347.963 95.6145 348.205 95.7912 349.367 95.7934L349.671 93.8923L350.461 93.5739C351.261 94.1332 351.716 94.4081 352.665 94.7171C355.98 93.0635 358.111 89.6537 361.272 88.1227C362.627 87.4662 363.361 87.8689 364.7 88.4173C365.775 88.8577 365.155 88.8228 366.403 88.4349L366.548 86.5558C367.9 86.0826 368.711 86.5811 370.055 86.9546C373.758 85.5178 381.064 81.0504 384.567 80.8603C386.002 80.7825 386.7 82.4913 388.408 82.3371C389.094 81.3627 389.712 80.3789 390.324 79.3579C391.48 78.9003 391.656 78.6892 392.936 78.8633C393.082 79.7325 393.216 80.2933 393.57 81.1172L394.752 80.9975C396.331 79.6955 395.058 78.8907 396.048 77.3086C398.823 76.4978 401.598 77.9769 404.437 77.3964C405.089 76.6221 405.667 76.0289 406.492 75.4398C408.157 75.8685 408.66 76.6742 409.855 77.8776L410.41 77.7205L413.031 72.6955C417.136 71.8751 421.635 71.9849 425.642 70.8273C428.067 70.1265 429.662 68.1349 432.313 67.8841C434.443 67.6826 437.097 69.0497 439.363 69.1538C439.757 68.3341 439.619 68.0305 439.557 67.1456C439.945 66.7571 439.99 66.6641 440.542 66.3749C443.514 64.8176 446.124 67.3849 448.772 68.2778L449.037 66.1525L449.863 66.043C450.18 67.0329 450.225 67.3095 451.015 68.0347L451.785 67.6699C451.476 66.9283 451.321 66.4585 451.206 65.6469C455.27 64.5875 467.316 63.5236 471.648 63.6933C473.279 63.7572 473.739 65.1616 475.431 65.097L476.074 62.9555C478.008 61.5093 482.9 62.4617 485.386 62.1553C487.21 61.9305 489.046 61.4609 490.835 61.0399Z"/>
		<path fill="#FEFEFE" transform="matrix(3.7681 0 0 3.76781 -318.714 -149.234)" d="M368.102 151.471C369.8 151.535 370.872 151.736 372.455 152.351C372.761 152.811 373.167 153.13 373.068 153.715C372.632 156.274 369.526 158.38 367.522 159.663C350.634 170.474 318.878 174.815 299.313 170.226C297.734 169.789 296.158 169.259 294.927 168.122C293.971 167.239 293.793 166.704 293.744 165.442C296.02 161.934 305.818 163.771 309.749 163.922C334.67 164.88 345.636 162.002 368.102 151.471Z"/>
		<path fill="#FEFEFE" transform="matrix(3.7681 0 0 3.76781 -318.714 -149.234)" d="M459.535 119.636C465.877 119.052 482.588 125.339 489.986 127.05C518.355 133.612 549.642 135.461 578.534 131.554C590.402 129.949 602.884 126.224 614.821 125.933C616.741 125.886 618.028 125.836 619.451 127.199C619.117 128.979 617.44 130.042 616.023 131.055C588.503 143.245 525.674 142.808 495.917 137.131C489.502 135.907 483.444 133.656 477.372 131.303C473.164 129.672 461.002 125.132 459.057 120.741L459.535 119.636Z"/>
		<path fill="#FEFEFE" transform="matrix(3.7681 0 0 3.76781 -318.714 -149.234)" d="M403.587 208.468C404.024 208.687 404.908 209.05 405.275 209.425C406.06 210.227 406.488 211.062 406.221 212.199C405.516 215.19 401.065 218.165 398.685 219.882C391.406 225.134 383.07 229.053 375.079 233.111C342.292 249.759 308.768 261.325 271.813 263.057C263.38 263.453 254.931 263.764 246.562 262.441C244.824 262.177 243.679 261.667 242.49 260.327C242.368 259.718 242.151 259.314 242.414 258.716C243.238 256.84 245.716 256.315 247.54 255.962C252.395 255.025 257.952 255.414 262.919 255.215C274.935 254.733 287.044 254.333 298.859 251.935C326.217 246.384 352.71 235.868 377.464 223.049C386.45 218.396 393.952 212.025 403.587 208.468Z"/>
		<path fill="#0101FE" transform="matrix(3.7681 0 0 3.76781 -318.714 -149.234)" d="M200.394 464.624C202.186 467.497 202.831 470.255 203.501 473.526C205.595 483.746 209.205 487.775 217.129 494.48C216.86 495.528 216.664 496.505 216.491 497.569C216.261 498.974 215.338 500.302 214.642 501.529L215.179 502.339C215.599 502.98 215.901 503.505 216.093 504.256C215.53 505.233 214.992 506.189 214.515 507.213C218.971 515.815 214.541 518.129 218.045 527.386C217.056 528.836 215.628 530.469 215.499 532.248C216.242 533.534 217.246 534.095 218.458 534.87L218.434 535.634L216.828 536.617C216.756 539.452 216.938 542.277 216.9 545.109C217.19 545.162 217.485 545.193 217.77 545.266C217.989 545.322 218.195 545.419 218.408 545.495C218.01 551.757 217.003 559.87 218.223 566.023C218.55 567.672 220.625 570.687 219.978 572.255C219.878 572.498 219.63 572.65 219.456 572.847L217.208 572.435L217.152 573.138L219.128 574.896C219.308 578.37 219.564 582.045 219.434 585.512C218.416 586.232 217.477 586.828 216.293 587.242C209.489 589.618 202.179 588.529 195.155 588.51C192.151 588.502 189.268 589.728 186.275 589.939C175.918 590.67 163.322 588.728 153.889 584.305C148.314 581.691 144.601 576.189 139.243 573.878C139.105 573.818 138.964 573.767 138.825 573.712C136.933 568.636 134.085 564.693 131.263 560.156C126.155 551.941 127.119 537.246 129.367 528.144C131.481 519.587 138.494 508.467 144.678 502.288C147.601 499.367 151.264 497.102 154.566 494.629C169.221 483.653 184.709 474.071 200.394 464.624Z"/>
	</g>
</svg>
