<?xml version="1.0" encoding="UTF-8"?>
<svg id="Layer_1" xmlns="http://www.w3.org/2000/svg" xmlns:xlink="http://www.w3.org/1999/xlink" viewBox="0 0 4267 4576">
  <defs>
    <style>
      .cls-1 {
        fill: none;
      }

      .cls-2 {
        fill: #0305a8;
      }

      .cls-3 {
        fill: #0202fe;
      }

      .cls-4 {
        clip-path: url(#clippath);
      }
    </style>
    <clipPath id="clippath">
      <rect class="cls-1" x="0" y="0" width="4267" height="4576"/>
    </clipPath>
  </defs>
  <g class="cls-4">
    <g>
      <path class="cls-3" d="M143.6,2355.01c-8.84,23.14-23.1,44.02-32.31,67.05-24.09,60.26-78.08,229.93-8.53,276.51,6.65,4.44,13.62,8.29,20.92,11.57,7.3,3.28,14.81,5.92,22.55,7.93l2.25,2.53-.62,2.76c-30.07-3.25-55.47-6.98-78.11-29.41-24.4-24.17-36.89-58.97-36.69-92.99.5-87.2,49-201.9,111.36-262.86,1.23,6.43,1.56,10.7-.81,16.9Z"/>
      <path class="cls-3" d="M1338.29,1657.38c-2.24,32.33,3.6,67.1-.72,98.79,8.05,96.52,16.6,151.29,65.8,235.96,24.25,41.73,49.26,73.59,86.23,105,32.16,27.32,68.68,34.15,101.14,57.8,17.9.25,43.12-2.19,58.3,7.95-.35.73-.7,1.46-1.04,2.19-1.46,3.16-2.84,6.33-4.51,9.39-5.7,10.48-16.67,16.9-27.96,19.87-35.16,9.24-82.7-12.83-112.65-29.68-43.81-24.65-93.96-64.05-107.88-114.41-9.22-8.07-17.17-15.91-23.86-26.33-42.56-66.25-51.76-140.65-56.81-217.01-1.45-21.9-4.4-45.04.3-66.66,1.01-19.26-.61-38.4,1.41-57.74,2.9-27.64,19.79-103.7,34.12-125.5,10.81,38.56-9.34,63.7-11.88,100.39Z"/>
      <path class="cls-2" d="M1338.29,1657.38c-2.24,32.33,3.6,67.1-.72,98.79-12.83-20.76,4.79-85.46-8.37-110.92-.94,2.02-1.84,4.05-2.83,6.05-13.68,27.6,3.45,60.72-10.21,86.31-.47.89-1.01,1.75-1.52,2.62,1.01-19.26-.61-38.4,1.41-57.74,2.9-27.64,19.79-103.7,34.12-125.5,10.81,38.56-9.34,63.7-11.88,100.39Z"/>
      <path d="M931.13,2049.58c-.17,9.76-5.01,16.29-12.15,22.56-15.01,13.17-34.91,19.91-51.02,31.87-2.12,20.47-6.3,39.09,7.49,56.43,13.79,17.34,38.74,31.44,37.23,56.47-.58,9.64-5.14,22.15-12.78,28.43-6.84,5.63-17.66,5.43-25.98,4.11-22.45-3.56-48.86-29.1-61.33-47.74-14.52-21.71-18.17-44.57-19.16-70.18-17.55,4.86-34.97,9.32-52.84,12.87,2.31,31.8,15.41,102.8-4.86,127.8-5.22,6.44-12.13,9.5-20.35,9.86-9.19.4-17.79-2.73-24.43-9.14-25.23-24.37-21.13-94.68-20.58-128.63-12.25-2.12-33.6-8.71-44.96-1.97-3.64,2.16-6.33,5.97-8.87,9.25-15.46,23.09-37.11,92.11-65.9,94.8-10.57.99-19.43-3.74-26.92-10.91-6.99-6.69-10.7-14.24-10.85-23.97-.5-33.06,21.2-63.46,26.62-95.78.13-.75.27-1.5.41-2.25-21.12-9.96-70.45-25.67-78.23-49.5-1.8-5.5-1.73-9.68.93-14.89,3.07-5.97,9.24-10.51,14.56-14.3,32.83-1.67,68.57,16.75,99.43,26.86,46.01,15.08,96.01,27.81,144.73,26.12,69.08-2.4,146.76-65.1,198.75-61.39,5.94,6.26,11.21,14.17,11.05,23.24Z"/>
      <path d="M575.22,1526.21c25.62,1.38,52.51-.47,77.8,3.87,16.58,2.84,30.42,14.28,46.42,17.2,18.19,3.32,51.88-6.48,65.04,9.8,8.63,10.67,2.55,23.37,9.86,33.87,8.64.11,15.32-.91,22.03,5.44,16.42,15.56,25.15,52.5,23.7,74.77-.6,9.15-2.96,19.37-10.08,25.7-8.67,7.72-24.9,7.73-35.71,6.58-25.68-2.73-33.03-23.17-53.94-31.05-.45.84-.9,1.68-1.36,2.52-1.65,2.97-3.44,5.69-5.37,8.48-18.78-1.07-43.37-3.2-61-9.63-2.17-3.66-2.27-5.87-2.29-10.09-4.88-.07-8.29,2.01-12.6,4.05-13.61-1.33-25.88-9.08-39.28-12.19-13.3,3.41-26.95,7.65-40.49,9.77-7.77-6.06-17.53-15.89-27.04-18.41-5.09,2.98-4.65,7.61-8.14,9.99-1.8,1.23-101.12,5-112.88,5.93-13.95.62-27.97.13-41.89,1.08-21.48,1.47-42.56,6.25-64.18,5.17-26.58-1.33-55.43-10.6-81.98-15.4,4.4-7.16,8.64-14.33,11.14-22.4,4.34-14.03,2.25-45.08,15.22-54.3,10.33-7.35,23.67.99,33.25-6.53-.07-2.59-.31-5.57-.02-8.16.46-4.02.26-6.8,3.36-9.47,25.92-22.35,118.46-26.2,151.45-22.67,6.05-.43,11.95-.97,18-.38,11.99,1.15,23.54-1.73,35.23-3.43,1.1-.16,2.23,0,3.33-.13,4.66-.49,8.07-3.46,11.74-6.14,23.61,1.47,47.1,4.93,70.68,6.2Z"/>
      <path class="cls-3" d="M3407.82,3823.99c-1.91,63.61-.17,127.13,5.23,190.54,4.44,47.43,40.87,202.44,37.56,228.7-.44,3.47-.76,3.82-1.92,6.6-1.9,2.13-3.94,4.1-6.14,5.92-2.2,1.82-4.52,3.46-6.97,4.93-2.45,1.47-4.99,2.74-7.64,3.81-2.64,1.07-5.35,1.94-8.12,2.61-8.32,2.04-17.2,1.74-24.4-3.3-10.01-7.07-16.44-21.45-20.3-32.65-8.08-23.5-11.33-49.68-15.89-74.08-10.03-53.67-20.66-108.01-24.17-162.59-4.57-70.84.46-140.42-8.57-211.38-29.22,5-58.27,7.26-87.81,9.55-2.79-2.86-4.54-4.36-8.06-6.44-2.61,2.5-5.27,4.76-8.1,7-4.76.1-6.96-.68-10.89-3.12-23.82-14.82-47.75,7.98-71.2-7.82-14.53-9.8-32.97-1.47-49.27-6.55-23.16-7.23-40.36-27.27-63.54-33.83-12.52,6.56-6.87,2.56-17.8.84l-4.13,7.26c-12.14-3.71-24.01-11.67-35.68-17.02-29.86-13.7-57.86-19.86-82.02-44.04-12.07-12.08-20.55-28.76-32.86-39.99-7.63-6.96-18.91-8.61-25.2-17.31-.57-.78-1.07-1.6-1.62-2.39-12.88-18.57-40.67-72.61-46.05-93.93-2.25-8.93-2.59-19.04-3.51-28.21-6.77-8.62-16.67-14.58-22.13-24.1,5.01-17.45-12.63-45.07-15.75-64.72-4.4-27.72-1.09-57.43,4.2-84.8,1.06,1.04,2.13,2.07,3.16,3.13,17.44,18.1,31.09,88.29,55.27,123.29,16.78,24.3,41.7,45.02,64.54,63.48,99.42,80.37,255.4,159.51,384.55,166.53,52.19,2.83,104.2-3.14,156.51,1.72,3.7,43.82-.16,88.46-1.27,132.33Z"/>
      <path class="cls-3" d="M2798.24,3009.25c-14.89,22.99-57.08,74.2-76.25,94.33-97.39,102.24-246.29,201.96-390.66,205.02-91.36,1.94-171.03-24.78-237.38-88.78-125.83-121.36-178.75-299.9-224.45-463.34-18.76-67.09-40.02-135.28-41.27-205.45,6.62,2.36,8.08,4.49,11.04,10.9,7.42,16.13,12.39,34.58,18.5,51.37,9.68,26.71,20.65,52.87,32.91,78.5,77.85,165.15,215.22,370.99,389.63,446.08,81.05,34.89,162.5,30.03,243.62-2.51,62.81-25.2,126.84-62.96,179.38-105.56,35.24-28.57,69.56-72.87,111.68-90.16-1.29,24.9-5.41,47.13-16.74,69.61Z"/>
      <path class="cls-3" d="M590.01,1062.31c-20.81,40.55-43.8,81.15-61.8,122.99-46.63,108.42-75.44,228.29-91.97,344.79-32.99-3.53-125.53.32-151.45,22.67-3.1,2.67-2.9,5.46-3.36,9.47-.3,2.6-.05,5.57.02,8.16-9.58,7.53-22.93-.82-33.25,6.53-12.97,9.23-10.88,40.28-15.22,54.3-2.5,8.07-6.74,15.25-11.14,22.4,26.54,4.8,55.4,14.07,81.98,15.4,21.63,1.09,42.71-3.7,64.18-5.17,13.92-.95,27.94-.46,41.89-1.08-12.7,63.05-14,127.65-17.91,191.72-4.09,67.14-9.54,135.03-9.44,202.32.07,55.29,3.99,110.35,1.07,165.64-4.34,82.39-27.21,162.31-30.7,244.93,53.96-13.23,97.06-29.45,153.98-15.53,5.72-9.4,13.05-24.87,25.05-26.79,17.21-2.76,46.4,18.99,58.96,29.87,2.11,1.84,4.17,3.73,6.18,5.67,2.01,1.94,3.97,3.93,5.89,5.97,1.91,2.04,3.77,4.13,5.58,6.27,1.81,2.13,3.56,4.31,5.26,6.53,1.7,2.22,3.34,4.49,4.93,6.79,1.59,2.3,3.12,4.64,4.58,7.03,1.47,2.38,2.88,4.79,4.23,7.24,1.35,2.45,2.63,4.93,3.86,7.45,1.22,2.52,2.38,5.06,3.48,7.63,1.1,2.57,2.13,5.17,3.1,7.8.97,2.63,1.87,5.27,2.7,7.94.83,2.67,1.6,5.36,2.3,8.07.7,2.71,1.33,5.43,1.9,8.17.57,2.74,1.06,5.49,1.49,8.26.43,2.76.78,5.53,1.07,8.32.29,2.78.5,5.57.65,8.37,2.45,40.38-7.27,83.27-34.81,114.04-15.6,17.43-42.68,32.11-55.27,49.65-18.75,8.93-41.12,15.07-61.78,17.3-51,5.5-88.15-19.89-119.48-57.1-11.38-13.51-22.43-29.2-36.42-40.1-54.75-42.63-105.33,60.54-160.98,66.6-5.19.56-8.72,1.42-13.56,3.4-6.11-.44-11.95-1.68-17.94-2.9l.62-2.76-2.25-2.53c-7.74-2.01-15.25-4.66-22.55-7.93-7.3-3.27-14.27-7.13-20.92-11.57-69.55-46.59-15.56-216.25,8.53-276.51,9.21-23.03,23.47-43.9,32.31-67.05,2.37-6.2,2.04-10.48.81-16.9,18.87-18.86,33.74-41.19,50.16-62.13,19.17-24.46,40.29-47.55,57.15-73.72-2.94-25.93-13.55-52.91-19.79-78.44-68.53-280.44-77.65-625.07,19.01-900.07,21.9-62.3,52.14-121.4,83.16-179.48,9.17-17.17,16.74-35.43,26.82-52.04-14.53-9.53-32.46-16.59-48.03-24.48-45.94-23.3-123.79-63.67-146.27-110.2-6.4-13.26-4.32-22.17.22-35.67,15.37,10.73,26.29,26.21,39.77,39.05,9.36,8.92,20.87,16.43,31.33,24.04,22.03,16.02,44.54,31.75,67.68,46.14,18.46,11.48,47.52,21.36,61.71,37.25,4.19,4.69,8.36,9.47,12.64,14.06,66.88,31.61,139.58,57.22,210.03,79.9Z"/>
      <path d="M531.93,2425.09c17.21-2.76,46.4,18.99,58.96,29.87,2.11,1.84,4.17,3.73,6.18,5.67,2.01,1.94,3.97,3.93,5.89,5.97,1.91,2.04,3.77,4.13,5.58,6.27,1.81,2.13,3.56,4.31,5.26,6.53,1.7,2.22,3.34,4.49,4.93,6.79,1.59,2.3,3.12,4.64,4.58,7.03,1.47,2.38,2.88,4.79,4.23,7.24,1.35,2.45,2.63,4.93,3.86,7.45,1.22,2.52,2.38,5.06,3.48,7.63,1.1,2.57,2.13,5.17,3.1,7.8.97,2.63,1.87,5.27,2.7,7.94.83,2.67,1.6,5.36,2.3,8.07.7,2.71,1.33,5.43,1.9,8.17.57,2.74,1.06,5.49,1.49,8.26.43,2.76.78,5.53,1.07,8.32.29,2.78.5,5.57.65,8.37,2.45,40.38-7.27,83.27-34.81,114.04-15.6,17.43-42.68,32.11-55.27,49.65-18.75,8.93-41.12,15.07-61.78,17.3-51,5.5-88.15-19.89-119.48-57.1-11.38-13.51-22.43-29.2-36.42-40.1-54.75-42.63-105.33,60.54-160.98,66.6-5.19.56-8.72,1.42-13.56,3.4-6.11-.44-11.95-1.68-17.94-2.9l.62-2.76-2.25-2.53c-7.74-2.01-15.25-4.66-22.55-7.93-7.3-3.27-14.27-7.13-20.92-11.57-69.55-46.59-15.56-216.25,8.53-276.51,9.21-23.03,23.47-43.9,32.31-67.05,2.37-6.2,2.04-10.48.81-16.9,18.87-18.86,33.74-41.19,50.16-62.13,19.17-24.46,40.29-47.55,57.15-73.72,16.85-11.77,47.53-37.95,69.15-35.69,5.9.62,10.53,3.84,13.57,8.8,5.34,8.68,7.43,21.85,5.04,31.76-7.83,32.52-65.5,54.93-86.9,81.86-51.14,64.37-156.73,276.74-115.71,353.42,3.52,6.57,8.54,14.27,15.76,17.15,9.77,3.91,21.09-1.02,29.51-5.94,51.68-30.21,77.81-90.55,149.51-73.87,71.87,16.73,107.93,154.25,194.02,104.33,29.09-16.87,55.69-47.95,63.28-81.13,5.99-26.2,1.87-53.44-13.18-75.83-19.11-28.44-51.29-45.65-68.88-75.25,5.72-9.4,13.05-24.87,25.05-26.79Z"/>
      <path d="M2749.23,1446.78c130.14,168.08,176.03,388.87,148.92,597.82-25.96,200.11-119.03,461.78-284.77,588.2-49.19,37.52-102.22,56.43-163.81,60.48-44.77,3.53-100.2-19.82-133.67-48.64-2.21-1.9-4.36-3.86-6.47-5.87-2.11-2.01-4.16-4.07-6.17-6.18-2.01-2.11-3.96-4.27-5.86-6.48s-3.74-4.46-5.53-6.77c-1.79-2.3-3.51-4.64-5.18-7.03s-3.28-4.81-4.83-7.28c-1.55-2.47-3.04-4.97-4.46-7.51-1.43-2.54-2.79-5.12-4.08-7.73-1.3-2.61-2.53-5.24-3.7-7.91-1.17-2.67-2.26-5.37-3.3-8.09-1.03-2.72-1.99-5.47-2.89-8.25-.9-2.77-1.72-5.56-2.48-8.38-.76-2.81-1.44-5.64-2.06-8.49-.62-2.85-1.16-5.71-1.63-8.58-.47-2.88-.87-5.76-1.2-8.66-.33-2.89-.59-5.79-.77-8.7-8.32-124.88,118.09-195.78,98.5-339.02-16.84-123.12-132.71-192.35-193.94-291.79-24.4-39.62-39.38-83.37-48.04-128.95-10.87-57.2-10.93-118.35-2.82-176.03,12.17-86.61,50.11-178.4,108.6-244.13,48.67-54.69,110.44-81.37,183.17-85.07,16-.81,32.8-.83,48.75.75,119.43,15.34,227.57,95.1,299.72,188.28ZM2358.98,2515.48c21.33,21.28,54.15,29.25,83.52,29.61,39.93.49,78.79-17.39,106.81-45.48,56.7-56.83,81.56-133.43,106.49-207.65,8.5-25.33,18.03-50.86,24.45-76.79,6.7-27.05,10.12-55.63,14.51-83.17,10.37-65.07,21.05-131.74,20.23-197.83-1.4-112.96-36.77-225.17-119.37-305.33-16.2-15.72-100.91-80.95-120.64-78.21-3.18.44-7.13,5.3-10.31,5.93-5.4,1.09-36.01-6.69-47.21-6.45-46.06.97-85.93,26.87-116.65,59.59-46.97,50.03-64.92,110.86-82.6,175.09-3.95,14.37-11.93,31.79-11.18,46.61.23,4.57.47,7.3-1.4,11.63-.52,1.2-1.11,2.36-1.66,3.53,9.09,72.91,173.16,177.29,201.87,310.25,28.89,133.77-81.98,268.93-77.56,293.42,8.78,21.77,13.59,48.16,30.71,65.24Z"/>
      <path class="cls-3" d="M2358.98,2515.48c21.33,21.28,54.15,29.25,83.52,29.61,39.93.49,78.79-17.39,106.81-45.48,56.7-56.83,81.56-133.43,106.49-207.65,8.5-25.33,18.03-50.86,24.45-76.79,6.7-27.05,10.12-55.63,14.51-83.17,10.37-65.07,21.05-131.74,20.23-197.83-1.4-112.96-36.77-225.17-119.37-305.33-16.2-15.72-100.91-80.95-120.64-78.21-3.18.44-7.13,5.3-10.31,5.93-5.4,1.09-36.01-6.69-47.21-6.45-46.06.97-85.93,26.87-116.65,59.59-46.97,50.03-64.92,110.86-82.6,175.09-3.95,14.37-11.93,31.79-11.18,46.61.23,4.57.47,7.3-1.4,11.63-.52,1.2-1.11,2.36-1.66,3.53-45.94-91.43-58.75-207.38-26.53-305.18,25.29-76.77,71.77-166.53,147.49-204.14,59.19-29.4,122.24-22.97,183.08-2.09,117.99,40.51,210.14,149.88,263.61,259.75,93.47,192.07,98.8,415.44,29.04,615.74-49.3,141.55-130.27,336.5-272.97,405.56-39.36,19.05-85.04,27.57-127.17,12.52-35.35-12.63-63.82-40.23-79.64-74.08-11.36-24.31-15.83-53.37-6.2-78.97,3.33-8.84,6.73-18.71,13.6-25.43,8.78,21.77,13.59,48.16,30.71,65.24Z"/>
      <path class="cls-3" d="M548.94,2886.73c-.88,18.15,2.59,36.76,3.32,54.93.9,22.17-1.1,44.84-2.39,67l3.67.38c33.3,3.32,127.72-12.1,149.69,11.99,4.32,4.74,6.15,11.03,5.53,17.37-.88,8.94-5.32,17.03-10.1,24.43-21.68,1.92-139.75,2.64-143.73,4.02.39,77.5,28.25,222.71,52.16,296.34,11.91,36.7,27.99,71.31,42.76,106.88,9.87,23.77,18.21,49.92,31.26,72.07,16.38,27.81,71.61,83.32,76.62,107.53.17.83.3,1.68.45,2.52,3.31,1.22,6.58,2.53,9.82,3.93l3.82,1.66c20.61,8.79,49.1,47.82,69.57,64.63,45.46,37.33,101.43,65.66,156.38,86.3,88.96,33.42,198.45,53.65,293.09,40.73,44.56-6.09,87.53-21.92,130.81-33.7,95.95-26.11,200.86-36.88,299.34-20.48,38.72,6.45,77.74,17.32,113.16,34.44,67.67,32.72,154.66,112.88,197.63,173.6,69.74,98.53,115.79,236.52,125.57,356.5,1.45,17.83-.07,35,.11,52.78.2,19.3,3.84,43.61-.43,62.35-1.43,6.26-2.85,8.57-8.06,12.13l-4.17-4.48c-9.97,3.83-18.46,9.09-29.04,11.83-14.18,3.61-19.04.96-30.9-5.78l-9.72,6.48c-2.04,1.39-4.06,2.83-6.12,4.17-24.46,15.91-35.21.39-59.11-.48-6.37-.26-15.08,5.96-21.16,8.22-12.71,4.65-39.33,3.3-52.47.39l-4.09-6.52c-3.56,2.35-2.28,1.17-5.14,4.52-.68.78-1.34,1.61-2.01,2.44-20.64,7.83-33.01-1.74-52.87-1.83-46.44-.13-93.61,5.17-140.3,5.91-12.14.22-18.05-6.74-28.9-8.57-22.33-3.78-54.06,8.83-74.44-4.87-9.99-39.96-1.35-89.22-3.72-130.83-4.18-73.52-26.99-144.28-83.76-194.1-28.21-24.75-63.17-39.34-99.14-48.83-87.95-23.2-165.46-1.23-249.25,24.55-23.83,7.33-51.89,17.31-76.71,19.57-10.77.98-21.68-2.1-32.52-1.07-29.82,2.84-56.95,12.15-87.54,12.6-41.44.61-81.51-5.65-123.22-2.74-1.58-7.06-1.66-13.25-6.68-18.58l-3.34.62-2.33,9.91-2.61,1.42c-4.99-3.3-9.93-6.63-15.17-9.55l-7.01,5.31c-9.35-.08-10.46-6.54-19.2-7.19-11.5-.86-23.5,3.68-34.98,2.23-13.77-1.75-68.48-24.48-83.44-31.18-49.65-22.23-88.37-63.43-127.16-100.02-16.56-15.62-34.35-30.01-47.51-48.79-7.7-10.99-12.03-23.47-16.68-35.95-.68-.46-1.36-.9-2.03-1.37-.97-.67-1.9-1.37-2.87-2.02-4.67-3.14-6.67-4.41-8.99-9.64-10.6-23.94-25.69-46.08-36.82-69.95-18.34-39.37-26.62-72.44-40.83-112.02-12.36-34.44-26.46-65.87-34.56-102.06-6.95-31.08-6.43-61.81-8.51-93.29-3.85-58.04-6.64-116.4-11.34-174.37-8.3-102.41-25.42-204.11-38.39-305.97-5.96-46.83-13.31-94.7-23.31-140.86-4.41-20.4-13.39-41.67-16.2-62.09-.72-5.24.71-10.89,1.73-16.01,1.33-6.74-22.69-56.16-27.25-65.58-16.52-34.19-57.35-53-91.45-64.4,4.84-1.98,8.37-2.84,13.56-3.4,55.65-6.06,106.23-109.23,160.98-66.6,13.98,10.89,25.04,26.59,36.42,40.1,31.33,37.21,68.49,62.6,119.48,57.1,20.67-2.23,43.04-8.37,61.78-17.3,5.84,52.04-6.57,99.3-9.07,150.57Z"/>
      <path d="M553.54,3009.05c33.3,3.32,127.72-12.1,149.69,11.99,4.32,4.74,6.15,11.03,5.53,17.37-.88,8.94-5.32,17.03-10.1,24.43-21.68,1.92-139.75,2.64-143.73,4.02-2.39.72-2.58.84-5.46,1.29-25.22,3.9-140.09,6.28-163.11,3.49-8.8-1.07-19.33-2.98-26.17-9.15-5.77-5.21-11.41-15.75-10.84-23.68.38-5.3,3.14-10.03,7.02-13.52,29.07-26.07,152.45-17.69,193.48-16.61l3.67.38Z"/>
      <path d="M2494.75,79.27c4.39-5.33,6.02-9.21,12.81-10.99,5.83,2.8,9.06,6.35,13.28,11.05,6.2-1.26,10.27-6.16,14.76-10.32,6.2-.71,7.15-.77,12.37,3.29,2.38,1.84,4.76,4.89,6.73,7.08,24.26-1.31,56.19-13.32,76.52,4.09,6.38,5.47,11.6,13.11,16.72,19.77,1.62-7.46,2.23-18.1,7.2-23.78,5.14.89,9.24,1.15,13.69,4.02l-1.4,9.15,1.37,1.57,7.28-6.33c12.02,1.74,22.51,6.5,34.02,9.97,12.74-3.1,23.16-5.95,36.15-2.07,4.32,9.33-3.99,15.31-.19,24.21,19.73,4.18,31.78-21.22,53.19-16.48,11.5,2.55,58.11,27.01,61.88,24.83,3.18-1.83,1.9-1.28,5.84-1.65.36,1.32.71,2.65,1.08,3.97,1.1,3.85,2.18,5.86,5.11,8.69,6.86,1.17,8.29,1.68,14.65-.85,5.09-6.18,6.82-10.04,14.57-12.45,7.07,1.7,11.22,2.84,16.56,7.91l.96,3.85c1.3,5.12,2.52,11.01,6.67,14.41l7.07-5.21c4.71,1.35,5.33,5.08,8.07,5.94,5.96,1.87,6.51-11.44,21.41,0,2.37,5.93,3.36,20.77,7.8,22.72,8.09-4.9,14.04-10.91,20.57-17.6,9.27,5.12,24.19,16.71,33.8,18.91,7.38,1.69,14.58-2.79,21.96.34,3.8,1.61,6.04,7.48,7.13,11.23.73,2.53,1.33,5.11,1.93,7.68,7.57.93,17.14-3.44,24.51-5.66,32.66,28.92,67.31,24.67,100,49.84,2.45,7.34,4.17,14.41,9.52,20.24,3.98-1.04,6.96-2.3,10.65-4.04l7.98,1.56c2.74,6.92,3.81,14.01,5.12,21.31,5.73-1.32,10.47-6.92,15.16-7.91,10.2-2.14,43,15.56,52.12,21.4,37.84,24.21,38.22,40.22,87.52,59.39,9.73,3.79,18.63,7.77,20.7,18.88.68,3.65,1.16,7.32,1.63,11,8.07.57,13.03-4.57,20.8-1.44.47.87.91,1.75,1.4,2.61,11.97,21.49,32.05,19.46,47.23,34.77,10.13,10.22,10.03,26.82,20.56,36.38,5.24.16,9.29-2,13.97-4.05,7.89.5,12.81,3.33,17.83,9.35,6.11,7.32,6.72,27.67,15.7,28.61,3.34.35,7.18-.17,10.54-.37l2.68,2.72-.67,10.95c4.41,2.36,6.47,2.3,11.37,2.53,8.17,8.13,1.22,21.37,9.01,27.6,7.57,6.04,20.63,6.56,28.74,13.49,10.98,9.38,15.76,25.43,25.53,36.02,9.43,10.22,24.97,14.79,34.13,25.41,4.03,4.66.43,13.01,5.13,16.05,4.74,3.07,8.67-1.29,12.53,4.8l-9.92,5.36-.05,3.81,2.63,2.04c3.61-1.33,14.38-7.31,17.37-5.88,25.78,12.3,29.18,47.87,67.56,63.59,21.37,31.31,42.88,60.93,67.33,90.06,10.45,12.45,23.39,24.19,32.96,37.16,3.72,5.04,3.84,11.7,6.55,17.31,7.21,14.93,23.05,28.42,35.35,39.38.48.43.92.91,1.38,1.37,9.33,43.89,43.99,50.21,46.25,80.56,3.37,3.2,6.68,5.13,10.77,7.33,1.48,6.79-4.09,11.04,1.26,14.96l5.92-.62c17.05,35.62,39.62,68.77,55.85,104.68,6.61,14.63,4.4,32.06,11.33,46.47l4.61-3.95c19.43,13.93,42.26,102.25,51.6,126.62,12.03,31.41,30.21,61.1,36.16,94.78,7.59,42.91,6.49,35.07,30.02,68.61,1.67,55.37,24.07,101.75,37.04,154.63,5.78,23.59,1.06,47.73,5.02,71.59,4.65,28.03,16.79,54.56,20.04,82.63,1.99,17.22,6.85,47.27,1.68,63.95-3.04,9.8-12.47,19.34-12.19,29.46l2.51,2.26c6.07,5.57,11.26,9.04,11.7,17.91.7,14.1-6.01,25.22-3.41,39.66,3.13,17.37,10.88,41.01.28,56.39-.44,31.66-4.83,63.32-4.13,94.87-4.18,5.77-8.83,1.34-7.89,8.63l5.15,3.28c-.66,7.31-14.7,22.82-11.95,27.03,3.85,5.89,9.6,5.74,10.2,14.49,1.5,21.83-12.2,65.19-16.34,88.56-9.44,53.22-20.46,106.06-30.05,159.19-4.36,24.13-6.8,48.82-12.52,72.66-7.76,32.31-19.82,63.59-29.67,95.29-6.06,19.5-10.51,39.5-16.82,58.91-15.01,46.18-32.64,90.95-50.62,136.01-10.76,26.96-17.67,56.71-30.35,82.64-3.04,1.93-5.42,2.88-8.91,3.74-8.1,18.5-6.08,40.43-14.37,58.39-8.23,17.86-25.2,31.37-30.84,50.1-9.89,32.83-27.06,62.87-42.76,93.19-15.28,29.5-29.6,59.61-45.42,88.8-11.18,20.63-23.84,40.43-34.78,61.21-6.85,13.03-25.15,57.88-33.42,65.5l-4.14-6.28c-3.07,4.01-2.85,7.04-3.47,11.92-1.92,15.09-54.75,100.41-66.35,109.77-4.71,3.8-10.65,5.91-15.5,9.73-.43,4.92-.51,11.45-2.13,16.04-4.9,13.88-19.57,31.04-28.02,43.91-45.58,69.43-92.35,134.41-144.48,199.14-22.26,27.64-44.55,57.68-71.67,80.76-15.66,13.32-38.45,10.21-54.91,24.38-52.3-4.86-104.32,1.12-156.51-1.72-129.15-7.02-285.13-86.17-384.55-166.53-22.85-18.47-47.76-39.19-64.54-63.48-24.18-35-37.82-105.2-55.27-123.29-1.03-1.07-2.1-2.09-3.16-3.13,3.22-8.36,6.07-15.66,6.34-24.71,1.52-50.2-1.81-105.43,9.83-154.58,2.69-11.35,11.76-20.69,14.81-32.09,4.59-17.16,5.76-35.49,9.92-52.88l6.24-2.09c-.17-5.48.02-3.34-.61-8.7l-.47-3.72c2.29-4.16,3.67-6.31,4.19-11.11l-7.92-.17c.97-7.39,10.21-8.25,12.97-16.31-1.87-5.56-2.14-9.97-2.13-15.73l.02-2.16c11.33-22.47,15.46-44.7,16.74-69.61-42.12,17.29-76.44,61.59-111.68,90.16-52.53,42.6-116.57,80.36-179.38,105.56-81.13,32.54-162.58,37.4-243.62,2.51-174.41-75.09-311.78-280.93-389.63-446.08-12.26-25.63-23.23-51.79-32.91-78.5-6.1-16.78-11.08-35.24-18.5-51.37-2.95-6.41-4.42-8.54-11.04-10.9.26-21.63-6.28-42.43-6.97-63.9-.31-9.72.8-23.87,9.02-30.61,5.04-4.13,10.4-5.37,16.75-5.02,25.75,1.42,33.65,46.66,39.51,66.58,40.49,137.71,142.68,312.12,235.02,421.27,66.13,78.17,169.27,155.42,273.89,163.57,149.19,11.62,377.71-185.98,465.61-298.21,16.48-21.13,32.28-42.76,47.39-64.9,12.14-17.8,29.1-55.02,43.77-66.86.51-.41,1.06-.79,1.58-1.18l-1.4.44c1.27-6.93,2.89-13.28,5.91-19.68,9.59-20.3,22.72-38.7,32.98-58.6,7.38-14.32,13.18-32.94,22.43-45.83,6.97-9.7,16.85-15.61,23.41-26.13-.64-4.67-.16-3.43-1.55-7.05-.27-.7-.58-1.39-.87-2.09,4.02-.83,2.78-.78,6.25-.86.7-.01,1.4,0,2.1,0,2.76-6.86-1.93-9.94.48-16.64,3.92-10.87,13.37-19.8,17.57-30.77,5.65-14.76,4.4-31.87,10.04-46.82,4.54-12.04,20.01-26.97,17.91-39.53-5.14-30.7,37.08-61.32,31.75-91.43-.92-5.19-1.28-8.22-.47-13.43,16.06-16.19,6.48-24.03,11.24-42.22,2.5-9.54,10.76-18.52,16.81-26.14-1.62-6.37-4.4-14.15-2.17-20.57,5.2-14.93,5.84-35.9,7.54-52.03,1.23-11.62,11.25-14.37,13.46-23.75,6.22-26.35-9.47-56.73,7.05-91.27-2.48-12.93-6.03-26.12-4.93-39.32l7.34-.65c.5-4.36-2.06-8.26-4.11-12.1-1.82-3.42-4.06-6.54-4.92-10.41-3.18-14.26,2.83-72.93,2.98-92.55.07-8.3-.46-12.97-4.06-20.61-2.75-5.83-4.67-10.6-6.09-16.88,10.11-18.92-1.37-47.59-.77-69.35l.11-3.53c-1.61-.94-3.25-1.85-4.93-2.67l-2.01-.97c-2.62-21.1-10.32-41.26-12.85-62.08-1.19-9.76,4.25-12.08,3.05-20.93-17.31-18.69-9.51-10.41-10.97-30.6-2.1.1-4.36,1.07-6.32.29-.58-.23-.55-1.12-.77-1.7-8.53-23.19-2.11-75.06-22.06-90.65-.86-.67-1.76-1.28-2.61-1.96-3.04-2.4-3.42-3.95-3.91-7.7-7.06-54.3-42.77-123.85-71.16-170.73-8.27-13.65-32.26-44.84-35.28-59-1.2-5.64,1.19-9.75-1.3-15.76-4.57-2.11-13.25-4.97-16.85-8.28-5.18-4.75-10.64-16.59-14.68-22.77-14.27-21.83-43.42-61.11-66.84-72.21-9.81-4.65-21.63-4.09-31.78-7.65-4.8-1.68-8.67-3.76-10.6-8.52l7.48-.9c-3.67-7.63-13.01-7.77-19.71-23.17-3.14-.9-5.25-1.16-8.59-1.13-1.1,0-2.2.07-3.3.1-4.14-6.57,1.43-12.95-.62-20.72-28.37,10.05-35.89-24.97-59.13-30.82-3.89-.98-12.12.06-16.44-.06-8.04-5.13-8.25-15.34-14.04-22.51-7.4-9.17-12.2.58-19.41-1-6.75-1.47-13.1-12.46-21.26-14.5-8.59-2.14-18.4.05-27.28-1.3-8.96-1.36-15.46-3.25-20.89-10.88-2.09-2.93-3.49-4.9-6.07-7.56l-10.14,6.53-2.65-1.44,2.18-5.22-5.77-1.67,5.65.42c-.1-.75-.16-1.51-.31-2.25-1.41-7.06-4.13-10.87-10.01-14.8l-3.68.73c-.63,4.23-1.32,7.92-2.82,11.93-16.68-3.24-29.05-19.89-45.44-25.26-8.74-2.86-14.81-1.43-22.71,2.85-2.68,1.45-3.56.71-6.5.25-.35-4.52-.42-8.3-2.19-12.53-1.45-3.47-3.75-3.36-7.02-4.73-6.02,3.42-.53,5.89-3.34,12.18-13.25-.17-29.85-9.03-42.77-13.13-18.23-5.77-47.77-11.74-66.72-10.6-10.18.61-18.99,5.16-25.25,12.77l-2.54-1.17-.14-7.98c-11.58-2.81-57.41,10.17-72.75,13.07-8.44,1.6-12.43,3.13-18.98,8.9-3.46,3.04-5.44,5.39-9.97,6.83-3.58,1.13-7.25-.81-10.34-2.51-.71-.39-1.4-.82-2.1-1.23-14.95,12.58-20.13,16.04-40.53,15.08-2.13-.1-8.57-1.2-10.49-.64-10.85,3.22-23,18.11-35.14,22.79-1.53-4.38-.41-2.38-3.37-6-.82.03-1.65-.02-2.46.09-10.28,1.4-20.49,7.94-27.1,15.63-1.92,2.23-3.87,4.04-6.12,5.93-2.69-3.37-2.43-3.75-6.74-5.33l-4.12,4.48c-.85,4.54-1.51,9.37-3.32,13.63-4.75,11.17-25.33,16.96-36.05,21.48-5.8,19.56-28.89,29.7-42.82,44.2-23.18,24.15-42.42,55.86-59.8,84.37-4.59,1.89-8.54,3.68-12.74,6.38.31,1.71.93,4.73.92,6.4-.06,7.11-6.59,9.8-11.66,13.8-1.75,3.26-2.32,5.24-2.03,8.96.32,4,1.74,9.87.14,13.68-3.27,7.8-16.88,15.1-24.1,19.38l-2.73,1.59c-4.98,31.14-22.33,62.65-36.63,90.73-4.12,8.1-11.66,10.93-13.67,20.02,1.37,1.38,4.32,4.22,5.29,5.8,6.58,10.77-20.45,35.21-22.26,47.44l6.02,5.59c-.66,3.49-.19,2.03-1.49,5.13-7.06,16.75-25.54,63.63-21.75,79.59,3.14,13.2-3.85,26.42-8.33,38.8l-4.28.13,1.83,1.35c.03,1.18.62,2.58-.07,3.53l-6.53-1.39-1.78,1.91c3.83,4.6,6.93,7,8.07,13.02-12.89,8.32-2.38,24.65-9.01,36.48-1.78,3.17-7.08,7.26-9.76,10.01,2.34,3.64,7.87.52,12.51,3.23-6.63,17.98-7.47,25.72-4.48,44.28-3.99,7.24-7.47,13.73-8.93,21.93-6.74,37.82-13.27,74.5-17.01,112.8-3.4,4.01-6.32,7.67-9,12.23,3.68,3.63,1.91,2.39,6.71,4.93,1.16.61,2.34,1.18,3.5,1.77l-.1,4.03h-4.18s-1.77,2.23-1.77,2.23c12.06,24.23-4.73,30.5-6.7,53.72,3.48-.47,2.07.06,5.36-1.9.81-.48,1.6-1,2.41-1.51.24.63.55,1.25.73,1.91,3.27,12.1-.27,72.46-6.04,84.5-1.8,3.77-3.1,7.36-4.42,11.3,2.9,6.36,8.18,15.41,7.17,22.67-1.03,7.48-6.14,8.82-11.87,12.33-.9,4.07-1.23,3.67.25,7.98,10.31,30.13,0,24.63-13.34,51.5-12.87,25.93-27.05,50.47-56.13,60.24-4.7-.69-8.92-1.2-13.67-.94-2.42,2.62-5.31,6.38-8.27,8.3-11.92,7.73-25.04-5.56-36.7-8.72l-5.55,6.2-9.24-1.78c-15.17-10.14-40.39-7.7-58.3-7.95-32.46-23.65-68.98-30.47-101.14-57.8-36.98-31.41-61.98-63.27-86.23-105-49.21-84.67-57.76-139.44-65.8-235.96,4.32-31.69-1.52-66.46.72-98.79,2.54-36.69,22.69-61.83,11.88-100.39-4.1-32.18,15.05-55.26,31.71-79.75-1.35-2-3.16-4.33-3.43-6.82-1.18-10.84,12.78-42.62,19.92-50.6,2.41-2.7,5.42-4.92,7.81-7.68,15.12-17.47,19.39-103.28,16.91-128.78-3.81-4.2-7.37-8.41-10.84-12.9,1.1-13.03-2.96-18.63-11.1-28.43-49.64-59.81-112.34-76.5-186.7-82.96l-8.74-6.76c-4.14-.14-8-.41-12.1-1.1-23.47-3.92-47.17,2.02-68.57-1.81-25.2-4.51-50.2-15.64-76.19-14.7-9.28.33-11.88.73-18.3,7.29l-4.04-.14c-2.24-2.87-4.7-6.58-7.47-8.93-4.92-4.16-6.41-3.63-12.4-3.05-1.97,3.96-4.05,7.55-6.51,11.22l-6.46,1.19c-5.72-3.41-5.34-6.72-7.21-12.95l-3.39-.2c-.75,4.57-.41,5.84-3.42,9.54-20.42-4.84-71.61-9.83-86.59-16.31-4.89-2.11-8.21-6.43-12.66-8.68-5.52-2.78-19.78,5.52-25.41,7.88-8.08-4.78-16.39-9.19-24.62-13.7-32.91,12.99-31.7-6.52-56.77-7.7-9.44-.44-14.64,7.95-24.35,6.39-1.08-3.14-1.99-5.75-3.88-8.52-1.97-2.89-3.79-2.4-6.98-3.07-34.14-7.1-69.75-7.57-103.68-15.29-15.79-3.59-28.47-14.29-44.69-17.34-70.45-22.68-143.15-48.3-210.03-79.9-4.28-4.6-8.45-9.37-12.64-14.06-14.19-15.9-43.25-25.77-61.71-37.25-23.14-14.39-45.65-30.12-67.68-46.14-10.46-7.61-21.98-15.13-31.33-24.04-13.48-12.84-24.41-28.31-39.77-39.05,43.18-107.92,120.1-186.56,202.91-265.55,19.66-18.75,41.01-44.53,65.99-55.7.97-.43,1.96-.8,2.94-1.21,21.11-8.92,48.03-44.16,66.51-60.71,17.31-15.29,35.17-29.89,53.6-43.81,15.98-12.1,38.7-18.41,52.93-31.7-4.4.01-8.79.05-13.19.11l1.57-3,.03,3.8c2.36-9.93,20.65-20.68,29.59-26.11,16-9.72,96.25-54.25,112.32-56.48,8.49-1.18,11.89-6.21,17.68-12.23,13.69-14.21,121.61-54.99,148.07-64.36,7.62-2.7,25.51-5.01,31.46-9.52,4.38-3.32.1-8.01,8.17-10.89,24.55-8.77,53.5-7.8,78.43-16.25,19.71-6.68,39.15-22.92,59.98-25.01.96.76,1.91,1.53,2.88,2.28,4.2,3.23,2.46,2.06,7.26,4.52,4.42-5.23,11.6-15.63,17.85-18.33,12.24-5.28,31.12-5.41,44.46-8.24,20.7-4.4,40.96-11.5,61.88-14.66l2.57,5.32,2.79.13,2.95-7.67,3.36-.57c26.3-4.75,39.86-16.7,65.33-.2,4.64-5.5,7.72-10.64,10.9-17.08,12.14-4.44,24.43-9.2,37.13-11.75,13.5-2.71,126.24-17.53,133.27-14.97l7.51,6.85c7.29-4.24,12.66-11.91,20.22-15.38,10.09-4.64,25.78-5.04,36.86-6.75,72.99-11.25,144.4-13.91,218.1-15.04,3.77,3.68,2.47,1.47,3.81,6.66,13.71.87,25.19-8.92,40.53-7.93,36.62,2.37,72.03-2.21,108.44-1.09,28.02.86,55.97,3.25,83.98,4.11,26.6.82,53.4-.4,79.95,1.12,19.91,1.14,39.6,4.88,59.42,6.96,16.48,1.73,33.2,1.05,49.76,2.31,14.78,1.12,29.36,3.91,44.11,5.24,20.3,1.83,40.37-1.06,59.52,6.93,4.71,1.96,13.45,7.48,18.19,4.74.93-.54,4.17-4.03,5-4.9,21.67.88,23.38,13.55,48.38,4.52,4.3,3.3,8.13,6.7,12.03,10.44,12.8-3.93,10.99-17.05,32.47-5.17,1.56.86,2.45,1.72,3.87,2.88-.79,4.27-1.53,5.52-.12,9.75,4.09-2.53,6.91-5.26,10.26-8.65,3.62-3.66,5.46-5.62,10.74-6.51,5.14,1.3,9.31,2.81,14.14,4.96,10.23,4.56,18.26,1.32,28.63-1.28,6.17,4.86,12.66,12.19,20.51,12.46ZM2015.03,194.81c-18.58,17.26-27.95,47.51-29.01,72.47-3.49,82.31,42.84,149.49,101.1,202.15,229.29,207.23,544.97,225.39,811.66,349.84,56.91,26.56,117.47,59.16,163.58,102.27,16.84,15.75,30.95,33.43,46.59,50.24,9.75,1.49,24.62,3.6,32.79-3.5,4.28-3.71,7.15-8.1,7.18-13.96.1-19.08-27.91-43.23-40.61-55.4-138.52-132.73-327.5-171.58-504.28-227.65-125.4-39.78-254.6-85.24-367.63-153.35-55.61-33.51-110.74-73.52-151.41-124.57-29.26-36.72-64.42-96.47-43.17-144.41,6.1-13.76,18.94-31.8,19.78-46.95.51-9.27-4.3-14.58-10.23-20.93-.58-.62-1.18-1.24-1.77-1.85-14.28,2.13-23.86,5.63-34.58,15.59ZM1223.74,341.05c-49.13,14.39-97.46,49.69-121.61,95.44-15.29,28.97-21.74,61.43-11.42,93.29,12.24,37.77,44.47,65.31,76.55,86.34,177.4,116.28,506.49,130.55,717.36,150.16,63.91,5.94,128.66,10.27,191.74,22.53,47.93,9.31,91.18,25.92,134.86,47.18,6,1.73,11.71.7,17.12-2.41,5.47-3.15,10.36-9.1,11.63-15.36,1.17-5.74-.12-10.77-3.66-15.42-12.96-17.04-42.71-24.93-62.46-31.61-74.68-25.3-149.12-38.97-227.62-45.49-46-3.81-92.43-5.11-138.28-10.11-96.29-10.49-192.96-21.21-288.68-36.16-96.11-15-314.85-59.08-373.06-142.17-11.44-16.34-18.3-35.03-14.2-55.09,6.58-32.15,37.71-62.32,65.14-78.39,14.19-8.31,30.42-14.93,43.78-24.41,6.17-4.38,11.61-8.92,12.14-17.09.61-9.26-6.05-15.88-11.76-22.2l-2.04-2.23c-5.33.72-10.38,1.67-15.54,3.18ZM678.34,547.53c-29.06,34.26-51.2,80.08-46.91,126.02,4.99,53.49,38.48,99.95,79.01,133.15,91.43,74.89,216.92,90.33,330.9,97.39,31.7,1.97,65.43,5.8,97.09,2.53,9.77-.56,27.75.32,35.54-5.97,3.72-3,6.4-8.67,6.98-13.36.82-6.51-1.18-13.5-6.1-18.02-11.77-10.84-148.44-9.12-174.47-10.98-98.64-7.07-221.76-39.79-288.25-117.6-22.47-26.29-35.84-56.73-32.54-91.9,5.65-60.2,62.08-111.15,112.41-137.77,17.84-9.43,40.61-14.56,55.97-27.67,5.37-4.58,9.75-10.6,9.52-18.03-.31-9.99-7.79-17.16-14.4-23.7-61.37,13.64-124.46,58.4-164.76,105.9ZM2778.54,330.81c-5.18,3.1-11.72,15.1-11.78,21.24-.06,5.33,1.4,10.03,5.84,13.26,14.63,10.66,79.86,27.6,101.17,35.46,35.78,13.2,71.66,27.81,106.07,44.26,130.45,62.34,217.64,120.34,323.45,219.08,30.82,28.76,62.84,58.84,89.99,91.16,10.76,12.8,17.73,28.39,28.09,41.5,7.6,9.61,13,10.87,24.99,12.19,10.32-3.9,17.4-6.95,22.73-17.02,1.39-10.87-2.77-19.3-7.96-28.68-20.53-37.11-56.91-69.62-86.88-99.23-10.13-9.94-20.41-19.72-30.85-29.33-10.44-9.61-21.03-19.06-31.77-28.34-10.74-9.28-21.62-18.38-32.65-27.32-11.03-8.93-22.19-17.69-33.5-26.27-11.31-8.58-22.74-16.98-34.31-25.19-11.57-8.22-23.27-16.25-35.09-24.1-11.83-7.84-23.77-15.5-35.84-22.97-12.07-7.47-24.25-14.74-36.55-21.82-12.3-7.08-24.71-13.97-37.22-20.65-12.52-6.69-25.14-13.17-37.86-19.46s-25.54-12.37-38.46-18.25c-12.91-5.88-25.92-11.56-39.02-17.02-13.09-5.47-26.27-10.73-39.53-15.78-13.26-5.05-26.6-9.89-40.02-14.51-13.42-4.63-26.9-9.04-40.46-13.24-13.55-4.2-27.17-8.18-40.86-11.95-3.63.57-8.48,1.04-11.71,2.98ZM3347.95,1147.98c-4.28,5.63-4.78,12.35-4,19.16,3.26,28.53,48.83,91.28,63.88,120.91,11.99,23.61,22.17,48.57,32.76,72.85,12.5,28.66,22.58,57.7,31.75,87.56,6.78,22.05,12.06,47.52,22.88,67.88,3.5,6.57,9.54,10.93,15.36,15.33,2.17.21,2.24.29,4.78.07,7.47-.67,16.61-3.83,20.38-10.83,3.94-7.34,2.26-18.27.89-26.07-12.01-68.45-111.36-320.31-165.1-357.57-8.26.74-18.37,3.85-23.59,10.71ZM3588.46,996.96c-4.34,4.94-5.45,11.03-4.91,17.36,2.37,27.76,55.26,86.57,71.26,115.23,17.5,31.35,35.51,102.02,61.65,122.56,7.35.71,15.57.37,21.94-3.86,5.51-3.67,8.14-9.01,8.85-15.44,5.65-51.05-101.15-203.15-134.31-245.34-8.67,1.51-18.27,2.43-24.47,9.48Z"/>
    </g>
  </g>
</svg>