<?xml version="1.0" encoding="utf-8" ?>
<svg xmlns="http://www.w3.org/2000/svg" xmlns:xlink="http://www.w3.org/1999/xlink" width="3248" height="3488">
	<clipPath id="cl_8">
		<rect x="-0.00030517578" y="-0.00080871582" width="3248" height="3488"/>
	</clipPath>
	<g clip-path="url(#cl_8)">
		<path fill="#0203FE" transform="matrix(3.7681 0 0 3.7681 -330.929 -210.53)" d="M660.307 373.371C662.161 376.293 663.169 379.86 664.131 383.162C669.52 401.656 669.507 423.783 665.314 442.585C662.872 453.541 657.967 461.522 651.992 470.808C649.715 474.346 647.786 477.925 644.881 481.01C641.663 484.427 637.768 487.287 633.795 489.762C627.256 493.836 617.22 498.828 609.391 496.872Q607.852 496.481 606.366 495.922C604.985 494.341 603.675 492.75 602.433 491.057C606.562 489.66 610.735 489.549 615.051 489.424C620.069 485.186 626.644 484.056 631.851 480.169C634.202 478.414 636.309 476.074 638.393 474.012C655.157 457.426 661.882 436.138 663.38 412.941C663.746 407.276 664.109 401.114 663.621 395.453C663.013 388.388 659.156 380.832 660.233 373.796C660.255 373.654 660.282 373.513 660.307 373.371Z"/>
		<path transform="matrix(3.7681 0 0 3.7681 -330.929 -210.53)" d="M805.884 392.434C802.713 393.553 799.175 393.333 796.196 394.512C794.889 395.03 793.734 395.994 792.462 396.618C788.617 398.504 785.762 397.441 782.049 396.108C778.936 397.197 776.93 399.551 774.127 401.123C772.436 402.072 770.326 402.277 768.476 401.719C766.905 401.245 765.612 400.191 764.88 398.714C763.191 395.305 763.92 390.601 765.123 387.155C766.074 384.431 767.384 382.839 769.994 381.621C774.379 379.576 772.302 378.192 774.182 374.554C777.911 371.801 783.358 372.593 787.789 371.813C791.117 371.227 794.198 369.596 797.597 369.039C810.316 366.956 824.774 367.814 837.614 368.561C846.7 368.134 859.495 367.763 867.144 373.413C867.429 374.473 867.331 375.238 867.185 376.318C868.379 377.428 869.794 377.226 871.355 377.225C872.555 377.224 873.176 377.345 874.227 377.991C877.072 381.954 875.965 387.54 878.492 392.054C873.219 393.375 867.762 395.099 862.315 395.398C855.96 395.746 849.134 394.354 842.721 394.107C834.35 392.598 826.417 394.838 818.512 390.631L814.314 394.06L805.884 392.434Z"/>
		<path fill="#0203FE" transform="matrix(3.7681 0 0 3.7681 -330.929 -210.53)" d="M390.4 717.446C393.448 725.72 392.09 736.163 388.461 744.056C386.428 748.479 384.264 751.829 383.301 756.714C381.103 767.852 367.647 783.58 358.331 789.608C353.055 793.022 346.611 795.261 340.969 798.085C337.365 796.956 336.101 796.109 332.562 797.995C329.279 799.744 326.381 802.194 323.047 803.871C319.776 803.7 317.029 803.687 313.799 804.369C312.008 804.748 309.889 805.311 308.06 805.292C305.527 805.266 303.704 803.644 301.222 805.039C299.477 806.019 298.468 805.977 296.502 805.934C290.353 805.802 284.36 805.284 278.234 804.852L278.09 805.529C275.327 819.022 276.957 832.942 276.148 846.596C275.65 854.984 271.599 893.208 264.365 897.733C262.821 898.699 260.882 898.561 259.247 897.943C257.361 897.231 255.617 896.174 253.946 895.061C255.65 878.218 260.938 861.927 262.029 844.957C262.854 832.104 262.509 819.122 262.277 806.249C262.161 799.817 261.567 792.988 262.244 786.583C277.925 786.75 294.228 787.659 309.489 783.587Q313.453 782.537 317.355 781.277Q321.258 780.017 325.087 778.55Q328.916 777.083 332.661 775.413Q336.407 773.743 340.058 771.876Q343.708 770.008 347.254 767.948Q350.8 765.888 354.23 763.641Q357.66 761.394 360.966 758.967Q364.271 756.54 367.442 753.94C372.039 750.172 376.761 746.173 379.963 741.095C384.573 733.784 386.024 724.963 390.4 717.446Z"/>
		<path fill="#0203FE" transform="matrix(3.7681 0 0 3.7681 -330.929 -210.53)" d="M568.003 564.438C569.116 588.032 550.147 642.859 539.091 664.295C534.109 673.954 528.022 683.281 520.682 691.322C509.207 703.894 494.653 711.821 477.482 712.512C448.001 713.699 421.78 697.843 400.8 678.386C393.482 671.599 388.084 661.832 380.862 656.105C378.311 651.55 377.565 645.851 376.531 640.78C384.375 645.398 391.126 652.137 398.073 657.979Q406.14 664.654 415.116 670.045C431.754 680.132 451.793 687.893 471.392 682.947C509.376 673.362 540.03 627.373 555.983 593.715Q559.128 587.226 561.682 580.483C563.438 575.713 564.806 569.43 567.495 565.2C567.658 564.942 567.834 564.692 568.003 564.438Z"/>
		<path fill="#0203FE" transform="matrix(3.7681 0 0 3.7681 -330.929 -210.53)" d="M889.781 231.334C890.67 234.696 890.704 236.748 888.967 239.86C882.833 250.847 863.893 258.77 852.727 264.091L852.955 264.765C855.619 272.515 860.247 279.839 864.03 287.088Q869.814 298.2 873.807 310.073C885.945 345.668 888.547 383.377 886.398 420.691C885.742 432.088 884.892 443.568 882.997 454.834C881.633 462.944 880.149 471.1 878.166 479.084C876.549 485.595 873.994 492.269 873.317 498.942C877.187 506.119 886.855 518.133 892.626 524.134L892.825 524.675C894.911 530.214 897.913 535.382 900.216 540.836C905.561 553.492 913.029 574.758 906.785 588.293C904.534 593.172 900.141 596.494 895.083 598.115C890.478 599.59 885.895 599.292 881.642 596.921C875.403 593.443 867.971 582.729 860.217 584.595C844.308 588.424 846.318 615.718 814.17 601.794C808.076 597.148 802.672 592.302 799.478 585.175Q799.154 584.45 798.866 583.71Q798.578 582.969 798.328 582.215Q798.078 581.462 797.866 580.696Q797.654 579.931 797.48 579.156Q797.307 578.381 797.172 577.598Q797.038 576.815 796.943 576.027Q796.847 575.238 796.792 574.446Q796.737 573.653 796.721 572.859Q796.705 572.065 796.729 571.271Q796.753 570.477 796.817 569.686Q796.881 568.894 796.984 568.107Q797.087 567.319 797.23 566.538Q797.373 565.756 797.554 564.983Q797.736 564.21 797.956 563.447Q798.176 562.684 798.435 561.932Q798.693 561.181 798.988 560.444C802.641 551.122 809.778 545.498 818.735 541.573C820.647 543.295 822.429 545.03 824.16 546.939C834.101 544.342 844.177 547.579 853.692 550.308C854.476 535.746 849.39 521.231 848.486 506.743C847.772 495.299 848.498 483.866 848.318 472.413C848.078 457.064 847.062 441.776 846.216 426.454C845.626 415.776 845.537 404.465 842.721 394.107C849.134 394.354 855.96 395.746 862.315 395.398C867.762 395.099 873.219 393.375 878.492 392.054C875.965 387.54 877.072 381.954 874.227 377.991C873.176 377.345 872.555 377.224 871.355 377.225C869.794 377.226 868.379 377.428 867.185 376.318C867.331 375.238 867.429 374.473 867.144 373.413C859.495 367.763 846.7 368.134 837.614 368.561C837.134 362.089 835.666 355.309 834.36 348.947C828.706 321.4 820.762 302.832 808.341 277.836C818.388 275.596 836.361 268.968 845.289 263.967C848.843 261.976 852.024 259.328 855.505 257.21C869.442 248.729 878.14 243.157 889.781 231.334Z"/>
		<path transform="matrix(3.7681 0 0 3.7681 -330.929 -210.53)" d="M824.16 546.939C820.832 551.157 816.741 554.696 813.196 558.724C809.576 562.838 807.099 567.894 807.554 573.485C808.072 579.853 812.342 585.628 817.123 589.638C836.185 605.627 844.294 571.773 861.518 570.775C869.833 570.294 876.646 578.074 882.536 582.896C884.88 584.815 888.692 587.613 891.951 586.906C893.884 586.486 895.099 584.752 895.941 583.103C903.562 568.174 882.989 527.701 873.452 515.833C869.103 510.42 858.06 506.309 856.304 499.456C855.817 497.553 856.311 494.72 857.483 493.137C858.262 492.086 859.307 491.734 860.573 491.663C864.863 491.423 870.213 496.304 873.317 498.942C877.187 506.119 886.855 518.133 892.626 524.134L892.825 524.675C894.911 530.214 897.913 535.382 900.216 540.836C905.561 553.492 913.029 574.758 906.785 588.293C904.534 593.172 900.141 596.494 895.083 598.115C890.478 599.59 885.895 599.292 881.642 596.921C875.403 593.443 867.971 582.729 860.217 584.595C844.308 588.424 846.318 615.718 814.17 601.794C808.076 597.148 802.672 592.302 799.478 585.175Q799.154 584.45 798.866 583.71Q798.578 582.969 798.328 582.215Q798.078 581.462 797.866 580.696Q797.654 579.931 797.48 579.156Q797.307 578.381 797.172 577.598Q797.038 576.815 796.943 576.027Q796.847 575.238 796.792 574.446Q796.737 573.653 796.721 572.859Q796.705 572.065 796.729 571.271Q796.753 570.477 796.817 569.686Q796.881 568.894 796.984 568.107Q797.087 567.319 797.23 566.538Q797.373 565.756 797.554 564.983Q797.736 564.21 797.956 563.447Q798.176 562.684 798.435 561.932Q798.693 561.181 798.988 560.444C802.641 551.122 809.778 545.498 818.735 541.573C820.647 543.295 822.429 545.03 824.16 546.939Z"/>
		<path transform="matrix(3.7681 0 0 3.7681 -330.929 -210.53)" d="M446.009 316.62C446.293 316.588 446.576 316.55 446.86 316.525C461.859 315.185 476.42 318.222 487.907 328.407C500.123 339.239 508.223 356.443 511.69 372.172C513.877 382.091 514.361 392.465 513.815 402.59C511.098 453.005 470.788 459.692 465.908 494.747C462.151 521.728 483.919 534.222 485.079 557.773Q485.118 558.562 485.117 559.352Q485.117 560.142 485.078 560.931Q485.038 561.72 484.96 562.506Q484.881 563.293 484.764 564.074Q484.647 564.855 484.491 565.63Q484.335 566.404 484.142 567.17Q483.948 567.936 483.716 568.691Q483.485 569.447 483.216 570.19Q482.947 570.933 482.642 571.661Q482.337 572.39 481.997 573.103Q481.656 573.816 481.28 574.511Q480.905 575.206 480.495 575.881Q480.086 576.557 479.643 577.212Q479.201 577.866 478.727 578.498Q478.252 579.13 477.747 579.737Q477.242 580.345 476.708 580.927C469.299 588.949 458.8 592.712 448.084 593.184C438.16 593.106 427.272 589.197 419.063 583.731C388.979 563.701 370.971 517.926 363.936 483.588C355.342 441.646 360.624 397.035 384.627 360.842C399.218 338.841 419.822 322.01 446.009 316.62ZM471.759 546.843C473.056 542.374 465.288 531.728 463.12 527.548Q461.097 523.605 459.585 519.44C449.347 491.619 461.226 474.195 479.61 454.1C485.035 448.169 491.248 442.024 494.519 434.563C495.204 433.002 496.203 430.837 495.566 429.185C489.613 409.973 486.614 386.698 466.882 376.097Q466.132 375.703 465.364 375.347Q464.596 374.991 463.811 374.674Q463.026 374.357 462.226 374.079Q461.426 373.802 460.614 373.565Q459.801 373.327 458.977 373.131Q458.154 372.934 457.322 372.779Q456.489 372.624 455.65 372.51Q454.811 372.397 453.968 372.326Q453.124 372.254 452.278 372.225Q451.432 372.196 450.585 372.209Q449.739 372.222 448.894 372.277Q448.049 372.332 447.208 372.43Q446.367 372.527 445.532 372.666Q444.697 372.805 443.869 372.986Q443.042 373.166 442.225 373.388Q441.408 373.61 440.603 373.872C425.666 378.627 412.852 393.028 405.948 406.627C400.641 417.082 397.837 428.475 396.934 440.128C395.09 463.916 401.491 497.311 409.017 520.005C414.019 535.087 422.144 554.409 437.184 562.018C443.506 565.216 451.478 565.816 458.226 563.543C462.258 562.185 466.251 559.377 468.073 555.437C469.376 552.618 470.301 549.582 471.759 546.843Z"/>
		<path fill="#0203FE" transform="matrix(3.7681 0 0 3.7681 -330.929 -210.53)" d="M471.759 546.843C472.048 547.276 472.079 547.301 472.354 547.844C475.202 553.448 475.287 560.31 473.027 566.114Q472.789 566.721 472.521 567.315Q472.253 567.908 471.955 568.488Q471.657 569.067 471.33 569.631Q471.003 570.194 470.648 570.74Q470.292 571.287 469.91 571.814Q469.527 572.341 469.118 572.849Q468.709 573.356 468.275 573.841Q467.84 574.327 467.382 574.79Q466.923 575.253 466.442 575.692Q465.961 576.131 465.457 576.545Q464.954 576.959 464.431 577.347Q463.907 577.735 463.365 578.096Q462.822 578.457 462.262 578.789Q461.702 579.122 461.125 579.426Q460.549 579.729 459.958 580.003Q459.366 580.277 458.762 580.521C450.661 583.835 441.954 582.707 434.129 579.245C407.944 567.66 393.732 536.286 383.903 511.04C367.945 470.049 364.948 427.39 383.189 386.323C393.504 363.102 410.926 340.539 435.348 331.262C446.672 326.961 459.737 325.508 471.012 330.737C485.195 337.315 494.241 353.13 499.309 367.253C506.422 387.073 504.919 409.793 495.767 428.778L495.566 429.185C489.613 409.973 486.614 386.698 466.882 376.097Q466.132 375.703 465.364 375.347Q464.596 374.991 463.811 374.674Q463.026 374.357 462.226 374.079Q461.426 373.802 460.614 373.565Q459.801 373.327 458.977 373.131Q458.154 372.934 457.322 372.779Q456.489 372.624 455.65 372.51Q454.811 372.397 453.968 372.326Q453.124 372.254 452.278 372.225Q451.432 372.196 450.585 372.209Q449.739 372.222 448.894 372.277Q448.049 372.332 447.208 372.43Q446.367 372.527 445.532 372.666Q444.697 372.805 443.869 372.986Q443.042 373.166 442.225 373.388Q441.408 373.61 440.603 373.872C425.666 378.627 412.852 393.028 405.948 406.627C400.641 417.082 397.837 428.475 396.934 440.128C395.09 463.916 401.491 497.311 409.017 520.005C414.019 535.087 422.144 554.409 437.184 562.018C443.506 565.216 451.478 565.816 458.226 563.543C462.258 562.185 466.251 559.377 468.073 555.437C469.376 552.618 470.301 549.582 471.759 546.843Z"/>
		<path transform="matrix(3.7681 0 0 3.7681 -330.929 -210.53)" d="M434.093 404.066C434.834 404.384 435.553 404.701 436.32 404.953C434.345 406.642 432.035 408.244 430.702 410.492C430.917 410.535 431.133 410.571 431.346 410.62C432.196 410.815 432.881 411.115 433.664 411.482L434.104 412.362L433.903 412.9C433.666 413.555 433.713 413.286 433.678 413.798C433.193 414.17 432.716 414.556 432.227 414.923C428.613 417.628 421.227 426.939 418.31 428.121C418.022 424.525 423.103 420.58 424.766 417.427C425.681 415.694 426.058 415.648 427.771 414.836C428.331 413.679 428.157 413.679 427.956 412.483L426.982 412.029C422.529 412.606 416.561 418.317 413.087 421.005C419.142 413.032 425.045 408.372 434.093 404.066Z"/>
		<defs>
			<linearGradient id="gradient_0" gradientUnits="userSpaceOnUse" x1="455.63" y1="400.88171" x2="452.64468" y2="416.55197">
				<stop offset="0" stop-color="black" stop-opacity="0.70980394"/>
				<stop offset="1" stop-color="black" stop-opacity="0.95686275"/>
			</linearGradient>
		</defs>
		<path fill="url(#gradient_0)" transform="matrix(3.7681 0 0 3.7681 -330.929 -210.53)" d="M434.093 404.066C445.47 399.735 460.3 400.035 471.528 404.846C473.849 405.841 476.945 407.721 477.815 410.249C478.129 411.164 477.958 411.311 477.732 412.197C476.146 413.527 474.322 413.465 472.345 413.315C468.216 413.002 463.372 411.467 459.796 409.34L459.644 408.768C463.692 408.384 467.339 408.849 470.714 406.224L471.067 405.274L470.362 405.187C468.989 406.335 468.442 407.069 466.53 406.953C465.759 406.906 464.99 406.731 464.228 406.615C463.32 406.476 463.676 406.512 462.622 406.617C457.823 407.799 452.663 407.631 447.769 408.408C442.876 409.859 438.217 411.443 433.678 413.798C433.713 413.286 433.666 413.555 433.903 412.9L434.104 412.362L433.664 411.482C432.881 411.115 432.196 410.815 431.346 410.62C431.133 410.571 430.917 410.535 430.702 410.492C432.035 408.244 434.345 406.642 436.32 404.953C435.553 404.701 434.834 404.384 434.093 404.066ZM435.714 407.236C439.642 408.16 443.768 407.696 447.769 408.408C452.663 407.631 457.823 407.799 462.622 406.617C457.036 403.213 449.457 403.784 443.302 405.253Q439.495 406.195 435.714 407.236Z"/>
		<path transform="matrix(3.7681 0 0 3.7681 -330.929 -210.53)" d="M435.714 407.236Q439.495 406.195 443.302 405.253C449.457 403.784 457.036 403.213 462.622 406.617C457.823 407.799 452.663 407.631 447.769 408.408C443.768 407.696 439.642 408.16 435.714 407.236Z"/>
		<path transform="matrix(3.7681 0 0 3.7681 -330.929 -210.53)" d="M424.665 468.26C423.417 468.413 422.004 468.67 420.759 468.427C419.266 468.135 417.864 467.072 417.018 465.834C415.053 462.961 415.731 458.714 416.436 455.53C418.927 444.29 426.91 434.926 436.492 428.881C444.649 423.734 454.575 421.735 463.995 424.13C466.278 424.711 468.294 425.592 469.449 427.757C470.408 429.553 470.015 431.681 469.499 433.524C459.643 431.322 450.224 432.863 441.667 438.349C430.59 445.45 427.342 456.021 424.665 468.26Z"/>
		<path fill="#0203FE" transform="matrix(3.7681 0 0 3.7681 -330.929 -210.53)" d="M424.665 468.26C427.342 456.021 430.59 445.45 441.667 438.349C450.224 432.863 459.643 431.322 469.499 433.524C470.925 433.938 472.086 434.358 473.364 435.119C474.081 436.472 474.078 437.648 473.582 439.07C470.329 448.383 448.47 461.338 439.586 465.23C434.667 467.385 430.035 468.353 424.665 468.26Z"/>
		<path fill="#0203FE" transform="matrix(3.7681 0 0 3.7681 -330.929 -210.53)" d="M892.626 524.134C904.514 531.201 910.345 548.962 913.494 561.506C915.69 570.253 917.263 581.483 912.231 589.607C902.589 605.174 881.571 593.293 870.745 615.799C869.17 619.076 867.546 622.123 867.105 625.771C865.947 635.359 863.162 644.624 861.585 654.159C858.629 672.036 856.526 690.263 854.294 708.249Q852.116 726.997 850.949 745.836C850.427 755.595 850.487 765.363 849.002 775.064C847.78 783.051 844.769 790.176 842.157 797.755C836.676 813.655 830.351 831.357 819.455 844.527C816.874 847.646 813.77 850.36 810.9 853.214C807.484 856.61 804.12 860.149 800.31 863.11C792.169 869.436 782.04 875.243 771.774 877.072C768.8 877.602 765.734 877.481 762.732 877.771C760.675 877.97 758.222 879.329 756.315 879.258C755.625 879.232 754.882 878.098 754.414 877.593C753.254 878.615 753.757 880.078 752.083 880.722C749.345 881.774 731.062 881.015 727.387 880.766C718.404 880.157 708.972 879.628 700.178 877.73C691.985 875.961 684.079 872.92 675.915 871.012C658.436 866.925 637.932 867.919 623.709 880.097C613.688 888.677 608.651 901.856 607.791 914.741C607.361 921.183 609.127 937.844 606.46 942.593C603.138 945.212 597.715 943.372 593.763 943.576C590.659 943.736 588.202 945.658 584.804 945.664C577.027 945.68 569.32 944.733 561.563 944.566C556.009 944.447 550.432 945.099 544.887 944.864C539.636 944.642 534.476 943.195 529.252 944.063C524.695 944.819 522.204 943.746 518.364 941.347C514.577 941.608 508.761 942.48 505.614 939.785C504.284 938.646 504.287 936.413 504.212 934.78C502.624 900.13 514.365 861.107 538.463 835.753C542.605 831.395 547.242 827.693 551.956 823.988C568.192 811.225 582.048 806.338 602.937 805.931C617.348 805.65 631.272 807.058 645.246 810.732C653.953 813.022 662.521 816.077 671.426 817.52C691.155 820.716 713.054 816.003 731.41 808.71C741.842 804.565 753.867 799.139 761.799 791.013C766.264 786.439 769.336 782.298 775.311 779.6C779.399 771.095 786.405 764.904 790.979 756.777C804.169 733.337 814.826 692.434 814.53 665.76C808.214 665.017 792.283 666.753 787.905 664.69C786.606 664.078 785.427 663.056 785.081 661.609C784.785 660.375 785.191 658.964 785.841 657.899C790.217 650.728 808.102 657.153 815.177 655.092C815.471 655.006 815.758 654.9 816.048 654.804C815.53 646.841 816.081 638.997 815.793 631.063C815.438 621.257 814.129 611.652 814.17 601.794C846.318 615.718 844.308 588.424 860.217 584.595C867.971 582.729 875.403 593.443 881.642 596.921C885.895 599.292 890.478 599.59 895.083 598.115C900.141 596.494 904.534 593.172 906.785 588.293C913.029 574.758 905.561 553.492 900.216 540.836C897.913 535.382 894.911 530.214 892.825 524.675L892.626 524.134Z"/>
		<path transform="matrix(3.7681 0 0 3.7681 -330.929 -210.53)" d="M816.048 654.804C824.839 654.05 845.375 652.386 852.253 657.733C853.501 658.703 854.065 659.698 854.253 661.283C853.837 663.034 853.19 663.96 851.693 664.934C844.762 669.44 822.932 667.238 814.53 665.76C808.214 665.017 792.283 666.753 787.905 664.69C786.606 664.078 785.427 663.056 785.081 661.609C784.785 660.375 785.191 658.964 785.841 657.899C790.217 650.728 808.102 657.153 815.177 655.092C815.471 655.006 815.758 654.9 816.048 654.804Z"/>
		<path transform="matrix(3.7681 0 0 3.7681 -330.929 -210.53)" d="M450.904 85.5528C452.872 86.2273 454.049 87.6825 456.107 87.7827C456.185 87.0782 456.289 86.4679 456.446 85.7828C457.958 85.2604 459.565 85.5159 461.129 85.6863C467.913 86.4253 483.263 82.9692 491.411 82.3352C510.329 80.863 529.039 78.7596 548.052 78.5252C558.519 78.3962 568.843 79.5946 579.249 79.722C593.25 79.8933 606.861 79.6208 620.813 81.466C623.232 81.786 626.243 81.9218 628.547 82.666C630.487 83.2926 631.912 85.1515 633.845 85.8873C635.076 86.3558 636.389 85.4907 637.535 84.9853C643.834 85.5824 661.352 86.4151 665.91 88.9503C667.887 90.0503 669.237 92.2225 671.29 93.425C671.489 93.241 671.675 93.0413 671.888 92.8728C672.913 92.0601 673.611 91.5513 674.959 91.6542C677.581 91.8543 680.687 93.1721 683.317 93.7325C689.774 95.1084 698.993 95.7167 704.875 98.1923C706.723 98.9703 708.11 101.299 710.002 101.657C711.573 101.955 713.296 101.593 714.89 101.863C718.358 102.451 722.132 104.64 725.562 105.716C740.151 110.292 754.307 115.166 768.138 121.801C773.137 124.199 777.767 127.278 782.768 129.678C787.582 131.988 801.154 137.145 803.925 141.578L802.866 142.331C808.447 147.259 815.633 150.796 821.557 155.482C825.4 158.522 828.212 162.627 831.923 165.785C835.301 168.66 839.204 170.89 842.591 173.791C862.287 190.655 877.465 208.52 889.781 231.334C878.14 243.157 869.442 248.729 855.505 257.21C852.024 259.328 848.843 261.976 845.289 263.967C836.361 268.968 818.388 275.596 808.341 277.836C804.818 277.717 800.758 280.578 797.24 281.337C793.666 282.108 789.746 281.871 786.091 282.507C782.328 283.163 778.642 284.196 774.877 284.821C766.725 286.175 758.391 287.029 750.289 288.529C745.926 289.336 736.595 292.763 732.656 291.791L731.437 290.132L730.765 290.193L729.835 292.133C728.819 292.064 728.87 292.169 727.991 291.54C726.992 290.827 727.415 291.058 726.224 290.709C725.148 291.217 724.079 291.717 723.03 292.279C716.275 291.232 710.898 292.865 704.291 293.657C688.404 295.562 670.98 295.735 657.483 305.57C651.572 309.878 646.902 315.784 645.742 323.188C644.024 334.148 648.983 342.861 652.69 352.401C653.818 355.305 654.555 358.347 655.857 361.184C657.751 365.312 660.286 368.654 660.307 373.371C660.282 373.513 660.255 373.654 660.233 373.796C659.156 380.832 663.013 388.388 663.621 395.453C664.109 401.114 663.746 407.276 663.38 412.941C661.882 436.138 655.157 457.426 638.393 474.012C636.309 476.074 634.202 478.414 631.851 480.169C626.644 484.056 620.069 485.186 615.051 489.424C610.735 489.549 606.562 489.66 602.433 491.057C600.806 490.366 599.578 489.87 597.831 490.542C596.622 491.007 595.446 491.573 594.277 492.13C594.113 492.019 593.95 491.907 593.784 491.799C591.104 490.047 587.975 489.469 585.377 487.779C581.294 485.123 575.715 477.281 574.978 472.429C574.796 471.234 575.494 469.822 575.93 468.73C575.7 467.313 574.832 466.329 574.011 465.199C573.723 463.584 574.33 462.247 574.837 460.741C574.497 459.784 574.163 458.832 573.799 457.884C571.471 451.814 574.045 446.164 573.591 440.029C573.368 437.025 571.888 433.21 572.459 430.336L573.343 429.691C572.665 420.296 569.762 411.144 568.28 401.885C567.775 398.731 568.193 395.531 567.785 392.362C566.94 385.803 564.977 379.216 563.43 372.794C562.504 368.952 562.075 365.236 560.657 361.517C559.631 358.83 558.811 356.969 559.777 354.165L559.464 355.123C558.162 351.875 555.674 347.934 555.871 344.485C556.112 340.291 547.637 327.745 545.881 321.651C541.559 318.496 540.7 314.317 538.101 309.875C531.834 299.162 522.625 287.042 511.301 281.49L508.888 277.186C506.528 276.152 493.352 271.108 492.723 269.95L492.726 269.095C490.734 269.057 488.375 269.44 486.453 269.087C483.548 268.554 480.227 266.849 477.42 265.811C470.79 263.36 464.109 261.94 457.038 261.58C450.128 261.229 445.198 261.534 438.835 264.302C437.356 264.945 435.7 266.025 434.24 265.008L433.922 263.783C429.579 263.801 421.155 269.391 418.22 269.705C416.971 269.838 416.407 268.392 415.6 268.621C414.536 268.921 413.564 269.98 412.794 270.735C405.008 278.359 403.135 274.252 394.215 277.681C394.07 277.736 393.923 277.785 393.777 277.838C389.769 282.921 383.05 286.106 377.619 289.711C376.922 289.446 376.543 289.238 375.903 288.802C374.698 289.837 375.473 291.163 374.849 292.389C374.332 293.404 368.617 298.278 367.21 299.85C357.889 301.823 349.445 313.054 344.548 320.677C342.12 324.456 340.303 328.718 338.176 332.676C331.517 345.069 324.887 357.138 320.46 370.574C317.745 378.814 316.83 387.798 312.943 395.573C312.968 395.779 312.996 395.985 313.019 396.191C313.387 399.477 312.934 402.168 312.03 405.294Q310.888 409.327 310.024 413.428Q309.16 417.529 308.577 421.68Q307.994 425.83 307.696 430.011Q307.397 434.192 307.384 438.383C307.385 441.295 308.6 444.208 308.556 447.08C308.509 450.123 306.81 452.647 307.198 455.876C307.864 461.421 308.922 467.612 308.973 473.159C308.995 475.586 308.124 478.226 308.508 480.614C309.069 484.103 311.612 487.187 312.02 490.705L310.962 491.247C310.979 492.307 311.328 492.866 311.787 493.793C312.637 495.511 312.534 496.107 312.185 497.955C311.587 501.128 314.939 503.251 315.745 506.083C316.685 509.385 316.193 513.142 317.112 516.495C318.215 520.514 320.857 524.055 322.21 527.995C325.661 538.045 327.947 549.251 332.772 558.776C335.607 564.373 339.891 569.317 343.066 574.768C345.132 578.316 346.272 582.701 348.593 585.985C348.806 586.285 349.045 586.567 349.252 586.872C349.321 586.974 349.376 587.085 349.438 587.192L348.751 588.067C350.198 592.169 354.716 597.226 357.212 600.839C375.517 627.337 399.576 651.538 428.925 665.668C443.115 672.5 457.812 675.496 472.996 670.098C506.136 658.317 532.163 617.367 546.456 586.779Q551.629 575.871 555.685 564.5C557.101 560.447 557.947 555.935 559.747 552.064C560.536 550.368 561.741 548.356 563.556 547.603C564.89 547.049 565.881 547.275 567.189 547.704C568.498 548.749 568.999 549.822 569.195 551.453C569.72 555.825 567.887 560.078 568.003 564.438C567.834 564.692 567.658 564.942 567.495 565.2C564.806 569.43 563.438 575.713 561.682 580.483Q559.128 587.226 555.983 593.715C540.03 627.373 509.376 673.362 471.392 682.947C451.793 687.893 431.754 680.132 415.116 670.045Q406.14 664.654 398.073 657.979C391.126 652.137 384.375 645.398 376.531 640.78C377.565 645.851 378.311 651.55 380.862 656.105C377.799 663.388 387.91 685.952 388.865 695.415C389.569 702.404 387.187 709.346 389.819 716.154C389.989 716.594 390.198 717.019 390.4 717.446C386.024 724.963 384.573 733.784 379.963 741.095C376.761 746.173 372.039 750.172 367.442 753.94Q364.271 756.54 360.966 758.967Q357.66 761.394 354.23 763.641Q350.8 765.888 347.254 767.948Q343.708 770.008 340.058 771.876Q336.407 773.743 332.661 775.413Q328.916 777.083 325.087 778.55Q321.258 780.017 317.355 781.277Q313.453 782.537 309.489 783.587C294.228 787.659 277.925 786.75 262.244 786.583C259.025 783.702 254.545 784.227 251.255 781.474C244.346 775.692 227.794 753.483 222.063 745.386C217.265 738.606 212.391 731.666 208.002 724.611C206.393 722.024 205.499 718.954 203.757 716.486C200.527 711.906 196.454 708.046 193.36 703.297C191.391 700.276 188.425 691.234 186.728 690.069C186.495 689.91 185.718 689.451 185.438 689.175C185.282 689.022 173.846 666.842 172.16 663.853C168.442 657.262 164.592 650.659 161.414 643.785C159.677 640.027 158.376 636.086 156.656 632.329C155.112 628.955 153.012 625.845 151.5 622.455C150.151 619.428 149.256 616.221 147.982 613.164C146.613 609.881 144.741 606.826 143.404 603.523C142.052 600.186 141.077 596.689 139.842 593.307C138.168 588.721 136.129 584.276 134.47 579.681C131.685 571.968 129.458 564.017 127.058 556.175C125.164 549.986 122.94 543.821 121.404 537.533C118.709 526.504 117.435 514.894 115.324 503.715C114.136 497.419 110.706 486.637 110.285 481.231C110.057 478.308 111.971 475.977 112.044 473.378C112.073 472.342 109.727 469.655 109.891 468.855C109.913 468.747 110.709 467.737 110.749 467.604C110.795 467.453 108.617 456.574 108.496 455.138C107.833 447.252 108.513 439.524 108.338 431.635C108.288 429.358 108.433 428.459 109.758 426.52C111.048 424.632 108.337 416.127 108.079 413.294C107.416 406.006 110.912 400.821 112 393.99C112.709 389.537 112.161 384.935 112.913 380.48C113.943 374.379 115.993 368.389 117.681 362.447C118.915 358.101 119.658 353.569 121.047 349.282C122.285 345.459 124.159 341.845 125.513 338.06L140.125 297.291C141.278 294.02 143.858 292.599 145.242 289.73C146.871 286.354 146.843 282.217 148.621 278.841C163.506 250.576 185.779 220.857 207.811 197.763C209.011 196.505 209.559 196.435 211.247 196.418C211.415 196.416 212.57 196.426 212.767 196.401C214.011 196.246 214.131 196.225 214.851 195.232L214.434 193.607C217.057 189.324 226.638 178.869 230.878 176.684C234.193 174.976 235.564 171.006 237.203 167.764C237.94 167.509 238.552 167.439 239.324 167.419L240.251 167.4C240.653 166.684 240.922 166.051 241.117 165.25C241.351 164.288 241.502 163.203 241.99 162.33C243.617 159.424 245.609 161.35 247.867 160.803C250.076 160.268 254.679 148.886 263.204 147.132C264.2 146.927 265.027 146.804 265.937 146.33C266.587 144.826 267.282 142.96 268.537 141.841C270.745 139.871 274.172 139.687 276.689 138.198C281.995 135.059 285.488 129.535 291.463 127.054C293.691 126.129 296.148 125.198 298.459 126.302C299.599 126.846 299.017 126.864 299.978 126.587L300.939 123.418C302.076 122.548 303.286 122.944 304.684 123.006C306.76 121.871 306.975 119.074 308.736 117.649C311.949 115.047 316.431 115.751 320.019 114.127C322.034 113.216 324.03 110.585 326.187 110.278C327.315 110.118 329.271 110.61 330.503 110.678C332.019 109.24 333.643 108.022 335.521 107.093C336.539 106.589 341.965 103.715 342.715 103.816C343.597 103.934 345.942 106.152 347.321 106.634L348.009 106.268C348.16 105.447 348.275 104.557 348.526 103.764C349.919 99.3581 353.768 103.184 356.58 101.818C356.75 100.724 356.967 99.6607 357.218 98.5827L358.213 98.0463C360.432 98.1842 361.68 98.8345 363.53 100.029C369.78 98.1289 375.668 95.0747 381.845 92.8999C384.56 94.2363 387.196 95.4551 390.239 95.7321C391.5 94.6967 390.581 93.1788 391.2 91.6453C393.5 90.9361 395.07 91.8681 397.335 91.7288C400.22 91.5515 403.195 90.941 406.071 90.5749L406.672 89.1287C407.819 89.3961 409.004 91.3805 409.776 92.3483C418.774 83.0975 416.968 88.2323 426.822 88.4358C428.728 88.4752 428.717 86.7857 430.712 86.601C431.858 87.3069 432.839 88.1031 434.243 88.0331C435.074 87.3736 435.716 86.8305 436.741 86.517C437.34 86.9198 437.592 87.1049 438.243 87.474C440.79 88.9192 448.007 86.2915 450.904 85.5528ZM524.671 106.833L524.323 107.316C523.179 108.934 522.458 109.99 522.843 112.044C523.361 114.803 524.926 117.805 525.943 120.447C529.25 129.042 526.407 136.467 521.678 143.787C515.091 153.984 505.255 161.805 495.216 168.409C472.799 183.155 446.661 192.763 421.202 200.748C386.305 211.694 348.627 219.372 321.265 245.545C318.511 248.18 312.357 253.361 312.498 257.514C313.156 258.925 313.715 259.889 315.324 260.402C316.999 260.936 318.912 260.793 320.647 260.766L321.061 260.392C324.335 257.379 327.105 253.869 330.16 250.642C334.993 245.536 341.16 241.366 347.322 238.042C361.465 230.413 376.699 224.628 391.925 219.58C435.448 205.153 484.658 195.341 518.979 162.707C529.392 152.806 537.45 141.409 537.936 126.5C538.109 121.197 537.053 114.96 533.318 110.976C530.913 108.412 528.093 107.257 524.671 106.833ZM681.873 137.261L681.465 137.852C680.578 139.156 679.148 140.894 679.613 142.609C681.753 150.504 710.179 155.121 701.291 173.581C695.874 184.832 679.248 190.584 668.267 194.158C651.718 199.545 634.384 202.692 617.173 205.086Q597.509 207.713 577.786 209.851C551.16 212.542 526.44 213.213 500.775 221.483C497.147 222.652 490.023 224.483 488.379 228.299Q488.29 228.502 488.223 228.714Q488.156 228.925 488.111 229.142Q488.067 229.36 488.046 229.581Q488.026 229.801 488.029 230.023Q488.031 230.245 488.058 230.465Q488.084 230.686 488.134 230.902Q488.184 231.118 488.256 231.328Q488.329 231.537 488.423 231.738C489.108 233.174 490.428 234.15 491.963 234.482C493.14 234.737 493.537 234.605 494.634 234.226C502.197 230.551 509.685 227.579 517.946 225.875C527.253 223.956 537.031 223.327 546.484 222.351C588.226 218.04 667.668 215.801 700.294 189.409C704.725 185.824 709.27 181.093 711.29 175.669C713.376 170.067 712.579 164.133 710.098 158.809C705.763 149.506 696.65 142.114 687.079 138.735C685.426 138.151 683.597 137.587 681.873 137.261ZM758.378 157.449C757.242 158.919 756.11 160.183 755.626 162.004C756.068 164.587 757.815 165.97 759.892 167.452C771.976 176.071 786.257 178.857 789.54 195.757C790.785 202.167 789.174 208.419 785.429 213.712C775.522 227.714 754.99 234.102 738.881 236.723Q731.72 237.918 724.472 238.335C718.636 238.655 695.746 237.454 692.726 241.499C692.111 242.323 692.086 242.845 691.99 243.83C692.636 245.636 693.838 246.52 695.553 247.276C696.934 247.885 698.39 247.952 699.875 248.039C728.841 249.332 764.772 247.068 787.277 226.715C794.588 220.103 799.67 211.406 800.153 201.399C800.631 191.518 795.831 182.998 789.323 175.941C781.04 166.961 770.299 160.229 758.378 157.449ZM381.455 135.602C371.668 137.929 362.029 141.74 352.774 145.642C321.319 158.906 293.86 176.695 269.254 200.373C263.179 206.218 256.386 212.358 251.88 219.532C250.813 221.23 249.411 223.889 249.866 225.973C250.155 227.298 251.168 228.109 252.329 228.649C253.365 229.13 254.412 229.375 255.522 229.614C256.918 229.067 258.481 228.522 259.568 227.452C262.589 224.476 264.899 220.252 267.366 216.807C270.092 213 273.224 209.78 276.628 206.591C291.398 192.754 306.981 180.351 324.407 170.008Q333.899 164.423 343.875 159.759Q353.85 155.094 364.222 151.391C370.344 149.167 377 147.608 382.94 144.997C384.603 144.265 386.185 143.411 386.89 141.614C387.405 140.3 387.166 139.115 386.525 137.907C385.894 136.718 384.597 135.768 383.272 135.582C382.215 135.434 382.497 135.468 381.455 135.602ZM270.155 291.878C266.39 295.248 263.67 298.955 261.044 303.27C254.542 313.955 236.803 352.895 236.209 364.146C236.137 365.518 236.465 366.53 237.356 367.591C238.365 368.792 240.493 369.619 241.921 370.207C249.28 364.327 251.871 347.72 255.223 338.917C257.607 332.656 260.513 326.52 263.523 320.538C267.101 313.427 274.345 305.258 275.222 297.296C275.329 296.325 275.332 295.497 274.688 294.69C273.567 293.287 271.74 292.605 270.155 291.878ZM222.561 262.982C216.2 271.911 195.055 300.393 196.729 311.055C196.936 312.376 197.6 313.545 198.77 314.251C200.098 315.051 201.89 314.861 203.368 314.764C210.632 306.675 211.408 294.929 217.662 286.246C221.491 280.931 229.37 274.736 229.089 267.67C229.036 266.342 228.714 265.618 227.891 264.55C226.228 263.479 224.476 263.301 222.561 262.982Z"/>
	</g>
</svg>
