<?xml version="1.0" encoding="utf-8" ?>
<svg xmlns="http://www.w3.org/2000/svg" xmlns:xlink="http://www.w3.org/1999/xlink" width="3248" height="3488">
	<clipPath id="cl_7">
		<rect x="-0.00030517578" y="0.00016784668" width="3248" height="3488"/>
	</clipPath>
	<g clip-path="url(#cl_7)">
		<path fill="#0305FE" transform="matrix(3.7681 0 0 3.7681 -330.929 -210.529)" d="M663.958 407.605C663.486 406.241 663.035 404.993 663.195 403.532C663.576 400.043 663.999 395.983 663.538 392.497C662.848 387.283 658.643 379.044 660.439 374.041C662.081 375.08 662.01 375.811 662.675 377.552C663.365 379.361 663.224 381.76 663.287 383.683L665.252 384.35C666.168 386.368 664.441 388.18 664.967 389.752C665.22 390.506 666.456 391.28 666.687 392.067C667.403 394.505 668.396 404.607 667.507 406.902C667.392 407.199 667.263 407.49 667.141 407.784L668.209 408.656C668.175 408.86 668.14 409.063 668.109 409.268C667.668 412.24 668.401 415.299 668.142 418.337C668.041 419.515 667.042 422.969 667.355 423.847C667.827 425.173 668.513 424.761 668.039 426.329C667.47 428.213 667.516 430.195 666.832 432.038L665.742 432.401C665.724 433.762 666.393 433.377 666.709 434.378C668.238 439.222 658.816 462.946 655.535 466.284C654.403 467.436 653.083 468.429 651.777 469.374C651.95 473.558 647.734 478.108 644.958 481.104C637.752 488.882 623.552 497.049 612.802 497.535C610.12 497.656 607.367 497.089 605.242 495.342C604.2 494.485 603.535 492.46 602.972 491.252C602.936 491.176 602.898 491.102 602.861 491.027C605.934 488.954 610.455 489.568 613.966 489.489C616.767 489.426 617.028 487.345 618.763 485.558C619.502 485.733 620.473 486.057 621.233 486.016C623.44 485.896 636.368 477.09 637.863 474.83L637.138 473.394L637.348 472.803C638.602 472.766 639.469 472.739 640.652 472.261C644.334 468.696 647.774 463.064 650.177 458.567C650.947 457.126 651.38 455.457 652.277 454.094C653.557 452.151 656.421 449.92 656.703 447.583C657.101 444.278 658.506 441.024 659.381 437.799C660.567 433.429 661.365 428.882 662.21 424.432C663.233 419.044 662.743 413.491 663.85 408.101C663.884 407.935 663.922 407.77 663.958 407.605Z"/>
		<path transform="matrix(3.7681 0 0 3.7681 -330.929 -210.529)" d="M806.362 419.361C808.264 419.742 809.969 419.64 811.625 420.79C811.961 421.574 812.163 421.928 812.736 422.596C813.697 422.342 813.944 422.292 814.961 422.482C816.703 424.486 818.722 427.424 819.311 430.027L817.998 430.941C818.518 432.159 819.296 431.043 820.24 432.195C821.12 433.269 821.46 434.107 821.21 435.496C821.167 435.734 821.094 435.965 821.035 436.199L822.083 436.568L820.867 436.768L820.902 436.692C823.787 443.247 825.506 452.014 825.42 459.2C825.28 470.828 822.787 487.275 814.188 495.634L813.408 496.202L811.924 495.806C811.639 495.991 811.358 496.182 811.069 496.362C809.741 497.188 808.289 497.56 806.751 497.127C803.386 496.179 801.23 492.705 799.545 489.871C791.072 475.619 790.018 453.663 794.168 437.781C796.366 429.37 798.591 423.882 806.362 419.361Z"/>
		<path transform="matrix(3.7681 0 0 3.7681 -330.929 -210.529)" d="M842.46 394.4L842.056 394.203C841.342 394.309 840.733 394.345 840.018 394.218C833.945 393.144 827.184 393.584 821.012 393.655C820.451 393.058 820.674 393.409 820.378 392.372C820.297 392.091 820.227 391.806 820.151 391.523C817.258 390.743 816.663 393.878 814.36 394.694C812.474 395.362 808.402 392.94 806.292 393.058C804.15 393.179 800.565 394.946 798.411 395.656C797.737 394.978 797.302 394.608 796.4 394.28L795.871 394.744C796.338 395.374 796.599 395.483 796.608 396.291C792.388 397.374 788.182 397.332 783.95 398.51C783.539 397.731 783.193 396.952 782.843 396.144L782.028 396.066C781.043 397.581 780.071 398.746 778.491 399.677C775.484 401.449 770.719 403.032 767.232 401.947C765.892 401.531 764.924 400.605 764.287 399.373C762.74 396.378 763.397 391.469 764.406 388.41C765.261 385.813 767.288 380.843 769.774 379.586L772.24 380.494L773 380.031L773.047 378.965L771.902 378.252C772.919 377.36 772.995 377.127 773.118 375.779C773.213 374.741 773.376 374.28 774.188 373.534C776.337 371.56 781.483 372.129 784.21 372.185L784.613 371.108L785.198 370.943L785.812 371.955C787.001 372.539 792.051 369.258 793.943 368.805C799.148 367.559 804.631 368.3 809.929 367.983C814.894 367.685 819.701 366.177 824.75 366.548C825.57 367.154 826.248 367.598 827.204 367.956L827.536 367.611C827.056 367.143 826.818 367.115 826.753 366.423L828.003 366.663C828.275 367.008 828.759 367.637 829.05 367.935C829.854 368.759 829.891 368.767 831.066 368.772L832.068 367.233L832.7 367.133C832.517 368.038 832.418 368.069 832.734 368.998L833.506 368.896L834.735 366.961C835.081 368.02 834.832 367.528 835.485 368.435L837.753 368.285C844.909 367.251 861.703 369.308 867.828 372.977L868.362 373.824L867.924 374.516C867.553 375.113 867.248 375.657 866.962 376.293C868.053 376.946 868.817 377.124 870.081 376.782C870.543 376.657 870.991 376.483 871.441 376.323C872.981 376.849 874.188 377.772 875.505 378.698C876.279 382.066 876.101 387.117 877.23 389.949L878.823 390.369C879.222 391.699 878.903 392.086 878.458 393.37C877.295 393.444 877.315 392.893 876.371 392.733C874.926 392.488 864.484 396.022 861.494 396.194C859.603 396.302 857.544 394.687 855.497 394.501C851.189 394.109 846.773 394.658 842.46 394.4Z"/>
		<path fill="#0305FE" transform="matrix(3.7681 0 0 3.7681 -330.929 -210.529)" d="M261.923 787.336C266.837 785.624 285.506 787.094 292.234 786.678C306.034 785.825 319.815 780.865 332.464 775.523C333.621 775.035 337.641 773.704 338.198 772.722C338.762 771.728 338.209 771.452 339.161 770.369C340.503 770.263 341.641 770.426 342.952 770.652C353.324 764.682 362.267 758.482 371.236 750.585C373.339 748.733 375.783 746.866 377.542 744.677C380.4 741.121 382.875 736.118 384.728 731.931C386.359 728.243 387.28 720.684 390.158 718.225C390.359 718.053 390.572 717.897 390.779 717.733C392.179 722.184 392.395 732.781 391.338 737.271C390.796 739.571 387.897 743.611 388.195 745.547L389.569 745.69C388.513 747.884 384.618 750.002 384.025 751.789C383.668 752.869 383.947 755.308 383.893 756.54C383.828 758.022 384.196 758.941 382.903 759.764L381.421 759.098L381.211 759.771C382.2 761.301 382.641 761.633 382.58 763.498C381.862 763.406 381.154 763.296 380.441 763.166C378.094 767.774 376.399 772.913 373.641 777.267L373.124 777.417L373.138 776.222L372.258 776.026C371.921 776.82 371.839 777.417 371.793 778.275L370.965 778.374L370.255 777.512C369.113 778.346 368.779 779.256 368.242 780.506L367.64 780.803C366.371 784.167 362.165 787.874 359.113 789.629C356.155 793.571 347.821 791.925 344.085 797.441C343.998 797.57 343.914 797.701 343.828 797.832C342.875 797.736 343.192 797.862 342.401 797.452C342.225 797.361 342.056 797.259 341.884 797.163Q341.547 798.209 341.19 799.248L340.322 799.3C339.813 798.257 339.936 798.726 339.801 797.513C339.768 797.22 339.748 796.925 339.721 796.631L339.001 796.533C338.764 797.229 338.632 797.714 338.091 798.243C337.573 798.75 337.724 798.545 336.785 798.533L337.39 797.532L336.669 798.259L336.841 796.281C334.421 796.855 331.086 799.57 328.763 800.841C328.991 801.753 329.054 801.959 328.816 802.905C327.837 802.107 327.813 801.693 326.501 801.811L326.586 803.454L326.177 803.855L324.959 802.216L324.206 802.407C324.075 803.318 324.081 803.623 323.504 804.372L322.22 803.102L321.556 803.284L321.506 804.974L320.781 805.158Q320.028 804.21 319.322 803.226C318.861 803.995 319.128 803.584 318.502 804.447C317.235 804.002 316.216 803.54 314.855 803.561L314.627 804.937C311.645 805.621 307.692 805.372 304.551 805.706C303.972 805.139 303.433 804.727 302.742 804.304L301.479 805.274C300.278 806.212 299.813 806.551 298.269 806.659C297.619 806.197 297.399 805.968 297.031 805.226C296.928 805.019 296.843 804.805 296.749 804.595C296.247 805.583 295.808 806.399 295.063 807.225C294.875 807.101 294.683 806.984 294.5 806.853C293.64 806.234 293.256 805.926 292.163 805.767C290.181 805.479 288.03 806.058 286.007 805.929C283.438 805.766 280.996 804.884 278.409 805.119C276.485 810.391 277.03 834.996 276.741 842.668C276.238 856.059 273.468 869.097 270.838 882.198C270.208 885.337 269.966 888.876 268.841 891.853C267.801 894.605 266.214 897.503 263.449 898.761C260.01 898.91 256.575 896.948 253.98 894.848C253.387 892.838 260.624 857.6 261.29 851.012C262.685 837.197 262.542 823.21 262.225 809.342C262.058 802.031 261.572 794.642 261.923 787.336Z"/>
		<path fill="#0305FE" transform="matrix(3.7681 0 0 3.7681 -330.929 -210.529)" d="M380.075 654.823C379.309 652.655 376.382 642.909 377.18 641.112C384.555 645.039 390.861 652.133 397.233 657.537C402.052 661.624 407.3 665.153 412.646 668.51C429.311 678.974 450.185 688.055 470.232 683.332C490.386 678.583 511.672 659.893 524.625 644.229C534.754 631.98 548.046 610.292 554.929 595.921C557.749 590.032 560.525 584.086 562.919 578.009C564.53 573.922 565.574 568.237 567.948 564.649C568.124 564.382 568.31 564.123 568.492 563.86C568.642 577.648 564.659 590.856 561.02 604.01C552.418 635.102 541.767 670.454 518.611 694.033C505.485 707.398 490.954 713.039 472.226 713.016C442.022 712.98 412.545 691.088 392.203 670.398C391.272 669.451 391.154 668.362 390.967 667.104C387.745 663.779 383.513 660.244 381.279 656.196C380.951 655.602 380.599 655.246 380.075 654.823Z"/>
		<path fill="#0305FE" transform="matrix(3.7681 0 0 3.7681 -330.929 -210.529)" d="M808.112 278.126C810.398 277.915 847.063 263.649 849.698 262.121C851.002 261.365 851.357 258.825 852.77 257.631C853.108 257.647 853.446 257.674 853.784 257.679C856.827 257.724 878.788 242.017 882.401 239.04C884.866 237.009 886.679 234.307 889.039 232.168L889.794 231.493C890.655 233.314 891.508 234.84 890.783 236.89C886.872 247.944 863.033 259.343 852.714 264.187C855.311 271.991 860.165 278.555 863.72 285.947C865.165 288.953 866.618 291.967 867.799 295.089C868.54 297.048 868.953 299.279 869.859 301.148C870.605 302.687 871.836 303.891 872.402 305.538C883.854 338.912 888.486 375.262 887.15 410.415C886.968 415.212 887.904 421.048 885.938 425.45C885.975 425.547 886.033 425.638 886.05 425.741C886.932 431.111 884.974 435.833 884.684 441.018L885.544 441.335C882.558 457.468 880.321 473.825 875.786 489.634C875.057 492.179 873.559 495.424 873.607 497.995C873.854 498.958 874.072 499.874 874.64 500.709C876.996 504.177 880.227 507.298 882.835 510.612C886.197 514.885 889.174 519.463 892.697 523.607C892.886 526.388 895.781 529.652 896.963 532.347C904.278 549.026 913.366 571.92 906.549 590.091C903.303 594.458 900.473 597.236 894.879 598.154C892.719 598.509 890.463 598.486 888.453 599.439C888.115 599.443 887.776 599.454 887.438 599.45C876.49 599.305 866.753 577.344 856.085 586.496C854.05 588.241 852.413 590.629 850.709 592.693C844.675 599.998 838.192 605.905 828.007 605.548C823.281 605.383 818.558 603.978 814.246 602.105C807.227 596.642 800.858 591.561 797.999 582.793Q797.752 582.012 797.544 581.22Q797.336 580.427 797.166 579.626Q796.996 578.825 796.865 578.016Q796.734 577.207 796.643 576.393Q796.551 575.579 796.499 574.762Q796.447 573.944 796.435 573.125Q796.423 572.306 796.45 571.487Q796.477 570.668 796.544 569.852Q796.611 569.036 796.718 568.223Q796.824 567.411 796.97 566.605Q797.115 565.799 797.3 565.001Q797.484 564.203 797.707 563.414Q797.93 562.626 798.191 561.849Q798.452 561.073 798.75 560.31Q799.048 559.547 799.383 558.799Q799.717 558.052 800.088 557.321C804.044 549.567 810.926 543.884 819.143 541.19C821.271 542.837 822.899 544.281 824.013 546.776C828.945 545.805 834.366 546.024 839.373 546.183C844.367 546.341 848.372 549.112 853.177 549.821C854.903 544.743 848.703 515.019 848.087 506.861C847.318 496.687 848.383 486.689 848.2 476.527Q847.727 447.576 845.337 418.719C844.696 410.454 845.264 402.372 842.46 394.4C846.773 394.658 851.189 394.109 855.497 394.501C857.544 394.687 859.603 396.302 861.494 396.194C864.484 396.022 874.926 392.488 876.371 392.733C877.315 392.893 877.295 393.444 878.458 393.37C878.903 392.086 879.222 391.699 878.823 390.369L877.23 389.949C876.101 387.117 876.279 382.066 875.505 378.698C874.188 377.772 872.981 376.849 871.441 376.323C870.991 376.483 870.543 376.657 870.081 376.782C868.817 377.124 868.053 376.946 866.962 376.293C867.248 375.657 867.553 375.113 867.924 374.516L868.362 373.824L867.828 372.977C861.703 369.308 844.909 367.251 837.753 368.285C836.427 365.049 836.567 360.07 835.973 356.522C835.277 352.367 834.187 348.274 833.16 344.191C829.769 330.717 825.14 314.577 819.853 301.821C818.181 297.788 815.848 293.935 813.859 290.046C811.85 286.118 810.135 282.052 808.112 278.126Z"/>
		<path transform="matrix(3.7681 0 0 3.7681 -330.929 -210.529)" d="M824.013 546.776C820.344 553.831 812.126 556.421 808.689 565.196C806.833 569.934 807.076 574.908 809.132 579.536C811.671 585.255 817.743 591.435 823.764 593.498C837.008 598.035 844.292 577.474 854.299 572.708C857.077 571.385 860.309 571.056 863.349 571.339C876.771 572.589 880.596 584.216 889.252 587.059C890.656 587.52 892.211 587.554 893.491 586.71C895.412 585.443 896.428 582.901 896.915 580.754C900.656 564.224 882.858 526.069 871.585 513.701C867.737 509.479 858.859 505.276 856.562 500.741C855.529 498.702 855.983 496.659 856.792 494.633C857.433 493.03 858.013 492.257 859.647 491.527C864.299 491.187 869.32 495.867 872.769 498.571L873.607 497.995C873.854 498.958 874.072 499.874 874.64 500.709C876.996 504.177 880.227 507.298 882.835 510.612C886.197 514.885 889.174 519.463 892.697 523.607C892.886 526.388 895.781 529.652 896.963 532.347C904.278 549.026 913.366 571.92 906.549 590.091C903.303 594.458 900.473 597.236 894.879 598.154C892.719 598.509 890.463 598.486 888.453 599.439C888.115 599.443 887.776 599.454 887.438 599.45C876.49 599.305 866.753 577.344 856.085 586.496C854.05 588.241 852.413 590.629 850.709 592.693C844.675 599.998 838.192 605.905 828.007 605.548C823.281 605.383 818.558 603.978 814.246 602.105C807.227 596.642 800.858 591.561 797.999 582.793Q797.752 582.012 797.544 581.22Q797.336 580.427 797.166 579.626Q796.996 578.825 796.865 578.016Q796.734 577.207 796.643 576.393Q796.551 575.579 796.499 574.762Q796.447 573.944 796.435 573.125Q796.423 572.306 796.45 571.487Q796.477 570.668 796.544 569.852Q796.611 569.036 796.718 568.223Q796.824 567.411 796.97 566.605Q797.115 565.799 797.3 565.001Q797.484 564.203 797.707 563.414Q797.93 562.626 798.191 561.849Q798.452 561.073 798.75 560.31Q799.048 559.547 799.383 558.799Q799.717 558.052 800.088 557.321C804.044 549.567 810.926 543.884 819.143 541.19C821.271 542.837 822.899 544.281 824.013 546.776Z"/>
		<path transform="matrix(3.7681 0 0 3.7681 -330.929 -210.529)" d="M445.565 316.126C445.698 316.101 445.83 316.065 445.965 316.053C459.768 314.794 473.403 316.465 484.829 324.792C500.258 336.036 511.256 360.234 513.977 378.589C517.158 400.05 514.587 425.216 501.157 443.092C493.158 453.739 483.275 462.952 475.376 473.618C463.604 489.512 463.562 507.834 472.755 525.207C477.37 533.929 483.884 542.692 485.318 552.642C486.634 561.777 484.951 570.938 479.359 578.403C471.931 588.32 461.927 592.394 450.018 594.131C449.071 593.985 449.379 594.008 448.592 593.959C438.614 593.327 429.104 590.891 420.69 585.309C388.533 563.975 370.289 516.803 362.847 480.301C356.736 450.332 359.205 414.581 370.462 386.108C374.209 376.631 379.183 367.967 384.814 359.501C399.096 338.03 419.993 321.292 445.565 316.126ZM471.855 546.522C471.286 542.612 468.006 538.342 466.106 534.83C447.529 500.481 453.471 480.297 479.347 452.94C485.332 446.613 493.277 438.64 495.554 429.943C495.627 429.665 495.686 429.383 495.753 429.103C494.709 428.296 494.441 428.209 494.037 426.977C494.187 426.806 494.341 426.638 494.487 426.463C495.124 425.702 494.903 426.024 495.317 425.091C495.168 424.937 495.012 424.791 494.871 424.63C492.979 422.465 491.156 411.046 489.942 407.416C486.369 396.731 479.957 385.625 470.863 378.754C468.397 376.89 464.198 375.145 462.313 372.897L463.137 373.865C459.499 373.335 455.075 371.944 451.481 372.008C449.061 372.052 446.914 374.141 444.487 373.851L443.603 372.455C439.47 372.519 423.305 383.798 419.995 387.235C402.232 405.684 396.133 426.215 396.732 451.529C397.126 468.205 400.623 483.815 402.996 500.206C403.55 504.027 405.558 508.052 406.742 511.754C411.979 528.119 417.978 548.586 432.566 559.352C437.958 563.331 445.333 565.861 452.03 564.809C457.272 563.986 463.64 562.323 466.86 557.805C469.199 554.524 469.493 549.41 471.855 546.522Z"/>
		<path fill="#0305FE" transform="matrix(3.7681 0 0 3.7681 -330.929 -210.529)" d="M471.855 546.522Q472.349 547.506 472.793 548.514C475.364 554.411 475.852 559.708 473.291 565.784C470.313 572.849 465.024 578.392 457.764 581.11C450.499 583.829 442.083 582.88 435.078 579.765C408.396 567.904 392.952 535.226 383.282 509.403C379.535 499.395 375.748 488.481 373.669 478.023C367.752 448.253 370.609 413.552 383.26 385.917C393.52 363.505 411.323 340.006 435.199 331.246C447.179 326.85 459.616 325.091 471.542 330.843C485.895 337.767 495.494 355.564 500.413 369.946C506.875 388.838 504.494 411.381 495.753 429.103C494.709 428.296 494.441 428.209 494.037 426.977C494.187 426.806 494.341 426.638 494.487 426.463C495.124 425.702 494.903 426.024 495.317 425.091C495.168 424.937 495.012 424.791 494.871 424.63C492.979 422.465 491.156 411.046 489.942 407.416C486.369 396.731 479.957 385.625 470.863 378.754C468.397 376.89 464.198 375.145 462.313 372.897L463.137 373.865C459.499 373.335 455.075 371.944 451.481 372.008C449.061 372.052 446.914 374.141 444.487 373.851L443.603 372.455C439.47 372.519 423.305 383.798 419.995 387.235C402.232 405.684 396.133 426.215 396.732 451.529C397.126 468.205 400.623 483.815 402.996 500.206C403.55 504.027 405.558 508.052 406.742 511.754C411.979 528.119 417.978 548.586 432.566 559.352C437.958 563.331 445.333 565.861 452.03 564.809C457.272 563.986 463.64 562.323 466.86 557.805C469.199 554.524 469.493 549.41 471.855 546.522Z"/>
		<path transform="matrix(3.7681 0 0 3.7681 -330.929 -210.529)" d="M463.248 407.625C468.092 408.052 468.051 406.075 471.743 405.136C472.587 404.922 474.231 405.193 475.156 405.215C477.206 406.536 478.93 409.101 479.434 411.502C479.66 412.579 479.69 413.152 479.055 414.083C474.601 414.621 462.745 412.924 459.409 410.23C458.806 409.743 458.971 409.782 458.863 408.981L458.487 408.965L457.944 408.429L457.99 407.843C459.754 407.622 461.472 407.618 463.248 407.625ZM458.863 408.981C458.971 409.782 458.806 409.743 459.409 410.23C462.745 412.924 474.601 414.621 479.055 414.083C478.761 413.309 478.492 412.427 478.091 411.706C476.754 409.302 472.802 412.047 469.426 411.157L468.784 409.686C467.338 408.817 460.824 408.89 458.863 408.981Z"/>
		<path transform="matrix(3.7681 0 0 3.7681 -330.929 -210.529)" d="M458.863 408.981C460.824 408.89 467.338 408.817 468.784 409.686L469.426 411.157C472.802 412.047 476.754 409.302 478.091 411.706C478.492 412.427 478.761 413.309 479.055 414.083C474.601 414.621 462.745 412.924 459.409 410.23C458.806 409.743 458.971 409.782 458.863 408.981Z"/>
		<path transform="matrix(3.7681 0 0 3.7681 -330.929 -210.529)" d="M446.404 409.702C443.694 410.893 440.775 411.432 438.017 412.509C429.251 415.935 425.248 422.002 419.629 428.956C418.521 430.327 417.228 431.427 415.353 431.4C414.127 431.382 412.966 430.812 412.136 429.922C411.009 428.712 410.524 427.028 410.665 425.4C411.159 419.707 418.24 413.4 422.473 410.024C431.982 402.441 443.603 398.661 455.744 400.052C463.037 400.999 468.468 401.739 475.156 405.215C474.231 405.193 472.587 404.922 471.743 405.136C468.051 406.075 468.092 408.052 463.248 407.625C461.472 407.618 459.754 407.622 457.99 407.843L457.944 408.429L458.487 408.965C457.396 408.741 456.353 408.508 455.275 408.227C452.894 407.606 451.182 408.515 449.034 409.137C448.379 409.327 448.017 409.2 447.369 409.328C447.034 409.394 446.712 409.559 446.404 409.702ZM455.744 400.052L455.606 402.087C454.06 403.048 452.063 402.508 450.367 402.192L449.429 402.66L449.698 403.192C451.04 403.356 452.197 403.336 453.549 403.258C455.051 403.171 455.632 403.273 457.023 403.833C458.166 404.293 459.572 404.407 460.781 404.472C459.825 404.95 458.87 405.289 457.857 405.629C459.546 405.672 461.334 405.452 462.739 406.52L463.248 407.625C468.092 408.052 468.051 406.075 471.743 405.136C472.587 404.922 474.231 405.193 475.156 405.215C468.468 401.739 463.037 400.999 455.744 400.052ZM446.404 409.702C446.712 409.559 447.034 409.394 447.369 409.328C448.017 409.2 448.379 409.327 449.034 409.137C451.182 408.515 452.894 407.606 455.275 408.227C456.353 408.508 457.396 408.741 458.487 408.965L457.944 408.429L457.99 407.843C459.754 407.622 461.472 407.618 463.248 407.625L462.739 406.52C461.334 405.452 459.546 405.672 457.857 405.629C457.707 405.623 457.555 405.632 457.405 405.612C456.636 405.51 456.238 405.25 455.557 404.927C452.933 403.684 440.019 405.455 436.768 406.364C439.992 408.006 445.562 405.657 449.005 407.2C448.354 407.905 447.853 408.196 446.975 408.575L446.404 409.702Z"/>
		<path transform="matrix(3.7681 0 0 3.7681 -330.929 -210.529)" d="M446.404 409.702L446.975 408.575C447.853 408.196 448.354 407.905 449.005 407.2C445.562 405.657 439.992 408.006 436.768 406.364C440.019 405.455 452.933 403.684 455.557 404.927C456.238 405.25 456.636 405.51 457.405 405.612C457.555 405.632 457.707 405.623 457.857 405.629C459.546 405.672 461.334 405.452 462.739 406.52L463.248 407.625C461.472 407.618 459.754 407.622 457.99 407.843L457.944 408.429L458.487 408.965C457.396 408.741 456.353 408.508 455.275 408.227C452.894 407.606 451.182 408.515 449.034 409.137C448.379 409.327 448.017 409.2 447.369 409.328C447.034 409.394 446.712 409.559 446.404 409.702Z"/>
		<path transform="matrix(3.7681 0 0 3.7681 -330.929 -210.529)" d="M455.744 400.052C463.037 400.999 468.468 401.739 475.156 405.215C474.231 405.193 472.587 404.922 471.743 405.136C468.051 406.075 468.092 408.052 463.248 407.625L462.739 406.52C461.334 405.452 459.546 405.672 457.857 405.629C458.87 405.289 459.825 404.95 460.781 404.472C459.572 404.407 458.166 404.293 457.023 403.833C455.632 403.273 455.051 403.171 453.549 403.258C452.197 403.336 451.04 403.356 449.698 403.192L449.429 402.66L450.367 402.192C452.063 402.508 454.06 403.048 455.606 402.087L455.744 400.052Z"/>
		<path transform="matrix(3.7681 0 0 3.7681 -330.929 -210.529)" d="M425.499 468.118C423.865 469.006 421.183 469.646 419.357 469.007C417.801 468.462 416.751 467.018 416.198 465.528C414.271 460.334 416.221 453.007 418.452 448.104C422.935 438.248 433.169 428.276 443.425 424.608C450.289 422.152 460.598 421.201 467.284 424.587C469.054 425.484 470.392 426.796 470.924 428.748C471.512 430.908 470.39 432.191 469.339 433.952C463.233 431.265 454.271 432.848 448.23 435.206C439.875 438.468 432.571 444.558 429.019 452.923C427.003 457.674 426.461 462.848 424.962 467.772L425.499 468.118Z"/>
		<path fill="#0305FE" transform="matrix(3.7681 0 0 3.7681 -330.929 -210.529)" d="M425.499 468.118L424.962 467.772C426.461 462.848 427.003 457.674 429.019 452.923C432.571 444.558 439.875 438.468 448.23 435.206C454.271 432.848 463.233 431.265 469.339 433.952C471.092 433.708 471.687 433.425 473.312 434.213C474.021 435.349 474.319 435.881 474.068 437.244C472.451 446.051 454.611 457.069 447.431 461.333C442.549 464.233 432.617 469.905 426.838 468.452C426.46 468.357 426.092 468.223 425.713 468.137C425.643 468.121 425.57 468.124 425.499 468.118Z"/>
		<path fill="#0305FE" transform="matrix(3.7681 0 0 3.7681 -330.929 -210.529)" d="M892.697 523.607C905.484 533.697 913.791 556.324 915.612 572.038C916.291 577.896 915.704 583.598 912.448 588.672C909.323 593.844 906.372 597.216 900.251 598.691C896.73 599.54 893.032 599.667 889.456 600.289C882.685 602.63 875.071 606.657 871.826 613.41C870.024 617.161 869.699 621.832 866.426 624.588L866.181 625.483Q866.893 625.285 867.608 625.101C868.185 628.634 865.678 634.108 864.833 637.732C863.069 645.297 862.12 653.517 860.937 661.213L859.485 662.978L859.621 663.775L860.577 663.415C860.813 666.57 859.461 670.784 859.027 673.99C857.277 686.944 855.427 700.057 853.912 713.037C853.221 718.958 852.549 725.064 852.158 731.006C851.778 736.788 852.563 742.025 850.365 747.487C850.629 747.699 850.906 747.897 851.158 748.123C851.384 748.326 851.585 748.556 851.798 748.772C851.642 750.224 851.47 751.626 851.126 753.045C849.599 759.348 850.44 765.73 849.781 772.106C849.285 776.898 845.583 792.468 842.657 796.102C840.902 798.281 840.938 803.077 839.994 805.952C837.641 813.119 834.024 819.345 831.202 826.239C830.661 827.563 829.607 828.278 828.55 829.182C827.947 829.696 827.733 829.949 827.465 830.684C827.846 831.89 827.856 832.778 827.262 833.956C826.953 834.57 826.702 834.865 826.309 835.388C826.084 835.417 825.859 835.439 825.635 835.474C824.649 835.627 825.024 835.525 824.117 836.029C823.281 838.323 822.529 841.064 821.279 843.153C817.841 848.903 810.69 851.449 807.821 856.744C806.674 858.863 803.805 860.819 801.957 862.384L801.333 861.751L800.681 861.595C798.284 864.38 796.008 867.716 792.614 869.314C791.612 869.786 788.926 870.448 788.255 871.045C787.087 872.082 787.645 872.634 785.762 873.095C782.194 873.967 779.252 873.993 776.071 876.041C774.681 876.935 773.199 877.367 771.642 877.875C771.427 877.945 771.217 878.029 771.001 878.094C768.119 878.972 765.29 876.952 762.643 877.542L762.081 879.095C761.051 879.521 761.294 879.638 760.143 879.215L759.178 877.75L758.238 877.821C758.375 878.59 758.506 879.107 758.775 879.818L758.218 879.883L757.266 879.018C756 879.393 755.995 880.582 754.869 880.196C755.223 879.169 755.738 878.459 755.338 877.418L754.094 877.157C753.276 878.757 754.318 879.955 753.185 881.396C750.925 881.281 748.699 880.654 746.452 880.651C742.803 880.646 739.053 881.324 735.397 881.568C727.726 882.082 719.135 880.962 711.779 878.757C710.79 879.473 711.215 879.021 710.545 880.149L709.779 880.191C709.668 879.389 709.634 879.837 710.1 878.881L709.251 878.601L708.716 879.837C708.56 879.789 708.405 879.74 708.249 879.694C704.898 878.712 701.333 878.665 698.033 877.65C678.929 871.778 662.806 865.186 642.559 871.007C638.292 872.233 633.997 873.667 630.11 875.844C619.983 881.518 612.984 892.246 609.99 903.263C607.694 911.71 607.3 920.342 607.51 929.058C607.597 932.702 608.02 936.586 607.707 940.213C607.596 941.506 607.297 942.385 606.532 943.455C603.318 945.228 597.485 942.759 596.91 944.337C596.842 944.524 596.726 945.166 596.684 945.387C595.32 944.676 593.87 943.674 592.304 943.612C591.468 944.562 590.905 945.688 589.48 945.625C589.241 945.614 589.015 945.514 588.782 945.459C588.452 945.55 588.065 945.674 587.723 945.679C582.526 945.754 577.093 945.738 571.888 945.399L571.344 945.717C568.17 945.021 561.894 944.73 558.328 944.257L557.59 945.315C555.462 946.261 551.771 945.483 549.423 945.31L548.694 943.873L547.948 943.92L547.79 944.907C546.544 945.926 536.907 944.608 534.54 944.44C533.965 943.377 534.277 943.9 533.603 942.873C528.918 945.16 524.755 944.815 519.883 943.209C519.588 942.492 519.276 941.79 518.947 941.087L517.967 941.039C517.391 941.934 516.993 942.24 516.047 942.723C513.879 942.907 511.982 941.775 509.999 941.006C509.807 941.19 509.585 941.346 509.423 941.556C509.227 941.809 509.098 942.107 508.935 942.383L508.366 942.092C508.088 940.961 508.035 940.491 507.25 939.593L506.584 940.948L505.872 941.078C502.473 938.358 504.808 931.433 504.351 927.508C502.892 914.966 506.581 900.528 509.746 888.383C516.581 862.156 533.09 834.409 556.962 820.533L557.599 820.166L557.554 818.992C582.386 802.123 617.329 803.175 645.214 810.328C656.23 813.154 666.225 817.569 677.804 817.93C706.17 818.813 736.464 810.429 759.134 792.993C763.974 789.271 768.038 783.31 772.328 780.161C773.716 779.142 774.388 779.548 775.99 779.745C775.667 778.775 775.832 779.083 775.359 778.294C775.257 778.124 775.149 777.959 775.044 777.792C779.498 772.286 787.76 762.123 791.239 756.23C792.625 753.882 792.93 751.045 794.034 748.579C798.536 738.521 803.345 728.42 806.18 717.713C807.609 712.316 809.366 699.509 811.343 695.681L811.867 695.988L812.018 695.683C811.694 694.702 811.062 693.312 811.16 692.28C811.316 690.656 812.039 688.867 812.322 687.214C813.466 680.547 814.834 672.758 814.536 666.011L813.979 665.534C811.977 666.761 790.107 665.652 786.615 665.182C785.974 664.027 785.168 662.691 784.835 661.399C784.505 660.115 784.7 658.589 785.433 657.48C789.261 651.696 808.1 656.328 814.655 654.818C814.982 654.743 815.306 654.656 815.632 654.574C816.147 650.118 814.876 646.562 814.909 642.252C814.943 637.864 816.293 633.639 816.189 629.195L814.949 628.309C815.161 622.362 812.382 606.315 814.246 602.105C818.558 603.978 823.281 605.383 828.007 605.548C838.192 605.905 844.675 599.998 850.709 592.693C852.413 590.629 854.05 588.241 856.085 586.496C866.753 577.344 876.49 599.305 887.438 599.45C887.776 599.454 888.115 599.443 888.453 599.439C890.463 598.486 892.719 598.509 894.879 598.154C900.473 597.236 903.303 594.458 906.549 590.091C913.366 571.92 904.278 549.026 896.963 532.347C895.781 529.652 892.886 526.388 892.697 523.607Z"/>
		<path transform="matrix(3.7681 0 0 3.7681 -330.929 -210.529)" d="M815.632 654.574C821.845 654.748 849.005 653.482 852.238 656.855C853.378 658.045 854.477 659.941 854.37 661.633C854.269 663.209 853.538 664.503 852.244 665.406C850.744 666.453 848.773 666.858 846.983 667.024C844.021 667.298 816.454 666.441 814.536 666.011L813.979 665.534C811.977 666.761 790.107 665.652 786.615 665.182C785.974 664.027 785.168 662.691 784.835 661.399C784.505 660.115 784.7 658.589 785.433 657.48C789.261 651.696 808.1 656.328 814.655 654.818C814.982 654.743 815.306 654.656 815.632 654.574Z"/>
		<path transform="matrix(3.7681 0 0 3.7681 -330.929 -210.529)" d="M253.257 783.939C247.065 778.956 241.769 771.893 236.838 765.673C232.022 759.6 227.011 753.687 222.479 747.396C217.621 740.652 213.279 733.538 208.772 726.558C207.25 724.201 204.683 721.385 203.688 718.863C203.427 718.201 204.168 717.126 204.46 716.482C203.292 716.288 203.216 715.511 202.035 715.349L201.97 716.55C201.581 716.267 188.149 695.625 187.9 694.716C187.406 692.917 188.561 692.65 187.237 690.727C186.863 691.215 186.916 692.044 186.841 692.651L186.544 692.721C184.339 689.399 183.525 685.481 181.498 682.096C180.233 682.121 180.808 682.23 179.758 681.85L180.481 680.873C180.653 678.958 177.224 674.851 176.083 672.904C172.106 666.12 168.944 659.165 165.391 652.189C162.095 645.715 158.265 639.296 155.758 632.473L156.57 631.546L156.255 630.778L154.825 631.08L154.127 630.471L155.319 629.884L155.368 629.195L154.16 628.841C150.236 625.297 148.435 617.066 147.775 611.969L147.701 611.361L147.175 611.238L146.358 611.647C146.248 611.505 146.127 611.371 146.028 611.221C143.327 607.096 142.496 600.611 140.373 596.011C139.615 594.37 137.807 592.082 138.056 590.293L138.773 589.803C138.618 589.691 138.451 589.592 138.307 589.465C137.282 588.56 136.413 587.401 135.872 586.142C134.826 583.704 134.333 580.947 133.537 578.405C132.232 574.239 130.41 570.252 129.127 566.069C128.59 564.319 128.539 562.527 128.046 560.798C125.781 552.861 122.497 545.101 120.525 537.066C119.551 533.1 119.496 529.018 118.731 525.028C117.253 517.319 114.844 509.374 114.238 501.558C114.222 501.346 114.211 501.134 114.197 500.922C113.38 500.357 113.011 499.901 112.5 499.051L113.558 499.199C113.888 493.196 109.074 481.711 109.483 475.489C109.589 473.882 110.765 474.83 111.909 473.866C111.491 471.516 109.376 470.381 108.866 468.177L110.215 468.257L110.643 467.721L110.292 466.715L108.688 466.94C108.314 464.578 109.415 462.209 109.272 459.779L108.222 459.873L107.801 458.53L108.042 458.758L107.668 458.095L108.865 458.079L108.893 457.212C106.798 453.525 107.761 451.535 108.351 447.587C108.179 447.46 108.027 447.298 107.833 447.207C107.575 447.087 107.287 447.044 107.014 446.962C107.112 443.408 106.918 439.524 107.588 436.043L108.801 435.947L108.538 435.106C107.645 432.313 106.91 430.218 107.87 427.352C108.43 426.843 108.84 426.524 109.541 426.205C109.735 426.116 109.934 426.041 110.13 425.959L110.444 424.506C109.705 422.948 109.746 424.412 108.47 423.768L109.458 422.31L108.911 422.199L109.094 421.866C108.958 421.721 108.802 421.592 108.686 421.431C108.668 421.407 107.695 419.832 107.671 419.759C107.259 418.5 107.953 404.689 108.149 402.55C109.377 400.889 110.696 399.314 110.908 397.192C111.131 394.96 111.546 392.823 112.053 390.637C112.619 388.196 112.317 385.935 112.108 383.461C111.667 378.262 118.17 361.668 119.613 354.96C120.13 352.555 119.645 349.612 120.434 347.345C120.996 345.728 122.803 344.437 123.733 342.98C125.51 340.198 125.679 334.515 126.148 331.206L127.586 330.718C128.203 327.222 129.113 320.77 132.025 318.591C132.634 318.135 132.578 317.6 132.767 316.876L132.809 317.397C134.326 309.974 136.747 303.46 139.931 296.582C140.526 295.296 142.199 291.355 143.516 290.869L143.233 291.576L143.613 291.557L143.865 293.046C144.388 292.008 144.175 291.069 144.095 289.93C144.004 288.62 145.171 287.786 145.997 286.795L144.793 286.208C148.021 278.93 152.123 271.678 155.874 264.64L157.041 264.891L157.427 264.297C156.756 263.744 156.43 263.658 156.162 262.806L156.774 262.45L157.982 262.967L158.579 262.72C158.222 261.805 158.391 262.135 157.922 261.32C157.815 261.136 157.705 260.954 157.596 260.771L158.127 259.75C159.175 259.319 160.043 259.038 160.854 258.218C160.104 257.308 160.358 257.803 160.045 256.757C162.621 253.351 165.969 250.63 168.518 247.242C168.513 245.888 168.548 244.696 168.784 243.355C170.078 242.327 171.177 241.004 172.3 239.791L172.871 239.78L172.862 240.884L172.85 241.533C173.336 239.719 173.796 237.995 174.59 236.29C175.608 236.182 175.266 236.147 176.168 236.287C176.36 236.317 176.551 236.356 176.743 236.391C176.527 236.048 176.313 235.703 176.092 235.362L175.569 234.564C176.358 234.114 177.162 233.717 177.979 233.321C177.285 233.126 177.114 233.245 176.719 232.606C181.495 227.918 186.654 222.275 190.109 216.521C190.226 216.327 190.336 216.127 190.454 215.933C190.602 215.691 190.756 215.452 190.906 215.211L191.173 214.774C191.381 214.828 191.597 214.855 191.796 214.934C192.007 215.018 192.195 215.151 192.394 215.26C193.902 212.394 195.05 209.183 197.273 206.801C198.319 206.581 199.826 206.403 200.647 205.681C204.255 202.511 206.598 197.627 210.301 194.277C211.338 195.046 212.217 195.89 213.561 195.955L214.321 195.161L214.191 194.521C213.221 194.382 212.553 194.325 211.675 193.866L212.168 193.323C213.395 193.112 214.498 193.024 215.503 192.22L214.024 191.735C216.132 188.297 220.65 186.721 223.324 183.838L222.331 183.755L222.225 183.272L223.309 182.223L224.504 182.418L225.073 181.999L224.995 180.517C226.431 178.526 228.449 176.324 230.928 175.819C232.049 175.591 232.519 175.614 233.371 174.751L232.424 173.251C233.064 171.955 233.603 170.267 234.9 169.521L236.294 169.951C237.166 169.29 236.16 168.519 236.358 167.24L237.439 166.539L239.684 167.104L240.321 166.536C240.099 165.41 239.78 164.424 240.486 163.41C241.359 162.155 244.135 159.485 245.608 159.118C246.39 159.733 247.133 160.331 248.005 160.815C249.066 159.711 249.678 158.391 250.15 156.949C252.069 151.079 256.123 152.012 259.955 148.662C260.895 147.84 260.724 146.498 261.918 145.483C263.322 145.442 263.975 145.777 265.14 146.465C265.273 146.544 265.405 146.626 265.538 146.706L265.897 146.573C265.673 145.258 265.427 144.34 266.036 143.079C268.884 140.315 271.437 140.003 274.952 138.729C277.795 137.698 277.859 136.888 279.098 134.216C280.346 133.192 281.465 133.098 283.004 132.871L283.647 132.782C284.234 131.661 284.918 130.235 285.964 129.484C287.143 128.639 296.331 124.409 297.175 124.812C298.195 125.301 298.553 126.46 299.796 126.559C299.924 125.533 300.028 124.488 300.288 123.485C300.585 122.336 300.421 122.42 301.51 121.762L303.295 122.889C304.535 122.861 304.539 122.771 305.501 121.965C305.541 120.804 305.699 120.113 306.188 119.06C310.196 115.363 317.331 114.323 322.439 112.51C322.831 111.997 323.223 111.479 323.642 110.988C326.496 107.64 327.507 110.726 330.62 110.491C330.624 110.184 330.601 109.875 330.631 109.57C330.747 108.365 331.007 107.591 332.019 106.858C333.989 105.431 335.26 107.444 337.248 106.484C339.692 105.305 340.733 102.952 343.868 103.336C344.118 103.702 344.36 104.074 344.628 104.428C345.64 105.763 346.138 105.986 347.717 106.172L348.183 105.619L347.487 103.28C347.703 102.825 347.761 102.652 348.104 102.214C348.902 101.198 349.603 100.752 350.849 100.577C351.419 101.171 351.941 101.666 352.585 102.187L353.607 100.75C355.144 100.577 354.748 101.599 356.152 101.828C356.064 100.996 355.935 100.223 356.091 99.3896C356.216 98.721 357.062 98.0377 357.641 97.6847C359.337 96.651 360.008 96.6588 361.898 97.0899C362.44 98.0272 362.323 98.2063 362.32 99.246C363.628 99.7602 364.284 99.6618 365.629 99.4663C366.686 98.7248 366.474 98.7672 366.801 97.6161L367.238 97.8221L366.612 96.5791L367.198 96.3826L368.116 97.4739C369.109 97.7369 377.794 92.5017 381.129 92.2445C385.203 91.9304 386.707 95.8706 390.326 95.6094C391.092 94.6616 391.315 94.2089 391.435 92.9929C390.767 93.387 390.096 93.7302 389.395 94.0619L389.186 93.4692C389.402 92.9565 389.606 92.4012 389.944 91.9517C390.413 91.3285 391.384 90.5815 392.158 90.3947C394.08 89.9307 396.043 91.4373 397.984 91.2017C400.107 90.944 401.94 89.5025 404.165 89.2199C404.595 89.6667 405.003 90.099 405.378 90.5951C405.47 90.7171 405.558 90.8423 405.648 90.9659C406.483 89.5702 405.158 89.6338 405.322 88.1404C406.045 88.0758 406.695 88.0027 407.4 87.8105C408.236 87.5823 407.701 87.5828 408.729 87.8808C408.8 88.1719 408.899 88.4575 408.942 88.7541C409.092 89.8119 409.052 90.6436 409.357 91.7188L410.202 91.8286C410.743 90.9409 411.292 90.0396 411.974 89.2519C416.588 83.9251 422.513 88.1729 427.963 87.8858L428.197 87.4832L428.118 86.6424C428.295 86.5266 428.464 86.3966 428.65 86.295C432.203 84.3534 431.654 87.2004 434.214 87.9164C434.485 87.4839 435 86.5003 435.431 86.1487C436.346 85.4023 436.751 85.4974 437.793 85.6979L438.87 87.676L439.636 87.8155C440.718 87.457 441.305 87.1632 442.035 86.2975C442.249 86.0437 442.455 85.7834 442.665 85.5263C444.525 85.1885 446.515 86.3016 448.44 86.3825C449.429 85.3627 450.029 84.6752 451.484 84.3669C452.41 84.542 452.736 84.9047 453.369 85.5544C454.08 86.2833 454.775 86.9222 455.58 87.5515L456.129 87.2035L455.18 86.0336L455.321 85.3455C456.989 84.8621 458.931 84.0573 460.676 84.2075L461.58 85.9314C463.416 86.3938 463.658 83.9688 465.539 83.5219C465.177 84.4892 465.218 84.0318 465.296 84.8777C469.747 85.1836 471.598 83.1939 474.712 83.2L475.162 84.3962L475.991 84.6641C476.348 84.3308 477.092 83.4298 477.494 83.2601C480.522 81.9845 487.239 82.0082 490.615 81.9786C491.406 81.9717 493.25 82.2282 493.946 81.9957C494.488 81.8146 495.336 81.0273 495.839 80.6777C499.932 80.155 504.046 81.1161 508.111 80.7353C511.06 80.4591 513.933 79.4592 516.9 79.1706C523.091 78.5683 529.512 79.0229 535.735 78.9119C542.016 78.7999 556.67 77.0094 562.287 78.4114C564.725 79.0199 566.34 79.26 568.817 78.6661C577.393 76.6096 575.617 79.901 580.8 79.7752C580.658 79.075 580.543 78.9255 580.775 78.2244C588.151 79.224 595.494 78.4636 602.852 78.817C605 78.9202 607.024 79.9939 609.144 80.1249C613.394 80.3877 613.473 78.4589 618.501 80.5214C622.583 82.1957 626.35 81.2364 630.23 82.4547C632.083 83.0367 633.019 84.0568 634.012 85.6724C634.089 85.7982 634.163 85.9262 634.239 86.0531C634.843 85.2951 635.467 84.5684 636.114 83.8464C641.179 84.5822 646.311 85.6255 651.386 86.1595C654.661 86.5042 658.453 85.9446 661.569 87.0633C663.264 87.6717 668.822 88.7359 669.391 90.0757C669.942 91.3711 670.227 92.387 671.27 93.3646L671.566 91.83C672.299 91.1263 672.672 90.8358 673.674 90.6249L674.201 91.677L675.006 91.8798L675.557 90.5665C677.846 90.8754 680.291 92.3716 682.443 93.2482L683.642 92.1008L684.428 92.4188L684.676 94.0078L685.856 94.4494L685.154 93.02L686.042 92.8726Q686.685 93.563 687.308 94.271C687.6 94.2056 687.895 94.1517 688.184 94.0748C692.766 92.8574 691.484 95.0489 693.687 95.6376L694.2 94.5854C695.796 94.6748 695.093 95.3566 696.128 96.1374C697.032 96.8196 705.056 96.5964 708.26 98.6153C708.722 99.6457 709.113 100.596 709.804 101.497C710.407 101.161 710.83 100.846 711.354 100.379C711.54 100.214 711.72 100.043 711.903 99.8751C714.554 99.8717 717.727 102.733 720.295 103.668C725.507 105.563 733.958 107.417 739.485 108.256C741.085 108.499 739.386 109.458 740.004 110.252C740.35 110.698 745.446 111.189 746.371 111.513C748.119 112.123 749.716 113.55 751.534 114.281C755.529 115.889 759.873 116.828 763.756 118.686C765.464 119.503 766.959 120.891 768.687 121.59C770.155 122.183 772.067 121.919 773.405 122.709C774.754 123.505 776.148 125.646 777.138 126.872C778.004 126.891 777.702 126.986 778.447 126.63C778.615 126.549 778.777 126.456 778.942 126.369C781.959 127.974 785.243 129.483 787.99 131.513C791.435 134.059 795.591 135.116 799.325 137.132C802.139 138.651 804.81 141.146 807.3 143.165L803.737 142.592L803.16 141.562C803.221 141.837 803.368 142.84 803.597 142.998C805.587 144.369 808.361 144.849 810.495 146.33C815.155 149.566 820.082 153.448 824.291 157.226C827.498 160.104 830.289 163.447 833.821 165.945C833.977 166.055 834.137 166.16 834.294 166.268L834.082 166.273L834.694 167.005C834.424 167.999 834.373 167.518 834.869 168.444C835.758 168.369 836.799 168.21 837.645 168.598C840.277 169.807 843.531 173.65 845.782 175.681C859.01 187.618 882.515 210.486 888.249 227.233C888.612 228.294 888.917 229.234 889.544 230.174C889.708 230.42 889.883 230.657 890.052 230.899L889.794 231.493L889.039 232.168C886.679 234.307 884.866 237.009 882.401 239.04C878.788 242.017 856.827 257.724 853.784 257.679C853.446 257.674 853.108 257.647 852.77 257.631C851.357 258.825 851.002 261.365 849.698 262.121C847.063 263.649 810.398 277.915 808.112 278.126C805.431 278.086 802.545 280.871 799.743 281.434C793.192 282.749 783.723 283.077 777.824 284.787C777.292 285.871 777.43 285.288 777.442 286.541L776.546 286.899C774.659 285.966 773.408 284.702 771.27 285.53C770.317 285.899 769.143 286.366 768.701 287.291L769.328 288.366C767.826 287.913 767.97 286.722 766.432 286.925L765.791 288.129C764.335 287.932 763.24 287.488 761.921 286.891C756.527 288.298 759.293 290.806 752.362 287.715C751.326 288.114 750.848 288.803 750.137 289.62C746.216 290.477 742.054 291.049 738.05 291.244C736.192 291.335 733.979 292.625 732.292 293.389C732.03 292.6 731.92 291.983 731.817 291.167L731.006 290.822C730.698 291.684 730.805 292.026 730.94 292.91C730.029 293.747 729.833 293.497 728.647 293.516L727.749 292.968L727.771 291.016C726.619 290.992 725.756 290.985 724.843 291.813C724.201 292.395 723.668 293.219 723.159 293.918L722.274 293.725L721.729 292.171C721.15 292.424 720.576 292.678 719.985 292.902L719.979 292.218C717.207 291.55 711.5 293.268 708.646 294.13L707.278 293.335L706.607 293.575L706.923 295.09L706.239 295.444C705.295 294.985 705.239 294.921 704.69 294.102L703.715 294.103L703.703 295.434C701.687 295.663 697.186 293.546 695.952 294.646L695.804 295.814L695.894 295.681C695.801 295.399 695.683 295.123 695.614 294.835C695.561 294.611 695.558 294.378 695.53 294.15L695.159 294.006C694.067 294.727 693.162 295.444 692.203 296.335C690.827 295.321 690.71 294.975 688.986 295.057C688.314 295.764 687.644 296.463 686.93 297.128C675.731 297.023 663.631 300.309 655.476 308.324C653.022 310.736 649.351 314.149 647.93 317.253C648.645 317.245 649.339 317.21 650.049 317.304C649.325 318.804 647.659 319.081 647.111 320.468C645.507 324.529 647.209 336.14 648.632 340.31Q649.135 341.789 649.694 343.247L648.523 344.297C649.497 345.551 651.014 344.563 651.423 346.227L651.067 347.462L651.574 347.842L652.415 347.124C652.642 348.545 652.866 349.963 653.159 351.372L654.484 351.493C654.106 352.36 653.718 352.804 653.104 353.508C653.761 353.778 654.406 354.025 655.073 354.262C655.09 354.525 655.098 354.788 655.122 355.051C655.212 356.018 655.431 356.694 655.781 357.585C654.877 358.294 655.336 357.97 654.406 358.563L654.782 359.105L656.149 359.239C657.377 361.739 661.943 370.123 661.059 372.632C660.739 373.537 660.885 373.184 660.439 374.041C658.643 379.044 662.848 387.283 663.538 392.497C663.999 395.983 663.576 400.043 663.195 403.532C663.035 404.993 663.486 406.241 663.958 407.605C663.922 407.77 663.884 407.935 663.85 408.101C662.743 413.491 663.233 419.044 662.21 424.432C661.365 428.882 660.567 433.429 659.381 437.799C658.506 441.024 657.101 444.278 656.703 447.583C656.421 449.92 653.557 452.151 652.277 454.094C651.38 455.457 650.947 457.126 650.177 458.567C647.774 463.064 644.334 468.696 640.652 472.261C639.469 472.739 638.602 472.766 637.348 472.803L637.138 473.394L637.863 474.83C636.368 477.09 623.44 485.896 621.233 486.016C620.473 486.057 619.502 485.733 618.763 485.558C617.028 487.345 616.767 489.426 613.966 489.489C610.455 489.568 605.934 488.954 602.861 491.027C601.852 491.376 601.073 491.928 600.061 491.513L600.994 489.891C598.293 489.74 595.125 494.541 592.514 491.612C592.109 491.158 591.733 490.673 591.357 490.195C590.408 490.314 590.274 490.357 589.524 490.846C584.914 489.867 582.017 486.087 579.559 482.322C577.816 479.651 576.93 476.836 575.523 474.028L573.98 473.954C573.774 471.827 574.846 469.523 575.608 467.559C574.987 467.154 574.411 466.778 573.74 466.459C573.16 465.569 572.732 464.704 573.006 463.588C573.296 462.402 574.014 461.327 574.681 460.323L574.104 459.926L572.673 460.336L572.066 459.712L573.138 459.659L573.817 458.395C573.331 457.667 572.831 456.983 572.278 456.304C572.088 450.906 574.044 450.292 571.85 444.877C571.994 443.914 572.016 441.725 572.688 441.105L573.621 442.906C574.076 442.193 573.888 441.106 573.656 440.289C573.484 439.684 573.1 439.077 572.798 438.536L571.524 438.391C571.99 437.892 572.447 437.461 572.956 437.011L572.767 436.196L571.623 435.717C571.406 434.184 571.562 433.555 572.508 432.251C572.636 432.075 572.776 431.908 572.909 431.737L572.639 431.056L571.459 431.71L571.187 430.655C572.282 429.543 573.404 430.664 573.463 429.128L571.432 426.735L572.162 425.298C571.679 425.087 571.191 424.885 570.699 424.696C571.078 423.187 571.509 421.727 572.004 420.253C571.417 420.058 570.826 419.88 570.231 419.713L570.469 419.081L571.705 418.695L571.74 417.796C570.412 417.516 570.252 417.778 569.434 416.609L570.551 415.282C569.992 412.215 568.586 409.348 568.112 406.368L569.291 405.501C568.236 403.496 566.942 402.057 566.576 399.768C567.755 397.802 567.468 396.015 566.99 393.812L565.382 392.588L565.584 391.61L568.332 392.329C568.093 390.369 565.944 390.486 565.691 389.003C565.389 387.225 566.543 384.505 565.372 383.245L564.179 383.218C564.234 381.302 566.276 381.319 566.328 379.632C566.094 379.729 565.864 379.832 565.628 379.924C564.893 380.208 564.534 380.295 563.775 380.279C563.903 378.855 564.3 377.181 563.646 375.862C562.588 375.043 562.038 374.887 561.614 373.559C562.001 372.269 562.6 370.907 562.825 369.596L561.116 368.599L560.933 367.796L562.045 367.125C561.534 362.979 558.351 360.616 558.952 355.975L558.288 355.51L557.272 356.068L557.208 355.329C558.562 354.868 558.793 354.992 559.468 353.76L559.216 353.139L557.301 353.623L557.109 353.022L558.06 352.231C557.745 349.552 554.371 348.246 553.93 345.297C554.702 344.487 554.865 344.709 555.934 344.638C555.898 343.536 555.8 343.108 555.002 342.222C554.45 341.61 553.536 341.083 552.854 340.61C552.44 339.181 553.186 339.682 553.243 338.634C553.267 338.187 551.281 335.194 550.963 334.634C549.427 331.929 547.102 328.708 546.517 325.629C546.348 324.738 546.547 323.455 546.061 322.67C545.638 321.989 544.775 321.628 544.119 321.226C542.372 320.156 540.644 318.367 540.237 316.271C540.201 316.086 540.214 315.895 540.202 315.706L541.462 314.487C540.825 313.782 540.544 313.636 539.742 313.189C538.851 312.693 538.392 312.449 537.983 311.469L538.807 310.268C536.118 307.962 535.53 311.478 534.637 305.595L534.131 305.046C529.151 299.575 526.016 293.211 520.093 288.626C518.89 287.695 516.75 286.505 516.206 285.165L516.63 284.2C515.616 283.834 514.945 283.787 513.882 283.729C512.33 282.601 508.417 280.228 508.252 278.317C508.218 277.924 508.237 277.074 508.242 276.657L507.545 276.04C507.409 276.271 507.277 276.505 507.138 276.735C506.588 277.643 506.858 277.316 506.162 277.939C505.794 276.368 505.498 275.884 504.088 275.032Q502.946 274.332 501.69 273.868Q500.434 273.404 499.111 273.194C498.939 274.041 499.342 274.311 499.76 275.035C497.394 274.101 495.765 271.58 493.496 270.954L492.281 271.56L491.508 271.233C491.831 270.572 492.167 269.925 492.519 269.279C491.277 269.65 490.138 270.065 488.949 270.582C486.288 269.605 483.665 269.384 482.337 266.779C481.46 267.399 481.856 267.002 481.207 268.024C479.811 267.948 479.351 267.935 478.246 266.955C477.821 266.578 477.403 265.826 477.102 265.371C474.752 265.035 473.048 264.672 470.85 263.849C470.579 263.748 470.289 263.711 470.009 263.642C470.028 264.622 470.254 264.677 470.811 265.439C469.612 265.089 469.064 264.545 468.128 263.765C467.237 263.997 466.808 264.886 466.085 264.774L466.28 263.267C464.201 262.763 462.2 262.445 460.072 262.24L459.705 262.734L460.541 264.23L459.153 264.2L458.734 263.563L459.104 262.303L458.493 261.964L457.522 262.939C456.142 262.639 455.444 262.149 454.32 261.346C452.515 261.66 452.44 262.078 451.223 263.357C450.818 262.481 450.995 262.966 450.727 261.891L450.094 262.085L449.895 263.337C448.306 263.102 445.755 262.4 444.219 262.595C441.006 263.001 436.319 267.413 433.004 266.187L432.564 265.208L433.774 264.581L433.642 264.071C432.45 263.996 432.277 263.785 431.233 264.46C431.226 265.446 431.274 266.404 431.353 267.386L430.523 267.691C429.667 267.165 428.368 265.98 427.394 266.248C423.843 267.226 419.682 269.094 417.088 271.743L416.276 271.722C416.222 270.819 416.157 269.923 416.065 269.023L415.272 268.991C414 270.792 415.241 271.096 412.991 272.306C413.343 272.959 413.59 273.231 414.112 273.733L413.492 274.065L411.782 272.589L410.632 272.847C410.349 273.578 410.102 274.31 409.868 275.058C406.116 277.422 401.034 274.66 397.65 277.564L397.426 279.469L396.729 279.567C395.678 278.695 395.595 278.429 394.254 278.402C392.82 279.146 392.219 280.037 391.733 281.53C391.589 281.972 391.48 282.425 391.363 282.875C390.395 283.527 390.03 283.884 388.8 283.721C388.408 283.669 387.763 283.448 387.371 283.322C383.946 285.515 380.909 288.955 377.358 290.776C376.978 290.267 376.603 289.768 376.194 289.282L375.507 289.72C375.349 290.98 375.637 291.97 375.951 293.173L375.336 293.911C374.57 293.813 373.877 293.692 373.12 293.516L372.816 294.002L373.244 295.217C371.677 296.431 370.064 297.495 368.42 298.598L371.635 297.848C371.341 298.741 370.529 299.353 369.716 299.814C367.705 300.956 365.117 300.673 363.026 301.44C360.905 302.218 352.458 311.687 350.218 313.85C350.056 314.792 349.95 315.713 349.874 316.665Q348.362 317.575 346.87 318.518L346.813 319.323L347.706 320.28C347.474 320.331 347.242 320.379 347.012 320.433C345.287 320.836 344.496 321.04 343.257 322.366C343.457 323.033 343.67 323.621 343.94 324.269C339.855 330.639 335.583 337.455 332.133 344.174C330.842 346.689 330.373 349.322 328.602 351.621C327.646 352.861 327.652 354.113 327.586 355.623C326.974 356.09 326.42 356.39 325.738 356.737C324.602 358.951 325.169 361.577 325.261 364.049C324.208 364.282 324.771 364.237 323.57 364.124L323.015 364.989C323.348 366.011 323.463 365.997 324.204 366.688C323.029 367.448 322.24 367.613 321.791 368.992L322.096 369.871L323.418 369.131L323.333 370.025C322.449 370.568 321.572 371.054 320.639 371.51C318.781 374.987 318.503 383.086 317.079 387.556L317.956 388.505L317.525 389.031L316.335 388.445L315.507 389.244L315.565 389.915L316.705 390.513C316.034 391.962 315.196 393.309 314.466 394.727L313.435 395.287C313.704 396.243 314.257 396.153 314.572 396.85C315.187 398.208 311.934 405.949 312.149 408.912C312.18 409.352 312.181 409.794 312.2 410.235L312.246 411.228C311.168 411.556 311.232 411.37 310.255 410.944L310.002 411.699L311.221 413.213C310.455 414.137 310.904 413.717 309.855 414.45L310.088 415.383L311.355 415.998C310.434 418.969 308.543 421.529 309.36 424.714L309.987 425.008L310.789 424.647C310.702 426.746 308.886 429.554 307.978 431.479C308.447 431.927 308.906 432.34 309.409 432.754C308.912 434.821 307.57 436.908 307.652 439.007C308.689 439.554 308.162 439.309 309.234 439.742L309.235 440.522L308.183 441.475C308.812 443.762 309.867 446.571 309.448 448.94L308.02 448.066L308.046 449.018L309.451 450.283C309.177 451.172 308.807 451.755 308.303 452.518C307.583 453.609 307.441 454.204 307.367 455.493L307.702 455.644L308.337 454.342L308.765 454.487C309.558 458.972 306.487 462.927 309.421 466.013C309.389 468.218 308.695 470.784 309.162 472.905L310.398 473.068C309.996 474.025 309.623 473.93 308.713 474.343C309.429 475.484 310.38 476.373 309.975 477.807C309.788 478.471 309.155 479.276 308.775 479.863C308.883 481.307 309.923 481.928 310.981 482.835Q311.703 483.448 312.433 484.051L312.472 484.854L310.922 484.984C310.682 487.576 313.497 489.911 313.509 492.707L313.02 492.79L312.203 491.54L311.551 491.546C311.421 492.747 311.481 492.562 312.027 493.517L313.726 494.476C313.621 496.217 313.181 497.837 312.759 499.524L313.338 500.115C314.951 501.777 315.774 502.718 316.284 505.015C316.629 506.566 317.071 508.108 317.451 509.651L316.93 509.933L315.549 509.276C316.134 510.809 317.305 511.663 318.499 512.716C318.341 513.529 317.72 515.235 317.791 515.973C318.057 518.727 324.79 529.214 325.113 532.886L323.75 533.327C325.23 536.627 327.808 538.639 328.328 542.395C328.896 546.489 329.255 549.506 331.546 552.995C332.195 553.983 333.951 555.824 333.577 556.916L332.534 557.288L333.235 558.807L333.772 558.884L334.375 557.629L334.982 559.009C334.554 559.812 334.875 559.443 333.885 559.983C334.537 561.794 336.231 562.882 337.626 564.116C341.596 567.63 342.328 577.498 347.263 580.088C347.815 580.378 347.589 580.195 347.976 580.702L347.801 581.703C347.645 582.621 347.594 583.449 347.632 584.383L348.252 583.228L348.756 583.926L348.19 583.275L348.659 583.343C348.75 583.658 348.83 583.976 348.932 584.287C349.4 585.709 350.185 587.154 350.796 588.526L350.502 588.761L349.371 587.966L349.095 588.653C349.947 589.433 350.729 589.592 351.552 590.253C352.706 591.179 354.307 594.963 355.273 596.462C358.864 602.033 362.713 607.566 366.642 612.904C378.976 629.659 396.159 644.415 413.433 655.933C422.861 662.219 433.589 668.062 444.465 671.268C446.016 671.725 453.47 672.414 453.614 672.506C453.922 672.704 454.016 673.117 454.217 673.423C474.233 670.981 484.141 666.218 499.345 652.984C503.769 649.134 508.292 645.4 511.924 640.758C531.913 615.205 548.774 586.932 558.1 555.705C558.959 552.828 560.532 546.851 564.334 546.669C566.562 546.563 568.402 548.513 569.758 550.034C569.886 550.178 570.005 550.329 570.129 550.477C569.981 555.038 568.726 559.392 568.492 563.86C568.31 564.123 568.124 564.382 567.948 564.649C565.574 568.237 564.53 573.922 562.919 578.009C560.525 584.086 557.749 590.032 554.929 595.921C548.046 610.292 534.754 631.98 524.625 644.229C511.672 659.893 490.386 678.583 470.232 683.332C450.185 688.055 429.311 678.974 412.646 668.51C407.3 665.153 402.052 661.624 397.233 657.537C390.861 652.133 384.555 645.039 377.18 641.112C376.382 642.909 379.309 652.655 380.075 654.823L380.306 655.59C380.534 656.328 380.787 657.011 381.087 657.72L379.648 658.477C380.755 659.642 382.488 660.199 382.944 661.727C382.005 661.758 381.572 661.552 380.713 661.216C381.112 662.429 381.704 663.058 382.529 664.002C382.006 665.321 381.076 665.018 381.159 666.344L383.041 665.972C383.577 667.43 381.991 667.44 383.156 668.838C383.418 668.711 383.674 668.572 383.941 668.457C384.086 668.394 384.24 668.356 384.389 668.305L384.35 669.181L382.901 670.482C383.105 671.948 385.716 674.92 385.229 675.75L384.541 675.719C384.198 676.935 385.211 678.048 385.816 679.134C386.78 680.865 388.134 682.506 388.321 684.523L387.282 685.772C388.202 689.651 390.46 695.531 389.939 699.434C389.667 701.477 388.216 703.427 388.48 705.492L390.217 706.348C390.342 710.136 388.117 711.631 390.118 715.549L390.034 715.798C390.174 716.097 390.329 716.389 390.454 716.695C390.592 717.03 390.768 717.37 390.779 717.733C390.572 717.897 390.359 718.053 390.158 718.225C387.28 720.684 386.359 728.243 384.728 731.931C382.875 736.118 380.4 741.121 377.542 744.677C375.783 746.866 373.339 748.733 371.236 750.585C362.267 758.482 353.324 764.682 342.952 770.652C341.641 770.426 340.503 770.263 339.161 770.369C338.209 771.452 338.762 771.728 338.198 772.722C337.641 773.704 333.621 775.035 332.464 775.523C319.815 780.865 306.034 785.825 292.234 786.678C285.506 787.094 266.837 785.624 261.923 787.336C261.723 787.013 261.273 786.624 260.963 786.419C260.739 786.271 260.491 786.161 260.254 786.032L260.072 785.502C257.901 784.378 255.646 784.237 253.257 783.939ZM525.778 107.408C524.321 108.383 523.101 109.469 522.893 111.337C522.532 114.579 526.449 117.654 527.499 120.608C531.303 131.314 522.352 145.46 515.212 152.799C498.273 170.211 477.805 180.066 455.634 189.15C447.846 192.341 439.942 194.751 432.001 197.492C427.527 199.036 423.133 200.891 418.606 202.27C385.384 212.391 344.792 221.762 319.911 247.591C317.195 250.409 312.935 253.993 312.831 258.119C313.484 259.287 313.832 259.778 315.164 260.172C317.259 260.791 318.865 260.478 320.89 259.847C342.144 230.133 400.097 217.057 433.598 206.023C451.814 200.023 470.803 193.182 487.777 184.207Q492.55 181.669 497.123 178.787Q501.697 175.906 506.046 172.696Q510.395 169.486 514.497 165.965Q518.598 162.444 522.43 158.631C530.865 150.358 535.335 141.833 537.096 130.183C537.437 127.931 538.151 125.362 537.836 123.115C537.125 118.056 534.311 111.686 530.141 108.68C528.731 107.664 527.48 107.508 525.778 107.408ZM682.561 137.876C682.428 137.979 682.293 138.08 682.161 138.185C680.749 139.308 679.661 140.295 679.614 142.249C679.582 143.591 680.155 144.505 681.084 145.415C682.677 146.974 686.106 147.928 688.186 148.974C694.978 152.387 702.61 159.382 703.288 167.399C703.656 171.754 701.687 175.773 698.8 178.926C693.97 184.201 687.09 187.156 680.648 189.941C656.273 200.479 630.56 203.94 604.443 207.213C592.59 208.699 580.621 210.34 568.723 211.313C555.148 212.424 541.743 212.879 528.221 214.969C518.413 216.484 508.918 219.204 499.576 222.475C496.345 223.607 488.745 225.717 488.427 229.858C488.338 231.022 488.936 232.162 489.773 232.908C490.805 233.83 492.11 234.112 493.411 234.473Q496.347 232.877 499.391 231.499Q502.436 230.122 505.573 228.971Q508.71 227.82 511.923 226.901Q515.136 225.983 518.408 225.302C531.43 222.638 544.69 221.9 557.882 220.604C589.888 217.46 625.176 215.132 656.333 207.547C673.473 203.374 705.392 192.699 711.276 174.065C713.273 167.74 711.186 161.171 707.985 155.653C703.588 148.07 693.295 140.345 684.777 138.324C684.04 138.15 683.307 138.01 682.561 137.876ZM758.804 158.32C757.708 159.465 756.532 160.648 756.381 162.322C756.266 163.605 756.755 164.64 757.632 165.531C759.853 167.787 764.336 168.915 767.163 170.388C777.641 175.847 790.416 186.523 790.957 199.244C791.259 206.36 787.852 212.394 783.064 217.367C772.2 228.648 764.229 230.242 750.117 234.83C737.29 239.002 721.604 239.039 708.153 239.472C704.644 239.585 700.161 238.988 696.835 239.583C695.543 239.814 694.277 240.699 693.702 241.889C693.14 243.053 693.267 244.203 693.843 245.333C694.32 246.268 694.861 246.661 695.7 247.226C697.031 247.445 698.268 247.577 699.616 247.62C705.13 248.491 711.126 247.746 716.711 247.487C738.876 246.46 764.062 243.68 782.491 230.125C791.091 223.8 798.015 214.779 799.566 204.028C800.902 194.772 797.237 186.735 791.732 179.553C786.186 172.319 769.325 159.491 760.305 158.374C759.725 158.302 759.422 158.323 758.804 158.32ZM380.943 136.13C374.607 138.542 368.028 140.28 361.699 142.702C324.83 156.81 296.044 174.378 268.175 202.382C262.668 207.915 253.616 216.098 250.722 223.235C250.116 224.73 250.281 225.453 250.934 226.884C252.595 228.188 253.821 228.58 255.958 228.781C256.519 228.619 257.726 228.444 258.171 228.143C260.26 226.728 262.535 221.996 264.177 219.79C266.754 216.33 269.842 213.166 272.825 210.056C280.98 201.555 289.589 194.121 298.639 186.598C316.778 171.519 341.61 158.96 363.597 150.608C370.976 147.805 378.702 145.885 385.999 142.999C386.056 140.974 386.293 139.069 385.341 137.209C383.854 136.114 382.804 135.865 380.943 136.13ZM270.352 292.926C269.368 293.318 268.18 293.746 267.433 294.522C261.516 300.665 250.557 325.86 246.655 334.947C244.319 340.389 235.803 361.914 237.505 366.706C238.679 368.251 240.173 368.519 241.971 368.97C246.029 366.87 246.217 364.569 247.526 360.406C248.975 355.798 250.092 351.069 251.684 346.507C255.664 335.097 262.885 319.195 269.189 308.849C271.061 305.777 276.15 299.685 274.677 295.861C274.036 294.197 272.437 293.461 270.845 293.025C270.683 292.98 270.516 292.959 270.352 292.926ZM222.726 263.807C217.145 271.13 195.458 302.684 197.107 311.352C197.307 312.402 198.123 313.508 199.079 313.998C200.165 314.557 201.583 314.369 202.764 314.308C203.553 313.706 204.491 313.043 205.01 312.183C206.31 310.03 207.124 307.192 208.148 304.874C211.022 298.369 213.911 291.41 217.72 285.4C220.742 280.63 227.824 274.45 228.546 268.859C228.714 267.561 228.412 266.713 227.862 265.558C226.218 264 224.941 263.808 222.726 263.807Z"/>
	</g>
</svg>
