<?xml version="1.0" encoding="utf-8" ?>
<svg xmlns="http://www.w3.org/2000/svg" xmlns:xlink="http://www.w3.org/1999/xlink" width="4880" height="1748">
	<clipPath id="cl_3">
		<rect x="-0.00024414062" y="-0.00061035156" width="4880" height="1748.0004"/>
	</clipPath>
	<g clip-path="url(#cl_3)">
		<path fill="#2B2E2F" transform="matrix(4.13395 0 0 4.1338 -1303.6 -1074.93)" d="M878.474 310.417Q900.021 310.366 921.563 310.801Q943.106 311.236 964.633 312.159Q986.161 313.081 1007.66 314.489Q1029.16 315.898 1050.63 317.792Q1072.09 319.686 1093.51 322.064Q1114.92 324.443 1136.28 327.305Q1157.63 330.166 1178.92 333.51Q1200.2 336.854 1221.41 340.678C1236.49 343.285 1251.75 344.896 1266.78 347.754Q1300.55 354.473 1333.85 363.269Q1367.14 372.065 1399.83 382.904C1422.02 390.492 1442.05 407.521 1452.42 428.76C1457.95 440.109 1460.5 455.616 1457.49 468.076C1454.52 480.338 1447.17 490.781 1440.5 501.272C1426.89 522.686 1409.84 544.965 1401.69 569.174C1397.6 581.311 1396.33 593.369 1404.08 604.291C1405.99 606.987 1408.6 608.84 1410.09 611.845C1399.66 623.868 1379.54 630.681 1363.98 631.688C1345.43 632.888 1324.82 624.588 1311.73 611.615C1305.62 605.552 1300.32 598.139 1293.87 592.547C1293.72 592.418 1293.57 592.293 1293.42 592.166C1276.48 582.059 1145.54 568.49 1118.72 566.47C1108.3 565.686 1097.88 567.945 1087.48 567.313L999.438 562.636C981.528 561.775 964.243 559.954 946.213 560.199C929.751 562.878 910.913 561.54 894.232 561.246Q866.635 560.855 839.039 561.332C831.581 561.492 824.135 562.543 816.679 562.883L728.485 567.151C718.426 567.715 708.321 566.738 698.269 567.363C677.509 568.653 656.512 572.044 635.834 574.358C621.068 576.011 606.198 576.675 591.449 578.436C574.96 580.405 557.935 583.87 541.718 587.389C507.83 594.741 514.68 620.642 477.96 629.489C458.967 634.065 446.113 631.474 428.796 623.351C424.849 621.5 420.133 619.854 416.561 617.439C414.327 615.93 414.025 614.717 413.444 612.262C413.925 608.87 417.239 606.718 419.656 604.571C422.316 595.833 423.112 587.673 421.443 578.626C416.905 554.028 392.968 521.817 379.516 500.896C372.78 490.418 365.131 479.178 363.008 466.68C359.985 448.885 365.162 430.767 375.466 416.223Q377.229 413.733 379.151 411.365Q381.074 408.996 383.147 406.758Q385.22 404.52 387.435 402.423Q389.65 400.326 391.998 398.378Q394.345 396.43 396.815 394.64Q399.285 392.85 401.867 391.226Q404.449 389.601 407.132 388.149Q409.814 386.697 412.586 385.424C426.207 379.009 441.877 375.746 456.357 371.655C512.08 355.912 568.65 345.544 625.683 335.893C665.885 329.09 706.293 322.099 746.941 318.545C758.796 317.508 770.748 317.888 782.622 316.845C795.618 315.704 808.608 313.188 821.636 312.655C840.877 311.868 859.252 313.682 878.474 310.417ZM828.839 323.095Q806.178 324.444 783.557 326.357Q760.937 328.269 738.371 330.743Q715.805 333.217 693.307 336.25Q670.809 339.284 648.394 342.876Q625.979 346.469 603.659 350.617Q581.34 354.765 559.131 359.466Q536.922 364.168 514.836 369.42Q492.75 374.672 470.802 380.471C452.56 385.477 433.101 388.612 415.915 396.708Q414.096 397.57 412.322 398.521Q410.548 399.472 408.823 400.511Q407.099 401.549 405.429 402.673Q403.758 403.796 402.146 405.002Q400.534 406.207 398.984 407.492Q397.434 408.776 395.95 410.136Q394.466 411.496 393.051 412.929Q391.637 414.362 390.296 415.863C380.102 427.466 372.365 442.205 373.315 458.047C373.763 465.522 376.38 472.244 382.08 477.25C390.326 484.493 402.724 487.782 413.527 486.931C417.061 486.652 422.482 485.805 425.014 483.046C426.519 481.406 427.029 479.446 426.547 477.278C424.992 470.281 413.645 466.159 408.064 462.698C423.695 447.724 431.753 425.87 456.966 426.187C467.352 426.317 478.867 430.052 486.157 437.7C489.226 440.919 491.235 444.605 492.312 448.916C494.704 458.495 493.823 469.017 493.769 478.814C493.695 492.148 493.915 505.815 496.556 518.931C501.115 541.577 510.81 561.99 523.781 580.891C539.832 577.451 555.832 573.101 572.024 570.442C586.265 568.103 600.62 567.51 614.942 565.967C641.372 563.121 667.688 559.613 694.241 557.665C706.288 556.781 718.38 557.489 730.408 556.627C744.453 555.621 758.434 553.915 772.499 553.051C801.319 551.282 830.054 551.021 858.889 550.51C867.573 550.355 876.221 549.309 884.916 549.195Q938.719 548.473 992.444 551.445C1000.98 553.287 1012.26 550.808 1021.24 551.06C1028.39 551.261 1035.56 552.36 1042.69 552.917C1049.55 553.453 1056.45 553.226 1063.33 553.667C1071.84 554.213 1080.34 555.522 1088.86 555.921C1096.99 556.303 1105.13 554.284 1113.22 554.57C1124.25 554.961 1135.44 557.541 1146.49 558.469C1157.25 559.372 1168.08 559.589 1178.83 560.608Q1207.86 563.116 1236.62 567.839Q1265.38 572.563 1293.69 579.473C1308.22 567.917 1320.08 516.995 1322.19 498.626C1323.51 487.182 1327.25 461.982 1322.67 452.24C1326.69 448.887 1329.48 444.516 1333.03 440.72C1342.45 430.647 1355.8 425.95 1369.47 427.322C1381.68 428.547 1392.42 435.239 1400.07 444.685C1403.78 449.262 1409.5 456.958 1410.72 462.736C1410.07 464.867 1408.09 465.585 1406.16 466.618C1401.19 469.276 1392.42 472.513 1390.76 478.393C1390.35 479.844 1390.85 480.886 1391.21 482.313C1395.57 486.335 1407.58 485.952 1413.42 485.721C1423.12 485.337 1432.08 482.994 1438.91 475.643C1444.29 469.853 1445.52 461.816 1445.18 454.179C1444.49 438.729 1436.39 422.766 1424.9 412.525C1401.65 391.819 1369.9 386.982 1340.98 378.873C1285.81 363.402 1230.1 353.236 1173.57 344.171Q1128.94 336.579 1083.96 331.438Q1038.98 326.296 993.793 323.62C982.726 323.072 971.538 323.636 960.45 323.476Q920.908 322.521 881.356 322.966Q863.229 323.367 845.097 323.445C839.782 323.443 834.099 322.774 828.839 323.095ZM1343.25 480.439C1345.05 485.412 1343.49 493.436 1342.87 498.646C1341.11 513.316 1337.71 528.393 1333.13 542.42C1325.57 565.558 1307.44 592.723 1338.9 607.863C1351.13 613.75 1369.83 617.188 1382.77 612.563C1384.11 612.086 1385.37 611.564 1386.62 610.885C1385.98 607.385 1385.67 603.21 1383.27 600.445C1383.33 600.27 1383.4 600.098 1383.46 599.921C1384.81 595.916 1384.3 591.355 1384.67 587.168C1385.35 579.463 1387.17 571.254 1390.1 564.09C1397.34 546.427 1407.37 529.256 1417.35 513.021C1419.07 510.211 1421.95 506.735 1422.12 503.427C1402.4 507.542 1381.13 501.211 1364.18 490.838C1359.14 487.751 1352.77 482.433 1347.32 480.519C1346.01 480.055 1344.6 480.241 1343.25 480.439ZM472.542 480.723C467.033 483.724 462.175 487.576 456.724 490.615C438.401 500.831 418.061 505.619 397.18 503.242C412.175 526.123 441.63 570.137 435.512 598.806C435.089 600.788 434.511 602.764 433.892 604.693C432.597 607.354 431.668 608.209 432.339 611.154C435.596 614.614 443.976 614.911 448.422 615.031C461.976 615.396 478.565 611.987 488.596 602.459C493.745 597.569 496.792 591.988 496.824 584.811C496.891 569.809 483.522 545.265 479.696 529.151C475.918 513.24 475.801 497.406 473.975 481.309L472.542 480.723ZM1365.09 447.555C1361.06 448.268 1356.63 449.471 1354.07 452.931C1353.35 453.91 1353.08 455.776 1353.25 456.951C1354.19 463.144 1362.5 469.679 1367.4 472.775C1370.67 474.833 1374.11 476.588 1377.85 477.567C1378.19 476.92 1378.38 476.758 1378.36 476.006L1378.66 475.565C1382.83 469.352 1385.27 464.263 1391.24 459.173C1391.7 458.781 1391.54 458.945 1391.86 458.377C1388.79 453.122 1382.52 450.226 1376.85 448.742C1373.04 447.746 1369.02 447.457 1365.09 447.555ZM448.699 447.224C439.654 449.353 435.108 453.303 429.132 460.239C432.059 462.311 434.832 464.364 437.437 466.833C438.444 470.281 439.013 475.911 441.59 478.334C443.024 478.115 444.105 477.859 445.436 477.289C453.654 473.143 462.18 467.071 465.1 457.835C465.776 455.696 466.028 453.447 465.024 451.36C464.104 449.446 462.132 448.01 460.129 447.396C456.878 446.4 452.113 447.092 448.699 447.224Z"/>
		<path fill="#2B2E2F" transform="matrix(4.13395 0 0 4.1338 -1303.6 -1074.93)" d="M628.462 382.59C630.466 382.355 632.749 382.78 634.427 383.934C636.823 385.584 637.978 388.616 638.515 391.376C639.277 395.283 638.893 399.141 636.63 402.497C633.152 407.654 619.138 397.068 612.98 398.648C610.609 399.257 609.028 400.957 607.828 403.005C602.398 412.272 604.338 475.055 606.903 487.847C608.759 497.107 613.773 501.85 614.687 505.957C615.136 507.973 614.821 510.557 613.593 512.255C611.732 514.83 607.551 515.883 604.6 516.506C598.076 517.883 584.592 519.56 578.947 515.309C577.313 514.078 576.587 512.872 576.297 510.885C575.806 507.515 578.774 504.304 580.62 501.75Q581.875 498.934 583.005 496.065C584.799 491.512 585.512 487.048 585.898 482.185C586.676 472.358 586.343 413.001 583.648 407.598C582.849 405.997 581.415 404.584 579.686 404.038C572.582 401.793 561.292 411.354 555.31 414.806C552.986 416.146 551.494 416.454 548.937 415.811C547.916 414.586 547.261 413.489 547.056 411.876C546.341 406.219 548.392 399.829 551.929 395.422C553.708 393.205 556.038 391.412 558.773 390.57C569.52 387.257 582.296 387.969 593.517 386.872C605.177 385.731 616.819 383.948 628.462 382.59Z"/>
		<path fill="#2B2E2F" transform="matrix(4.13395 0 0 4.1338 -1303.6 -1074.93)" d="M794.231 376.288C802.013 375.004 810.864 376.569 817.698 380.514C820.361 382.051 823.683 385.416 824.281 388.546C824.758 391.037 824.048 392.112 822.859 394.154C816.771 398.053 804.722 390.827 796.224 391.758C791.064 392.324 785.937 394.38 782.652 398.539C775.815 407.192 777.921 420.643 779.087 430.782C788.336 431.423 806.461 428.143 814.027 433.239C815.545 434.262 816.626 435.84 816.927 437.657C817.327 440.072 816.687 442.944 815.086 444.823C809.346 451.565 791.385 447.325 783.316 448.16C781.912 448.305 779.803 448.775 778.922 449.912C776.04 453.631 777.863 480.167 778.911 485.91C779.528 489.293 780.747 491.229 783.633 493.115C790.025 497.291 799.903 497.061 807.039 495.469C812.083 493.396 815.535 489.157 820.313 486.919C822.216 486.028 823.848 486.562 825.695 487.303C827.204 488.646 828.155 489.801 828.542 491.838C829.32 495.944 827.741 500.438 825.52 503.848C822.102 509.096 816.731 512.315 810.663 513.595C793.138 517.292 768.376 511.12 753.525 501.44C754.965 494.791 757.503 488.983 758.448 482.076C760.94 463.859 759.641 420.267 755.877 402.297C755.185 398.993 753.78 394.639 755.916 391.658C761.456 383.925 784.722 377.864 794.231 376.288Z"/>
		<path fill="#2B2E2F" transform="matrix(4.13395 0 0 4.1338 -1303.6 -1074.93)" d="M1042.89 376.444C1050.41 376.397 1058.15 376.959 1065.35 379.291C1069.16 380.528 1072.63 382.009 1074.56 385.75C1074.89 387.521 1074.8 388.73 1074.13 390.422C1072.86 393.618 1070.22 398.005 1066.88 399.218C1061.8 401.06 1054.66 393.783 1049.88 391.95Q1049.18 391.678 1048.45 391.477Q1047.73 391.276 1046.99 391.149Q1046.25 391.021 1045.5 390.969Q1044.75 390.916 1043.99 390.939Q1043.24 390.962 1042.5 391.059Q1041.75 391.157 1041.02 391.329Q1040.29 391.501 1039.57 391.745Q1038.86 391.989 1038.18 392.303C1019.46 400.798 1028.92 420.921 1024.43 432.296C1032.2 432.244 1061.52 428.823 1066.42 433.745C1067.83 435.164 1068.43 436.857 1068.21 438.838C1065.9 459.232 1037.63 441.025 1026.78 449.249C1022.47 456.21 1025.2 476.534 1026.83 484.555C1027.39 487.299 1029 489.87 1029.34 492.586C1029.38 492.88 1029.4 493.176 1029.44 493.471C1033.69 494.981 1037.71 496.367 1042.19 497.074C1046.85 497.04 1052.63 497.149 1056.77 494.738C1060.42 492.438 1061.67 487.758 1065.98 486.868C1067.5 487.262 1068.78 487.788 1070.04 488.746C1071.86 490.132 1073.3 491.67 1073.49 494.082C1073.81 498.192 1071.23 503.922 1068.69 507.077C1064.81 511.888 1058.98 514.028 1052.99 514.648C1034.69 516.541 1013.05 510.05 998.968 498.412Q1000.45 496.407 1001.82 494.331C1004.34 490.536 1005.24 486.905 1005.81 482.412C1007.5 469.042 1006.18 454.537 1006.28 440.977C1006.35 430.083 1007.7 417.523 1006.4 406.802C1005.94 402.994 1003.29 399.477 1002.49 395.561C1002.79 393.798 1003.46 392.562 1004.64 391.231C1013.26 381.539 1030.57 377.208 1042.89 376.444Z"/>
		<path fill="#2B2E2F" transform="matrix(4.13395 0 0 4.1338 -1303.6 -1074.93)" d="M1127.61 384.442C1131.23 384.374 1136.44 383.839 1139.19 386.687C1139.62 387.134 1139.88 387.557 1140.21 388.086C1144.62 395.121 1160.16 464.893 1164.6 479.463C1167.15 487.827 1175.31 498.76 1175.06 507.35C1175 509.312 1174.13 510.897 1172.63 512.153C1168.34 515.764 1161.03 516.287 1155.69 515.959C1151.03 515.674 1146.71 514.854 1143.53 511.178C1141.64 506.522 1143.21 503.323 1144.76 498.951C1149.15 486.551 1144.65 470.166 1138.99 458.618L1138.56 457.754C1134.43 456.649 1129.97 456.901 1125.73 456.866C1120.96 456.742 1116.14 457.423 1111.4 457.887C1111.12 466.806 1104.34 475.692 1103.69 485.12C1103.15 492.795 1108.4 502.378 1107.26 507.882C1106.88 509.749 1105.44 511.13 1103.92 512.156C1099.1 515.4 1090.84 515.623 1085.39 514.278C1082.34 513.525 1079.97 512.295 1078.29 509.521C1076.6 502.074 1084.52 490.887 1087.65 484.216C1093.51 471.756 1097.38 457.142 1102.03 444.104C1106.53 431.5 1112.13 418.902 1116.13 406.182C1117.8 400.86 1116.08 393.704 1118.76 388.815C1120.31 385.988 1124.72 385.053 1127.61 384.442ZM1126.71 418.212C1123.61 423.793 1116.38 434.86 1117.95 441.192C1119.53 442.886 1120.84 443.122 1123.06 443.601C1125.97 443.664 1129.23 444.111 1131.8 442.512C1133.88 440.37 1134.36 438.01 1134.38 435.118C1134.41 430.413 1131.22 423.234 1128.94 419.14L1126.71 418.212Z"/>
		<path fill="#2B2E2F" transform="matrix(4.13395 0 0 4.1338 -1303.6 -1074.93)" d="M724.099 376.267C727.941 375.961 734.687 376.262 737.725 378.904C741.646 382.313 740.167 387.199 738.837 391.468C737.401 396.074 735.582 400.838 735.079 405.652C733.662 419.186 734.243 475.958 736.595 489.289C737.72 495.668 743.926 499.984 744.389 505.59C743.899 508.222 742.828 510.358 740.745 512.082C736.175 515.867 725.369 514.701 719.741 514.249C715.922 513.942 711.411 513.467 708.828 510.313C705.294 506.001 715.112 490.68 715.501 484.759C715.965 477.714 716.432 450.043 712.658 445.728C704.782 442.42 689.865 443.884 681.526 445.691C678.885 446.263 676.165 447.25 674.746 449.726C671.879 454.727 673.615 483.612 675.617 489.601C677.441 495.06 681.622 499.514 682.901 505.119C682.948 505.325 682.983 505.533 683.024 505.74C681.16 509.289 679.011 511.764 676.16 514.565C670.044 515.274 662.69 515.793 656.634 514.727C653.915 514.249 650.377 513.224 648.821 510.773C645.77 505.97 653.33 490.522 653.74 483.968C654.45 472.611 653.416 460.39 653.275 448.957C653.127 436.941 654.308 415.995 652.152 405.058C651.552 402.01 649.494 398.714 648.162 395.905C647.179 393.833 645.657 391.016 646.329 388.668C647.223 385.546 649.139 383.51 651.933 381.989C657.656 378.874 666.352 378.254 672.555 380.108C677.612 381.618 679.152 385.35 681.556 389.662C680.183 391.792 678.81 393.953 677.673 396.22C674.309 402.929 670.863 414.507 673.51 421.769C674.446 424.335 676.132 426.227 678.652 427.315C687.141 430.978 704.936 427.075 713.305 423.897C714.873 415.035 714.712 406.746 713.182 397.914C711.322 395.683 707.904 392.288 707.395 389.383C706.993 387.088 707.314 384.575 708.683 382.648C711.945 378.054 718.984 376.988 724.099 376.267Z"/>
		<path fill="#2B2E2F" transform="matrix(4.13395 0 0 4.1338 -1303.6 -1074.93)" d="M961.909 396.613C959.702 393.898 956.666 390.733 956.013 387.189Q955.933 386.755 955.896 386.315Q955.859 385.876 955.866 385.435Q955.872 384.994 955.923 384.555Q955.973 384.117 956.067 383.686Q956.16 383.255 956.296 382.835Q956.432 382.415 956.608 382.011Q956.785 381.606 957 381.221Q957.216 380.837 957.469 380.475C959.585 377.454 963.449 375.962 966.956 375.31C972.768 374.229 980.394 374.518 985.325 378.187C993.997 384.641 983.921 393.059 982.999 403.22C981.842 415.967 982.48 429.289 982.479 442.099C982.478 458.167 981.481 475.328 983.963 491.217C986.101 493.625 988.758 496.659 989.853 499.708C990.735 502.162 990.837 504.933 989.588 507.281C988.195 509.902 985.525 511.366 982.786 512.204C974.762 514.658 963.722 513.402 956.389 509.44C955.463 507.845 954.419 505.844 954.303 503.981C953.973 498.673 959.041 493.581 962.114 489.67C962.164 488.918 962.191 488.171 962.209 487.418C962.396 479.876 964.76 451.359 959.54 446.569C953.433 440.965 930.335 444.247 921.765 444.632C918.905 459.571 919.278 475.843 920.706 490.917C923.616 493.865 926.909 496.857 927.696 501.114Q927.779 501.55 927.818 501.992Q927.856 502.434 927.85 502.878Q927.844 503.322 927.793 503.763Q927.741 504.204 927.646 504.637Q927.55 505.071 927.412 505.492Q927.273 505.914 927.092 506.319Q926.911 506.724 926.69 507.109Q926.47 507.494 926.211 507.855C923.802 511.183 919.559 512.536 915.682 513.151C909.748 514.091 901.164 513.952 896.195 510.044Q895.839 509.765 895.514 509.448Q895.19 509.132 894.902 508.783Q894.615 508.433 894.366 508.054Q894.118 507.676 893.912 507.272Q893.706 506.869 893.545 506.446Q893.384 506.022 893.27 505.584Q893.156 505.146 893.09 504.698Q893.024 504.25 893.007 503.797C892.811 498.785 896.91 494.813 899.925 491.25C901.377 470.321 901.735 415.216 898.036 395.647C896.301 393.414 893.666 390.832 892.955 388.056C892.428 386 892.757 383.478 893.992 381.73C897.461 376.82 905.938 376.081 911.354 375.425C916.323 375.403 922.606 375.824 926.512 379.244C929.575 386.121 922.316 395.82 921.247 403.313C920.135 411.115 920.597 419.116 920.826 426.966C934.579 426.325 948.326 426.367 962.056 425.703C962.595 416.102 962.639 406.201 961.909 396.613Z"/>
		<path fill="#2B2E2F" transform="matrix(4.13395 0 0 4.1338 -1303.6 -1074.93)" d="M1217.88 381.775C1228.18 380.64 1241.31 380.308 1251.04 383.983Q1251.75 384.242 1252.44 384.537Q1253.13 384.832 1253.81 385.161Q1254.49 385.49 1255.15 385.853Q1255.81 386.216 1256.45 386.612Q1257.09 387.008 1257.71 387.436Q1258.33 387.863 1258.93 388.321Q1259.53 388.78 1260.1 389.268Q1260.68 389.756 1261.23 390.272Q1261.78 390.788 1262.3 391.331Q1262.82 391.874 1263.31 392.443Q1263.81 393.012 1264.27 393.605Q1264.74 394.198 1265.17 394.814Q1265.61 395.429 1266.01 396.066Q1266.41 396.703 1266.78 397.359Q1267.15 398.016 1267.49 398.69Q1267.83 399.364 1268.13 400.054C1271.74 408.291 1271.19 417.385 1267.83 425.607C1262.44 438.78 1251.05 448.92 1238.13 454.391C1239.94 456.617 1240.62 460.553 1241.94 463.229C1248.16 475.819 1256.67 492.914 1269.36 499.984L1269.92 500.295C1275.66 503.514 1281.41 500.432 1286.69 502.962C1287.84 504.931 1288.96 506.823 1289.07 509.168C1289.16 510.922 1288.51 512.57 1287.3 513.84C1284.02 517.29 1277.87 518.322 1273.35 518.552C1248.22 519.83 1247.07 503.379 1233.3 491.085C1233.15 490.955 1233 490.831 1232.86 490.705C1233.16 486.967 1220.95 463.517 1217.78 460.206C1216.54 458.907 1215.19 458.259 1213.41 458.291C1211.62 458.322 1209.2 459.413 1208 460.763C1204.38 464.86 1204.8 487.813 1206.63 493.099C1208.75 499.26 1215.86 504.852 1215.82 511.543C1214.66 513.624 1214.04 514.299 1211.67 515.118C1205.02 517.411 1192.18 517.249 1185.92 514.081C1183.73 512.969 1180.7 510.627 1180.8 507.91C1180.99 502.466 1186.27 496.04 1187.02 490.125C1188.38 479.395 1188.46 415.168 1185.44 406.663C1185.37 406.446 1185.28 406.233 1185.2 406.019C1184.98 403.105 1181.5 400.191 1180.34 397.23C1180.35 395.248 1180.54 393.676 1181.82 392.082C1188.07 384.336 1208.26 383.253 1217.88 381.775ZM1220.33 396.888C1215.32 398.579 1210.48 399.775 1207.98 404.969C1203.64 414.013 1208.27 426.165 1205.82 435.971C1207.74 437.802 1209.92 439.95 1210.24 442.71C1215.62 444.773 1223.41 448.412 1229.17 446.066C1229.49 445.936 1229.81 445.705 1230.09 445.521C1235.92 444.048 1239.56 440.352 1242.61 435.231C1246.57 428.581 1247.66 419.419 1245.69 411.968C1244.24 406.511 1240.98 401.723 1236 398.935C1231.18 396.242 1225.66 396.219 1220.33 396.888Z"/>
	</g>
</svg>
