<?xml version="1.0" encoding="utf-8" ?>
<svg xmlns="http://www.w3.org/2000/svg" xmlns:xlink="http://www.w3.org/1999/xlink" width="17010" height="8505">
	<path fill="#050505" transform="matrix(8.30566 0 0 8.30566 0 0.00195312)" d="M1409.91 412.499C1415.06 411.927 1419.96 411.162 1424.79 413.549C1431.87 417.04 1437.3 424.325 1439.83 431.668C1441.45 436.381 1441.83 441.797 1439.43 446.326C1437.24 450.474 1434.5 453.563 1429.98 454.989C1421.65 454.906 1418.37 445.655 1412.21 441.433C1410.35 440.154 1408.27 439.719 1406.09 440.276C1401.73 441.388 1395.38 450.672 1393.25 454.531C1388.89 462.429 1392.03 486.15 1395.29 494.116C1397.44 499.353 1401.81 504.858 1403.07 510.236C1403.63 512.652 1403.35 514.258 1401.85 516.285C1399.14 519.964 1393.44 521.439 1389.2 522.007C1388.72 522.305 1388.58 522.409 1388.02 522.677C1380.54 526.238 1363.57 523.969 1355.97 521.284C1352.61 520.095 1349.5 518.505 1347.96 515.093C1345.08 508.701 1348.79 507.07 1350.72 501.763C1350.82 501.483 1350.91 501.2 1351 500.919C1354.19 488.598 1353.92 453.21 1351.26 440.863C1350.75 438.477 1349.37 436.628 1348.52 434.42C1347.64 432.107 1349.07 428.406 1350.17 426.302C1353.09 420.707 1358.96 417.235 1364.84 415.485C1375.69 412.255 1385.11 415.013 1394.72 420.175C1399.77 418.711 1405.17 414.905 1409.91 412.499Z"/>
	<path fill="#050505" transform="matrix(8.30566 0 0 8.30566 0 0.00195312)" d="M657.753 392.347C658.696 392.188 659.636 392.034 660.586 391.925C665.296 391.39 667.377 392.996 670.921 395.772L677.179 411.693C684.106 414.274 689.622 412.727 696.512 413.872C698.821 414.256 701.773 416.353 703.019 418.402C704.283 420.481 704.034 421.36 703.45 423.527C697.424 430.728 687.586 431.955 678.837 432.911C676.551 435.286 674.419 437.846 672.236 440.32C671.49 454.471 668.567 473.923 673.224 487.581C675.126 493.159 678.18 494.358 683.099 496.864C690.21 500.487 691.995 503.556 694.409 510.954C690.795 514.733 687.215 517.622 682.426 519.759C681.902 519.807 681.417 519.879 680.908 520.015C672.714 522.194 662.65 523.001 654.246 521.379C631.258 516.941 631.43 497.922 631.841 479.061C632.047 469.558 632.394 460.007 632.23 450.503C632.165 446.742 632.385 440.973 630.98 437.469C628.588 431.5 619.795 430.144 616.155 424.659C615.239 421.757 615.14 419.32 616.662 416.58C617.674 414.757 642.533 398.081 646.337 396.107C649.829 394.294 653.981 393.427 657.753 392.347Z"/>
	<path fill="#050505" transform="matrix(8.30566 0 0 8.30566 0 0.00195312)" d="M881.054 407.449C895.593 406.465 909.763 409.999 921.105 419.33C927.387 424.498 931.672 431.082 932.322 439.319C936.153 487.896 870.577 472.471 862.439 482.043L862.644 484.413C864.584 487.291 866.773 489.52 869.593 491.562C878.6 498.084 893.267 497.089 903.008 492.833C908.203 490.563 914.623 486.346 920.224 485.609C922.543 485.305 924.111 485.645 925.958 487.13C928.221 488.949 930.705 492.201 931.127 495.029L929.603 496.466C927.878 503.311 923.092 508.398 917.4 512.415C902.726 522.771 883.033 525.341 865.638 522.297C841.899 518.141 836.107 503.444 823.748 485.886C823.505 464.187 821.427 444.722 836.438 426.815C847.784 413.28 864.197 408.841 881.054 407.449ZM876.774 430.171C868.852 432.677 863.658 435.895 859.691 443.572C858.147 446.559 856.511 451.184 857.85 454.499C858.763 456.761 860.229 457.863 862.481 458.62C865.33 459.577 872.512 458.477 875.225 457.444C883.711 454.904 889.302 452.284 895.866 446.263L895.942 434.033C888.954 431.045 884.535 429.375 876.774 430.171Z"/>
	<path fill="#050505" transform="matrix(8.30566 0 0 8.30566 0 0.00195312)" d="M733.19 372.337C735.358 372.124 737.805 372.216 739.962 372.486C763.335 375.412 746.846 404.859 755.124 415.005C760.789 416.511 771.303 412.188 777.847 411.92C786.272 411.576 794.773 412.496 801.125 418.497C805.737 422.853 809.091 428.074 810.733 434.223C814.376 447.858 809.416 462.367 811.78 476.051C813.877 488.188 823.851 500.597 823.946 512.553C823.956 513.89 822.763 515.305 821.837 516.197C811.433 526.224 790.395 524.056 776.9 523.94C774.326 522.402 770.998 520.802 768.81 518.789C765.593 515.83 769.078 510.807 770.523 507.547C779.81 486.588 781.56 471.294 779.646 448.324C776.682 444.862 775.193 439.976 770.908 437.743C767.932 436.192 763.964 436.071 760.793 437.06C757.421 438.111 754.935 440.769 753.401 443.869C748.316 454.14 749.467 488.869 753.172 499.798C754.803 504.606 758.755 508.571 760.38 513.409C761.107 515.574 761.178 517.492 759.997 519.579C758.555 522.126 755.927 523.553 753.243 524.437C738.649 529.246 717.488 525.916 704.099 519.232C702.735 509.786 704.05 506.873 707.963 498.15C717.282 477.375 718.644 429.51 712.303 407.602C710.72 402.132 705.713 398.633 703.857 393.327C702.871 390.505 703.461 386.083 705.078 383.569C709.221 377.126 726.057 373.685 733.19 372.337Z"/>
	<path fill="#050505" transform="matrix(8.30566 0 0 8.30566 0 0.00195312)" d="M1031.73 372.403C1037.66 371.776 1043.8 370.901 1049.22 373.973C1052.29 375.71 1054.11 378.659 1054.92 382.017C1056.06 386.774 1052.1 415.396 1049.76 419.088C1049.94 419.077 1050.13 419.068 1050.32 419.053C1066.44 417.784 1081.36 405.945 1097.63 413.919C1105.72 417.882 1110.61 424.716 1113.43 433.133C1118.56 448.42 1115.15 463.927 1117.01 479.487C1117.66 484.894 1120.18 490.751 1121.88 495.949C1123.49 500.914 1128.09 511.029 1125.5 515.731C1123.51 519.33 1119.48 521.185 1115.71 522.323C1104.53 525.707 1084.4 525.929 1073.93 520.459C1073.06 518.354 1072.73 517.443 1073.07 515.125C1074.57 504.879 1081.6 492.402 1083.51 479.705C1084.17 475.326 1084.65 467.759 1081.8 464.109C1081.67 463.95 1081.53 463.805 1081.4 463.653C1081.3 459.841 1080.49 454.027 1078.61 450.71C1075.67 447.218 1070.91 444.189 1066.29 443.742C1060.17 443.149 1056.24 445.61 1051.6 449.286C1052.53 461.123 1050.5 473.477 1051.97 485.135C1053.05 493.707 1056.75 502.108 1058.37 510.625C1059.03 514.103 1058.89 516.215 1056.9 519.14C1045.85 525.182 1030.4 525.338 1018.22 523.067C1013.02 522.096 1007.75 520.648 1004.68 516.038C1002.89 513.356 1012.72 484.258 1013.83 479.138Q1015.85 469.88 1016.25 460.412C1016.73 448.67 1017.49 434.054 1015.23 422.546C1013.04 411.399 1001.36 399.673 1004.05 388.23C1006.19 379.171 1025.26 376.959 1030.93 373.009C1031.2 372.817 1031.46 372.605 1031.73 372.403Z"/>
	<path fill="#050505" transform="matrix(8.30566 0 0 8.30566 0 0.00195312)" d="M1187.41 407.499C1199.12 407.006 1211.2 407.77 1221.45 414.029C1229.8 419.136 1239.23 427.841 1241.48 437.611C1243.09 444.587 1242.65 451.066 1238.69 457.183C1227.75 474.073 1197.41 475.215 1179.58 479.085C1176.7 479.708 1173.48 480.44 1171.78 483.053C1171.31 485.574 1171.24 486.468 1172.41 488.811C1174.04 492.073 1176.51 495.737 1180.12 496.878C1207.33 505.473 1218.38 486.683 1233.03 490.227C1235.07 490.72 1237.58 490.666 1239.12 488.987C1242.2 485.632 1241.49 477.897 1251.82 469.533C1267.58 456.77 1282.98 458.67 1294.59 451.325C1295.69 449.978 1295.9 449.102 1296.01 447.404C1296.15 445.249 1296.35 440.517 1294.74 438.894C1287.55 431.675 1262.43 447.613 1252.12 447.047C1250.19 446.009 1248.88 445.681 1248.4 443.319C1247.54 439.124 1251.79 427.323 1254.28 423.84C1259.19 416.975 1270.56 413.637 1278.62 412.344C1289 410.679 1305.22 410.177 1314.01 416.506C1315.58 417.071 1317.17 417.668 1318.62 418.5C1337.8 429.541 1330.58 460.006 1332.13 478.196C1332.5 482.556 1334.7 486.727 1335.69 491.028C1337.01 496.764 1341.35 500.499 1343.48 505.76C1344.36 507.939 1344.08 508.618 1343.22 510.61C1337.86 514.369 1332.62 518.309 1326.38 520.491C1319.67 522.837 1309.83 523.664 1303.32 520.458C1291.94 514.858 1275.59 527.871 1258.44 522.127C1247.83 518.576 1243.69 513.659 1238.94 504.108C1236.76 502.976 1235.87 503.901 1234.27 505.623C1223.29 517.48 1214.25 521.555 1198.23 523.928C1181.94 526.343 1164.12 523.948 1150.71 513.731C1139.69 505.338 1134.01 492.919 1132.25 479.446C1130.07 462.713 1134.47 444.583 1144.89 431.194C1155.63 417.387 1170.17 409.638 1187.41 407.499ZM1186.44 430.497C1178.47 434.632 1168.46 437.315 1165.16 446.721C1163.8 450.572 1164.61 454.896 1162.12 458.331C1167.02 458.453 1177.08 459.869 1180.89 456.514C1189.41 454.737 1201.65 452.066 1206.74 444.338C1208.04 442.361 1208.45 440.497 1208.47 438.132C1207.71 435.527 1206.63 433.956 1204.18 432.672C1198.73 429.814 1192.37 429.713 1186.44 430.497ZM1283.53 478.497C1278.96 481.197 1275.87 483.069 1274.49 488.589C1273.84 491.166 1273.71 492.929 1274.57 495.49C1277.23 498.644 1279.85 499.577 1283.97 499.881C1285.16 499.968 1286.03 499.888 1287.18 499.621C1292.09 498.513 1294.35 497.157 1297.04 492.8C1298.65 490.185 1299.72 486.943 1298.95 483.864C1298.44 481.803 1297.13 479.879 1295.29 478.78C1291.74 476.647 1287.33 477.773 1283.53 478.497Z"/>
	<path fill="#FEFEFE" fill-opacity="0.0078431377" transform="matrix(8.30566 0 0 8.30566 0 0.00195312)" d="M1283.53 478.497C1287.33 477.773 1291.74 476.647 1295.29 478.78C1297.13 479.879 1298.44 481.803 1298.95 483.864C1299.72 486.943 1298.65 490.185 1297.04 492.8C1294.35 497.157 1292.09 498.513 1287.18 499.621C1286.03 499.888 1285.16 499.968 1283.97 499.881C1279.85 499.577 1277.23 498.644 1274.57 495.49C1273.71 492.929 1273.84 491.166 1274.49 488.589C1275.87 483.069 1278.96 481.197 1283.53 478.497Z"/>
	<path fill="#050505" transform="matrix(8.30566 0 0 8.30566 0 0.00195312)" d="M1353.22 366.5Q1365.81 365.853 1378.4 366.552Q1391 367.252 1403.44 369.29C1433.45 374.176 1460.01 389.488 1477.83 414.446C1493.57 436.483 1502.8 467.95 1498.12 494.934C1494.3 516.878 1485.06 534.891 1466.58 547.848C1454.51 556.308 1440.63 559.12 1426.29 561.389C1396.65 566.082 1366.94 565.219 1337.09 566.352Q1240.95 570.201 1144.77 567.411C1129.61 567.022 1114.5 564.878 1099.33 564.483C1078.44 563.94 1057.52 565.106 1036.63 564.497C1022.99 564.099 1009.42 562.353 995.78 562.052C949.837 561.038 903.75 561.705 857.777 562.172C818.65 562.569 780.015 566.914 741.028 569.286C729.212 570.004 717.403 569.76 705.585 570.178C681.042 571.046 656.34 572.752 631.968 568.435C605.907 563.819 579.55 552.081 564.027 529.693C553.83 514.987 549.449 493.636 552.768 476.089C554.96 464.5 561.495 451.151 571.427 444.477C576.625 440.984 585.151 438.411 591.388 439.875C593.96 440.479 594.613 441.311 595.928 443.406C595.466 450.319 587.041 453.517 582.346 458.08C577.396 462.893 575.999 477.647 575.996 484.556C576.012 486.197 576.18 487.561 576.717 489.119C578.378 493.93 579.271 498.994 581.233 503.703C587.884 519.665 601.618 529.689 616.097 538.078C631.193 546.824 653.832 547.942 670.901 548.298C693.169 548.763 715.285 546.53 737.493 545.254C790.102 542.233 842.757 537.918 895.483 537.988C925.766 538.028 955.667 540.803 985.873 541.761C1024.15 542.976 1062.48 542.86 1100.77 544.117C1136.06 545.275 1171.32 548.417 1206.62 549.442C1250.19 550.708 1294.17 549.493 1337.75 548.318C1368.88 547.478 1401.83 550.158 1432.15 541.99C1446.72 538.064 1459.85 530.067 1467.49 516.706C1479.54 495.635 1477.52 472.937 1471.37 450.371C1467.29 435.401 1458.68 422.068 1447.52 411.386C1397.74 363.733 1323.78 398.599 1264 393.002C1255.29 392.186 1245.56 391.106 1237.89 386.578C1234.61 384.641 1231.51 381.871 1230.67 378.016C1230.47 377.129 1231.34 376.258 1231.81 375.504C1240.79 371.199 1255.73 376.652 1265.72 376.287C1294.74 375.228 1324.42 370.341 1353.22 366.5Z"/>
</svg>
