<?xml version="1.0" encoding="utf-8" ?>
<svg xmlns="http://www.w3.org/2000/svg" xmlns:xlink="http://www.w3.org/1999/xlink" width="1218" height="619">
	<clipPath id="cl_7">
		<rect x="6.1035156e-05" width="1218" height="619"/>
	</clipPath>
	<g clip-path="url(#cl_7)">
		<path transform="matrix(1.66093 0 0 1.66067 -229.856 -556.725)" d="M537.045 571.75C555.559 571.582 574.105 571.267 592.614 571.82Q619.695 572.56 646.69 574.841Q673.685 577.122 700.506 580.936C713.236 582.775 726.421 584.36 738.768 588.023C744.958 589.86 751.119 592.316 756.268 596.29C761.358 600.218 764.616 604.959 765.332 611.502C765.786 615.646 764.955 620.629 762.223 623.912C759.745 626.889 755.626 627.999 751.9 627.138C747.205 626.053 735.597 616.504 729.895 613.482C717.802 607.073 704.798 603.081 691.518 600.033C668.406 594.728 644.911 592.637 621.291 591.151Q582.332 588.511 543.294 589.37C527.205 589.646 510.636 589.795 494.621 591.37C477.225 591.636 459.807 593.49 442.494 595.072C408.055 598.22 372.72 602.062 338.999 609.943Q326.032 612.958 313.599 617.717C305.212 620.887 296.675 625.458 287.726 626.566C280.616 627.445 272.629 625.944 267.024 621.314C263.618 618.499 261.273 614.573 260.962 610.115C260.681 606.082 262.181 602.342 264.869 599.369C267.358 596.616 270.459 594.677 273.948 593.468C280.104 591.337 287.054 590.719 293.487 589.759Q312.452 586.797 331.549 584.854Q401.976 576.944 472.772 573.72C494.199 572.711 515.621 572.634 537.045 571.75Z"/>
		<path transform="matrix(1.66093 0 0 1.66067 -229.856 -556.725)" d="M228.468 430.995C229.781 430.911 231.101 430.853 232.408 431.05C235.898 431.577 237.673 434.604 239.522 437.25C237.436 446.388 232.578 455.442 229.517 464.371C236.884 465.328 244.425 466.315 251.855 466.462C257.557 466.576 263.581 465.91 269.23 466.578C270.491 466.728 271.606 467.031 272.476 468.042C273.255 468.946 273.544 470.219 273.539 471.387C273.531 473.25 272.751 474.896 271.387 476.144C263.989 482.914 235.327 479.358 225.223 478.669C221.793 490.405 214.107 515.642 219.014 526.623C220.004 528.837 221.634 530.459 223.943 531.247C236.391 535.496 263.32 520.179 275.086 514.592C279.54 496.519 281.818 477.977 285.269 459.702C286.47 453.337 287.45 446.717 289.295 440.514C289.996 438.155 291.089 434.649 293.052 433.06C294.449 431.928 295.984 431.492 297.743 431.815C301.808 432.563 305.102 436.491 307.268 439.736C306.387 447.868 304.044 455.98 302.177 463.933C298.986 477.527 295.844 491.154 294.078 505.021C307.504 498.089 318.802 487.354 332.019 480.005C335.537 478.049 341.638 474.654 345.697 476.227C348.157 477.18 349.046 479.229 349.241 481.696C350.161 493.379 340.441 510.172 339.568 522.687C339.328 526.119 339.875 530.121 341.432 533.218C342.196 534.737 343.416 536.303 345.121 536.786C353.171 539.067 363.931 533.258 370.73 529.503Q370.37 527.632 370.094 525.746C367.439 507.39 371.288 488.787 382.612 473.882C390.852 463.036 402.76 455.458 416.356 453.709C425.166 452.576 432.701 454.209 439.808 459.645C441.028 460.908 442.287 462.183 443.296 463.626C448.353 470.859 449.326 479.945 447.641 488.428C444.49 504.29 431.721 516.3 418.669 524.789C413.445 528.186 407.907 531.058 402.71 534.511Q403.61 535.219 404.555 535.865C413.525 541.877 427.922 536.732 437.51 535.158C440.019 534.746 444.72 534.402 446.765 536.369C447.597 537.17 447.966 537.981 447.898 539.158C447.711 542.411 444.343 545.673 441.938 547.507C430.783 556.018 412.691 559.706 398.953 557.655C389.687 556.271 381.832 551.908 376.274 544.31C367.525 548.94 358.926 552.938 348.948 553.82C341.445 554.484 332.84 554.072 326.876 548.907C316.579 539.99 319.407 522.909 318.553 510.718C308.035 518.524 298.08 530.726 291.382 541.992C288.862 546.229 287.039 552.617 283.411 555.862C281.771 557.328 279.405 557.642 277.281 557.44C275.316 557.253 273.68 556.342 272.471 554.78C268.927 550.203 269.248 542.637 270.049 537.179C265.71 539.042 261.602 541.578 257.399 543.746C243.377 550.979 223.727 556.203 208.176 551.085C202.005 549.054 197.221 544.918 194.414 539.049C185.78 520.998 196.056 495.8 202.501 478.391C199.368 478.723 196.228 479.059 193.151 479.752C188.805 480.731 177.577 485.573 173.476 482.999C171.766 481.925 169.848 479.016 169.717 476.965C169.607 475.252 170.121 473.876 171.259 472.622C178.311 464.851 198.791 463.787 208.853 463.476Q214.022 454.862 218.715 445.98C220.893 441.9 222.928 437.046 225.735 433.405C226.479 432.439 227.483 431.697 228.468 430.995ZM416.409 472.713C407.048 475.841 400.164 480.523 395.716 489.5C391.651 497.704 390.135 508 390.805 517.078C393.557 515.765 396.373 514.528 398.989 512.957C410.307 506.825 423.365 494.973 427.257 482.279C427.94 480.052 428.494 477.249 427.112 475.16C426.017 473.504 423.693 472.654 421.781 472.51C420.021 472.377 418.167 472.589 416.409 472.713Z"/>
		<path transform="matrix(1.66093 0 0 1.66067 -229.856 -556.725)" d="M786.65 432.712C790.813 432.156 795.403 432.338 799.583 432.706C809.987 433.623 820.223 436.614 827.037 445.034C830.47 449.276 832.22 454.242 831.533 459.711C829.465 476.178 813.578 482.84 805.114 494.819C803.06 497.726 801.88 501.23 801.557 504.765C800.273 518.82 811.978 532.414 823.771 538.275C827.57 540.163 834.767 541.154 837.321 544.454C838.388 545.833 838.87 547.423 838.602 549.159C838.263 551.345 836.798 553.225 834.952 554.385C831.793 556.37 827.151 555.362 823.717 554.596C796.359 548.495 783.987 526.678 770.063 504.868C765.889 520.61 765.308 537.273 761.249 553.088C757.897 555.697 754.377 556.878 750.093 556.431C745.18 555.918 741.242 553.535 738.229 549.702C731.07 553.183 723.697 555.051 715.884 552.233C709.295 549.857 704.449 545.203 701.48 538.941C697.713 541.935 694.453 545.549 690.68 548.54C686.385 551.945 681.549 554.491 675.903 553.675C668.295 552.575 663.415 546.281 659.23 540.474C656.831 542.664 654.414 544.843 651.817 546.798Q650.912 547.476 649.975 548.109Q649.037 548.742 648.07 549.328Q647.104 549.914 646.109 550.453Q645.115 550.991 644.095 551.48Q643.075 551.969 642.033 552.408Q640.991 552.847 639.928 553.234Q638.866 553.622 637.786 553.957Q636.706 554.292 635.611 554.574Q634.515 554.855 633.408 555.083Q632.3 555.311 631.183 555.485Q630.065 555.659 628.941 555.778Q627.816 555.896 626.687 555.96Q625.558 556.024 624.427 556.032Q623.296 556.041 622.166 555.994Q621.036 555.947 619.91 555.846Q618.784 555.744 617.664 555.587C606.658 553.952 598.047 547.338 591.598 538.524C589.588 540.275 587.553 541.927 585.33 543.403C577.863 548.362 565.729 553.445 556.69 551.362C551.942 550.268 548.037 547.273 545.615 543.063C538.412 530.544 544.059 514.2 547.738 501.491C533.91 507.464 521.145 522.542 514.155 535.573C511.193 541.095 509.036 549.834 503.776 553.609Q503.327 553.935 502.847 554.212Q502.366 554.489 501.859 554.713Q501.352 554.938 500.824 555.109Q500.297 555.279 499.754 555.393Q499.211 555.507 498.66 555.564Q498.108 555.62 497.553 555.618Q496.999 555.617 496.447 555.557Q495.896 555.497 495.354 555.379C493.278 554.911 490.979 553.653 489.908 551.746C488.968 550.073 489.039 548.485 489.314 546.649C490.674 537.559 494.307 527.544 496.563 518.488Q505.801 480.334 516.722 442.626C517.423 440.372 518.141 437.804 520.075 436.285C522.064 434.723 524.84 434.227 527.293 434.679C530.194 435.215 532.883 436.838 534.493 439.338C535.807 441.377 536.294 443.665 536.127 446.07C535.715 452 533.048 458.193 531.523 463.929Q527.693 478.576 524.472 493.369Q536.422 485.679 549.375 479.833C555.365 477.094 568.012 470.403 574.3 473.082C586.89 478.447 556.147 521.137 561.909 532.477C562.522 533.683 563.562 534.138 564.815 534.437C571.262 535.978 581.464 528.068 586.651 524.681C583.737 514.754 584.463 504.428 587.321 494.559C591.771 479.192 602.238 464.923 616.424 457.237C624.951 452.617 635.99 450.269 645.448 453.25C650.687 454.901 654.736 458.303 657.149 463.248C660.047 469.188 659.84 475.897 657.717 482.03C651.937 498.723 636.284 509.728 621.097 517.171C616.156 519.592 610.982 521.484 606.048 523.923C606.933 525.69 607.827 527.449 608.963 529.071C612.709 534.42 617.871 538.757 624.512 539.736C635.822 541.403 646.33 533.321 654.983 527.163C655.18 513.369 657.21 500.241 663.353 487.745C670.51 473.184 687.604 451.353 703.613 446.171C708.475 444.597 712.972 445.42 717.455 447.735C719.989 449.044 722.521 450.925 723.57 453.68C725.431 458.566 724.576 465.779 724.359 470.991C723.817 484.048 720.738 516.014 724.37 527.097C724.959 528.893 725.648 530.177 727.387 531.079C732.299 531.652 739.667 525.606 743.71 522.956C746.636 510.628 755.142 443.324 758.186 440.031C762.813 435.026 779.893 433.369 786.65 432.712ZM701.649 475.424C690.137 483.355 681.242 498.648 678.648 512.259C677.405 518.787 677.312 525.968 679.512 532.308C681.237 532.758 682.262 532.903 683.914 531.952C693.155 526.627 698.413 510.919 700.679 501.192C702.301 494.231 703.984 482.487 702.191 475.649L701.649 475.424ZM796.051 453.697C790.33 454.26 783.811 454.505 779.914 459.422C775.678 464.768 774.565 479.702 773.37 486.756C776.239 486.273 779.077 485.797 781.892 485.05C791.878 481.066 799.73 475.243 804.136 465.15C805.293 462.5 806.515 459.324 805.233 456.511C804.697 455.334 803.241 454.151 801.994 453.829C800.128 453.346 797.962 453.607 796.051 453.697ZM634.23 469.158C624.905 470.436 618.234 475.056 612.613 482.468C608.732 487.585 606.47 492.909 605.041 499.122L609.671 497.1C619.375 492.714 635.055 484.828 639.252 474.393C639.804 473.02 640.049 472.028 639.701 470.554C638.078 469.016 636.371 469.149 634.23 469.158Z"/>
	</g>
</svg>
