<?xml version="1.0" encoding="utf-8" ?>
<svg xmlns="http://www.w3.org/2000/svg" xmlns:xlink="http://www.w3.org/1999/xlink" width="9808" height="2096">
	<clipPath id="cl_5">
		<rect x="-0.00048828125" width="9808" height="2096"/>
	</clipPath>
	<g clip-path="url(#cl_5)">
		<path fill="#F0ECE6" fill-opacity="0.011764706" transform="matrix(8.30586 0 0 8.30586 -3831.47 -2919.61)" d="M1320.52 440.791L1324.09 441.396C1326.67 445.892 1326.88 459.019 1325.52 464.179C1325.27 465.134 1324.81 465.862 1324.19 466.612L1321 467.184C1321.12 466.864 1321.25 466.54 1321.35 466.211C1323.05 460.842 1323 445.65 1320.52 440.791Z"/>
		<path fill="#12170F" transform="matrix(8.30586 0 0 8.30586 -3831.47 -2919.61)" d="M909.982 489.074L910.473 488.778C916.322 485.187 921.437 480.254 928.821 480.241C930.728 481.2 931.401 481.279 932.212 483.366C933.809 487.478 932.603 496.301 931.444 500.463L930.81 495.495C929.518 493.653 927.427 492.92 925.459 491.958L924.737 492.6C924.841 494.486 924.865 496.357 924.853 498.246L923.775 498.359L922.356 496.261C919.786 495.055 919.535 494.917 916.766 495.441C914.129 494.798 913.006 493.795 911.155 491.925L911.337 490.71L909.982 489.074Z"/>
		<path transform="matrix(8.30586 0 0 8.30586 -3831.47 -2919.61)" d="M516.808 396.215C516.866 398.823 516.299 398.872 515.768 401.028C515.315 402.868 520.12 403.665 518.014 407.794C516.864 410.05 510.615 415.04 511.981 416.848C513.322 416.959 516.774 416.832 517.692 417.627C518.833 418.615 519.597 419.147 521.044 419.57C523.771 417.875 525.226 416.183 527.008 413.576C528.271 414.806 528.684 416.074 529.28 417.709C522.621 423.118 514.236 431.34 511.21 439.525C511.055 439.455 510.895 439.398 510.747 439.315C503.933 435.531 508.595 432.612 506.813 427.841L504.438 429.22C502.924 428.395 503.036 428.391 502.474 426.744C504.208 427.425 504.267 427.513 506.039 427.001C505.742 426.045 504.103 423.709 504.076 423.032C503.98 420.618 505.513 416.646 505.705 413.859L504.601 412.817C500.496 414.38 498.752 420.718 494.422 422.734L492.985 420.723C498.612 411.504 507.137 401.295 516.808 396.215Z"/>
		<path transform="matrix(8.30586 0 0 8.30586 -3831.47 -2919.61)" d="M905.425 491.519L909.982 489.074L911.337 490.71L911.155 491.925C913.006 493.795 914.129 494.798 916.766 495.441C919.535 494.917 919.786 495.055 922.356 496.261L923.775 498.359L924.853 498.246C924.865 496.357 924.841 494.486 924.737 492.6L925.459 491.958C927.427 492.92 929.518 493.653 930.81 495.495L931.444 500.463C927.742 505.833 919.351 515.024 912.964 516.703L907.217 519.833L906.023 516.039C903.512 514.867 901.646 513.578 899.531 511.825L902.795 511.213L903.337 510.131C902.041 508.192 900.2 505.887 899.315 503.754C898.423 501.604 899.008 499.688 899.826 497.639C900.925 497.413 902.018 497.218 902.936 496.532C904.61 495.281 904.452 494.334 904.828 492.356L905.425 491.519Z"/>
		<defs>
			<linearGradient id="gradient_0" gradientUnits="userSpaceOnUse" x1="900.40259" y1="509.0506" x2="906.78522" y2="506.46896">
				<stop offset="0" stop-color="#0D0C0B"/>
				<stop offset="1" stop-color="#141C11"/>
			</linearGradient>
		</defs>
		<path fill="url(#gradient_0)" transform="matrix(8.30586 0 0 8.30586 -3831.47 -2919.61)" d="M905.425 491.519C907.594 493.02 908.716 494.039 909.739 496.498C908.474 500.322 902.949 500.308 903.117 504.076L904.315 504.791L907.358 502.86C911.413 505.81 906.664 509.299 914.038 510.871C915.5 509.725 916.405 508.629 917.398 507.063C917.69 508.459 918.184 509.216 917.378 510.465C916.093 512.456 913.87 513.95 912.024 515.405L912.964 516.703L907.217 519.833L906.023 516.039C903.512 514.867 901.646 513.578 899.531 511.825L902.795 511.213L903.337 510.131C902.041 508.192 900.2 505.887 899.315 503.754C898.423 501.604 899.008 499.688 899.826 497.639C900.925 497.413 902.018 497.218 902.936 496.532C904.61 495.281 904.452 494.334 904.828 492.356L905.425 491.519Z"/>
		<path transform="matrix(8.30586 0 0 8.30586 -3831.47 -2919.61)" d="M588.836 503.363C590.471 501.278 592.229 499.285 594.584 497.993C599.55 495.269 604.905 496.519 610.049 497.94C613.878 500.356 616.654 502.417 617.77 507.052C618.081 508.342 618.145 509.632 618.135 510.952C619.146 514.037 618.956 516.721 617.509 519.72C615.886 523.085 613.07 525.753 610.209 528.085C605.805 529.543 601.688 530.449 597.185 528.764C593.281 527.303 589.667 524.145 587.957 520.315C585.529 514.874 586.745 508.699 588.836 503.363Z"/>
		<path fill="#12170F" transform="matrix(8.30586 0 0 8.30586 -3831.47 -2919.61)" d="M588.836 503.363C590.471 501.278 592.229 499.285 594.584 497.993C599.55 495.269 604.905 496.519 610.049 497.94C609.893 498.038 609.734 498.131 609.58 498.233C608.162 499.167 607.658 499.676 607.043 501.253C606.104 503.657 603.795 505.013 601.771 506.477C597.92 507.547 593.167 505.482 589.597 503.8C589.332 503.675 589.09 503.508 588.836 503.363Z"/>
		<path fill="#12170F" transform="matrix(8.30586 0 0 8.30586 -3831.47 -2919.61)" d="M610.209 528.085C609.718 527.681 609.223 527.273 608.763 526.834C605.894 524.099 605.699 520.389 605.705 516.574C605.709 513.729 606.598 512.626 608.523 510.708C611.268 511.242 610.615 513.596 613.306 514.632L610.965 513.214L611.339 513.784C615.307 514.307 614.437 512.087 618.135 510.952C619.146 514.037 618.956 516.721 617.509 519.72C615.886 523.085 613.07 525.753 610.209 528.085Z"/>
		<path fill="#12170F" transform="matrix(8.30586 0 0 8.30586 -3831.47 -2919.61)" d="M971.404 542.008C984.855 539.785 999.181 540.57 1012.82 539.501C1013.46 540.781 1013.72 542.076 1015.05 542.688L1016.96 542.122C1017.31 544.224 1017.49 544.57 1016.17 546.419C1014.05 549.381 1008.58 552.135 1005.38 554.11C1004.22 553.046 1003.75 552.917 1003.51 551.317L1006.13 550.159C1004.27 548.289 1003.57 548.147 1000.99 547.437C998.794 548.057 998.638 547.817 997.461 549.908C997.903 552.573 997.887 552.921 999.778 554.806L1002.31 555.501L1002.59 559.881C998.961 561.588 995.862 558.365 992.189 560.643L991.723 562.38C993.449 563.35 994.902 563.201 996.839 563.149L997.753 563.866C986.908 564.731 974.767 563.746 964.183 565.579L966.523 561.829C966.01 560.448 965.674 559.248 965.49 557.784C967.907 555.602 971.254 545.855 972.225 545.425C973.653 544.794 974.671 546.276 976.594 544.962L976.018 543.351L971.404 542.008Z"/>
		<path fill="#10130D" transform="matrix(8.30586 0 0 8.30586 -3831.47 -2919.61)" d="M1457.17 495.499C1459.53 495.129 1462.11 495.045 1464.49 495.333C1468.5 495.819 1473.59 497.515 1476.04 500.948Q1476.35 501.388 1476.62 501.855Q1476.9 502.322 1477.12 502.812Q1477.35 503.302 1477.53 503.811Q1477.71 504.32 1477.85 504.843Q1477.98 505.367 1478.06 505.9Q1478.15 506.434 1478.18 506.973Q1478.22 507.512 1478.2 508.052Q1478.19 508.592 1478.12 509.128C1478.99 514.074 1478.69 518.733 1475.74 522.981C1472.67 527.4 1468.22 529.215 1463.1 530.075C1461.25 530.148 1459.33 530.233 1457.49 530.001C1453.75 529.527 1448.35 526.75 1446.26 523.567C1440.09 514.172 1446.52 507.051 1448.24 499.38C1448.28 499.218 1448.31 499.054 1448.34 498.891C1451.6 498.1 1454.38 497.461 1457.17 495.499Z"/>
		<path fill="#12170F" transform="matrix(8.30586 0 0 8.30586 -3831.47 -2919.61)" d="M1238.83 417.996C1241.25 415.544 1243.66 412.866 1246.34 410.715C1256.94 402.225 1269.11 401.731 1281.94 403.105C1286.52 403.929 1296.74 404.962 1299.93 408.298C1299.82 408.491 1299.71 408.69 1299.58 408.875C1299.03 409.663 1298.56 409.945 1297.75 410.412C1297.7 411.572 1297.68 412.719 1297.47 413.863C1294.02 416.435 1290.48 414.234 1287.93 417.35C1287.56 420.941 1287.03 424.508 1287.56 428.107C1289.5 427.411 1290.99 423.964 1292.13 422.179L1293.04 422.737C1292.92 424.442 1292.76 426.124 1292.53 427.819C1293.6 428.883 1294.37 429.5 1295.71 430.17L1295.26 431.952C1291.43 430.075 1289.14 429.099 1284.89 429.981C1277.77 426.235 1270.95 429.888 1263.72 431.09C1261.6 434.06 1255.05 434.635 1251.62 435.301C1245.59 431.244 1243.03 433.283 1238.84 425.849C1239.64 422.936 1239.35 420.908 1238.83 417.996Z"/>
		<path transform="matrix(8.30586 0 0 8.30586 -3831.47 -2919.61)" d="M1238.83 417.996C1241.78 417.939 1244.2 417.674 1246.64 419.64L1246.81 421.646C1245.18 423.522 1242.3 425.803 1239.66 425.869C1239.39 425.876 1239.12 425.856 1238.84 425.849C1239.64 422.936 1239.35 420.908 1238.83 417.996Z"/>
		<path transform="matrix(8.30586 0 0 8.30586 -3831.47 -2919.61)" d="M1281.94 403.105C1286.52 403.929 1296.74 404.962 1299.93 408.298C1299.82 408.491 1299.71 408.69 1299.58 408.875C1299.03 409.663 1298.56 409.945 1297.75 410.412C1297.7 411.572 1297.68 412.719 1297.47 413.863C1294.02 416.435 1290.48 414.234 1287.93 417.35C1287.56 420.941 1287.03 424.508 1287.56 428.107C1289.5 427.411 1290.99 423.964 1292.13 422.179L1293.04 422.737C1292.92 424.442 1292.76 426.124 1292.53 427.819C1293.6 428.883 1294.37 429.5 1295.71 430.17L1295.26 431.952C1291.43 430.075 1289.14 429.099 1284.89 429.981C1277.77 426.235 1270.95 429.888 1263.72 431.09L1262.4 430.737C1262.29 429.592 1262.2 428.83 1262.63 427.736C1263.34 425.936 1263.43 425.8 1265.21 425.051L1267.54 427.104C1266.02 424.825 1265.76 424.348 1265.62 421.633L1268.97 419.947L1269.1 418.951L1266.74 418.447C1265.71 417.007 1265.66 417.097 1265.87 415.353C1273.12 415.275 1276.21 420.575 1284.04 417.492L1282.7 415.577C1284.25 415.497 1285.65 415.238 1287.17 414.887L1287.65 413.367C1286.36 412.68 1285.05 412.086 1283.71 411.492L1283.16 407.358C1282.15 408.124 1281.63 407.817 1280.42 407.717L1279.79 405.586L1281.94 403.105Z"/>
		<path transform="matrix(8.30586 0 0 8.30586 -3831.47 -2919.61)" d="M1013.52 426.809C1014.05 418.437 1013.36 406.107 1011.17 398.06C1009.34 391.345 1003.71 388.193 1004.38 380.456C1005.77 377.664 1009.37 376.128 1012.09 374.851C1020.14 371.087 1036.49 363.852 1045.14 367.507C1047.1 368.334 1048.62 369.913 1049.29 371.941C1050.64 376.086 1048.46 385.104 1046.58 388.982L1045.51 389.081L1044.43 387.595C1042.1 387.42 1039.11 388.43 1037.27 389.93C1036.52 390.545 1036 391.262 1035.53 392.097L1037.82 394.553C1036.69 397.51 1032.33 399.222 1030.6 402.505L1031.62 404.396L1028.48 405.538C1026.53 404.339 1025.06 403.013 1023.47 401.368L1022.34 401.79C1023.58 405.869 1027.47 407.377 1027.82 411.991C1030.81 413.511 1033.22 414.203 1035.11 417.011C1034.1 418.816 1034.07 418.857 1032.13 419.587L1031.63 419.134C1030.44 418.083 1029.63 417.234 1027.99 416.987C1024.94 422.354 1023.8 418.989 1020.41 425.793C1020.27 426.074 1020.03 426.297 1019.85 426.55C1019.69 426.505 1019.54 426.457 1019.39 426.417C1017.26 425.853 1015.6 426.197 1013.52 426.809Z"/>
		<path transform="matrix(8.30586 0 0 8.30586 -3831.47 -2919.61)" d="M786.329 466.257C789.31 466.981 791.022 467.995 792.659 470.701C795.069 474.684 799.851 477.241 803.227 480.624C805.015 480.963 805.481 480.518 807.106 479.785C809.498 484.39 804.576 490.128 809.582 494L811.964 493.298C813.756 489.959 813.873 487.862 817.489 486.534C817.86 495.346 820.942 501.342 827.084 507.515C829.456 509.806 832.468 512.458 832.444 516.04C832.43 518.194 831.723 519.456 830.235 521.01C825.949 525.483 814.063 526.807 808.1 526.395C805.608 526.222 803.183 525.622 800.777 524.981C792.002 522.512 788.129 515.308 783.87 507.891L784.245 490.678C783.261 485.622 785.747 476.832 786.152 471.328L786.329 466.257Z"/>
		<path fill="#12170F" transform="matrix(8.30586 0 0 8.30586 -3831.47 -2919.61)" d="M786.152 471.328C786.242 471.556 786.335 471.783 786.422 472.013C788.11 476.492 785.586 481.506 788.399 485.183L792.236 486.104C792.323 483.348 791.778 479.984 793.444 477.774L795.266 478.526L798.419 487.901C800.187 488.769 801.434 488.898 803.391 488.943L804.626 490.185C804.317 492.014 803.475 492.922 802.295 494.31C803.033 496.35 803.289 496.655 804.975 498.03C803.715 499.673 802.729 500.646 800.877 501.591C799.809 500.144 799.527 499.151 799.231 497.376C799.198 497.179 799.17 496.981 799.139 496.784C796.177 493.973 794.125 488.267 790.583 486.531C788.567 485.543 787.76 485.939 785.834 486.686C785.687 487.928 785.572 488.94 784.8 489.97C784.621 490.21 784.43 490.442 784.245 490.678C783.261 485.622 785.747 476.832 786.152 471.328Z"/>
		<path fill="#12170F" transform="matrix(8.30586 0 0 8.30586 -3831.47 -2919.61)" d="M809.163 498.67L810.841 500.177C813.628 499.976 815.423 500.954 817.66 502.728C818.487 503.384 819.106 504.328 819.65 505.218C819.058 507.611 818.816 507.647 816.827 509.158C814.772 508.652 813.835 506.447 812.221 507.227C812.828 508.654 813.33 509.85 814.381 511.026L812.774 510.859L812.743 511.393L815.402 511.029C818.006 513.123 818.441 515.091 821.844 515.94L823.797 515.242C823.382 513.473 822.602 512.431 821.51 510.999C823.108 508.819 824.658 508.54 827.084 507.515C829.456 509.806 832.468 512.458 832.444 516.04C832.43 518.194 831.723 519.456 830.235 521.01C825.949 525.483 814.063 526.807 808.1 526.395C805.608 526.222 803.183 525.622 800.777 524.981C803.128 524.586 804.96 524.594 807.286 524.947L808.009 525.064L808.414 523.297L808.837 524.458C807.729 524.337 807.271 524.102 806.302 523.599C806.45 522.578 806.581 521.561 806.615 520.529C806.733 516.939 805.155 514.455 802.733 511.962L802.089 511.31L802.451 509.025C804.118 508.035 805.67 507.328 807.52 506.735L808.096 506.555L808.435 505.366C808.653 504.663 808.706 504.2 808.613 503.467C808.365 501.511 808.401 500.501 809.163 498.67Z"/>
		<path fill="#10130D" transform="matrix(8.30586 0 0 8.30586 -3831.47 -2919.61)" d="M784.245 490.678C784.43 490.442 784.621 490.21 784.8 489.97C785.572 488.94 785.687 487.928 785.834 486.686C787.76 485.939 788.567 485.543 790.583 486.531C794.125 488.267 796.177 493.973 799.139 496.784C799.17 496.981 799.198 497.179 799.231 497.376C799.527 499.151 799.809 500.144 800.877 501.591C802.729 500.646 803.715 499.673 804.975 498.03C806.389 498.146 807.824 498.166 809.163 498.67C808.401 500.501 808.365 501.511 808.613 503.467C808.706 504.2 808.653 504.663 808.435 505.366L808.096 506.555L807.52 506.735C805.67 507.328 804.118 508.035 802.451 509.025L802.089 511.31L802.733 511.962C805.155 514.455 806.733 516.939 806.615 520.529C806.581 521.561 806.45 522.578 806.302 523.599C807.271 524.102 807.729 524.337 808.837 524.458L808.414 523.297L808.009 525.064L807.286 524.947C804.96 524.594 803.128 524.586 800.777 524.981C792.002 522.512 788.129 515.308 783.87 507.891L784.245 490.678Z"/>
		<path fill="#10130D" transform="matrix(8.30586 0 0 8.30586 -3831.47 -2919.61)" d="M1012.82 539.501C1023.83 538.888 1077.85 537.342 1085.77 540.838L1085.92 543.343L1082.78 545.496C1082.73 547.225 1082.54 547.381 1083.68 548.781L1086.61 548.642C1087.63 550.873 1087.88 552.78 1086.95 555.121C1086.7 555.769 1086.38 556.389 1086.06 557.006C1089.62 558.256 1093.69 555.951 1097.04 554.463L1098.36 557.381L1100.51 556.831L1101.01 555.441L1099.56 552.733C1100.96 552.47 1102.3 552.027 1103.67 552.626L1103.25 555.966C1104.84 556.339 1105.52 555.808 1107.02 555.221C1107.1 555.367 1107.19 555.514 1107.28 555.659C1108.1 556.984 1108.64 557.661 1109.97 558.453C1113.79 558.819 1118.67 558.718 1122.05 560.567C1118.66 562.399 1115.2 565.055 1111.38 565.702C1095.33 566.464 1076.58 563.014 1060.22 562.178C1039.23 561.104 1018.68 562.679 997.753 563.866L996.839 563.149C994.902 563.201 993.449 563.35 991.723 562.38L992.189 560.643C995.862 558.365 998.961 561.588 1002.59 559.881L1002.31 555.501L999.778 554.806C997.887 552.921 997.903 552.573 997.461 549.908C998.638 547.817 998.794 548.057 1000.99 547.437C1003.57 548.147 1004.27 548.289 1006.13 550.159L1003.51 551.317C1003.75 552.917 1004.22 553.046 1005.38 554.11C1008.58 552.135 1014.05 549.381 1016.17 546.419C1017.49 544.57 1017.31 544.224 1016.96 542.122L1015.05 542.688C1013.72 542.076 1013.46 540.781 1012.82 539.501Z"/>
		<path fill="#10130D" transform="matrix(8.30586 0 0 8.30586 -3831.47 -2919.61)" d="M1364.42 406.954C1369.46 405.76 1375.01 406.158 1379.5 408.98C1381.52 410.244 1383.33 412.089 1383.9 414.462C1384.31 416.152 1384.45 418.153 1383.8 419.788L1385.82 422.124C1391.02 423.372 1402.04 414.935 1407.57 412.863C1413.26 411.046 1420.42 408.414 1426.48 409.179C1429.23 409.527 1431.02 409.798 1432.71 412.007C1436.63 413.455 1438.26 415.452 1439.95 419.22C1442.43 424.74 1442.48 430.849 1440.26 436.451C1439.2 439.127 1438.16 440.559 1435.63 441.955L1435.06 444.197C1433.69 444.895 1432.33 445.637 1430.91 446.222C1430.12 448.13 1429.2 448.691 1427.47 449.753C1414.69 451.377 1408.83 436.74 1400.06 440.404C1393.48 443.153 1389.55 449.857 1383.4 453.044C1385.16 456.428 1385.22 485.056 1383.79 488.726C1383.51 489.454 1383.16 490.133 1382.75 490.797C1385.13 493.897 1385.58 497.59 1385.1 501.39Q1384.99 502.28 1384.81 503.158C1387.28 507.272 1389.69 511.033 1392.63 514.821C1392.68 514.886 1392.7 514.968 1392.74 515.041L1395.26 516.436C1396.46 518.813 1396.84 519.371 1396.65 521.985C1395.06 525.296 1391.87 526.984 1388.51 528.118C1382.81 530.037 1349.69 529.451 1344.56 526.752C1343.97 526.44 1342.01 525.226 1341.83 524.687C1341.21 522.748 1353.46 480.944 1347.7 463.448C1347.63 463.242 1347.55 463.041 1347.48 462.838C1348.8 459.852 1348.62 458.112 1348.1 454.991C1348.75 452.863 1348.64 451.195 1348.39 449.002C1351.99 435.525 1343.73 430.351 1342.48 418.285C1342.25 415.972 1342.73 413.751 1344.33 412.01C1348.71 407.252 1358.45 407.508 1364.42 406.954Z"/>
		<path transform="matrix(8.30586 0 0 8.30586 -3831.47 -2919.61)" d="M1430.91 446.222C1430.79 444.462 1430.45 442.702 1430.19 440.958C1429.23 439.826 1428.19 438.876 1428.05 437.336L1430.51 436.224C1433.65 436.72 1434.05 436.946 1436.43 439.071L1435.63 441.955L1435.06 444.197C1433.69 444.895 1432.33 445.637 1430.91 446.222Z"/>
		<path fill="#12170F" transform="matrix(8.30586 0 0 8.30586 -3831.47 -2919.61)" d="M1348.39 449.002L1351.73 451.311C1353.26 450.875 1354.13 450.276 1355.63 451.102C1358.38 452.611 1359.36 455.452 1362.67 455.505C1363.79 452.078 1363.04 451.025 1366.03 448.641L1368 448.74L1368.66 450.288C1368.39 450.441 1368.12 450.588 1367.86 450.747C1366.8 451.395 1367.17 451.067 1366.51 452.012C1368.47 453.159 1370.81 454.209 1372.21 456.027C1368.67 458.885 1363.53 458.776 1359.46 460.887C1358.39 460.4 1357.54 459.923 1356.61 459.196L1356.2 460.952C1353.38 461.508 1350.14 461.819 1347.48 462.838C1348.8 459.852 1348.62 458.112 1348.1 454.991C1348.75 452.863 1348.64 451.195 1348.39 449.002Z"/>
		<path transform="matrix(8.30586 0 0 8.30586 -3831.47 -2919.61)" d="M1348.1 454.991C1351.25 454.428 1353.42 455.009 1356.46 455.804C1356.89 457.185 1357.01 457.744 1356.61 459.196L1356.2 460.952C1353.38 461.508 1350.14 461.819 1347.48 462.838C1348.8 459.852 1348.62 458.112 1348.1 454.991Z"/>
		<path fill="#12170F" transform="matrix(8.30586 0 0 8.30586 -3831.47 -2919.61)" d="M1364.42 406.954C1369.46 405.76 1375.01 406.158 1379.5 408.98C1381.52 410.244 1383.33 412.089 1383.9 414.462C1384.31 416.152 1384.45 418.153 1383.8 419.788C1383.37 421.144 1382.73 421.568 1381.67 422.442C1381.4 422.241 1381.14 422.035 1380.87 421.838C1379.62 420.938 1373.96 418.804 1372.63 419.345C1371.14 419.949 1371.75 420.965 1369.4 421.382C1367.89 419.567 1367.38 419.425 1367.39 416.986C1369.14 415.994 1370.29 415.388 1371.28 413.601L1370.49 412.023C1367.71 410.636 1366.28 409.412 1364.42 406.954Z"/>
		<path fill="#12170F" transform="matrix(8.30586 0 0 8.30586 -3831.47 -2919.61)" d="M1392.74 515.041C1387.86 517.371 1384.82 513.77 1380.09 515.152L1379.26 516.767C1380.62 518.482 1381.9 520.215 1383.13 522.029C1382.01 524.197 1380.26 524.466 1378.09 525.452C1376.64 524.67 1375.58 524.657 1373.99 525.089C1373.73 525.158 1373.48 525.247 1373.23 525.326L1376.1 523.232L1376.1 519.595L1374.86 518.605C1373.23 519.531 1371.86 520.372 1369.93 520.428C1369.21 520.449 1368.64 520.402 1367.94 520.643C1366.46 521.156 1366.14 521.216 1364.64 520.891C1362.79 518.917 1362.66 518.995 1362.7 516.32C1359.56 515.705 1352.68 514.77 1350.53 512.402C1349.71 511.494 1351.18 504.235 1351.34 502.418L1352.54 501.602C1356.11 503.265 1356.76 506.546 1360.08 507.74C1366.37 505.453 1366.42 496.547 1370.34 492.191C1371.34 491.092 1371.72 491.328 1373.2 491.229L1374.61 494.095C1377.16 493.728 1379.67 493.251 1382.2 492.733L1382.75 490.797C1385.13 493.897 1385.58 497.59 1385.1 501.39Q1384.99 502.28 1384.81 503.158C1387.28 507.272 1389.69 511.033 1392.63 514.821C1392.68 514.886 1392.7 514.968 1392.74 515.041Z"/>
		<path fill="#10130D" transform="matrix(8.30586 0 0 8.30586 -3831.47 -2919.61)" d="M1299.93 408.298C1308.16 411.662 1315.32 417.523 1318.92 425.831C1320.24 428.88 1322.26 436.625 1321.03 439.735C1320.81 440.294 1320.78 440.326 1320.52 440.791C1323 445.65 1323.05 460.842 1321.35 466.211C1321.25 466.54 1321.12 466.864 1321 467.184C1322.29 469.584 1322.43 470.055 1322.31 472.773L1320.9 474.867C1322.64 477.499 1323.16 480.268 1322.49 483.338C1322.23 484.521 1321.89 485.681 1321.55 486.839C1322.77 491.892 1323.75 497.689 1325.8 502.452C1328.37 508.404 1338.15 516.288 1336.76 523.005C1334.65 525.409 1333.24 525.983 1330.01 526.216C1315.69 527.248 1305.06 523.686 1292.16 518.127C1278.85 522.61 1265.44 525.444 1251.69 520.883C1253.28 516.934 1259.08 514.981 1262.14 511.808L1261.95 509.569C1259.92 507.704 1258.11 506.313 1255.66 504.997C1256.24 504.168 1256.64 503.511 1256.84 502.502C1258.12 495.835 1256.04 493.403 1252.56 488.128L1255.11 482.458L1254.44 481.714C1252.59 483.407 1251.68 484.541 1249.2 485.144L1246.88 483.507L1248.1 482.16L1247.64 480.851C1243.11 478.997 1238.34 480.384 1233.63 479.471C1233.8 477.255 1240.7 473.522 1242.67 471.657C1241.55 470.154 1236.86 470.097 1234.72 469.471C1233.52 469.119 1232.11 469.804 1230.9 470.134C1234.49 466.515 1237.64 462.005 1240.87 458.034C1242.58 457.115 1244.18 455.954 1245.8 454.877C1252.7 450.863 1261.41 449.08 1268.81 445.979L1274.79 443.949C1278.85 443.142 1285.22 442.23 1288.26 439.262C1289.74 437.814 1289.61 437.393 1289.68 435.44C1288.26 433.227 1287 431.636 1284.89 429.981C1289.14 429.099 1291.43 430.075 1295.26 431.952L1295.71 430.17C1294.37 429.5 1293.6 428.883 1292.53 427.819C1292.76 426.124 1292.92 424.442 1293.04 422.737L1292.13 422.179C1290.99 423.964 1289.5 427.411 1287.56 428.107C1287.03 424.508 1287.56 420.941 1287.93 417.35C1290.48 414.234 1294.02 416.435 1297.47 413.863C1297.68 412.719 1297.7 411.572 1297.75 410.412C1298.56 409.945 1299.03 409.663 1299.58 408.875C1299.71 408.69 1299.82 408.491 1299.93 408.298ZM1274.42 501.374C1276.87 501.321 1279.33 501.288 1281.62 500.319C1285.08 498.861 1287.31 496.377 1288.73 492.951C1290.63 489.07 1291.33 488.248 1290.56 484.005C1290.65 482.443 1290.25 481.347 1289.74 479.909C1290.43 477.271 1289.62 474.685 1288.27 472.372C1286.92 470.041 1284.28 468.983 1281.75 468.41C1277.49 467.443 1273.18 468.998 1269.67 471.369C1264.99 474.519 1261.22 479.621 1260.2 485.227C1259.58 488.595 1259.98 492.091 1261.98 494.958C1264.58 498.708 1268.49 500.504 1272.89 501.17Q1273.65 501.293 1274.42 501.374Z"/>
		<path transform="matrix(8.30586 0 0 8.30586 -3831.47 -2919.61)" d="M1302.99 431.414C1305.38 431.568 1307.18 431.519 1309.17 433.023C1309.51 434.796 1309.9 435.26 1308.87 436.84C1308.76 437.007 1308.63 437.156 1308.53 437.326C1308.43 437.485 1308.01 438.308 1307.92 438.497L1304.08 438.507L1306.34 436.115C1306.16 436.174 1305.97 436.223 1305.79 436.292C1303.57 437.158 1302.69 437.875 1301.83 440.05L1300.41 440.445C1297.99 439.255 1297.15 438.909 1295.62 436.581C1297.48 435.638 1298.91 434.318 1300.47 432.954L1302.19 433.125L1302.99 431.414Z"/>
		<path fill="#12170F" transform="matrix(8.30586 0 0 8.30586 -3831.47 -2919.61)" d="M1240.87 458.034C1242.58 457.115 1244.18 455.954 1245.8 454.877C1250.66 456.846 1250.81 461.611 1254.2 463.795C1254.86 464.217 1258.53 463.035 1260.3 463.864L1261.17 465.944C1258.55 467.167 1255.32 466.008 1253.77 468.425C1255.45 469.397 1256.41 469.052 1258.32 468.92L1256.6 471.258L1256.93 472.751L1258.82 473.942L1258.03 474.879C1257.87 474.792 1257.72 474.702 1257.57 474.617C1255.96 473.736 1254.96 473.48 1253.14 473.578C1252.35 471.61 1252.43 470.365 1252.68 468.278C1247.96 470.745 1250.31 472.006 1243.7 473.428L1242.56 472.476L1243.04 471.125L1246.16 470.179L1246.2 468.987L1242.32 466.566Q1243.26 462.703 1244.04 458.805C1242.99 458.522 1241.95 458.186 1240.87 458.034Z"/>
		<path fill="#12170F" transform="matrix(8.30586 0 0 8.30586 -3831.47 -2919.61)" d="M1288.73 492.951L1290.55 496.216L1292.08 496.244C1293.2 494.751 1293.96 493.41 1294.63 491.668C1298.03 492.148 1304.1 493.185 1306.15 496.148C1307.74 498.443 1309.13 501.667 1309.48 504.437C1302.01 506.053 1295.38 490.956 1288.48 501.616C1288.38 501.768 1288.32 501.942 1288.24 502.106L1292.22 501.92C1293.07 504.205 1292.37 504.665 1291.4 506.824L1289.34 508.334L1286.99 506.275L1288.34 507.543L1288.03 504.465C1283.51 503.107 1279.06 502.182 1274.42 501.374C1276.87 501.321 1279.33 501.288 1281.62 500.319C1285.08 498.861 1287.31 496.377 1288.73 492.951Z"/>
		<path fill="#12170F" transform="matrix(8.30586 0 0 8.30586 -3831.47 -2919.61)" d="M1268.81 445.979L1274.79 443.949L1275.96 446.57L1273.94 450.324L1274.86 451.927C1279.27 452.015 1283.58 451.731 1287.97 451.385L1289.27 454.637C1290.76 455.236 1291.81 455.523 1293.42 455.548L1295.35 460.006L1294.47 461.358C1291.82 460.324 1293.25 457.516 1290.24 458.741L1289.97 460.328L1292.29 463.406L1291.57 465.043C1289.75 465.463 1289.67 465.535 1287.98 464.769L1286.56 467.317L1284.53 466.399L1284.09 464.608L1285.56 463.111C1286.94 463.156 1287.54 463.215 1288.66 464.045C1289.26 462.053 1289.31 461.762 1288.73 459.772C1283.23 458.17 1276.36 464.362 1269.94 461.856C1269.5 460.613 1269.06 460.407 1269.72 459.166C1270.65 457.391 1274.15 455.845 1274.28 454.25L1270.94 452.92L1270.64 451.536C1271.88 449.972 1273.48 448.724 1273.28 446.693L1268.81 445.979Z"/>
		<path transform="matrix(8.30586 0 0 8.30586 -3831.47 -2919.61)" d="M1297.97 470.127L1300.5 471.483L1300.76 474.448L1302.03 475.364L1305.01 474.128C1306.86 474.998 1307.46 475.842 1308.51 477.57L1309.89 476.969L1310.87 474.201L1312.51 474.228C1313.14 476.432 1312.94 477.379 1314.97 478.561L1316.32 477.614L1315.33 475.561C1317.18 475.208 1319.01 475.026 1320.9 474.867C1322.64 477.499 1323.16 480.268 1322.49 483.338C1322.23 484.521 1321.89 485.681 1321.55 486.839C1319.4 488.215 1314.53 489.674 1311.99 490.274C1308.71 488.47 1308.76 486.096 1306.57 483.266C1304.95 481.164 1303.15 481.155 1300.75 480.946C1297.24 483.475 1295.08 484.688 1290.56 484.005C1290.65 482.443 1290.25 481.347 1289.74 479.909C1290.74 477.809 1290.95 475.845 1292.31 473.834C1293.39 473.618 1294.07 473.558 1295.11 473.885C1296.32 474.265 1296.01 474.18 1297.05 473.673L1297.97 470.127Z"/>
		<path fill="#12170F" transform="matrix(8.30586 0 0 8.30586 -3831.47 -2919.61)" d="M1299.93 408.298C1308.16 411.662 1315.32 417.523 1318.92 425.831C1320.24 428.88 1322.26 436.625 1321.03 439.735C1320.81 440.294 1320.78 440.326 1320.52 440.791C1323 445.65 1323.05 460.842 1321.35 466.211C1321.25 466.54 1321.12 466.864 1321 467.184C1322.29 469.584 1322.43 470.055 1322.31 472.773L1320.9 474.867C1319.01 475.026 1317.18 475.208 1315.33 475.561L1316.32 477.614L1314.97 478.561C1312.94 477.379 1313.14 476.432 1312.51 474.228L1310.87 474.201L1309.89 476.969L1308.51 477.57C1307.46 475.842 1306.86 474.998 1305.01 474.128L1302.03 475.364L1300.76 474.448L1300.5 471.483L1297.97 470.127C1300.14 467.886 1302.32 468.138 1305.33 467.738L1305.75 466.304C1304.09 465.538 1302.44 464.945 1300.7 464.39C1299.95 461.889 1299.62 460.687 1300.77 458.142C1302.08 455.235 1305.32 453.984 1308.04 452.773C1309.05 450.41 1308.15 448.73 1307.57 446.289L1309.37 446.466C1311.56 445.012 1311.76 444.619 1312.84 442.205C1311.53 439.403 1306.99 441.798 1303.91 440.25L1304.08 438.507L1307.92 438.497C1308.01 438.308 1308.43 437.485 1308.53 437.326C1308.63 437.156 1308.76 437.007 1308.87 436.84C1309.9 435.26 1309.51 434.796 1309.17 433.023C1307.18 431.519 1305.38 431.568 1302.99 431.414L1302.14 430.864C1299.82 430.974 1297.96 430.75 1295.71 430.17C1294.37 429.5 1293.6 428.883 1292.53 427.819C1292.76 426.124 1292.92 424.442 1293.04 422.737L1292.13 422.179C1290.99 423.964 1289.5 427.411 1287.56 428.107C1287.03 424.508 1287.56 420.941 1287.93 417.35C1290.48 414.234 1294.02 416.435 1297.47 413.863C1297.68 412.719 1297.7 411.572 1297.75 410.412C1298.56 409.945 1299.03 409.663 1299.58 408.875C1299.71 408.69 1299.82 408.491 1299.93 408.298Z"/>
		<path fill="#12170F" transform="matrix(8.30586 0 0 8.30586 -3831.47 -2919.61)" d="M841.504 434.746C841.788 433.382 842.213 432.165 842.89 430.948C850.401 417.437 861.397 408.482 876.401 404.483C890.453 400.739 908.292 401.41 921.003 408.945C927.825 412.989 932.331 418.859 934.242 426.497C935.91 433.316 938.537 444.621 934.964 451.056C934.198 452.435 933.019 453.515 931.481 453.942C931.275 453.999 931.058 454.009 930.846 454.042C928.946 454.942 926.886 456.169 924.837 456.631L921.135 457.678C920.965 457.774 920.795 457.873 920.623 457.965C910.766 463.241 874.034 469.951 870.749 479.432C870.089 481.336 870.368 483.285 871.296 485.077C873.741 489.799 878.806 494.057 883.927 495.527C891.029 497.565 898.225 494.869 904.828 492.356C904.452 494.334 904.61 495.281 902.936 496.532C902.018 497.218 900.925 497.413 899.826 497.639C899.008 499.688 898.423 501.604 899.315 503.754C900.2 505.887 902.041 508.192 903.337 510.131L902.795 511.213L899.531 511.825C901.646 513.578 903.512 514.867 906.023 516.039L907.217 519.833C899.033 522.06 890.9 523.342 882.413 522.779Q881.22 522.706 880.032 522.573Q878.844 522.44 877.664 522.247Q876.484 522.053 875.316 521.8Q874.147 521.547 872.993 521.235Q871.839 520.923 870.702 520.553Q869.565 520.183 868.449 519.756Q867.333 519.328 866.239 518.844Q865.146 518.361 864.079 517.822Q863.011 517.284 861.973 516.692Q860.934 516.1 859.927 515.456Q858.92 514.812 857.946 514.117Q856.973 513.423 856.036 512.68Q855.1 511.937 854.202 511.147Q853.304 510.358 852.448 509.524Q851.591 508.69 850.778 507.813Q849.965 506.937 849.198 506.02C837.942 492.774 834.081 474.579 835.473 457.608C835.624 448.548 837.007 442.657 841.504 434.746ZM875.775 427.198L870.152 432.756C870.682 437.219 868.696 441.518 869.221 446.196C870.195 447.962 871.143 449.268 873.06 450.079C876.895 451.701 882.001 450.303 885.719 448.965C892.044 446.69 899.024 442.78 901.84 436.327C903.157 433.309 902.667 431.52 901.537 428.599C899.798 426.952 898.2 425.902 895.903 425.187C888.221 422.796 882.68 423.44 875.775 427.198Z"/>
		<path transform="matrix(8.30586 0 0 8.30586 -3831.47 -2919.61)" d="M921.135 457.678C914.813 453.069 918.467 450.662 914.512 447.89L914.651 446.913C917.021 447.203 918.513 448.551 919.974 450.399Q921.082 451.826 922.123 453.302C922.316 453.305 922.51 453.294 922.702 453.312C923.644 453.404 924.112 453.783 924.865 454.302L924.837 456.631L921.135 457.678Z"/>
		<path transform="matrix(8.30586 0 0 8.30586 -3831.47 -2919.61)" d="M855.907 446.576C856.552 446.6 856.959 446.677 857.512 447.024C858.742 447.792 859.413 448.095 860.87 448.243C864.708 448.632 866.026 450.761 868.489 453.469C865.215 454.289 862.074 455.162 858.834 453.727C856.442 452.668 855.448 451.424 854.533 449.075L855.907 446.576Z"/>
		<path transform="matrix(8.30586 0 0 8.30586 -3831.47 -2919.61)" d="M870.152 432.756C867.575 430.811 864.311 426.824 862.657 424.048L863.519 422.885C867.341 422.731 869.646 424.669 873.303 425.054C874.398 425.169 875.051 426.378 875.775 427.198L870.152 432.756Z"/>
		<path transform="matrix(8.30586 0 0 8.30586 -3831.47 -2919.61)" d="M841.504 434.746C844.891 435.842 845.887 438.009 848.07 440.71C848.418 442.955 848.813 444.015 847.9 446.218C845.255 445.694 843.422 443.823 841.395 442.149C840.028 443.543 840.338 443.87 840.35 445.756C841.824 448.394 844.215 449.658 846.7 451.196C845.275 452.098 844.776 452.82 843.025 452.459C842.287 452.306 841.765 451.939 841.155 451.522C838.99 453.363 837.714 455.739 835.473 457.608C835.624 448.548 837.007 442.657 841.504 434.746Z"/>
		<path transform="matrix(8.30586 0 0 8.30586 -3831.47 -2919.61)" d="M930.846 454.042L928.731 453.407C928.945 452.298 929.289 444.262 929.396 444.129C930.977 442.164 932.421 443.283 933.363 440.164C931.511 438.431 929.534 438.545 927.106 437.965C924.579 434.559 926.252 430.623 924.807 426.905L923.43 426.496L925.12 425.825L929.525 429.02C932.269 428.87 932.277 428.488 934.242 426.497C935.91 433.316 938.537 444.621 934.964 451.056C934.198 452.435 933.019 453.515 931.481 453.942C931.275 453.999 931.058 454.009 930.846 454.042Z"/>
		<path fill="#10130D" transform="matrix(8.30586 0 0 8.30586 -3831.47 -2919.61)" d="M1013.52 426.809C1015.6 426.197 1017.26 425.853 1019.39 426.417C1019.54 426.457 1019.69 426.505 1019.85 426.55C1020.03 426.297 1020.27 426.074 1020.41 425.793C1023.8 418.989 1024.94 422.354 1027.99 416.987C1029.63 417.234 1030.44 418.083 1031.63 419.134L1032.13 419.587C1034.07 418.857 1034.1 418.816 1035.11 417.011C1033.22 414.203 1030.81 413.511 1027.82 411.991C1027.47 407.377 1023.58 405.869 1022.34 401.79L1023.47 401.368C1025.06 403.013 1026.53 404.339 1028.48 405.538L1031.62 404.396L1030.6 402.505C1032.33 399.222 1036.69 397.51 1037.82 394.553L1035.53 392.097C1036 391.262 1036.52 390.545 1037.27 389.93C1039.11 388.43 1042.1 387.42 1044.43 387.595L1045.51 389.081L1046.58 388.982C1046.64 389.194 1046.72 389.406 1046.78 389.62C1048.1 394.191 1046.66 398.706 1048.4 403.151C1058.97 407.224 1090.58 388.3 1104.45 419.199C1108.01 427.117 1111.94 453.219 1108.57 461.254C1108.34 461.818 1108.04 462.312 1107.69 462.813C1109.36 467.523 1109.25 470.608 1107.11 475.137C1110.5 480.383 1108.89 487.468 1110.53 493.309C1112.75 501.193 1122.39 505.344 1121.73 514.382C1120.8 515.877 1120.34 517.017 1118.77 517.897C1109.73 522.956 1094.02 519.066 1084.55 516.517C1082.73 510.856 1076.44 508.616 1075.67 501.541C1074.6 491.633 1078.69 466.273 1075.53 459.232C1078.34 454.54 1077.56 450.02 1076.67 444.862C1078.06 441.803 1077.08 438.103 1075.96 435.066C1074.67 431.539 1072.48 429.89 1069.13 428.375C1064.86 426.439 1060.77 425.9 1056.38 427.69C1052.81 429.144 1050.17 431.598 1048.78 435.232C1044.53 446.416 1050.91 478.725 1047.66 484.982C1048.33 487.897 1048.22 488.396 1047.25 491.243C1049.95 494.468 1051.49 502.393 1050.9 506.566C1050.46 509.717 1048.24 512.664 1045.65 514.417C1037.41 520.005 1018.08 519.948 1008.5 517.824C1006.89 517.466 1005.79 517.031 1004.47 516.011C1003.54 513.065 1002.9 510.177 1002.36 507.136C1005.36 501.178 1010.99 496.825 1012.82 490.35C1015.08 469.646 1013.64 447.674 1013.52 426.809Z"/>
		<path fill="#12170F" transform="matrix(8.30586 0 0 8.30586 -3831.47 -2919.61)" d="M1084.13 499.609C1085.78 499.21 1087.17 499.017 1088.8 499.548C1090.83 500.207 1093.31 501.238 1094.13 503.366C1095.11 505.887 1094.85 506.807 1093.94 509.172L1092.32 509.756L1090.38 507.501L1089.59 506.722L1086.04 507.554L1084.54 505.976L1084.82 504.61C1086.86 504.486 1088.85 504.552 1090.69 503.576C1089.83 501.814 1086.21 501.155 1084.13 499.609Z"/>
		<path fill="#12170F" transform="matrix(8.30586 0 0 8.30586 -3831.47 -2919.61)" d="M1047.25 491.243C1046.75 489.998 1046.01 489.317 1044.72 488.776C1042.17 487.7 1041.06 488.163 1038.61 489.019C1036.49 492.357 1039.21 491.853 1039.38 495.52L1038.01 496.551C1035.5 494.389 1035.35 491.928 1032.78 489.478L1032.94 487.706C1034.93 488.078 1035.55 488.541 1037.33 487.502C1035.77 485.836 1035.22 485.351 1034.66 483.174L1036.48 480.591C1039.61 479.776 1039.92 481.918 1042.61 481.523L1043.14 478.973L1044.6 478.766C1044.56 480.871 1044.65 482.289 1045.43 484.255L1047.66 484.982C1048.33 487.897 1048.22 488.396 1047.25 491.243Z"/>
		<path fill="#12170F" transform="matrix(8.30586 0 0 8.30586 -3831.47 -2919.61)" d="M1012.82 490.35L1014.07 491.983L1017.54 491.811C1017.67 496.558 1016.5 504.046 1013.03 507.564C1011.17 509.445 1009.89 509.249 1007.46 509.159C1005.28 509.079 1004.06 508.463 1002.36 507.136C1005.36 501.178 1010.99 496.825 1012.82 490.35Z"/>
		<path fill="#12170F" transform="matrix(8.30586 0 0 8.30586 -3831.47 -2919.61)" d="M1076.67 444.862L1079.14 446.819L1080.74 446.486C1081.37 442.481 1079.08 437.3 1081.44 434.337C1083.59 433.689 1085.63 433.465 1087.69 434.598C1088.7 435.157 1089.61 436.021 1090.46 436.805C1090.99 436.375 1091.46 435.337 1091.83 434.745C1091.03 433.036 1090.96 432.05 1089.08 431.318C1087.79 430.82 1086.31 430.786 1084.95 430.678L1082.07 428.172L1082.26 427.103L1085.06 427.899C1088.67 425.464 1092.74 422.176 1097.37 423.089C1098.22 423.257 1098.9 424.292 1099.49 424.917C1099.73 427.464 1099.17 428.638 1097.8 430.76L1098.09 432.058C1096.42 432.41 1096.48 432.355 1094.99 431.504C1093.88 434.069 1093.08 436.104 1092.99 438.956L1093.78 440.491L1096.53 440.578L1097.41 441.96C1095.99 443.123 1093.58 443.699 1091.77 443.416C1091.54 443.38 1090.49 443.099 1090.42 443.097C1089.99 443.08 1089.42 443.294 1089 443.43L1087.64 446.351L1088.55 447.474Q1090.2 447.202 1091.85 446.968C1094.64 450.033 1095.09 452.721 1095.36 456.672L1094.45 458.421L1091.84 458.805C1089.64 456.534 1089.47 454.625 1089.43 451.456L1085.54 454.326L1083.82 453.894L1083.2 451.683L1081.29 451.806L1079.77 449.961L1079.72 450.568C1079.4 454.761 1078.58 456.414 1075.53 459.232C1078.34 454.54 1077.56 450.02 1076.67 444.862Z"/>
		<path fill="#12170F" transform="matrix(8.30586 0 0 8.30586 -3831.47 -2919.61)" d="M1107.11 475.137C1105.03 475.377 1103.86 475.591 1102.16 476.84C1101.77 480.112 1104.67 481.346 1105.36 484.571L1103.92 486.222C1103.29 486.411 1099.93 487.654 1099.48 487.551C1099.12 487.467 1098.06 485.066 1097.58 484.762C1096.59 484.142 1087.88 484.342 1085.58 483.775C1082.51 483.017 1080.76 482.058 1079.14 479.365Q1079.35 478.782 1079.55 478.195C1080.63 474.952 1080.13 474.04 1078.7 471.167C1078.92 468.108 1080.22 469.582 1082.29 467.508L1080.55 469.792L1082.16 469.495Q1086.29 473.149 1090.55 476.646C1090.86 472.8 1092.83 471.159 1095.12 468.192C1095.6 464.963 1092.19 465.127 1090.94 462.18C1096.92 460.299 1100.89 466.015 1105.44 465.176C1106.73 464.938 1107.01 463.862 1107.69 462.813C1109.36 467.523 1109.25 470.608 1107.11 475.137Z"/>
		<path fill="#10130D" transform="matrix(8.30586 0 0 8.30586 -3831.47 -2919.61)" d="M746.057 372.092C749.961 371.263 753.555 370.534 757.083 373.012C759.332 374.592 760.404 377.158 760.686 379.822C761.698 389.398 754.564 403.521 759.08 412.073C773.793 408.419 789.329 405.087 803.252 413.565C810.919 418.233 814.765 425.717 816.717 434.222C817.863 439.219 818.387 443.804 818.279 448.94Q818.139 467.742 817.489 486.534C813.873 487.862 813.756 489.959 811.964 493.298L809.582 494C804.576 490.128 809.498 484.39 807.106 479.785C805.481 480.518 805.015 480.963 803.227 480.624C799.851 477.241 795.069 474.684 792.659 470.701C791.022 467.995 789.31 466.981 786.329 466.257C786.324 458.16 787.974 445.226 781.622 439.166C779.108 436.768 776.024 435.986 772.65 436.093C768.173 436.235 763.667 437.494 760.586 440.903C754.937 447.151 755.502 457.753 756.063 465.604C756.984 478.512 758.252 491.237 758.329 504.196L758.909 511.283C759.444 513.931 760.176 516.861 760.259 519.554C760.325 521.671 759.706 523.118 758.328 524.663C753.522 530.052 742.71 530.87 735.847 531.334C729.74 531.747 717.995 532.69 713.342 528.265C711.534 526.545 711.721 523.895 712.582 521.734C714.637 516.579 718.053 511.928 720.217 506.768C725.016 495.321 723.942 478.731 723.465 466.568C722.625 454.09 723.198 441.256 723.237 428.736C721.07 421.486 722.65 410.341 721.471 402.407C719.431 400.143 716.876 397.645 715.812 394.742C714.932 392.343 714.836 389.303 716.014 387.013C719.181 380.857 729.182 378.437 735.187 376.272L746.057 372.092Z"/>
		<path transform="matrix(8.30586 0 0 8.30586 -3831.47 -2919.61)" d="M758.909 511.283L757.899 512.158C755.227 511.701 754.185 510.688 752.488 508.565C751.1 506.829 750.249 505.647 750.573 503.403C754.095 505.184 754.543 505.313 758.329 504.196L758.909 511.283Z"/>
		<path transform="matrix(8.30586 0 0 8.30586 -3831.47 -2919.61)" d="M748.457 428.688C750.752 429.026 752.612 428.315 754.512 429.728C753.083 432.097 751.659 432.609 749.293 433.929C746.334 433.556 744.78 433.412 742.522 431.424C744.04 429.062 745.817 429.293 748.457 428.688Z"/>
		<path fill="#12170F" transform="matrix(8.30586 0 0 8.30586 -3831.47 -2919.61)" d="M797.933 442.003C799.552 443.588 800.686 444.481 800.598 446.98C800.521 449.189 798.94 452.133 798.003 454.163L796.78 453.765C794.681 454.265 792.869 454.519 790.71 454.462L790.226 453.188L792.428 453.134L793.394 452.024L791.687 450.412C792.58 449.33 792.715 448.767 794.135 448.547L795.371 450.85L797.177 450.133L797.575 448.964C795.933 447.473 794.642 446.349 793.746 444.269C795.091 442.588 795.912 442.611 797.933 442.003Z"/>
		<path transform="matrix(8.30586 0 0 8.30586 -3831.47 -2919.61)" d="M740.262 511.7C741.345 512.128 742.384 513.614 743.194 514.479L742.986 516.651C741.083 519.007 739.43 521.484 736.513 522.612L736.231 519.635C734.696 520.347 734.21 522.868 733.577 524.449C731.672 521.347 731.487 520.752 728.604 518.529L730.377 516.875C729.856 515.755 729.853 515.048 729.905 513.823C732.191 513.563 734.915 514.384 737.276 514.522L740.262 511.7Z"/>
		<path transform="matrix(8.30586 0 0 8.30586 -3831.47 -2919.61)" d="M795.116 436.191C799.477 437.2 802.894 439.001 806.804 441.102C807.048 442.079 807.565 442.979 807.032 443.866C805.858 445.817 802.71 448.857 803.105 450.891C804.764 451.878 806.763 452.772 808 454.257L807.584 456.209C805.357 456.971 802.54 456.647 800.195 456.634L798.003 454.163C798.94 452.133 800.521 449.189 800.598 446.98C800.686 444.481 799.552 443.588 797.933 442.003L795.678 441.437C794.506 439.096 794.656 438.803 795.116 436.191Z"/>
		<path fill="#12170F" transform="matrix(8.30586 0 0 8.30586 -3831.47 -2919.61)" d="M735.187 376.272L746.057 372.092C745.4 376.164 743.704 380.323 745.198 384.288C746.061 384.885 746.54 384.956 747.54 384.926C750.487 384.837 752.5 384.971 755.299 385.962L756.564 387.686C753.702 390.942 746.209 388.711 744.6 391.878C745.028 395.487 745.919 397.818 744.229 401.093C742.099 402.075 742.135 401.949 739.906 401.151L738.167 398.798C738.348 397.658 738.604 396.908 739.157 395.895L738.389 395.286C735.033 392.588 733.012 389.905 732.523 385.517C734.211 384.147 735.615 383.745 737.708 383.221C738.744 381.862 740.067 380.649 740.23 378.932C738.329 380.06 736.511 381.132 734.45 381.956C735.355 380.422 736.28 378.897 737.127 377.331L735.187 376.272Z"/>
		<path fill="#12170F" transform="matrix(8.30586 0 0 8.30586 -3831.47 -2919.61)" d="M723.237 428.736C724.431 430.364 725.365 431.695 725.983 433.628L726.476 432.983C727.686 431.417 728.506 430.264 730.482 429.659C731.85 430.895 735.599 437.498 736.014 437.524C737.742 437.631 738.754 437.813 740.264 438.656L740.215 442.117L739.039 442.722C741.023 442.596 741.018 442.326 742.405 440.973C742.972 443.217 742.442 444.955 741.928 447.144L736.43 445.88L736.429 447.096C737.75 448.048 738.991 448.87 739.958 450.209C739.425 451.147 738.961 451.978 738.548 452.977C738.71 453.013 738.872 453.042 739.032 453.083C742.975 454.099 750.423 459.682 752.337 463.304C752.568 463.74 752.658 464.131 752.807 464.61L751.483 466.387L749.856 465.994C748.715 464.095 748.558 462.827 748.46 460.631C746.548 460.083 746.222 460.146 744.387 460.607L743.677 462.132L745.744 467.005C743.975 469.731 740.471 470.087 739.551 472.419C742.275 473.089 742.961 472.719 745.503 471.794L745.851 473.006C743.131 476.584 739.985 479.674 736.728 482.756L737.026 484.658L740.235 485.069L740.583 487.087C739.834 487.976 739.255 488.432 738.23 488.978C737.886 490.789 737.612 492.525 737.499 494.366L735.987 494.5C734.286 492.466 734.822 491.381 734.985 488.896L734.258 488.933L733.136 492.09C730.647 490.844 728.275 486.856 727.367 484.253L728.289 481.011C731.581 480.289 735.002 480.227 737.108 477.488C735.734 473.719 731.264 472.886 730.024 467.954C729.624 466.359 728.186 465.061 727.088 463.873L727.794 462.753C729.283 462.619 730.997 462.021 732.175 463.015C734.497 464.974 734.094 468.526 737.038 469.434L739.411 467.656C738.947 464.558 738.568 458.901 735.816 457.105C733.557 455.63 729.781 454.985 727.143 454.233C728.012 453.813 728.89 453.406 729.745 452.957L729.797 452.046C727.901 451.53 727.378 451.47 725.945 450.04C727.657 447.674 731.398 448.974 733.033 446.538C731.381 444.937 730.085 443.992 727.7 443.931C727.362 443.923 727.025 443.943 726.687 443.949C722.41 449.931 725.799 459.732 723.465 466.568C722.625 454.09 723.198 441.256 723.237 428.736Z"/>
		<path fill="#12170F" transform="matrix(8.30586 0 0 8.30586 -3831.47 -2919.61)" d="M759.08 412.073C773.793 408.419 789.329 405.087 803.252 413.565C810.919 418.233 814.765 425.717 816.717 434.222C817.863 439.219 818.387 443.804 818.279 448.94C815.73 448.491 813.871 448.022 811.366 448.988C810.214 450.307 809.498 451.525 808.737 453.101C808.365 453.872 808.552 453.554 808 454.257C806.763 452.772 804.764 451.878 803.105 450.891C802.71 448.857 805.858 445.817 807.032 443.866C807.565 442.979 807.048 442.079 806.804 441.102C802.894 439.001 799.477 437.2 795.116 436.191C793.674 435.602 792.901 434.579 791.837 433.476C789.802 434.648 789.305 434.84 786.967 434.879C786.679 433.966 786.423 432.954 785.725 432.264C784.555 431.105 783.857 431.455 782.353 431.536L783.991 433.716L783.824 434.853L782.168 435.118C780.009 433.894 779.176 433.054 778.229 430.75L779.032 428.856L782 428.581C779.7 424.687 772.725 426.992 768.75 423.422C769.433 419.946 773.231 418.226 775.353 415.261L774.753 414.076C769.502 413.641 764.323 412.651 759.08 412.073Z"/>
		<path transform="matrix(8.30586 0 0 8.30586 -3831.47 -2919.61)" d="M1085.77 540.838C1100.22 541.124 1116.5 540.002 1130.7 542.035C1142.02 542.107 1153.34 543.723 1164.66 544.305C1177.82 544.982 1191.85 544.547 1204.89 546.419Q1215.79 547.013 1226.7 547.196C1237.51 547.271 1309.44 551.005 1315.65 553.892C1318.74 553.931 1321.94 553.792 1324.99 554.303C1361.4 553.765 1398.01 560.585 1434.5 561.34C1439.45 561.442 1447.22 560.401 1451.67 561.872L1463.66 562.06L1462.46 564.03C1463.56 566.192 1463.69 566.562 1465.77 567.736L1468.08 567.221C1468.34 568.204 1468.64 568.621 1468.32 569.611C1467.91 570.897 1467.35 572.02 1467.79 573.361L1470.38 570.591C1471.46 571.298 1472.35 572.017 1473.3 572.888L1474.05 570.168C1476.36 569.935 1477.63 571.386 1479.48 572.667L1480.15 574.153L1478.01 575.855C1479.18 577.564 1479.56 577.815 1481.43 578.725C1482.98 577.942 1484.38 577.247 1486.07 576.823C1488.46 579.511 1487.8 580.521 1488.95 583.711C1469.46 584.937 1449.86 584.329 1430.4 585.843C1412.89 586.604 1394.46 582.25 1376.71 581.847L1373.5 581.851C1365.02 582.967 1352.94 580.047 1344.19 579.187C1329.47 577.739 1314.62 576.677 1299.86 575.711C1277.11 574.222 1254.3 573.565 1231.55 572.217C1221.6 571.628 1211.73 570.026 1201.78 569.547C1179.51 568.472 1157.21 569.083 1135.01 566.563C1127.26 565.638 1119.19 565.869 1111.38 565.702C1115.2 565.055 1118.66 562.399 1122.05 560.567C1118.67 558.718 1113.79 558.819 1109.97 558.453C1108.64 557.661 1108.1 556.984 1107.28 555.659C1107.19 555.514 1107.1 555.367 1107.02 555.221C1105.52 555.808 1104.84 556.339 1103.25 555.966L1103.67 552.626C1102.3 552.027 1100.96 552.47 1099.56 552.733L1101.01 555.441L1100.51 556.831L1098.36 557.381L1097.04 554.463C1093.69 555.951 1089.62 558.256 1086.06 557.006C1086.38 556.389 1086.7 555.769 1086.95 555.121C1087.88 552.78 1087.63 550.873 1086.61 548.642L1083.68 548.781C1082.54 547.381 1082.73 547.225 1082.78 545.496L1085.92 543.343L1085.77 540.838Z"/>
		<path fill="#12170F" transform="matrix(8.30586 0 0 8.30586 -3831.47 -2919.61)" d="M1282.67 555.501L1286.65 556.904C1288.05 558.809 1288.48 559.284 1288.73 561.598L1286.99 562.922L1283.21 562.238L1283.12 563.443L1282.16 564.001L1280.39 560.622C1281.28 559.718 1282.19 558.888 1283.14 558.054L1282.67 555.501Z"/>
		<path fill="#12170F" transform="matrix(8.30586 0 0 8.30586 -3831.47 -2919.61)" d="M1204.89 546.419Q1215.79 547.013 1226.7 547.196C1224.24 549.776 1218.48 547.653 1215.08 548.268C1213.08 548.63 1211.24 548.499 1209.23 548.375L1209.16 549.952L1211.82 552.404L1208.51 556.101C1205.04 554.603 1207.05 549.537 1204.89 546.419Z"/>
		<path fill="#12170F" transform="matrix(8.30586 0 0 8.30586 -3831.47 -2919.61)" d="M1169.39 548.497C1171.31 548.445 1173.04 549.28 1174.99 549.126C1175.61 549.077 1176.23 548.976 1176.85 548.96C1179.46 548.891 1181.99 550.422 1183.75 552.232L1182.01 553.161C1180.59 552.838 1179.14 552.51 1177.69 552.422C1175.2 552.27 1172.05 553.442 1170.25 555.145C1170.14 555.252 1170.03 555.367 1169.92 555.479C1171.72 556.696 1172.18 556.849 1173.06 558.911C1170.66 559.858 1169.17 558.973 1166.75 558.315L1166.32 557.112L1168.51 553.684C1166.43 552.808 1165.78 552.944 1164.84 550.818C1166.92 551.26 1167.17 551.503 1169.16 550.551L1169.39 548.497Z"/>
		<path fill="#12170F" transform="matrix(8.30586 0 0 8.30586 -3831.47 -2919.61)" d="M1373.5 581.851L1375.9 579.442C1374.1 578.109 1371.9 579.971 1370.4 578.478C1371.7 576.29 1372.66 574.028 1375.11 573.002L1376.74 568.213C1374.94 568.653 1373.87 569.999 1372.61 571.261C1370.26 571.291 1368.69 571.651 1366.63 570.36C1368.13 568.252 1369.85 566.304 1371.52 564.326L1370.53 560.646L1371.12 559.751L1373.08 559.844L1373.6 563.425L1374.94 564.206C1377.16 563.036 1377.26 562.892 1379.7 563.383C1381.69 565.727 1381.69 567.952 1382.1 570.867C1382.21 571.628 1382.45 572.28 1382.76 572.978L1385.12 574.437C1384.52 576.524 1384.56 576.587 1382.75 577.751L1378.84 575.834C1377.13 577.912 1377.14 579.249 1376.71 581.847L1373.5 581.851Z"/>
		<path fill="#12170F" transform="matrix(8.30586 0 0 8.30586 -3831.47 -2919.61)" d="M1315.65 553.892C1318.74 553.931 1321.94 553.792 1324.99 554.303C1325.77 559.253 1325.56 556.694 1328.57 559.617C1326.79 561.314 1325.43 562.075 1323.08 562.784L1319.5 560.226L1318.05 560.543L1317.9 562.012C1319.71 563.008 1320.93 563.531 1321.76 565.487C1321.41 567.963 1321.2 569.325 1319.35 571.164C1319.22 571.299 1319.08 571.425 1318.94 571.555L1319.74 571.939L1317.31 572.05L1317.84 568.491L1313.89 569.46L1315.06 570.084L1315.15 571.391C1313.11 572.188 1311.89 572.178 1309.76 571.766L1311.49 569.376C1310.73 566.915 1308.29 565.853 1306.23 564.359C1308.66 563.019 1310.61 561.242 1312.42 559.146C1313.78 557.568 1319.39 557.464 1321.61 557.264C1320.13 555.275 1317.91 554.828 1315.65 553.892Z"/>
		<path fill="#12170F" transform="matrix(8.30586 0 0 8.30586 -3831.47 -2919.61)" d="M1451.67 561.872L1463.66 562.06L1462.46 564.03C1463.56 566.192 1463.69 566.562 1465.77 567.736L1468.08 567.221C1468.34 568.204 1468.64 568.621 1468.32 569.611C1467.91 570.897 1467.35 572.02 1467.79 573.361L1470.38 570.591C1471.46 571.298 1472.35 572.017 1473.3 572.888L1474.05 570.168C1476.36 569.935 1477.63 571.386 1479.48 572.667L1480.15 574.153L1478.01 575.855C1479.18 577.564 1479.56 577.815 1481.43 578.725C1482.98 577.942 1484.38 577.247 1486.07 576.823C1488.46 579.511 1487.8 580.521 1488.95 583.711C1469.46 584.937 1449.86 584.329 1430.4 585.843C1431.04 585.281 1431.58 584.892 1432.38 584.595C1436.91 582.925 1438.15 579.018 1443.41 578.313C1446.66 579.345 1447.38 580.4 1449.68 582.838C1450.17 581.203 1450.19 581.039 1451.51 579.976L1456.1 580.812L1456.86 579.587C1455.58 576.985 1454.61 575.496 1452.27 573.687C1450.48 575.231 1452.4 577.046 1451.28 579.141C1449.17 577.745 1449.09 577.389 1448.14 575.016C1445.83 573.495 1441.74 574.34 1438.92 574.483C1438.56 572.898 1438.14 571.381 1437.62 569.841C1435.98 570 1435.06 570.27 1433.73 571.262C1433.61 571.349 1433.5 571.441 1433.38 571.53L1432.93 571.054C1433.82 569.316 1434.7 567.283 1435.98 565.809C1439.44 561.854 1444.2 569.566 1448.29 569.404L1447.83 567.003C1450.28 566.704 1451.99 566.556 1454.39 567.318L1453.59 568.893L1454.41 571.309C1455.83 571.535 1456.77 571.957 1458.04 572.585C1457.21 573.839 1456.61 574.757 1456.35 576.279C1456.9 576.476 1457.41 576.693 1458.01 576.652C1460.83 576.458 1461.47 575.494 1463.22 573.502C1463.69 571.262 1464.14 570.443 1463.26 568.282C1462.58 568.579 1461.78 568.978 1461.04 569.086C1459.08 569.372 1454.16 563.336 1451.67 561.872Z"/>
		<path fill="#12170F" transform="matrix(8.30586 0 0 8.30586 -3831.47 -2919.61)" d="M1085.77 540.838C1100.22 541.124 1116.5 540.002 1130.7 542.035C1130.72 542.191 1130.75 542.348 1130.77 542.504C1131.25 546.091 1131.17 548.757 1128.97 551.706C1127.79 553.284 1126.52 553.277 1124.98 554.116C1124.8 554.217 1124.67 554.392 1124.51 554.529L1128.83 555.924C1129.1 557.001 1128.98 557.848 1128.85 558.941C1130.94 560.863 1132.53 562.356 1135.62 562.035C1136.66 561.928 1137.63 561.55 1138.58 561.151C1138.66 559.469 1138.42 558.947 1137.58 557.575L1138.62 556.782L1143.56 560.581C1145.27 557.72 1142.99 553.827 1144.99 551.068L1145.87 551.528C1146.89 552.053 1147.82 552.324 1148.93 552.596C1151.22 551.74 1153.39 550.929 1155.49 549.644L1156.79 551.073C1156.29 553.13 1156.04 554.197 1153.94 555.228C1153.14 555.62 1150.18 555.001 1149.18 554.884C1149.65 555.633 1149.98 555.572 1150.78 555.871L1150.11 558.332L1149.28 558.654C1148.48 558.969 1147.93 559.308 1147.28 559.872C1149.13 561.119 1151 562.23 1152.97 563.29C1152.6 563.867 1152.44 564.565 1151.74 564.702C1146.76 565.677 1141.41 561.582 1136.41 564.575L1135.01 566.563C1127.26 565.638 1119.19 565.869 1111.38 565.702C1115.2 565.055 1118.66 562.399 1122.05 560.567C1118.67 558.718 1113.79 558.819 1109.97 558.453C1108.64 557.661 1108.1 556.984 1107.28 555.659C1107.19 555.514 1107.1 555.367 1107.02 555.221C1105.52 555.808 1104.84 556.339 1103.25 555.966L1103.67 552.626C1102.3 552.027 1100.96 552.47 1099.56 552.733L1101.01 555.441L1100.51 556.831L1098.36 557.381L1097.04 554.463C1093.69 555.951 1089.62 558.256 1086.06 557.006C1086.38 556.389 1086.7 555.769 1086.95 555.121C1087.88 552.78 1087.63 550.873 1086.61 548.642L1083.68 548.781C1082.54 547.381 1082.73 547.225 1082.78 545.496L1085.92 543.343L1085.77 540.838Z"/>
		<path transform="matrix(8.30586 0 0 8.30586 -3831.47 -2919.61)" d="M1177.89 402.196C1190.22 401.719 1205.12 404.546 1214.47 413.258C1217.49 416.071 1219.66 419.678 1221.73 423.208L1221.73 424.971C1225.07 428.333 1226.55 433.851 1226.54 438.505C1226.54 441.504 1226.52 445.005 1224.44 447.34L1223.8 448.073L1223.34 450.992L1220.73 452.855C1220.2 454.919 1220.05 455.78 1217.98 456.819C1216.93 457.347 1215.67 457.653 1214.54 457.983C1214.15 458.395 1213.52 459.284 1213.07 459.548C1207.2 462.937 1188.26 467.122 1180.78 469.633C1173.42 472.107 1166.98 475.504 1159.9 478.45L1160.46 479.011C1168.61 487.281 1168.88 495.248 1183.47 495.585C1196.88 495.894 1212.18 478.416 1222.19 484.25C1223.6 486.46 1224.63 488.518 1225.61 490.943C1225.92 490.202 1226.11 489.561 1226.2 488.756C1226.9 481.919 1228.29 476.442 1230.9 470.134C1232.11 469.804 1233.52 469.119 1234.72 469.471C1236.86 470.097 1241.55 470.154 1242.67 471.657C1240.7 473.522 1233.8 477.255 1233.63 479.471C1238.34 480.384 1243.11 478.997 1247.64 480.851L1248.1 482.16L1246.88 483.507L1249.2 485.144C1251.68 484.541 1252.59 483.407 1254.44 481.714L1255.11 482.458L1252.56 488.128C1256.04 493.403 1258.12 495.835 1256.84 502.502C1256.64 503.511 1256.24 504.168 1255.66 504.997C1258.11 506.313 1259.92 507.704 1261.95 509.569L1262.14 511.808C1259.08 514.981 1253.28 516.934 1251.69 520.883L1240.93 515.207C1236.98 510.94 1233.21 506.618 1229.57 502.088C1229.43 498.231 1228.23 496.468 1225.74 493.611C1226.36 499.678 1223.82 504.259 1220.06 508.912C1213.45 517.091 1200.9 521.191 1190.78 522.145C1178.43 523.309 1162.93 521.422 1152.64 514.155C1142.89 506.826 1128.83 493.852 1126.34 481.433C1125.28 476.13 1125.31 470.547 1122.89 465.614C1122.77 465.367 1122.64 465.124 1122.52 464.879C1125.48 460.031 1124.77 448.618 1126.01 442.528C1126.98 437.783 1128.72 433.266 1130.65 428.839C1133.23 423.829 1138.62 418.063 1142.59 414.042C1152.49 404.015 1164.52 402.342 1177.89 402.196ZM1178.69 423.758C1172.26 424.818 1165.67 426.876 1161.64 432.286C1159.82 434.731 1160.02 437.911 1158.11 440.141C1159.02 441.279 1159.63 442.837 1160.44 444.08C1163.36 448.537 1168.5 449.273 1173.33 450.263C1176.61 449.491 1179.75 448.669 1182.68 446.95C1186.72 444.582 1190.9 440.238 1191.93 435.53C1192.46 433.105 1191.96 430.633 1190.4 428.677C1187.53 425.059 1182.97 424.413 1178.69 423.758Z"/>
		<path fill="#12170F" transform="matrix(8.30586 0 0 8.30586 -3831.47 -2919.61)" d="M1214.54 457.983L1215.31 455.064C1214.07 454.152 1212.89 454.565 1211.39 454.645L1208.81 457.904L1207.04 457.042C1205.98 455.183 1205.11 454.313 1205.36 452.086C1207.62 452.573 1209.35 452.15 1211.55 451.613L1207.62 448.174L1207.66 445.903C1209.7 444.154 1209.82 444.142 1212.51 444.051C1215.09 446.505 1214.28 447.903 1215.75 450.892C1217.25 450.846 1218.62 450.174 1220 449.635L1221.07 450.228L1220.73 452.855C1220.2 454.919 1220.05 455.78 1217.98 456.819C1216.93 457.347 1215.67 457.653 1214.54 457.983Z"/>
		<path fill="#12170F" transform="matrix(8.30586 0 0 8.30586 -3831.47 -2919.61)" d="M1246.88 483.507L1249.2 485.144C1251.68 484.541 1252.59 483.407 1254.44 481.714L1255.11 482.458L1252.56 488.128C1256.04 493.403 1258.12 495.835 1256.84 502.502C1256.64 503.511 1256.24 504.168 1255.66 504.997L1254.33 506.02C1254.48 503.888 1254.06 502.495 1253.26 500.521C1253.16 500.297 1253.07 500.076 1252.98 499.853L1255.02 498.185L1254.39 497.158C1252.86 497.651 1251.41 498.319 1249.94 498.972L1248.77 497.902C1248.57 495.287 1248.6 493.353 1246.91 491.206C1243.04 490.304 1240.71 492.359 1236.87 492.721L1236.85 489.991C1235.77 489.584 1234.76 489.17 1233.73 488.633C1234.46 487.41 1234.95 487.293 1236.19 486.647L1238.92 488.708C1239.08 488.314 1239.25 487.855 1239.52 487.517C1240.96 485.674 1244.58 483.78 1246.88 483.507Z"/>
		<path fill="#12170F" transform="matrix(8.30586 0 0 8.30586 -3831.47 -2919.61)" d="M1221.73 424.971C1225.07 428.333 1226.55 433.851 1226.54 438.505C1226.54 441.504 1226.52 445.005 1224.44 447.34L1223.8 448.073L1223.55 446.583C1221.68 446.817 1220.78 446.741 1219.05 445.946C1219.49 444.561 1219.7 443.492 1219.77 442.04L1212.53 439.956C1212.21 439.187 1211.9 438.435 1211.65 437.639C1211.58 437.43 1211.52 437.219 1211.45 437.009C1210.01 437.498 1208.58 437.932 1207.1 438.327L1205.27 436.65L1205.49 434.968C1207.83 432.779 1212.29 433.077 1215.38 432.744C1219.12 432.341 1220.08 431.313 1222.36 428.473L1221.73 424.971Z"/>
		<path fill="#12170F" transform="matrix(8.30586 0 0 8.30586 -3831.47 -2919.61)" d="M1229.57 502.088C1230.19 500.259 1230.95 498.549 1230.67 496.588L1231.89 495.072C1234.31 495.74 1237.61 497.605 1239.82 496.157C1241.66 494.943 1242.69 493.527 1245.08 493.469L1246.52 494.913C1246.2 497.865 1246.42 497.992 1244.16 499.855C1242.71 500.05 1241.24 500.334 1239.78 500.319L1239.97 501.91L1242.97 503.628L1243.25 506.861C1244.81 506.578 1244.97 506.149 1246.02 505.028C1247.82 506.956 1247.91 507.305 1248.35 509.916C1247.35 512.218 1246.26 513.273 1244.25 514.754L1240.93 515.207C1236.98 510.94 1233.21 506.618 1229.57 502.088Z"/>
		<path fill="#12170F" transform="matrix(8.30586 0 0 8.30586 -3831.47 -2919.61)" d="M1122.52 464.879L1126.91 465.32C1127.88 464.514 1128.08 464.125 1128.36 462.957C1128.97 460.458 1132.55 454.857 1134.8 453.56C1136.09 452.818 1137.62 452.846 1139.05 453.214C1140.34 453.545 1141.84 454.631 1142.97 455.327C1143.79 462.235 1143.42 466.934 1147.96 472.514L1147.6 473.429C1146.07 473.356 1145 473.112 1143.55 472.617C1145.34 476.725 1147.78 481.076 1147.67 485.646L1146.5 487.432C1144.07 487.838 1142.26 487.268 1139.96 486.591L1138.03 488.617L1136.48 488.379L1135.24 485.986L1134.27 488.447C1135.59 491.399 1138.9 493.701 1141.9 495.066C1143.05 495.586 1144.39 495.543 1145.61 495.393C1146.11 496.444 1146.61 497.484 1147.04 498.564L1148.85 498.048L1150.17 502.907L1151.45 503.398C1153.36 501.895 1153.87 501.867 1154.18 499.391C1154.39 497.686 1154.25 495.935 1154.16 494.224L1155.82 493.522C1157.63 494.943 1156.75 495.93 1157.78 497.068C1161.62 501.289 1170.35 501.387 1173.67 506.984C1171.17 508.245 1166.68 509.856 1165.41 512.366L1166.57 515.049L1165.53 516.159C1161.71 515.531 1158.03 512.149 1154.34 512.563L1152.64 514.155C1142.89 506.826 1128.83 493.852 1126.34 481.433C1125.28 476.13 1125.31 470.547 1122.89 465.614C1122.77 465.367 1122.64 465.124 1122.52 464.879Z"/>
		<path fill="#12170F" transform="matrix(8.30586 0 0 8.30586 -3831.47 -2919.61)" d="M1130.65 428.839C1133.23 423.829 1138.62 418.063 1142.59 414.042C1152.49 404.015 1164.52 402.342 1177.89 402.196L1176.69 404.299L1178.72 406.51C1177.26 410.304 1176.78 411.615 1177.79 415.564L1178.77 416.206C1180.68 415.142 1182.9 413.295 1185.08 413.554C1186.52 415.028 1187.74 416.628 1189.81 417.143C1192.42 416.376 1192.54 416.306 1195.03 417.343L1194.59 418.138C1189.12 419.726 1182.4 419.406 1176.68 419.688L1175.57 422.299L1173.81 421.388C1175.55 422.952 1177.16 422.237 1178.69 423.758C1172.26 424.818 1165.67 426.876 1161.64 432.286C1159.82 434.731 1160.02 437.911 1158.11 440.141C1157.89 439.341 1157.73 439.318 1157.14 438.772C1156.01 438.897 1155.05 439.395 1154.03 439.86C1153.57 441.122 1153.1 442.381 1152.75 443.678L1152.55 444.422C1152.02 444.475 1151.86 444.502 1151.27 444.503C1147.62 444.514 1142.99 442.753 1140.39 440.189L1140.96 438.93L1143.26 438.121C1142.58 435.605 1142.67 435.291 1143.53 432.811C1140.43 432.615 1135.55 436.56 1132.52 438.104C1130.94 435.618 1133.11 432.794 1130.65 428.839Z"/>
		<path fill="#10130D" transform="matrix(8.30586 0 0 8.30586 -3831.47 -2919.61)" d="M516.808 396.215C526.213 384.846 555.19 376.562 569.665 375.148C583.28 373.818 597.609 374.917 611.316 374.955C642.259 375.039 674.142 375.06 704.815 370.859C708.54 373.778 712.142 376.381 712.548 381.527C713.015 387.443 708.117 392.561 704.424 396.566C700.635 397.599 683.022 400.457 681.677 402.824C679.441 406.759 678.738 411.556 678.298 416.01C677.058 428.568 676.562 491.356 679.201 501.53C681.047 508.643 691.209 515.096 689.189 522.946C687.043 526.097 683.95 527.758 680.236 528.492C671.207 530.277 648.296 528.69 640.476 523.638C638.546 522.392 638.194 521.515 637.795 519.332C636.071 509.884 642.984 498.199 643.784 488.591C644.55 479.397 642.892 407.312 639.17 404.627C636.093 402.406 632.996 401.364 629.245 400.861C622.122 399.907 614.812 401.356 607.629 401.125C593.972 400.687 580.023 397.528 566.398 399.838C551.932 402.29 541.349 410.142 529.28 417.709C528.684 416.074 528.271 414.806 527.008 413.576C525.226 416.183 523.771 417.875 521.044 419.57C519.597 419.147 518.833 418.615 517.692 417.627C516.774 416.832 513.322 416.959 511.981 416.848C510.615 415.04 516.864 410.05 518.014 407.794C520.12 403.665 515.315 402.868 515.768 401.028C516.299 398.872 516.866 398.823 516.808 396.215Z"/>
		<path fill="#12170F" transform="matrix(8.30586 0 0 8.30586 -3831.47 -2919.61)" d="M552.095 381.404C553.513 382.448 554.925 383.224 555.492 384.981C553.468 386.851 551.171 386.615 548.592 386.665C546.89 386.492 546.67 386.486 545.348 385.425C547.858 384.3 549.893 383.041 552.095 381.404Z"/>
		<path fill="#10130D" transform="matrix(8.30586 0 0 8.30586 -3831.47 -2919.61)" d="M1485.58 436.967L1486.41 436.49C1493.75 432.207 1497.65 425.686 1499.78 417.615C1502.88 405.84 1501.17 383.068 1512.76 376.282C1522.87 370.361 1543.58 374.781 1554.43 377.827C1580.81 385.23 1605.5 404.55 1618.9 428.436Q1619.49 429.505 1620.06 430.589Q1620.63 431.673 1621.17 432.771Q1621.71 433.868 1622.23 434.979Q1622.74 436.09 1623.23 437.213Q1623.71 438.336 1624.17 439.47Q1624.63 440.605 1625.06 441.751Q1625.49 442.897 1625.89 444.053Q1626.29 445.209 1626.66 446.374Q1627.03 447.54 1627.38 448.714Q1627.72 449.889 1628.04 451.071Q1628.35 452.254 1628.64 453.444Q1628.92 454.634 1629.18 455.831Q1629.43 457.027 1629.66 458.23Q1629.88 459.433 1630.08 460.641Q1630.27 461.849 1630.44 463.061Q1630.61 464.273 1630.74 465.49Q1630.88 466.706 1630.98 467.925Q1631.09 469.144 1631.16 470.365Q1631.24 471.587 1631.28 472.809Q1631.33 474.032 1631.34 475.256Q1631.36 476.479 1631.34 477.703Q1631.33 478.927 1631.28 480.149Q1631.24 481.372 1631.16 482.594Q1631.08 483.815 1630.98 485.034Q1630.87 486.253 1630.73 487.469Q1630.6 488.685 1630.43 489.897Q1630.26 491.109 1630.07 492.317Q1629.87 493.525 1629.64 494.728Q1629.42 495.93 1629.16 497.127Q1628.91 498.323 1628.62 499.513Q1628.33 500.703 1628.02 501.885Q1627.7 503.068 1627.36 504.242C1626.35 507.76 1625.35 511.168 1622.73 513.844C1623.36 516.408 1622.3 518.818 1621.03 521.026C1620.06 522.726 1618.83 524.321 1616.96 525.029L1616.23 527.08C1615.58 529.865 1615.06 531.715 1612.45 533.363C1612.01 533.64 1611.45 533.879 1610.99 534.095C1610.2 541.933 1597.05 552.085 1591.25 556.834C1561.64 581.088 1527.65 587.846 1490.16 583.855Q1489.55 583.792 1488.95 583.711C1487.8 580.521 1488.46 579.511 1486.07 576.823C1484.38 577.247 1482.98 577.942 1481.43 578.725C1479.56 577.815 1479.18 577.564 1478.01 575.855L1480.15 574.153L1479.48 572.667C1477.63 571.386 1476.36 569.935 1474.05 570.168L1473.3 572.888C1472.35 572.017 1471.46 571.298 1470.38 570.591L1467.79 573.361C1467.35 572.02 1467.91 570.897 1468.32 569.611C1468.64 568.621 1468.34 568.204 1468.08 567.221L1465.77 567.736C1463.69 566.562 1463.56 566.192 1462.46 564.03L1463.66 562.06C1486.16 559.479 1509.58 561.572 1531.85 557.415C1554.3 553.225 1577.91 540.427 1590.88 521.217C1602.65 503.794 1607.43 481.433 1603.42 460.75C1600.64 446.439 1592.03 429.423 1579.79 421.101C1578.34 419.082 1576.59 417.821 1574.62 416.377C1568.02 408.822 1547.56 400.464 1537.6 399.779C1534.42 399.561 1531.38 400.054 1528.97 402.355C1522.38 408.652 1523.62 421.539 1518.45 428.85C1519.01 430.849 1519.04 432.13 1518.61 434.159C1520.91 439.048 1521.6 446.874 1519.57 451.97C1519.22 452.87 1518.75 453.628 1518.18 454.396C1514.52 458.488 1510.58 461.783 1504.85 462.071C1499.78 462.327 1495.03 460.658 1491.35 457.128C1488.25 454.165 1485.89 450.654 1485.86 446.258C1485.85 443.379 1486.96 439.534 1485.58 436.967Z"/>
		<path transform="matrix(8.30586 0 0 8.30586 -3831.47 -2919.61)" d="M1595.54 410.5L1597.71 411.316C1599.12 413.595 1599.35 413.663 1598.93 416.272L1596.33 417.31C1595.3 415.918 1594.36 414.6 1593.58 413.049L1595.54 410.5Z"/>
		<path fill="#12170F" transform="matrix(8.30586 0 0 8.30586 -3831.47 -2919.61)" d="M1574.62 416.377L1577.02 414.886C1576.77 413.535 1576.59 412.962 1575.64 411.964C1577.66 410.873 1578.7 411.535 1580.85 412.209C1582.55 412.741 1583.68 413.543 1584.99 414.742C1585.18 416.054 1585.59 416.751 1584.77 417.886C1583.65 419.434 1581.47 420.273 1579.79 421.101C1578.34 419.082 1576.59 417.821 1574.62 416.377Z"/>
		<path fill="#12170F" transform="matrix(8.30586 0 0 8.30586 -3831.47 -2919.61)" d="M1494.55 564.493C1497.27 564.232 1503.03 565.066 1505.28 566.664C1505.9 568.945 1506.29 570.726 1508.11 572.397C1508.23 572.509 1508.35 572.612 1508.48 572.72C1508.51 574.049 1508.21 574.261 1507.46 575.389L1505.07 575.736C1502.29 574.441 1498.17 570.992 1497.02 568.159C1496.42 566.711 1496.03 566.112 1494.97 564.942L1494.55 564.493Z"/>
		<path fill="#12170F" transform="matrix(8.30586 0 0 8.30586 -3831.47 -2919.61)" d="M1518.61 434.159C1518.57 433.207 1518.21 432.505 1517.87 431.615C1515.08 432.864 1513.7 435.438 1512.08 437.884C1510.31 437.989 1509.34 437.955 1507.74 437.168L1507.61 435.419L1511.42 434.094C1509.69 432.675 1508.19 431.131 1506.65 429.514C1507.36 426.628 1507.83 423.37 1509.49 420.872L1511.4 421.302C1513.73 423.394 1515.71 425.071 1516.86 428.071C1516.94 428.27 1517 428.473 1517.07 428.674L1517.91 428.024L1517.78 429.006L1518.45 428.85C1519.01 430.849 1519.04 432.13 1518.61 434.159Z"/>
		<path fill="#12170F" transform="matrix(8.30586 0 0 8.30586 -3831.47 -2919.61)" d="M1610.99 534.095C1610.7 533.388 1610.41 532.703 1610.01 532.049C1609.48 531.202 1609.12 530.634 1608.85 529.643C1608.79 529.404 1608.75 529.16 1608.69 528.919C1607.27 528.484 1605.88 528.442 1604.41 528.359L1604.38 526.69C1605.24 526.453 1606.13 526.211 1606.95 525.842C1608.92 524.947 1609.9 524.566 1610.65 522.552L1607.74 522.532C1605.38 519.203 1603.41 516.315 1602.24 512.371C1603.85 512.193 1604.97 511.769 1606.43 511.082C1606.56 509.794 1606.64 508.339 1607.02 507.099C1607.6 505.203 1608.34 503.84 1610.06 502.851L1609.55 507.029C1610.45 509.326 1611.33 510.649 1613.15 512.321L1614.64 511.812C1615.04 510.687 1615.41 509.695 1615.5 508.496C1615.53 508.207 1615.54 507.917 1615.56 507.628L1616.93 506.96C1619.24 508.277 1619.82 510.82 1620.93 513.194L1622.73 513.844C1623.36 516.408 1622.3 518.818 1621.03 521.026C1620.06 522.726 1618.83 524.321 1616.96 525.029L1616.23 527.08C1615.58 529.865 1615.06 531.715 1612.45 533.363C1612.01 533.64 1611.45 533.879 1610.99 534.095Z"/>
		<path fill="#10130D" transform="matrix(8.30586 0 0 8.30586 -3831.47 -2919.61)" d="M1616.23 527.08C1615.26 526.257 1615.59 526.696 1615.01 525.586C1614.71 525.02 1614.44 524.467 1614.11 523.915C1612.84 521.781 1612.66 520.906 1612.69 518.42L1611.84 517.922L1609.84 520.075L1608.73 519.476C1608.73 517.504 1608.69 517.575 1610 516.1L1614.54 515.916C1614.77 516.241 1615.1 516.673 1615.26 517.034C1616.6 520.184 1617.27 521.602 1616.96 525.029L1616.23 527.08Z"/>
		<path fill="#10130D" transform="matrix(8.30586 0 0 8.30586 -3831.47 -2919.61)" d="M492.985 420.723L494.422 422.734C498.752 420.718 500.496 414.38 504.601 412.817L505.705 413.859C505.513 416.646 503.98 420.618 504.076 423.032C504.103 423.709 505.742 426.045 506.039 427.001C504.267 427.513 504.208 427.425 502.474 426.744C503.036 428.391 502.924 428.395 504.438 429.22L506.813 427.841C508.595 432.612 503.933 435.531 510.747 439.315C510.895 439.398 511.055 439.455 511.21 439.525C500.753 455.872 499.605 476.938 503.703 495.604C508.302 516.547 521.284 533.014 539.221 544.413C552.721 552.993 567.623 556.536 583.327 558.652L593.372 559.883L605.786 559.977L623.336 560.816L634.404 561.021Q698.602 560.24 762.492 553.91C769.253 553.719 776.134 552.686 782.867 551.973C792.52 550.83 802.459 550.604 812.172 549.854C856.537 546.427 900.954 545.576 945.357 543.296C952.795 542.642 960.182 541.938 967.656 542.032L971.404 542.008L976.018 543.351L976.594 544.962C974.671 546.276 973.653 544.794 972.225 545.425C971.254 545.855 967.907 555.602 965.49 557.784C965.674 559.248 966.01 560.448 966.523 561.829L964.183 565.579C921.033 568.693 877.717 569.834 834.513 572.172C813.589 573.304 791.439 577.1 770.56 575.971L769.207 577.062C739.27 577.648 709.406 582.218 679.494 583.812C660.85 584.806 642.133 584.197 623.491 584.299C610.222 584.372 597.046 585.575 583.765 584.813C557.983 583.334 530.677 571.955 511.596 554.568C497.253 541.499 478.727 517.541 477.756 497.331C475.088 490.209 474.503 475.432 476.559 468.21C475.524 454.034 484.004 431.636 492.985 420.723Z"/>
		<path transform="matrix(8.30586 0 0 8.30586 -3831.47 -2919.61)" d="M518.928 553.917C522.603 552.916 526.898 555.626 530.46 556.054C530.619 556.073 530.78 556.073 530.94 556.082L530.622 558.443L528.012 560.245C524.798 559.592 522.768 555.586 519.475 554.14C519.295 554.061 519.11 553.991 518.928 553.917Z"/>
		<path transform="matrix(8.30586 0 0 8.30586 -3831.47 -2919.61)" d="M769.207 577.062C768.083 576.713 766.847 576.356 765.831 575.751C764.021 574.674 763.021 573.005 762.54 571.017L763.409 569.758C766.083 569.14 766.273 569.034 768.741 570.178C770.349 572.589 771.024 572.984 770.56 575.971L769.207 577.062Z"/>
		<path fill="#12170F" transform="matrix(8.30586 0 0 8.30586 -3831.47 -2919.61)" d="M569.005 564.951L569.357 564.968C570.666 565.946 572.389 567.063 573.292 568.439C574.424 570.164 574.639 570.921 574.17 572.857L572.549 573.142L571.568 570.308C569.429 570.598 567.33 571.119 565.226 571.589C564.548 572.557 564.187 572.59 563.157 573.1L563.381 571.076C562.245 570.207 562.127 569.456 561.727 568.142L563.055 565.959Q564.904 566.543 566.777 567.049L569.005 564.951Z"/>
		<path fill="#12170F" transform="matrix(8.30586 0 0 8.30586 -3831.47 -2919.61)" d="M807.916 554.021C808.603 553.91 809.299 553.797 809.993 553.744C813.165 553.499 814.293 554.424 816.6 556.326C817.958 559.257 818.541 561.485 818.715 564.712C816.605 564.304 814.767 564.015 813.208 562.42C810.741 559.898 808.243 557.715 807.916 554.021Z"/>
		<path transform="matrix(8.30586 0 0 8.30586 -3831.47 -2919.61)" d="M583.327 558.652L593.372 559.883L597.363 563.127C597.392 565.656 596.939 566.107 595.56 568.28C593.76 566.259 592.565 564.494 589.746 564.037L590.032 564.389C588.794 563.727 587.318 562.846 585.897 562.675C582.995 562.327 582.382 562.982 580.16 564.621C581.43 562.482 580.258 562.256 580.535 560.001L581.864 559.308L581.604 559.872L583.327 558.652Z"/>
		<path transform="matrix(8.30586 0 0 8.30586 -3831.47 -2919.61)" d="M730.968 566.833C730.999 566.846 731.928 570.623 732.476 571.456C734.561 571.3 736.582 570.884 738.631 570.492L738.778 571.889C736.433 574.422 734.105 573.83 731.399 576.335L726.502 576.349L724.857 573.098C723.55 573.071 722.378 572.891 721.096 572.663L721.233 570.928C724.066 568.245 727.138 568.8 730.446 567.11C730.621 567.02 730.794 566.925 730.968 566.833Z"/>
		<path fill="#12170F" transform="matrix(8.30586 0 0 8.30586 -3831.47 -2919.61)" d="M945.357 543.296C952.795 542.642 960.182 541.938 967.656 542.032C965.76 542.56 962.613 542.989 961.044 544.072C963.592 544.803 965.607 544.841 967.238 547.011C965.822 548.177 965.601 548.787 963.632 548.549C962.371 548.397 961.169 547.85 959.999 547.376C958.378 548.301 957.814 548.81 956.871 550.42C958.274 550.963 959.455 551.033 960.932 551.092L961.858 551.923C960.394 553.199 958.409 553.31 956.558 553.625C956.669 554.402 956.588 555.006 957.11 555.609C957.919 556.546 958.475 557.197 958.8 558.427L956.232 558.536C953.566 556.05 952.397 552.869 952.236 549.271C952.163 547.647 952.317 546.33 952.841 544.791C950.37 544.318 947.774 543.978 945.357 543.296Z"/>
		<defs>
			<linearGradient id="gradient_1" gradientUnits="userSpaceOnUse" x1="579.12366" y1="572.22424" x2="588.86023" y2="562.79138">
				<stop offset="0" stop-color="#0C0F0B"/>
				<stop offset="1" stop-color="#161F12"/>
			</linearGradient>
		</defs>
		<path fill="url(#gradient_1)" transform="matrix(8.30586 0 0 8.30586 -3831.47 -2919.61)" d="M580.16 564.621C582.382 562.982 582.995 562.327 585.897 562.675C587.318 562.846 588.794 563.727 590.032 564.389L589.746 564.037C592.565 564.494 593.76 566.259 595.56 568.28C594.627 570.009 594.212 571.423 592.433 572.387C591.47 571.401 590.571 570.373 589.67 569.331L588.533 569.619L587.978 571.133L591.67 575.398L591.512 577.156C589.998 578.255 588.931 578.171 587.103 578.136C583.651 576.044 582.602 572.982 580.367 569.805L576.971 570.99L575.286 570.152L576.247 567.033L574.55 564.404L575.314 562.401L576.622 562.054L578.31 564.994L580.16 564.621Z"/>
		<path fill="#12170F" transform="matrix(8.30586 0 0 8.30586 -3831.47 -2919.61)" d="M605.786 559.977L623.336 560.816L634.404 561.021C633.651 561.776 632.789 562.29 632.646 563.359C632.208 566.658 630.646 569.166 628.993 571.997L627.699 572.148L627.466 571.757C626.774 570.612 626.103 569.712 625.171 568.753L624.369 569.623L625.14 573.353L623.902 574.526C617.244 570.803 618.256 570.934 610.398 572.201C609.388 573.232 608.971 573.91 608.45 575.215L607.339 574.03C607.517 571.892 608.469 570.652 609.652 568.908L607.501 568.128L609.159 568.096C609.038 567.945 608.915 567.795 608.796 567.643C607.785 566.349 607.251 565.657 607.142 564.008C605.58 562.376 605.84 562.146 605.786 559.977Z"/>
		<path transform="matrix(8.30586 0 0 8.30586 -3831.47 -2919.61)" d="M605.786 559.977L623.336 560.816L628.411 562.658C626.374 564.663 624.058 565.846 621.127 565.754C615.677 565.584 614.206 561.949 607.142 564.008C605.58 562.376 605.84 562.146 605.786 559.977Z"/>
		<path transform="matrix(8.30586 0 0 8.30586 -3831.47 -2919.61)" d="M476.559 468.21C476.801 468.161 477.044 468.115 477.286 468.062C480.825 467.283 482.986 464.558 486.521 464.555C488.543 466.266 488.45 466.726 489.028 469.36C488.613 470.508 488.677 470.859 487.574 471.424C485.466 472.504 481.984 471.737 479.677 471.488C479.959 472.255 479.939 472.678 480.626 473.15C482.106 474.164 482.629 474.836 483.43 476.405C483.91 477.345 484.577 477.985 485.304 478.738L488.357 479.586L487.235 478.649L486.867 480.738L488.209 482.103L486.409 481.96C485.039 483.595 484.975 484.114 484.607 486.244C488.591 486.939 491.853 486.153 495.432 488.208L494.705 491C491.378 491.538 490.372 489.835 487.629 493.559C486.742 494.763 486.007 496.112 485.279 497.416L484.846 497.558C482.887 495.883 482.617 495.704 480.068 495.408L477.756 497.331C475.088 490.209 474.503 475.432 476.559 468.21Z"/>
		<path fill="#12170F" transform="matrix(8.30586 0 0 8.30586 -3831.47 -2919.61)" d="M762.492 553.91C769.253 553.719 776.134 552.686 782.867 551.973C784.179 555.453 789.738 557.817 789.201 560.807L787.378 558.509C785.64 559.46 785.12 560.97 784.277 562.693L782.507 563.052C780.09 561.171 779.315 559.929 776.194 559.97C771.597 562.82 770.384 568.225 764.591 566.94C761.7 567.976 760.099 568.982 757.051 568.372C755.049 565.53 753.254 562.52 750.842 560.005L751.668 558.325C754.997 557.374 758.14 558.411 761.081 556.635L762.492 553.91Z"/>
	</g>
</svg>
