<?xml version="1.0" encoding="utf-8" ?>
<svg xmlns="http://www.w3.org/2000/svg" xmlns:xlink="http://www.w3.org/1999/xlink" width="7420" height="1406">
	<clipPath id="cl_b">
		<rect x="0.0013427734" y="-0.00024414062" width="7420.4722" height="1406.1638"/>
	</clipPath>
	<g clip-path="url(#cl_b)">
		<path fill="#100F10" transform="matrix(9.8091 0 0 9.8091 -1321.06 -4092.1)" d="M441.155 519.47C442.183 517.868 443.151 516.303 444.042 514.62C445.046 512.726 446.032 511.28 448.13 510.555C449.342 510.849 449.885 511.174 450.589 512.251C452.108 514.576 453.211 517.335 453.992 519.986C450.494 520.053 444.302 520.775 441.155 519.47Z"/>
		<path fill="#100F10" transform="matrix(9.8091 0 0 9.8091 -1321.06 -4092.1)" d="M182.976 437.832C195.719 427.516 215.624 428.169 230.965 429.789C240.639 430.811 254.418 434.531 263.71 433.741C267.956 433.379 277.026 429.838 280.61 431.925C281.452 433.251 281.799 434.054 281.396 435.628C280.998 437.18 280.322 438.635 279.615 440.066C279.55 440.027 279.479 439.997 279.421 439.949C278.032 438.808 276.64 437.995 275.079 437.11C259.219 440.244 243.332 436.856 227.675 433.976C224.382 433.37 219.587 435.054 216.987 433.237C217.179 433.102 217.351 432.931 217.564 432.832C217.863 432.692 218.193 432.628 218.507 432.526C214.277 431.859 207.913 433.857 204.369 431.722L204.902 430.973C196.772 429.246 188.177 437.815 182.976 437.832Z"/>
		<path fill="#1D1B1E" transform="matrix(9.8091 0 0 9.8091 -1321.06 -4092.1)" d="M182.976 437.832C188.177 437.815 196.772 429.246 204.902 430.973L204.369 431.722C207.913 433.857 214.277 431.859 218.507 432.526C218.193 432.628 217.863 432.692 217.564 432.832C217.351 432.931 217.179 433.102 216.987 433.237C219.587 435.054 224.382 433.37 227.675 433.976C243.332 436.856 259.219 440.244 275.079 437.11C276.64 437.995 278.032 438.808 279.421 439.949C279.479 439.997 279.55 440.027 279.615 440.066C277.82 443.238 275.884 446.285 273.299 448.883C264.469 457.755 253.231 457.434 241.651 457.502C231.412 475.643 234.88 508.906 224.71 530.656C221.026 538.536 214.627 544.631 206.4 547.591C197.189 550.905 186.228 550.2 177.438 546.056C174.965 544.89 170.859 542.931 170.061 540.12C169.718 538.912 170.71 537.917 171.641 537.327C173.353 536.243 175.963 535.778 177.919 535.134C185.664 532.584 191.84 527.831 195.697 520.579C198.211 515.851 199.594 510.404 200.845 505.23C205.115 487.559 206.339 471.272 217.134 455.787C206.867 454.88 193.776 454.766 184.125 458.932C180.777 460.377 178.196 463.378 174.501 463.971C173.306 463.625 172.803 463.607 172.279 462.333C171.057 459.36 172.159 454.057 173.045 450.984C174.455 446.096 178.454 440.368 182.976 437.832Z"/>
		<path fill="#1D1B1E" transform="matrix(9.8091 0 0 9.8091 -1321.06 -4092.1)" d="M453.992 519.986C453.861 524.303 453.821 527.763 452.145 531.897C448.808 540.132 440.622 546.901 432.486 550.094C421.728 554.317 408.396 553.952 397.835 549.28C387.982 544.921 380.77 537.674 376.978 527.582C372.731 516.278 372.622 502.373 379.49 492.049C381.168 489.527 384 487.873 385.248 485.15C385.289 481.309 382.66 477.723 381.391 474.174C378.549 466.224 380.478 458.077 384.104 450.78C388.586 441.761 396.14 434.383 405.796 431.171C415.101 428.076 426.007 428.728 434.742 433.244C440.922 436.44 447.085 442.01 449.072 448.853C450.306 453.105 449.65 457.533 447.418 461.341C446.331 463.195 445.016 465.3 442.822 465.846C438.646 464.797 435.666 459.21 432.329 456.542C428.747 453.679 424.738 452.701 420.203 453.261C415.423 453.851 410.636 455.72 407.626 459.641C405.638 462.231 404.671 466.082 405.127 469.312C407.152 483.659 431.082 476.572 435.456 479.922C437.185 483.304 436.608 488.481 436.319 492.173C436.148 494.355 435.721 498.832 433.508 500.068C430.832 501.563 423.479 499.942 420.369 499.707C414.569 499.268 408.977 500.66 404.579 504.653C401.841 507.14 400.002 510.683 399.991 514.426C399.98 518.083 401.718 521.143 404.307 523.629C408.629 527.779 414.477 529.842 420.429 529.709C428.804 529.523 435.516 525.285 441.155 519.47C444.302 520.775 450.494 520.053 453.992 519.986Z"/>
		<path fill="#1D1B1E" transform="matrix(9.8091 0 0 9.8091 -1321.06 -4092.1)" d="M764.991 430.215C780.605 430.152 798.895 428.387 813.531 434.684Q814.418 435.061 815.286 435.482Q816.153 435.903 816.999 436.367Q817.844 436.831 818.665 437.337Q819.486 437.842 820.281 438.388Q821.076 438.934 821.842 439.519Q822.609 440.104 823.345 440.727Q824.081 441.349 824.785 442.008Q825.49 442.667 826.16 443.36Q826.83 444.053 827.465 444.778Q828.1 445.504 828.698 446.26Q829.296 447.017 829.855 447.802Q830.415 448.588 830.934 449.4Q831.454 450.213 831.932 451.05Q832.41 451.887 832.846 452.748Q833.281 453.608 833.673 454.489Q834.065 455.37 834.413 456.269C840.755 472.268 836.129 488.607 822.717 499.23C820.825 500.728 816.267 502.58 815.39 504.607C815.657 509.361 822.343 520.459 825.866 523.849C836.211 533.8 839.45 523.861 846.89 523.814C847.493 524.149 847.983 524.251 848.287 524.916C849.365 527.274 848.123 530.391 847.463 532.738C846.728 534.699 846.063 536.693 845.246 538.622C843.049 543.809 839.563 548.085 834.183 550.148C827.915 552.551 819.966 551.674 813.933 548.913C810.33 547.265 806.928 544.764 804.392 541.705C798.623 534.746 793.032 519.925 789.94 511.22C782.498 510.503 764.887 512.537 759.103 508.993C757.816 507.181 757.531 505.226 757.345 503.04C756.634 494.683 757.33 485.927 757.258 477.52Q757.042 462.911 757.195 448.302C757.23 444.001 756.982 439.439 757.455 435.176C757.646 433.446 757.704 432.584 758.817 431.272C760.819 430.372 762.835 430.359 764.991 430.215ZM786.657 456.667C785.328 456.785 783.864 456.69 782.826 457.626C782.192 466.645 782.797 475.778 782.591 484.82C788.896 484.773 796.649 485.637 802.422 482.959C805.959 480.655 808.184 477.967 809.179 473.785C810.053 470.108 809.597 465.961 807.526 462.749C805.434 459.504 801.961 457.624 798.214 457.007C794.511 456.397 790.416 456.661 786.657 456.667Z"/>
		<path fill="#100F10" transform="matrix(9.8091 0 0 9.8091 -1321.06 -4092.1)" d="M799.279 438.264C800.474 438.652 800.661 438.816 801.519 439.746C801.872 441.168 801.635 441.84 801.223 443.196C799.971 442.494 798.801 441.812 797.67 440.918C797.719 439.456 798.312 439.269 799.279 438.264Z"/>
		<path fill="#100F10" transform="matrix(9.8091 0 0 9.8091 -1321.06 -4092.1)" d="M805.267 498.269C806.293 498.441 807.294 498.604 808.331 498.701C808.578 498.724 808.826 498.742 809.073 498.762C809.962 499.809 809.717 499.757 809.675 501.044C807.623 501.243 806.068 501.36 804.222 500.237L804.131 499.301L805.267 498.269Z"/>
		<path fill="#100F10" transform="matrix(9.8091 0 0 9.8091 -1321.06 -4092.1)" d="M814.251 444.316C814.786 444.504 815.274 444.755 815.781 445.009C817.228 445.734 818.296 446.213 818.82 447.799L817.937 449.104C816.628 449.29 815.409 449.574 814.13 449.097C813.3 448.787 813.347 448.43 813.004 447.699C813.234 446.301 813.559 445.515 814.251 444.316Z"/>
		<path fill="#1D1B1E" transform="matrix(9.8091 0 0 9.8091 -1321.06 -4092.1)" d="M502.603 430.206C505.97 430.096 519.524 428.738 521.682 431.155C523.009 432.64 523.329 435.06 523.516 436.968C524.04 442.333 523.475 448.169 523.307 453.571Q522.831 465.566 523.06 477.569C534.182 476.857 545.391 476.342 556.499 477.611C555.417 467.648 555.913 457.174 555.649 447.131C555.553 443.44 554.752 439.506 554.974 435.871C555.083 434.083 555.56 432.249 557.078 431.126C559.305 429.479 576.156 429.678 579.51 430.108C581.029 430.303 582.859 430.947 583.601 432.403C584.862 434.881 582.736 504.984 583.093 514.679C583.227 518.323 585.037 544.35 584.594 545.412C583.891 547.098 581.914 547.853 580.365 548.484C573.465 548.808 561.646 550.212 555.586 546.671C553.584 540.518 555.278 533.053 555.303 526.676C555.335 518.37 555.126 510.05 555.062 501.743C544.438 501.169 533.636 501.674 522.996 501.856Q522.781 512.595 523.093 523.331C523.318 530.122 524.904 539.761 523.469 546.101C522.809 547.114 522.252 547.67 521.093 548.103C517.518 549.437 500.385 549.022 497.315 547.243C496.576 546.815 496.614 546.323 496.487 545.546C495.369 538.67 496.471 520.594 496.445 512.7L496.385 467.709C496.296 457.514 495.852 447.229 496.175 437.037C496.237 435.104 496.031 433.13 497.121 431.508C498.825 430.524 500.687 430.439 502.603 430.206Z"/>
		<path fill="#100F10" transform="matrix(9.8091 0 0 9.8091 -1321.06 -4092.1)" d="M547.397 492.175C546.45 491.014 545.866 489.478 546.101 487.944C546.281 486.769 546.828 485.786 547.734 485.013C548.889 484.027 550.318 483.56 551.817 483.602C551.92 484.635 551.943 484.862 552.533 485.768C554.573 486.265 553.638 485.174 555.517 484.764L556.26 485.267C555.891 486.099 555.759 486.082 555.057 486.59L555.094 487.635L556.021 487.747C556.485 487.2 556.911 486.753 557.446 486.264C558.59 486.606 558.533 486.401 559.283 487.458C558.455 488.707 557.314 489.097 556.004 489.713C554.949 490.208 554.559 491.329 554.014 492.339L553.668 492.991L552.747 492.977C552.677 492.653 552.622 492.326 552.538 492.005C552.151 490.53 549.971 489.716 548.654 488.941C548.648 489.887 548.656 490.825 548.693 491.77C548.276 491.913 547.832 492.11 547.397 492.175Z"/>
		<path fill="#1D1B1E" transform="matrix(9.8091 0 0 9.8091 -1321.06 -4092.1)" d="M304.572 429.148Q305.744 429.03 306.92 428.966C311.839 428.679 325.378 430.044 328.717 433.968C329.566 434.965 329.51 435.274 329.452 436.498C326.939 440.768 320.934 441.089 317.111 444.093C307.537 451.615 305.849 468.755 304.672 480.152C313.811 479.838 322.89 479.496 332.038 479.723C333.748 470.531 335.377 461.142 338.568 452.325C341.389 444.528 346.361 435.044 354.364 431.522C361.738 428.276 370.404 428.601 377.772 431.789C380.398 432.925 381.75 434.267 382.743 436.929C382.701 437.361 382.768 437.818 382.616 438.225C381.743 440.562 370.82 445.823 367.121 455.965C365.177 461.294 364.257 467.196 363.082 472.737C359.45 489.872 354.445 522.553 345.665 536.44C341.185 543.526 335.275 547.621 327.102 549.444Q326.272 549.475 325.441 549.496C320.291 549.628 307.725 548.53 304.264 544.132C303.496 543.156 303.749 542.6 303.98 541.512C306.27 538.415 311.196 538.213 314.71 536.865L315.345 536.617C323.083 526.448 324.927 515.077 327.307 502.822C317.785 502.717 308.207 503.239 298.683 503.463C297.32 512.908 294.734 523.784 290.307 532.242C286.373 539.757 280.694 545.242 272.489 547.789C264.482 550.276 252.914 549.836 245.506 545.703C243.981 544.852 242.726 543.672 242.364 541.9C241.691 538.61 250.858 536.345 253.605 534.47C260.672 529.648 264.762 521.301 267.65 513.505C274.529 494.939 278.47 451.957 287.564 439.012C291.659 433.182 297.729 430.304 304.572 429.148Z"/>
		<path fill="#1D1B1E" transform="matrix(9.8091 0 0 9.8091 -1321.06 -4092.1)" d="M634.248 429.649C641.304 429.275 648.951 429.762 655.483 432.745C660.838 435.191 665.88 439.143 667.956 444.83C669.25 448.376 670.009 453.738 668.155 457.228C667.363 458.718 664.919 460.914 663.134 460.903C662.047 460.897 660.495 459.96 659.508 459.521C651.152 455.804 644.774 452.751 635.439 455.983C632.178 457.112 629.436 459.188 628.041 462.417C626.988 464.856 626.583 467.736 627.603 470.253C631.577 480.07 646.618 476.428 653.02 479.46C655.467 480.618 656.46 484.764 657.365 487.159C655.609 491.71 652.271 499.427 648.432 502.38C644.726 505.232 640.263 504.345 635.996 503.812C632.521 503.377 629.219 503.678 626.427 506.005C624.182 507.876 622.965 510.664 622.805 513.554C622.623 516.852 623.861 520.004 626.129 522.386C629.602 526.034 634.65 527.233 639.525 527.355C665.395 528.001 672.388 501.149 680.049 481.727L694.057 446.94C695.776 442.578 697.518 435.198 701.015 432.105C704.844 428.718 714.161 430.213 719.153 430.358Q727.583 450.699 736.491 470.835C740.577 480.488 767.572 541.56 766.398 548.161C763.87 549.319 744.752 549.539 742.528 548.294C738.263 545.908 732.849 528.617 731.029 523.68C717.092 523.585 703.198 523.166 689.268 522.781C687.175 527.014 684.767 530.989 681.783 534.658C673.242 545.165 660.803 551.309 647.385 552.529C633.327 553.807 619.598 552.378 608.466 543.015Q607.76 542.414 607.085 541.778Q606.41 541.142 605.767 540.473Q605.124 539.805 604.515 539.105Q603.906 538.406 603.333 537.677Q602.759 536.948 602.223 536.191Q601.686 535.435 601.188 534.652Q600.69 533.87 600.231 533.064Q599.772 532.258 599.353 531.431Q598.935 530.603 598.558 529.755Q598.182 528.908 597.847 528.043Q597.513 527.177 597.222 526.297Q596.931 525.416 596.685 524.522Q596.438 523.628 596.236 522.723Q596.033 521.818 595.876 520.904Q595.719 519.99 595.608 519.069Q595.497 518.148 595.431 517.223C594.498 504.377 600.286 494.69 608.424 485.316C605.498 480.77 602.944 476.617 601.861 471.236C600.095 462.455 601.579 452.597 606.694 445.158C613.15 435.766 623.442 431.632 634.248 429.649ZM709.251 468.912C704.672 478.244 702.943 488.887 698.492 498.359Q704.183 498.487 709.875 498.521L720.524 498.53C716.832 488.734 713.558 478.434 709.251 468.912Z"/>
		<path fill="#100F10" transform="matrix(9.8091 0 0 9.8091 -1321.06 -4092.1)" d="M712.4 514.739L713.221 514.918L713.198 515.807C711.93 517.159 710.301 517.132 708.522 517.562L708.263 517.528L707.52 516.498L707.661 515.629C708.999 514.717 710.829 514.846 712.4 514.739Z"/>
		<path fill="#100F10" transform="matrix(9.8091 0 0 9.8091 -1321.06 -4092.1)" d="M684.399 491.344C685.987 491.232 687.554 490.894 688.975 491.76L689.334 492.811C688.16 494.326 686.142 494.183 684.792 495.892C684.903 494.341 684.631 492.871 684.399 491.344Z"/>
		<path fill="#100F10" transform="matrix(9.8091 0 0 9.8091 -1321.06 -4092.1)" d="M703.501 505.065C704.421 504.983 705.573 505.092 706.377 505.642C706.913 506.009 707.062 506.233 707.455 506.691C708.955 506.194 710.704 505.317 712.219 505.001C712.231 505.717 712.215 506.357 712.157 507.064C710.795 508.019 708.744 510.004 707.11 509.91C706.568 508.817 706.24 508.198 705.236 507.486C703.985 508.171 703.124 508.672 701.647 508.68C700.62 507.694 700.674 507.536 700.431 506.111C701.131 506.049 701.861 506.614 702.486 506.925L703.297 506.635L703.501 505.065Z"/>
	</g>
</svg>
